<?xml version="1.0" encoding="UTF-8"?>
<!--Generator: Apple Native CoreSVG 123-->
<!DOCTYPE svg
PUBLIC "-//W3C//DTD SVG 1.1//EN"
       "http://www.w3.org/Graphics/SVG/1.1/DTD/svg11.dtd">
<svg version="1.1" xmlns="http://www.w3.org/2000/svg" xmlns:xlink="http://www.w3.org/1999/xlink" width="3300" height="2200">
 <!--glyph: "uni10012D.medium", point size: 100.000000, font version: "Version 15.0d7e11", template writer version: "5"-->
 <g id="Notes">
  <rect height="2200" id="artboard" style="fill:white;opacity:1" width="3300" x="0" y="0"/>
  <line id="" style="fill:none;stroke:black;opacity:1;stroke-width:0.5;" x1="263" x2="3036" y1="292" y2="292"/>
  <text style="stroke:none;fill:black;font-family:-apple-system,&quot;SF Pro Display&quot;,&quot;SF Pro Text&quot;,Helvetica,sans-serif;font-weight:bold;" transform="matrix(1 0 0 1 263 322)">Weight/Scale Variations</text>
  <text style="stroke:none;fill:black;font-family:-apple-system,&quot;SF Pro Display&quot;,&quot;SF Pro Text&quot;,Helvetica,sans-serif;text-anchor:middle;" transform="matrix(1 0 0 1 559.711 322)">Ultralight</text>
  <text style="stroke:none;fill:black;font-family:-apple-system,&quot;SF Pro Display&quot;,&quot;SF Pro Text&quot;,Helvetica,sans-serif;text-anchor:middle;" transform="matrix(1 0 0 1 856.422 322)">Thin</text>
  <text style="stroke:none;fill:black;font-family:-apple-system,&quot;SF Pro Display&quot;,&quot;SF Pro Text&quot;,Helvetica,sans-serif;text-anchor:middle;" transform="matrix(1 0 0 1 1153.13 322)">Light</text>
  <text style="stroke:none;fill:black;font-family:-apple-system,&quot;SF Pro Display&quot;,&quot;SF Pro Text&quot;,Helvetica,sans-serif;text-anchor:middle;" transform="matrix(1 0 0 1 1449.84 322)">Regular</text>
  <text style="stroke:none;fill:black;font-family:-apple-system,&quot;SF Pro Display&quot;,&quot;SF Pro Text&quot;,Helvetica,sans-serif;text-anchor:middle;" transform="matrix(1 0 0 1 1746.56 322)">Medium</text>
  <text style="stroke:none;fill:black;font-family:-apple-system,&quot;SF Pro Display&quot;,&quot;SF Pro Text&quot;,Helvetica,sans-serif;text-anchor:middle;" transform="matrix(1 0 0 1 2043.27 322)">Semibold</text>
  <text style="stroke:none;fill:black;font-family:-apple-system,&quot;SF Pro Display&quot;,&quot;SF Pro Text&quot;,Helvetica,sans-serif;text-anchor:middle;" transform="matrix(1 0 0 1 2339.98 322)">Bold</text>
  <text style="stroke:none;fill:black;font-family:-apple-system,&quot;SF Pro Display&quot;,&quot;SF Pro Text&quot;,Helvetica,sans-serif;text-anchor:middle;" transform="matrix(1 0 0 1 2636.69 322)">Heavy</text>
  <text style="stroke:none;fill:black;font-family:-apple-system,&quot;SF Pro Display&quot;,&quot;SF Pro Text&quot;,Helvetica,sans-serif;text-anchor:middle;" transform="matrix(1 0 0 1 2933.4 322)">Black</text>
  <line id="" style="fill:none;stroke:black;opacity:1;stroke-width:0.5;" x1="263" x2="3036" y1="1903" y2="1903"/>
  <g id="" transform="matrix(1 0 0 1 263 1933)">
   <path d="M 9.24805 0.830078 C 13.5547 0.830078 17.1387 -2.74414 17.1387 -7.05078 C 17.1387 -11.3574 13.5449 -14.9316 9.23828 -14.9316 C 4.94141 -14.9316 1.36719 -11.3574 1.36719 -7.05078 C 1.36719 -2.74414 4.95117 0.830078 9.24805 0.830078 Z M 9.24805 -0.654297 C 5.70312 -0.654297 2.87109 -3.49609 2.87109 -7.05078 C 2.87109 -10.6055 5.69336 -13.4473 9.23828 -13.4473 C 12.793 -13.4473 15.6348 -10.6055 15.6445 -7.05078 C 15.6543 -3.49609 12.8027 -0.654297 9.24805 -0.654297 Z M 9.22852 -3.42773 C 9.69727 -3.42773 9.9707 -3.74023 9.9707 -4.25781 L 9.9707 -6.31836 L 12.1973 -6.31836 C 12.6953 -6.31836 13.0371 -6.57227 13.0371 -7.04102 C 13.0371 -7.51953 12.7148 -7.7832 12.1973 -7.7832 L 9.9707 -7.7832 L 9.9707 -10.0098 C 9.9707 -10.5273 9.69727 -10.8496 9.22852 -10.8496 C 8.75977 -10.8496 8.50586 -10.5078 8.50586 -10.0098 L 8.50586 -7.7832 L 6.29883 -7.7832 C 5.78125 -7.7832 5.44922 -7.51953 5.44922 -7.04102 C 5.44922 -6.57227 5.80078 -6.31836 6.29883 -6.31836 L 8.50586 -6.31836 L 8.50586 -4.25781 C 8.50586 -3.75977 8.75977 -3.42773 9.22852 -3.42773 Z"/>
  </g>
  <g id="" transform="matrix(1 0 0 1 281.506 1933)">
   <path d="M 11.709 2.91016 C 17.1582 2.91016 21.6699 -1.60156 21.6699 -7.05078 C 21.6699 -12.4902 17.1484 -17.0117 11.6992 -17.0117 C 6.25977 -17.0117 1.74805 -12.4902 1.74805 -7.05078 C 1.74805 -1.60156 6.26953 2.91016 11.709 2.91016 Z M 11.709 1.25 C 7.09961 1.25 3.41797 -2.44141 3.41797 -7.05078 C 3.41797 -11.6504 7.08984 -15.3516 11.6992 -15.3516 C 16.3086 -15.3516 20 -11.6504 20.0098 -7.05078 C 20.0195 -2.44141 16.3184 1.25 11.709 1.25 Z M 11.6895 -2.41211 C 12.207 -2.41211 12.5195 -2.77344 12.5195 -3.33984 L 12.5195 -6.23047 L 15.5762 -6.23047 C 16.123 -6.23047 16.5039 -6.51367 16.5039 -7.03125 C 16.5039 -7.55859 16.1426 -7.86133 15.5762 -7.86133 L 12.5195 -7.86133 L 12.5195 -10.9277 C 12.5195 -11.5039 12.207 -11.8555 11.6895 -11.8555 C 11.1719 -11.8555 10.8789 -11.4844 10.8789 -10.9277 L 10.8789 -7.86133 L 7.83203 -7.86133 C 7.26562 -7.86133 6.89453 -7.55859 6.89453 -7.03125 C 6.89453 -6.51367 7.28516 -6.23047 7.83203 -6.23047 L 10.8789 -6.23047 L 10.8789 -3.33984 C 10.8789 -2.79297 11.1719 -2.41211 11.6895 -2.41211 Z"/>
  </g>
  <g id="" transform="matrix(1 0 0 1 304.924 1933)">
   <path d="M 14.9707 5.67383 C 21.9336 5.67383 27.6953 -0.078125 27.6953 -7.04102 C 27.6953 -14.0039 21.9238 -19.7559 14.9609 -19.7559 C 8.00781 -19.7559 2.25586 -14.0039 2.25586 -7.04102 C 2.25586 -0.078125 8.01758 5.67383 14.9707 5.67383 Z M 14.9707 3.85742 C 8.93555 3.85742 4.08203 -1.00586 4.08203 -7.04102 C 4.08203 -13.0762 8.92578 -17.9395 14.9609 -17.9395 C 21.0059 -17.9395 25.8594 -13.0762 25.8691 -7.04102 C 25.8789 -1.00586 21.0156 3.85742 14.9707 3.85742 Z M 14.9512 -1.06445 C 15.5176 -1.06445 15.8691 -1.45508 15.8691 -2.06055 L 15.8691 -6.13281 L 20.1074 -6.13281 C 20.6934 -6.13281 21.1133 -6.46484 21.1133 -7.02148 C 21.1133 -7.59766 20.7227 -7.93945 20.1074 -7.93945 L 15.8691 -7.93945 L 15.8691 -12.1875 C 15.8691 -12.8027 15.5176 -13.1934 14.9512 -13.1934 C 14.3848 -13.1934 14.0625 -12.7832 14.0625 -12.1875 L 14.0625 -7.93945 L 9.83398 -7.93945 C 9.21875 -7.93945 8.80859 -7.59766 8.80859 -7.02148 C 8.80859 -6.46484 9.23828 -6.13281 9.83398 -6.13281 L 14.0625 -6.13281 L 14.0625 -2.06055 C 14.0625 -1.47461 14.3848 -1.06445 14.9512 -1.06445 Z"/>
  </g>
  <text style="stroke:none;fill:black;font-family:-apple-system,&quot;SF Pro Display&quot;,&quot;SF Pro Text&quot;,Helvetica,sans-serif;font-weight:bold;" transform="matrix(1 0 0 1 263 1953)">Design Variations</text>
  <text style="stroke:none;fill:black;font-family:-apple-system,&quot;SF Pro Display&quot;,&quot;SF Pro Text&quot;,Helvetica,sans-serif;" transform="matrix(1 0 0 1 263 1971)">Symbols are supported in up to nine weights and three scales.</text>
  <text style="stroke:none;fill:black;font-family:-apple-system,&quot;SF Pro Display&quot;,&quot;SF Pro Text&quot;,Helvetica,sans-serif;" transform="matrix(1 0 0 1 263 1989)">For optimal layout with text and other symbols, vertically align</text>
  <text style="stroke:none;fill:black;font-family:-apple-system,&quot;SF Pro Display&quot;,&quot;SF Pro Text&quot;,Helvetica,sans-serif;" transform="matrix(1 0 0 1 263 2007)">symbols with the adjacent text.</text>
  <rect height="14" id="" style="fill:#00AEEF;stroke:none;opacity:0.4;" width="3" x="776" y="1919"/>
  <g id="" transform="matrix(1 0 0 1 779 1933)">
   <path d="M 10.5273 0 L 12.373 0 L 7.17773 -14.0918 L 5.43945 -14.0918 L 0.244141 0 L 2.08984 0 L 3.50586 -4.0332 L 9.11133 -4.0332 Z M 6.2793 -11.9531 L 6.33789 -11.9531 L 8.59375 -5.52734 L 4.02344 -5.52734 Z"/>
  </g>
  <rect height="14" id="" style="fill:#00AEEF;stroke:none;opacity:0.4;" width="3" x="791.617" y="1919"/>
  <text style="stroke:none;fill:black;font-family:-apple-system,&quot;SF Pro Display&quot;,&quot;SF Pro Text&quot;,Helvetica,sans-serif;font-weight:bold;" transform="matrix(1 0 0 1 776 1953)">Margins</text>
  <text style="stroke:none;fill:black;font-family:-apple-system,&quot;SF Pro Display&quot;,&quot;SF Pro Text&quot;,Helvetica,sans-serif;" transform="matrix(1 0 0 1 776 1971)">Leading and trailing margins on the left and right side of each symbol</text>
  <text style="stroke:none;fill:black;font-family:-apple-system,&quot;SF Pro Display&quot;,&quot;SF Pro Text&quot;,Helvetica,sans-serif;" transform="matrix(1 0 0 1 776 1989)">can be adjusted by modifying the width of the blue rectangles.</text>
  <text style="stroke:none;fill:black;font-family:-apple-system,&quot;SF Pro Display&quot;,&quot;SF Pro Text&quot;,Helvetica,sans-serif;" transform="matrix(1 0 0 1 776 2007)">Modifications are automatically applied proportionally to all</text>
  <text style="stroke:none;fill:black;font-family:-apple-system,&quot;SF Pro Display&quot;,&quot;SF Pro Text&quot;,Helvetica,sans-serif;" transform="matrix(1 0 0 1 776 2025)">scales and weights.</text>
  <g id="" transform="matrix(1 0 0 1 1289 1933)">
   <path d="M 2.83203 3.11523 L 4.375 4.6582 C 5.22461 5.48828 6.19141 5.41992 7.06055 4.46289 L 17.2754 -6.66016 C 17.7051 -6.36719 18.0957 -6.37695 18.5645 -6.47461 L 19.6094 -6.68945 L 20.3027 -5.99609 L 20.2539 -5.47852 C 20.1855 -4.95117 20.3516 -4.53125 20.8496 -4.0332 L 21.6602 -3.22266 C 22.168 -2.71484 22.8223 -2.68555 23.3008 -3.16406 L 26.5527 -6.41602 C 27.0312 -6.89453 27.0117 -7.54883 26.5039 -8.05664 L 25.6836 -8.87695 C 25.1855 -9.375 24.7754 -9.55078 24.2383 -9.47266 L 23.7109 -9.41406 L 23.0566 -10.0781 L 23.3398 -11.2207 C 23.4863 -11.7871 23.3398 -12.2559 22.7148 -12.8613 L 20.3027 -15.2539 C 16.7578 -18.7793 12.2266 -18.6719 9.11133 -15.5371 C 8.69141 -15.1074 8.64258 -14.5215 8.91602 -14.0918 C 9.15039 -13.7207 9.62891 -13.4961 10.2734 -13.6621 C 11.7871 -14.043 13.3008 -13.9258 14.7852 -12.9199 L 14.1602 -11.3379 C 13.9258 -10.752 13.9453 -10.2734 14.1797 -9.83398 L 3.01758 0.439453 C 2.08008 1.30859 1.97266 2.25586 2.83203 3.11523 Z M 10.6738 -15.1465 C 13.3398 -17.1387 16.6504 -16.8262 19.0527 -14.4141 L 21.6797 -11.8066 C 21.9141 -11.5723 21.9434 -11.3867 21.8848 -11.0938 L 21.5039 -9.53125 L 23.0762 -7.95898 L 24.043 -8.04688 C 24.3262 -8.07617 24.4141 -8.05664 24.6387 -7.83203 L 25.2637 -7.20703 L 22.5098 -4.46289 L 21.8848 -5.07812 C 21.6602 -5.30273 21.6406 -5.40039 21.6699 -5.68359 L 21.7578 -6.64062 L 20.1953 -8.20312 L 18.5742 -7.89062 C 18.291 -7.83203 18.1445 -7.83203 17.9102 -8.07617 L 15.7324 -10.2539 C 15.5078 -10.4883 15.4785 -10.625 15.6055 -10.9473 L 16.5527 -13.2227 C 14.9512 -14.7559 12.8418 -15.6055 10.8008 -14.9512 C 10.7129 -14.9219 10.6445 -14.9414 10.6152 -14.9805 C 10.5859 -15.0293 10.5859 -15.0781 10.6738 -15.1465 Z M 4.10156 2.41211 C 3.61328 1.91406 3.78906 1.61133 4.12109 1.30859 L 15.0781 -8.80859 L 16.3086 -7.57812 L 6.15234 3.34961 C 5.84961 3.68164 5.46875 3.7793 5.06836 3.37891 Z"/>
  </g>
  <text style="stroke:none;fill:black;font-family:-apple-system,&quot;SF Pro Display&quot;,&quot;SF Pro Text&quot;,Helvetica,sans-serif;font-weight:bold;" transform="matrix(1 0 0 1 1289 1953)">Exporting</text>
  <text style="stroke:none;fill:black;font-family:-apple-system,&quot;SF Pro Display&quot;,&quot;SF Pro Text&quot;,Helvetica,sans-serif;" transform="matrix(1 0 0 1 1289 1971)">Symbols should be outlined when exporting to ensure the</text>
  <text style="stroke:none;fill:black;font-family:-apple-system,&quot;SF Pro Display&quot;,&quot;SF Pro Text&quot;,Helvetica,sans-serif;" transform="matrix(1 0 0 1 1289 1989)">design is preserved when submitting to Xcode.</text>
  <text id="template-version" style="stroke:none;fill:black;font-family:-apple-system,&quot;SF Pro Display&quot;,&quot;SF Pro Text&quot;,Helvetica,sans-serif;text-anchor:end;" transform="matrix(1 0 0 1 3036 1933)">Template v.1.0</text>
  <text style="stroke:none;fill:black;font-family:-apple-system,&quot;SF Pro Display&quot;,&quot;SF Pro Text&quot;,Helvetica,sans-serif;text-anchor:end;" transform="matrix(1 0 0 1 3036 1951)">Generated from arrow.right.arrow.left</text>
  <text style="stroke:none;fill:black;font-family:-apple-system,&quot;SF Pro Display&quot;,&quot;SF Pro Text&quot;,Helvetica,sans-serif;text-anchor:end;" transform="matrix(1 0 0 1 3036 1969)">Typeset at 100 points</text>
  <text style="stroke:none;fill:black;font-family:-apple-system,&quot;SF Pro Display&quot;,&quot;SF Pro Text&quot;,Helvetica,sans-serif;" transform="matrix(1 0 0 1 263 726)">Small</text>
  <text style="stroke:none;fill:black;font-family:-apple-system,&quot;SF Pro Display&quot;,&quot;SF Pro Text&quot;,Helvetica,sans-serif;" transform="matrix(1 0 0 1 263 1156)">Medium</text>
  <text style="stroke:none;fill:black;font-family:-apple-system,&quot;SF Pro Display&quot;,&quot;SF Pro Text&quot;,Helvetica,sans-serif;" transform="matrix(1 0 0 1 263 1586)">Large</text>
 </g>
 <g id="Guides">
  <g id="H-reference" style="fill:#27AAE1;stroke:none;" transform="matrix(1 0 0 1 339 696)">
   <path d="M 54.9316 0 L 57.666 0 L 30.5664 -70.459 L 28.0762 -70.459 L 0.976562 0 L 3.66211 0 L 12.9395 -24.4629 L 45.7031 -24.4629 Z M 29.1992 -67.0898 L 29.4434 -67.0898 L 44.8242 -26.709 L 13.8184 -26.709 Z"/>
  </g>
  <line id="Baseline-S" style="fill:none;stroke:#27AAE1;opacity:1;stroke-width:0.577;" x1="263" x2="3036" y1="696" y2="696"/>
  <line id="Capline-S" style="fill:none;stroke:#27AAE1;opacity:1;stroke-width:0.577;" x1="263" x2="3036" y1="625.541" y2="625.541"/>
  <g id="H-reference" style="fill:#27AAE1;stroke:none;" transform="matrix(1 0 0 1 339 1126)">
   <path d="M 54.9316 0 L 57.666 0 L 30.5664 -70.459 L 28.0762 -70.459 L 0.976562 0 L 3.66211 0 L 12.9395 -24.4629 L 45.7031 -24.4629 Z M 29.1992 -67.0898 L 29.4434 -67.0898 L 44.8242 -26.709 L 13.8184 -26.709 Z"/>
  </g>
  <line id="Baseline-M" style="fill:none;stroke:#27AAE1;opacity:1;stroke-width:0.577;" x1="263" x2="3036" y1="1126" y2="1126"/>
  <line id="Capline-M" style="fill:none;stroke:#27AAE1;opacity:1;stroke-width:0.577;" x1="263" x2="3036" y1="1055.54" y2="1055.54"/>
  <g id="H-reference" style="fill:#27AAE1;stroke:none;" transform="matrix(1 0 0 1 339 1556)">
   <path d="M 54.9316 0 L 57.666 0 L 30.5664 -70.459 L 28.0762 -70.459 L 0.976562 0 L 3.66211 0 L 12.9395 -24.4629 L 45.7031 -24.4629 Z M 29.1992 -67.0898 L 29.4434 -67.0898 L 44.8242 -26.709 L 13.8184 -26.709 Z"/>
  </g>
  <line id="Baseline-L" style="fill:none;stroke:#27AAE1;opacity:1;stroke-width:0.577;" x1="263" x2="3036" y1="1556" y2="1556"/>
  <line id="Capline-L" style="fill:none;stroke:#27AAE1;opacity:1;stroke-width:0.577;" x1="263" x2="3036" y1="1485.54" y2="1485.54"/>
  <rect height="119.336" id="left-margin" style="fill:#00AEEF;stroke:none;opacity:0.4;" width="12.4512" x="1391.25" y="1030.79"/>
  <rect height="119.336" id="right-margin" style="fill:#00AEEF;stroke:none;opacity:0.4;" width="12.4512" x="1495.99" y="1030.79"/>
 </g>
 <g id="Symbols">
  <g id="Black-L" transform="matrix(1 0 0 1 2856.45 1556)">
   <path d="M 137.842 -67.9688 C 137.842 -74.8047 133.057 -79.3945 125.83 -79.3945 L 64.7949 -79.3945 L 51.0254 -78.7598 L 58.8867 -85.0098 L 68.1641 -93.9941 C 70.2637 -96.0938 71.875 -98.584 71.875 -102.148 C 71.875 -108.301 67.4316 -112.988 60.8398 -112.988 C 57.9102 -112.988 54.9805 -111.719 52.6855 -109.424 L 19.3848 -76.3672 C 17.334 -74.3164 16.0645 -71.0449 16.0645 -67.9688 C 16.0645 -64.8926 17.334 -61.6211 19.3848 -59.5703 L 52.6855 -26.5625 C 54.9805 -24.2676 57.9102 -22.998 60.8398 -22.998 C 67.4316 -22.998 71.875 -27.6855 71.875 -33.8379 C 71.875 -37.4023 70.2637 -39.8926 68.1641 -41.9922 L 58.8867 -50.9277 L 51.0254 -57.1777 L 64.7949 -56.543 L 125.83 -56.543 C 133.057 -56.543 137.842 -61.084 137.842 -67.9688 Z M 137.842 -2.39258 C 137.842 -5.46875 136.572 -8.78906 134.521 -10.791 L 101.221 -43.8477 C 98.9258 -46.1426 95.9961 -47.4121 93.0176 -47.4121 C 86.4258 -47.4121 82.0312 -42.7246 82.0312 -36.5723 C 82.0312 -33.0078 83.6426 -30.5176 85.7422 -28.418 L 95.0195 -19.4336 L 102.881 -13.1836 L 89.1113 -13.8184 L 28.0762 -13.8184 C 20.8496 -13.8184 16.0645 -9.27734 16.0645 -2.39258 C 16.0645 4.44336 20.8496 9.0332 28.0762 9.0332 L 89.1113 9.0332 L 102.881 8.39844 L 95.0195 14.6484 L 85.7422 23.584 C 83.6426 25.6348 82.0312 28.1738 82.0312 31.7383 C 82.0312 37.8906 86.4258 42.5293 93.0176 42.5293 C 95.9961 42.5293 98.9258 41.2598 101.221 39.0137 L 134.521 6.00586 C 136.572 3.95508 137.842 0.683594 137.842 -2.39258 Z"/>
  </g>
  <g id="Heavy-L" transform="matrix(1 0 0 1 2560.13 1556)">
   <path d="M 137.061 -67.4805 C 137.061 -73.3887 132.91 -77.3438 126.758 -77.3438 L 60.1074 -77.3438 L 46.0449 -76.709 L 55.0781 -84.082 L 66.6504 -95.4102 C 68.5059 -97.168 69.8242 -99.3652 69.8242 -102.393 C 69.8242 -107.764 66.0156 -111.768 60.3027 -111.768 C 57.7637 -111.768 55.1758 -110.645 53.2227 -108.691 L 18.9453 -74.7559 C 17.1387 -72.9492 16.0645 -70.166 16.0645 -67.4805 C 16.0645 -64.8438 17.1387 -62.0117 18.9453 -60.2539 L 53.2227 -26.3184 C 55.1758 -24.3652 57.7637 -23.2422 60.3027 -23.2422 C 66.0156 -23.2422 69.8242 -27.2949 69.8242 -32.6172 C 69.8242 -35.6934 68.5059 -37.8418 66.6504 -39.6484 L 55.0781 -50.9277 L 46.0449 -58.3008 L 60.1074 -57.6172 L 126.758 -57.6172 C 132.91 -57.6172 137.061 -61.5723 137.061 -67.4805 Z M 137.061 -2.92969 C 137.061 -5.61523 135.986 -8.39844 134.131 -10.2051 L 99.8535 -44.1895 C 97.9004 -46.1426 95.3613 -47.2168 92.8223 -47.2168 C 87.1094 -47.2168 83.3008 -43.2129 83.3008 -37.8418 C 83.3008 -34.8145 84.6191 -32.666 86.4258 -30.8594 L 98.0469 -19.5312 L 107.08 -12.1582 L 93.0176 -12.793 L 26.3672 -12.793 C 20.2148 -12.793 16.0645 -8.83789 16.0645 -2.92969 C 16.0645 2.92969 20.2148 6.88477 26.3672 6.88477 L 93.0176 6.88477 L 107.08 6.25 L 98.0469 13.623 L 86.4258 24.9023 C 84.6191 26.709 83.3008 28.8574 83.3008 31.9336 C 83.3008 37.2559 87.1094 41.3086 92.8223 41.3086 C 95.3613 41.3086 97.9004 40.1855 99.8535 38.2324 L 134.131 4.29688 C 135.986 2.49023 137.061 -0.292969 137.061 -2.92969 Z"/>
  </g>
  <g id="Bold-L" transform="matrix(1 0 0 1 2263.85 1556)">
   <path d="M 136.182 -66.9434 C 136.182 -71.7773 132.764 -75.0488 127.783 -75.0488 L 54.834 -75.0488 L 40.5273 -74.4141 L 50.7812 -83.0078 L 65.0391 -96.9727 C 66.5039 -98.4375 67.5293 -100.195 67.5293 -102.686 C 67.5293 -107.129 64.4043 -110.449 59.668 -110.449 C 57.6172 -110.449 55.4688 -109.521 53.8574 -107.91 L 18.5059 -72.9492 C 16.9434 -71.3867 16.0645 -69.1406 16.0645 -66.9434 C 16.0645 -64.7461 16.9434 -62.5 18.5059 -60.9863 L 53.8574 -26.0254 C 55.4688 -24.4141 57.6172 -23.5352 59.668 -23.5352 C 64.4043 -23.5352 67.5293 -26.8066 67.5293 -31.25 C 67.5293 -33.7402 66.5039 -35.498 65.0391 -36.9629 L 50.7812 -50.9277 L 40.5273 -59.4727 L 54.834 -58.8867 L 127.783 -58.8867 C 132.764 -58.8867 136.182 -62.1582 136.182 -66.9434 Z M 136.182 -3.56445 C 136.182 -5.76172 135.303 -8.00781 133.74 -9.52148 L 98.3887 -44.5312 C 96.7773 -46.1426 94.6289 -47.0215 92.5293 -47.0215 C 87.8418 -47.0215 84.7168 -43.7012 84.7168 -39.2578 C 84.7168 -36.8164 85.6934 -35.0098 87.207 -33.5449 L 101.465 -19.6289 L 111.719 -11.0352 L 97.4121 -11.6211 L 24.4629 -11.6211 C 19.4824 -11.6211 16.0645 -8.34961 16.0645 -3.56445 C 16.0645 1.26953 19.4824 4.54102 24.4629 4.54102 L 97.4121 4.54102 L 111.719 3.90625 L 101.465 12.5 L 87.207 26.416 C 85.6934 27.8809 84.7168 29.6875 84.7168 32.1289 C 84.7168 36.5723 87.8418 39.8926 92.5293 39.8926 C 94.6289 39.8926 96.7773 38.9648 98.3887 37.3535 L 133.74 2.39258 C 135.303 0.878906 136.182 -1.36719 136.182 -3.56445 Z"/>
  </g>
  <g id="Semibold-L" transform="matrix(1 0 0 1 1967.46 1556)">
   <path d="M 135.547 -66.6016 C 135.547 -70.6543 132.666 -73.4375 128.516 -73.4375 L 51.2207 -73.4375 L 36.7676 -72.8516 L 47.8027 -82.2754 L 63.8672 -98.0469 C 65.1367 -99.2676 65.9668 -100.781 65.9668 -102.881 C 65.9668 -106.689 63.2812 -109.521 59.2285 -109.521 C 57.5195 -109.521 55.6152 -108.74 54.2969 -107.373 L 18.1641 -71.6797 C 16.7969 -70.3613 16.0645 -68.457 16.0645 -66.6016 C 16.0645 -64.6973 16.7969 -62.8418 18.1641 -61.5234 L 54.2969 -25.8301 C 55.6152 -24.4629 57.5195 -23.6816 59.2285 -23.6816 C 63.2812 -23.6816 65.9668 -26.5137 65.9668 -30.3223 C 65.9668 -32.4219 65.1367 -33.9355 63.8672 -35.1562 L 47.8027 -50.8789 L 36.7676 -60.3516 L 51.2207 -59.7168 L 128.516 -59.7168 C 132.666 -59.7168 135.547 -62.5 135.547 -66.6016 Z M 135.547 -3.95508 C 135.547 -5.85938 134.814 -7.71484 133.447 -9.08203 L 97.3145 -44.7754 C 95.9961 -46.0938 94.0918 -46.875 92.3828 -46.875 C 88.3301 -46.875 85.6445 -44.0918 85.6445 -40.2344 C 85.6445 -38.1836 86.4746 -36.6699 87.7441 -35.4492 L 103.809 -19.6777 L 114.844 -10.2539 L 100.439 -10.8398 L 23.0957 -10.8398 C 18.9453 -10.8398 16.0645 -8.05664 16.0645 -3.95508 C 16.0645 0.0976562 18.9453 2.88086 23.0957 2.88086 L 100.439 2.88086 L 114.844 2.29492 L 103.809 11.7188 L 87.7441 27.4414 C 86.4746 28.6621 85.6445 30.2246 85.6445 32.2754 C 85.6445 36.084 88.3301 38.916 92.3828 38.916 C 94.0918 38.916 95.9961 38.1348 97.3145 36.7676 L 133.447 1.12305 C 134.814 -0.244141 135.547 -2.09961 135.547 -3.95508 Z"/>
  </g>
  <g id="Medium-L" transform="matrix(1 0 0 1 1670.97 1556)">
   <path d="M 135.107 -66.3086 C 135.107 -69.8242 132.568 -72.2656 129.053 -72.2656 L 48.4375 -72.2656 L 33.9355 -71.6797 L 45.5566 -81.7383 L 63.0371 -98.877 C 64.1113 -99.9023 64.7461 -101.27 64.7461 -103.027 C 64.7461 -106.348 62.4023 -108.789 58.8867 -108.789 C 57.4219 -108.789 55.7617 -108.105 54.5898 -106.982 L 17.9688 -70.752 C 16.6992 -69.5312 16.0645 -67.9688 16.0645 -66.3086 C 16.0645 -64.6973 16.6992 -63.0859 17.9688 -61.9141 L 54.5898 -25.6836 C 55.7617 -24.5117 57.4219 -23.8281 58.8867 -23.8281 C 62.4023 -23.8281 64.7461 -26.2695 64.7461 -29.6387 C 64.7461 -31.3965 64.1113 -32.7148 63.0371 -33.7891 L 45.5566 -50.8789 L 33.9355 -60.9375 L 48.4375 -60.3516 L 129.053 -60.3516 C 132.568 -60.3516 135.107 -62.793 135.107 -66.3086 Z M 135.107 -4.29688 C 135.107 -5.95703 134.424 -7.51953 133.203 -8.74023 L 96.5332 -44.9707 C 95.3613 -46.0938 93.75 -46.7773 92.2363 -46.7773 C 88.7207 -46.7773 86.377 -44.3359 86.377 -41.0156 C 86.377 -39.2578 87.0605 -37.8906 88.1348 -36.8652 L 105.566 -19.7266 L 117.188 -9.66797 L 102.686 -10.2539 L 22.1191 -10.2539 C 18.5547 -10.2539 16.0645 -7.8125 16.0645 -4.29688 C 16.0645 -0.78125 18.5547 1.66016 22.1191 1.66016 L 102.686 1.66016 L 117.188 1.07422 L 105.566 11.1328 L 88.1348 28.2227 C 87.0605 29.2969 86.377 30.6152 86.377 32.373 C 86.377 35.7422 88.7207 38.1836 92.2363 38.1836 C 93.75 38.1836 95.3613 37.5 96.5332 36.3281 L 133.203 0.0976562 C 134.424 -1.07422 135.107 -2.63672 135.107 -4.29688 Z"/>
  </g>
  <g id="Regular-L" transform="matrix(1 0 0 1 1374.58 1556)">
   <path d="M 134.473 -65.9668 C 134.473 -68.7012 132.471 -70.7031 129.736 -70.7031 L 44.873 -70.7031 L 30.3223 -70.1172 L 42.627 -81.0059 L 61.9141 -99.9023 C 62.7441 -100.781 63.1836 -101.855 63.1836 -103.223 C 63.1836 -105.957 61.3281 -107.91 58.4961 -107.91 C 57.3242 -107.91 55.957 -107.324 55.0293 -106.445 L 17.627 -69.4824 C 16.5527 -68.5059 16.0645 -67.2852 16.0645 -65.9668 C 16.0645 -64.6484 16.5527 -63.4277 17.627 -62.4023 L 55.0293 -25.4883 C 55.957 -24.5605 57.3242 -24.0234 58.4961 -24.0234 C 61.3281 -24.0234 63.1836 -25.9766 63.1836 -28.7109 C 63.1836 -30.0781 62.7441 -31.1523 61.9141 -31.9824 L 42.627 -50.8789 L 30.3223 -61.7676 L 44.873 -61.2305 L 129.736 -61.2305 C 132.471 -61.2305 134.473 -63.1836 134.473 -65.9668 Z M 134.473 -4.73633 C 134.473 -6.05469 133.984 -7.22656 132.91 -8.25195 L 95.5078 -45.166 C 94.5801 -46.0938 93.2617 -46.6797 92.0898 -46.6797 C 89.209 -46.6797 87.3535 -44.6777 87.3535 -41.9922 C 87.3535 -40.5762 87.793 -39.502 88.623 -38.6719 L 107.91 -19.7754 L 120.215 -8.88672 L 105.664 -9.47266 L 20.8008 -9.47266 C 18.0664 -9.47266 16.0645 -7.4707 16.0645 -4.73633 C 16.0645 -1.95312 18.0664 0.0488281 20.8008 0.0488281 L 105.664 0.0488281 L 120.215 -0.537109 L 107.91 10.3516 L 88.623 29.248 C 87.793 30.0781 87.3535 31.1523 87.3535 32.5195 C 87.3535 35.2539 89.209 37.207 92.0898 37.207 C 93.2617 37.207 94.5801 36.6699 95.5078 35.7422 L 132.91 -1.17188 C 133.984 -2.19727 134.473 -3.36914 134.473 -4.73633 Z"/>
  </g>
  <g id="Light-L" transform="matrix(1 0 0 1 1078.3 1556)">
   <path d="M 133.594 -65.0391 C 133.594 -67.1387 132.08 -68.6035 130.078 -68.6035 L 40.8691 -68.6035 L 26.709 -68.1641 L 39.502 -79.9316 L 60.3027 -100.488 C 60.8887 -101.123 61.2305 -101.953 61.2305 -102.979 C 61.2305 -105.029 59.8145 -106.494 57.666 -106.494 C 56.7871 -106.494 55.8105 -106.104 55.127 -105.42 L 17.2363 -67.7246 C 16.4551 -66.9434 16.0645 -66.0645 16.0645 -65.0391 C 16.0645 -64.0625 16.4551 -63.1836 17.2363 -62.4023 L 55.127 -24.707 C 55.8105 -24.0234 56.7871 -23.6328 57.666 -23.6328 C 59.8145 -23.6328 61.2305 -25.0977 61.2305 -27.0996 C 61.2305 -28.1738 60.8887 -29.0039 60.3027 -29.6387 L 39.502 -50.1953 L 26.709 -61.9629 L 40.8691 -61.5234 L 130.078 -61.5234 C 132.08 -61.5234 133.594 -62.9883 133.594 -65.0391 Z M 133.594 -5.66406 C 133.594 -6.68945 133.203 -7.56836 132.422 -8.30078 L 94.5312 -46.0449 C 93.8477 -46.7285 92.8711 -47.1191 91.9922 -47.1191 C 89.8438 -47.1191 88.4277 -45.6055 88.4277 -43.6035 C 88.4277 -42.5781 88.7695 -41.6992 89.3555 -41.1133 L 110.156 -20.5566 L 122.949 -8.78906 L 108.789 -9.22852 L 19.5801 -9.22852 C 17.5781 -9.22852 16.0645 -7.71484 16.0645 -5.66406 C 16.0645 -3.61328 17.5781 -2.14844 19.5801 -2.14844 L 108.789 -2.14844 L 122.949 -2.53906 L 110.156 9.17969 L 89.3555 29.7363 C 88.7695 30.3711 88.4277 31.2012 88.4277 32.2754 C 88.4277 34.2773 89.8438 35.791 91.9922 35.791 C 92.8711 35.791 93.8477 35.3516 94.5312 34.668 L 132.422 -3.02734 C 133.203 -3.80859 133.594 -4.6875 133.594 -5.66406 Z"/>
  </g>
  <g id="Thin-L" transform="matrix(1 0 0 1 782.179 1556)">
   <path d="M 132.422 -63.8672 C 132.422 -65.0391 131.543 -65.8203 130.469 -65.8203 L 35.6445 -65.8203 L 22.1191 -65.625 L 35.3516 -78.5156 L 58.1543 -101.27 C 58.4473 -101.562 58.6426 -102.148 58.6426 -102.734 C 58.6426 -103.809 57.8613 -104.688 56.6406 -104.688 C 56.0547 -104.688 55.6152 -104.443 55.2246 -104.053 L 16.6992 -65.332 C 16.2598 -64.9414 16.0645 -64.502 16.0645 -63.8672 C 16.0645 -63.2812 16.2598 -62.8418 16.6992 -62.4512 L 55.2246 -23.7305 C 55.6152 -23.291 56.0547 -23.0957 56.6406 -23.0957 C 57.8613 -23.0957 58.6426 -23.9746 58.6426 -25.0488 C 58.6426 -25.6348 58.4473 -26.2207 58.1543 -26.5137 L 35.3516 -49.2676 L 22.1191 -62.1582 L 35.6445 -61.9629 L 130.469 -61.9629 C 131.543 -61.9629 132.422 -62.7441 132.422 -63.8672 Z M 132.422 -6.93359 C 132.422 -7.51953 132.227 -7.95898 131.787 -8.39844 L 93.2617 -47.1191 C 92.8711 -47.5098 92.4316 -47.7539 91.8457 -47.7539 C 90.625 -47.7539 89.8438 -46.8262 89.8438 -45.8008 C 89.8438 -45.2148 90.0391 -44.6289 90.332 -44.3359 L 113.135 -21.582 L 126.367 -8.69141 L 112.842 -8.88672 L 18.0176 -8.88672 C 16.9434 -8.88672 16.0645 -8.05664 16.0645 -6.93359 C 16.0645 -5.81055 16.9434 -4.98047 18.0176 -4.98047 L 112.842 -4.98047 L 126.367 -5.22461 L 113.135 7.66602 L 90.332 30.4199 C 90.0391 30.7617 89.8438 31.2988 89.8438 31.8848 C 89.8438 32.959 90.625 33.8379 91.8457 33.8379 C 92.4316 33.8379 92.8711 33.6426 93.2617 33.252 L 131.787 -5.51758 C 132.227 -5.9082 132.422 -6.34766 132.422 -6.93359 Z"/>
  </g>
  <g id="Ultralight-L" transform="matrix(1 0 0 1 485.761 1556)">
   <path d="M 131.836 -63.2812 C 131.836 -63.9648 131.25 -64.4043 130.664 -64.4043 L 32.959 -64.4043 L 19.7754 -64.3066 L 33.2031 -77.7832 L 57.0312 -101.66 C 57.1777 -101.807 57.3242 -102.197 57.3242 -102.588 C 57.3242 -103.174 56.8359 -103.76 56.1035 -103.76 C 55.7129 -103.76 55.5176 -103.613 55.2734 -103.369 L 16.4062 -64.1113 C 16.1621 -63.8672 16.0645 -63.6719 16.0645 -63.2812 C 16.0645 -62.8906 16.1621 -62.6953 16.4062 -62.4512 L 55.2734 -23.1934 C 55.5176 -22.9492 55.7129 -22.8516 56.1035 -22.8516 C 56.8359 -22.8516 57.3242 -23.3887 57.3242 -23.9746 C 57.3242 -24.3652 57.1777 -24.7559 57.0312 -24.9512 L 33.2031 -48.7793 L 19.7754 -62.2559 L 32.959 -62.1582 L 130.664 -62.1582 C 131.25 -62.1582 131.836 -62.6465 131.836 -63.2812 Z M 131.836 -7.61719 C 131.836 -7.95898 131.689 -8.20312 131.494 -8.44727 L 92.627 -47.7051 C 92.3828 -47.9492 92.1875 -48.0469 91.7969 -48.0469 C 91.0645 -48.0469 90.5762 -47.4609 90.5762 -46.9238 C 90.5762 -46.5332 90.6738 -46.1426 90.8691 -45.9473 L 114.697 -22.0703 L 128.076 -8.64258 L 114.941 -8.74023 L 17.1875 -8.74023 C 16.6504 -8.74023 16.0645 -8.25195 16.0645 -7.61719 C 16.0645 -6.93359 16.6504 -6.44531 17.1875 -6.44531 L 114.941 -6.44531 L 128.076 -6.54297 L 114.697 6.88477 L 90.8691 30.7617 C 90.6738 30.9082 90.5762 31.3477 90.5762 31.6895 C 90.5762 32.2754 91.0645 32.8613 91.7969 32.8613 C 92.1875 32.8613 92.3828 32.7148 92.627 32.4707 L 131.494 -6.78711 C 131.689 -6.98242 131.836 -7.22656 131.836 -7.61719 Z"/>
  </g>
  <g id="Black-M" transform="matrix(1 0 0 1 2873.46 1126)">
   <path d="M 107.422 -60.7422 C 107.422 -66.9922 103.076 -71.0938 96.4355 -71.0938 L 54.4434 -71.0938 L 44.1895 -70.6543 L 49.1211 -74.5117 L 53.9062 -79.1992 C 55.8594 -81.1035 57.4219 -83.3496 57.4219 -86.6211 C 57.4219 -92.1387 53.418 -96.3379 47.5098 -96.3379 C 44.7754 -96.3379 42.1875 -95.2148 40.1367 -93.1152 L 15.332 -68.3105 C 13.5742 -66.5527 12.4512 -63.5254 12.4512 -60.7422 C 12.4512 -58.0078 13.5742 -54.9805 15.332 -53.2227 L 40.1367 -28.4668 C 42.1875 -26.3672 44.7754 -25.2441 47.5098 -25.2441 C 53.418 -25.2441 57.4219 -29.4922 57.4219 -34.9609 C 57.4219 -38.2324 55.8594 -40.5273 53.9062 -42.3828 L 49.1211 -47.0215 L 44.1895 -50.8789 L 54.4434 -50.4395 L 96.4355 -50.4395 C 103.076 -50.4395 107.422 -54.541 107.422 -60.7422 Z M 107.422 -9.57031 C 107.422 -12.3535 106.299 -15.3809 104.541 -17.1387 L 79.7363 -41.9434 C 77.6367 -43.9941 75.0977 -45.166 72.3633 -45.166 C 66.4551 -45.166 62.4512 -40.918 62.4512 -35.4492 C 62.4512 -32.1777 63.9648 -29.8828 65.9668 -27.9785 L 70.752 -23.3398 L 75.6836 -19.4336 L 65.4297 -19.9219 L 23.4375 -19.9219 C 16.7969 -19.9219 12.4512 -15.8203 12.4512 -9.57031 C 12.4512 -3.32031 16.7969 0.78125 23.4375 0.78125 L 65.4297 0.78125 L 75.6836 0.292969 L 70.752 4.19922 L 65.9668 8.78906 C 63.9648 10.6934 62.4512 12.9883 62.4512 16.2598 C 62.4512 21.7285 66.4551 25.9766 72.3633 25.9766 C 75.0977 25.9766 77.6367 24.8047 79.7363 22.7539 L 104.541 -2.00195 C 106.299 -3.75977 107.422 -6.78711 107.422 -9.57031 Z"/>
  </g>
  <g id="Heavy-M" transform="matrix(1 0 0 1 2577.07 1126)">
   <path d="M 106.787 -60.498 C 106.787 -65.8691 103.027 -69.3848 97.3633 -69.3848 L 50.3418 -69.3848 L 39.7461 -68.8965 L 45.752 -73.7793 L 52.7344 -80.5664 C 54.3945 -82.2266 55.6641 -84.1797 55.6641 -86.9629 C 55.6641 -91.748 52.2461 -95.4102 47.1191 -95.4102 C 44.7754 -95.4102 42.4805 -94.4336 40.7227 -92.627 L 14.9902 -67.041 C 13.4277 -65.4785 12.4512 -62.8906 12.4512 -60.498 C 12.4512 -58.0566 13.4277 -55.4688 14.9902 -53.9062 L 40.7227 -28.3691 C 42.4805 -26.6113 44.7754 -25.5859 47.1191 -25.5859 C 52.2461 -25.5859 55.6641 -29.248 55.6641 -34.0332 C 55.6641 -36.8164 54.3945 -38.8184 52.7344 -40.4297 L 45.752 -47.168 L 39.7461 -52.0508 L 50.3418 -51.5625 L 97.3633 -51.5625 C 103.027 -51.5625 106.787 -55.127 106.787 -60.498 Z M 106.787 -9.91211 C 106.787 -12.3047 105.811 -14.8926 104.248 -16.4551 L 78.5156 -42.041 C 76.7578 -43.8477 74.4629 -44.8242 72.1191 -44.8242 C 66.9922 -44.8242 63.5742 -41.2109 63.5742 -36.4258 C 63.5742 -33.5938 64.7949 -31.6406 66.5039 -30.0293 L 73.4863 -23.1934 L 79.4922 -18.3594 L 68.8965 -18.8477 L 21.875 -18.8477 C 16.2109 -18.8477 12.4512 -15.2832 12.4512 -9.91211 C 12.4512 -4.54102 16.2109 -0.976562 21.875 -0.976562 L 68.8965 -0.976562 L 79.4922 -1.46484 L 73.4863 3.36914 L 66.5039 10.1562 C 64.7949 11.7676 63.5742 13.7207 63.5742 16.5527 C 63.5742 21.3379 66.9922 24.9512 72.1191 24.9512 C 74.4629 24.9512 76.7578 23.9746 78.5156 22.168 L 104.248 -3.36914 C 105.811 -4.93164 106.787 -7.51953 106.787 -9.91211 Z"/>
  </g>
  <g id="Bold-M" transform="matrix(1 0 0 1 2280.72 1126)">
   <path d="M 106.055 -60.1562 C 106.055 -64.5508 102.979 -67.4805 98.3887 -67.4805 L 45.752 -67.4805 L 34.8145 -66.9922 L 41.9922 -72.9004 L 51.416 -82.1289 C 52.7832 -83.4473 53.7598 -85.0586 53.7598 -87.3535 C 53.7598 -91.3574 50.8789 -94.3359 46.6309 -94.3359 C 44.7754 -94.3359 42.8223 -93.5059 41.3574 -92.041 L 14.5996 -65.5762 C 13.2324 -64.209 12.4512 -62.1582 12.4512 -60.1562 C 12.4512 -58.1543 13.2324 -56.1035 14.5996 -54.7363 L 41.3574 -28.2715 C 42.8223 -26.8066 44.7754 -25.9766 46.6309 -25.9766 C 50.8789 -25.9766 53.7598 -29.0039 53.7598 -33.0078 C 53.7598 -35.2539 52.7832 -36.8652 51.416 -38.2324 L 41.9922 -47.4121 L 34.8145 -53.3203 L 45.752 -52.7832 L 98.3887 -52.7832 C 102.979 -52.7832 106.055 -55.7617 106.055 -60.1562 Z M 106.055 -10.3027 C 106.055 -12.3047 105.273 -14.3555 103.906 -15.7227 L 77.1484 -42.1875 C 75.6836 -43.6523 73.7793 -44.4824 71.875 -44.4824 C 67.627 -44.4824 64.7949 -41.5039 64.7949 -37.5 C 64.7949 -35.2051 65.7227 -33.5938 67.0898 -32.2754 L 76.5625 -23.0469 L 83.7402 -17.1387 L 72.8027 -17.627 L 20.1172 -17.627 C 15.5273 -17.627 12.4512 -14.6973 12.4512 -10.3027 C 12.4512 -5.9082 15.5273 -2.92969 20.1172 -2.92969 L 72.8027 -2.92969 L 83.7402 -3.4668 L 76.5625 2.44141 L 67.0898 11.6211 C 65.7227 12.9883 64.7949 14.5996 64.7949 16.8457 C 64.7949 20.8496 67.627 23.877 71.875 23.877 C 73.7793 23.877 75.6836 23.0469 77.1484 21.582 L 103.906 -4.88281 C 105.273 -6.25 106.055 -8.30078 106.055 -10.3027 Z"/>
  </g>
  <g id="Semibold-M" transform="matrix(1 0 0 1 1984.26 1126)">
   <path d="M 105.566 -59.9121 C 105.566 -63.6719 102.93 -66.2109 99.1211 -66.2109 L 42.5781 -66.2109 L 31.3965 -65.6738 L 39.4043 -72.3145 L 50.4883 -83.2031 C 51.6602 -84.3262 52.4414 -85.6934 52.4414 -87.5977 C 52.4414 -91.0645 50 -93.6035 46.3379 -93.6035 C 44.7266 -93.6035 43.0664 -92.9199 41.7969 -91.6504 L 14.3555 -64.5508 C 13.1348 -63.3789 12.4512 -61.6211 12.4512 -59.9121 C 12.4512 -58.2031 13.1348 -56.4941 14.3555 -55.3223 L 41.7969 -28.2227 C 43.0664 -27.002 44.7266 -26.2695 46.3379 -26.2695 C 50 -26.2695 52.4414 -28.8086 52.4414 -32.2754 C 52.4414 -34.1797 51.6602 -35.5469 50.4883 -36.7188 L 39.4043 -47.5098 L 31.3965 -54.1504 L 42.5781 -53.6621 L 99.1211 -53.6621 C 102.93 -53.6621 105.566 -56.2012 105.566 -59.9121 Z M 105.566 -10.5469 C 105.566 -12.2559 104.883 -14.0137 103.662 -15.1855 L 76.2207 -42.2852 C 75 -43.5547 73.291 -44.2383 71.7285 -44.2383 C 68.0664 -44.2383 65.625 -41.6992 65.625 -38.2324 C 65.625 -36.3281 66.4062 -34.9609 67.5293 -33.8379 L 78.6621 -22.9492 L 86.6211 -16.3086 L 75.4883 -16.8457 L 18.8965 -16.8457 C 15.0879 -16.8457 12.4512 -14.3066 12.4512 -10.5469 C 12.4512 -6.83594 15.0879 -4.29688 18.8965 -4.29688 L 75.4883 -4.29688 L 86.6211 -4.78516 L 78.6621 1.85547 L 67.5293 12.6465 C 66.4062 13.7695 65.625 15.1855 65.625 17.0898 C 65.625 20.5566 68.0664 23.0957 71.7285 23.0957 C 73.291 23.0957 75 22.3633 76.2207 21.1426 L 103.662 -5.95703 C 104.883 -7.12891 105.566 -8.88672 105.566 -10.5469 Z"/>
  </g>
  <g id="Medium-M" transform="matrix(1 0 0 1 1687.72 1126)">
   <path d="M 105.225 -59.7656 C 105.225 -62.9883 102.93 -65.1855 99.6582 -65.1855 L 40.1367 -65.1855 L 28.8574 -64.6973 L 37.4023 -71.875 L 49.8047 -83.9844 C 50.7812 -84.9609 51.416 -86.1816 51.416 -87.793 C 51.416 -90.8203 49.2676 -93.0664 46.0938 -93.0664 C 44.7266 -93.0664 43.2129 -92.4316 42.1387 -91.3574 L 14.1602 -63.8184 C 13.0371 -62.6953 12.4512 -61.2305 12.4512 -59.7656 C 12.4512 -58.252 13.0371 -56.7871 14.1602 -55.7129 L 42.1387 -28.1738 C 43.2129 -27.0996 44.7266 -26.4648 46.0938 -26.4648 C 49.2676 -26.4648 51.416 -28.7109 51.416 -31.7383 C 51.416 -33.3984 50.7812 -34.5703 49.8047 -35.5469 L 37.4023 -47.6562 L 28.8574 -54.834 L 40.1367 -54.3457 L 99.6582 -54.3457 C 102.93 -54.3457 105.225 -56.543 105.225 -59.7656 Z M 105.225 -10.791 C 105.225 -12.2559 104.639 -13.7207 103.516 -14.7949 L 75.4883 -42.3828 C 74.4629 -43.457 72.9492 -44.043 71.582 -44.043 C 68.3594 -44.043 66.2598 -41.8457 66.2598 -38.7695 C 66.2598 -37.1582 66.8457 -35.9863 67.8711 -35.0098 L 80.2734 -22.9004 L 88.7695 -15.7227 L 77.4902 -16.2109 L 18.0176 -16.2109 C 14.7461 -16.2109 12.4512 -13.9648 12.4512 -10.791 C 12.4512 -7.56836 14.7461 -5.32227 18.0176 -5.32227 L 77.4902 -5.32227 L 88.7695 -5.85938 L 80.2734 1.36719 L 67.8711 13.4277 C 66.8457 14.4043 66.2598 15.625 66.2598 17.2363 C 66.2598 20.3125 68.3594 22.5098 71.582 22.5098 C 72.9492 22.5098 74.4629 21.875 75.4883 20.8496 L 103.516 -6.73828 C 104.639 -7.8125 105.225 -9.27734 105.225 -10.791 Z"/>
  </g>
  <g id="Regular-M" transform="matrix(1 0 0 1 1391.25 1126)">
   <path d="M 104.736 -59.5215 C 104.736 -62.0605 102.881 -63.916 100.391 -63.916 L 37.0117 -63.916 L 25.5859 -63.3789 L 34.8145 -71.2891 L 48.9258 -85.0586 C 49.6582 -85.791 50.0977 -86.7676 50.0977 -88.0371 C 50.0977 -90.5273 48.3887 -92.334 45.752 -92.334 C 44.7266 -92.334 43.457 -91.7969 42.627 -90.9668 L 13.916 -62.793 C 12.9395 -61.8652 12.4512 -60.7422 12.4512 -59.5215 C 12.4512 -58.3496 12.9395 -57.2266 13.916 -56.2988 L 42.627 -28.0762 C 43.457 -27.2461 44.7266 -26.7578 45.752 -26.7578 C 48.3887 -26.7578 50.0977 -28.5156 50.0977 -31.0547 C 50.0977 -32.3242 49.6582 -33.252 48.9258 -34.0332 L 34.8145 -47.7539 L 25.5859 -55.6641 L 37.0117 -55.1758 L 100.391 -55.1758 C 102.881 -55.1758 104.736 -56.9824 104.736 -59.5215 Z M 104.736 -11.0352 C 104.736 -12.2559 104.248 -13.3789 103.271 -14.3066 L 74.5605 -42.4805 C 73.7305 -43.3105 72.4609 -43.8477 71.3867 -43.8477 C 68.7988 -43.8477 67.0898 -42.041 67.0898 -39.502 C 67.0898 -38.2812 67.4805 -37.3047 68.2617 -36.5234 L 82.3242 -22.8027 L 91.6016 -14.8926 L 80.127 -15.3809 L 16.7969 -15.3809 C 14.2578 -15.3809 12.4512 -13.5742 12.4512 -11.0352 C 12.4512 -8.49609 14.2578 -6.68945 16.7969 -6.68945 L 80.127 -6.68945 L 91.6016 -7.17773 L 82.3242 0.732422 L 68.2617 14.4531 C 67.4805 15.2344 67.0898 16.2109 67.0898 17.4316 C 67.0898 19.9707 68.7988 21.7773 71.3867 21.7773 C 72.4609 21.7773 73.7305 21.2402 74.5605 20.4102 L 103.271 -7.76367 C 104.248 -8.69141 104.736 -9.81445 104.736 -11.0352 Z"/>
  </g>
  <g id="Light-M" transform="matrix(1 0 0 1 1094.93 1126)">
   <path d="M 103.955 -58.7402 C 103.955 -60.6445 102.539 -62.0117 100.635 -62.0117 L 33.4473 -62.0117 L 22.3145 -61.6211 L 32.0312 -70.3613 L 47.4609 -85.5469 C 47.998 -86.1328 48.3398 -86.8652 48.3398 -87.8418 C 48.3398 -89.7461 47.0215 -91.1133 45.0684 -91.1133 C 44.2383 -91.1133 43.3105 -90.7227 42.6758 -90.0879 L 13.5254 -61.1816 C 12.793 -60.498 12.4512 -59.668 12.4512 -58.7402 C 12.4512 -57.8125 12.793 -56.9824 13.5254 -56.2988 L 42.6758 -27.4414 C 43.3105 -26.8066 44.2383 -26.416 45.0684 -26.416 C 47.0215 -26.416 48.3398 -27.7832 48.3398 -29.6387 C 48.3398 -30.6152 47.998 -31.3477 47.4609 -31.9336 L 32.0312 -47.1191 L 22.3145 -55.8594 L 33.4473 -55.4688 L 100.635 -55.4688 C 102.539 -55.4688 103.955 -56.8359 103.955 -58.7402 Z M 103.955 -11.9141 C 103.955 -12.8418 103.564 -13.623 102.832 -14.3555 L 73.7305 -43.2129 C 73.0957 -43.8477 72.168 -44.2383 71.3379 -44.2383 C 69.3359 -44.2383 68.0664 -42.8711 68.0664 -41.0156 C 68.0664 -40.0391 68.3594 -39.2578 68.9453 -38.7207 L 84.375 -23.4863 L 94.0918 -14.7949 L 82.9102 -15.1855 L 15.7227 -15.1855 C 13.8672 -15.1855 12.4512 -13.8184 12.4512 -11.9141 C 12.4512 -10.0098 13.8672 -8.59375 15.7227 -8.59375 L 82.9102 -8.59375 L 94.0918 -8.98438 L 84.375 -0.292969 L 68.9453 14.8926 C 68.3594 15.4785 68.0664 16.2598 68.0664 17.1875 C 68.0664 19.0918 69.3359 20.459 71.3379 20.459 C 72.168 20.459 73.0957 20.0684 73.7305 19.4336 L 102.832 -9.42383 C 103.564 -10.1562 103.955 -10.9863 103.955 -11.9141 Z"/>
  </g>
  <g id="Thin-M" transform="matrix(1 0 0 1 798.756 1126)">
   <path d="M 102.881 -57.7148 C 102.881 -58.7891 102.051 -59.5703 101.025 -59.5703 L 28.7598 -59.5703 L 18.1152 -59.3262 L 28.2715 -69.0918 L 45.5078 -86.2305 C 45.8496 -86.5234 45.9961 -87.0605 45.9961 -87.5977 C 45.9961 -88.623 45.2637 -89.4531 44.1406 -89.4531 C 43.6035 -89.4531 43.1152 -89.2578 42.7734 -88.8672 L 13.0371 -59.082 C 12.6465 -58.6914 12.4512 -58.252 12.4512 -57.7148 C 12.4512 -57.1289 12.6465 -56.6895 13.0371 -56.2988 L 42.7734 -26.5137 C 43.1152 -26.1719 43.6035 -25.9277 44.1406 -25.9277 C 45.2637 -25.9277 45.9961 -26.7578 45.9961 -27.7832 C 45.9961 -28.3691 45.8496 -28.8574 45.5078 -29.1504 L 28.2715 -46.2891 L 18.1152 -56.0547 L 28.7598 -55.8594 L 101.025 -55.8594 C 102.051 -55.8594 102.881 -56.6406 102.881 -57.7148 Z M 102.881 -13.0371 C 102.881 -13.5742 102.686 -14.0137 102.295 -14.4043 L 72.5586 -44.1895 C 72.2168 -44.5801 71.7285 -44.7754 71.1914 -44.7754 C 70.0684 -44.7754 69.3359 -43.9453 69.3359 -42.9199 C 69.3359 -42.3828 69.4824 -41.8945 69.8242 -41.5527 L 87.0605 -24.4141 L 97.2168 -14.6973 L 86.5723 -14.8926 L 14.3066 -14.8926 C 13.2812 -14.8926 12.4512 -14.1113 12.4512 -13.0371 C 12.4512 -11.9629 13.2812 -11.1816 14.3066 -11.1816 L 86.5723 -11.1816 L 97.2168 -11.377 L 87.0605 -1.66016 L 69.8242 15.5273 C 69.4824 15.8203 69.3359 16.3086 69.3359 16.8945 C 69.3359 17.9199 70.0684 18.7012 71.1914 18.7012 C 71.7285 18.7012 72.2168 18.5059 72.5586 18.1152 L 102.295 -11.6699 C 102.686 -12.0605 102.881 -12.5 102.881 -13.0371 Z"/>
  </g>
  <g id="Ultralight-M" transform="matrix(1 0 0 1 502.314 1126)">
   <path d="M 102.344 -57.1777 C 102.344 -57.8125 101.807 -58.3008 101.221 -58.3008 L 26.3184 -58.3008 L 16.0156 -58.1543 L 26.3672 -68.4082 L 44.5312 -86.5723 C 44.7266 -86.7676 44.8242 -87.1094 44.8242 -87.5 C 44.8242 -88.0859 44.3359 -88.623 43.6523 -88.623 C 43.2617 -88.623 43.0664 -88.4766 42.8223 -88.2324 L 12.793 -57.959 C 12.5488 -57.7637 12.4512 -57.5195 12.4512 -57.1777 C 12.4512 -56.7871 12.5488 -56.543 12.793 -56.3477 L 42.8223 -26.0742 C 43.0664 -25.8301 43.2617 -25.6836 43.6523 -25.6836 C 44.3359 -25.6836 44.8242 -26.2207 44.8242 -26.8555 C 44.8242 -27.1973 44.7266 -27.5391 44.5312 -27.7344 L 26.3672 -45.8984 L 16.0156 -56.1523 L 26.3184 -56.0059 L 101.221 -56.0059 C 101.807 -56.0059 102.344 -56.4941 102.344 -57.1777 Z M 102.344 -13.623 C 102.344 -13.9648 102.246 -14.209 102.002 -14.4531 L 71.9727 -44.7266 C 71.7285 -44.9707 71.5332 -45.0684 71.1426 -45.0684 C 70.459 -45.0684 69.9707 -44.5312 69.9707 -43.9453 C 69.9707 -43.6035 70.0684 -43.2129 70.2637 -43.0664 L 88.4277 -24.9023 L 98.7793 -14.6484 L 88.4766 -14.7461 L 13.5742 -14.7461 C 12.9883 -14.7461 12.4512 -14.2578 12.4512 -13.623 C 12.4512 -12.9883 12.9883 -12.5 13.5742 -12.5 L 88.4766 -12.5 L 98.7793 -12.5977 L 88.4277 -2.34375 L 70.2637 15.8203 C 70.0684 15.9668 69.9707 16.3574 69.9707 16.6992 C 69.9707 17.2852 70.459 17.8223 71.1426 17.8223 C 71.5332 17.8223 71.7285 17.7246 71.9727 17.4805 L 102.002 -12.793 C 102.246 -13.0371 102.344 -13.2812 102.344 -13.623 Z"/>
  </g>
  <g id="Black-S" transform="matrix(1 0 0 1 2886.45 696)">
   <path d="M 84.1309 -55.2246 C 84.1309 -60.0586 80.7617 -63.2324 75.6348 -63.2324 L 42.3828 -63.2324 L 34.3262 -62.8418 L 38.2812 -65.9668 L 42.1875 -69.7754 C 43.7012 -71.2402 44.873 -72.998 44.873 -75.5371 C 44.873 -79.7852 41.7969 -83.0566 37.207 -83.0566 C 35.1074 -83.0566 33.1055 -82.1777 31.4941 -80.5664 L 12.0117 -61.084 C 10.6445 -59.7168 9.76562 -57.373 9.76562 -55.2246 C 9.76562 -53.0762 10.6445 -50.7324 12.0117 -49.3652 L 31.4941 -29.9316 C 33.1055 -28.3203 35.1074 -27.4414 37.207 -27.4414 C 41.7969 -27.4414 44.873 -30.7129 44.873 -34.9609 C 44.873 -37.5 43.7012 -39.2578 42.1875 -40.7227 L 38.2812 -44.4824 L 34.3262 -47.6074 L 42.3828 -47.2168 L 75.6348 -47.2168 C 80.7617 -47.2168 84.1309 -50.3906 84.1309 -55.2246 Z M 84.1309 -15.1367 C 84.1309 -17.2852 83.252 -19.6289 81.8848 -20.9961 L 62.4023 -40.4785 C 60.791 -42.0898 58.7891 -42.9688 56.6895 -42.9688 C 52.0996 -42.9688 49.0234 -39.6973 49.0234 -35.4492 C 49.0234 -32.9102 50.1953 -31.1523 51.709 -29.6875 L 55.6152 -25.8789 L 59.5703 -22.7539 L 51.5137 -23.1445 L 18.2617 -23.1445 C 13.1348 -23.1445 9.76562 -19.9707 9.76562 -15.1367 C 9.76562 -10.3027 13.1348 -7.12891 18.2617 -7.12891 L 51.5137 -7.12891 L 59.5703 -7.51953 L 55.6152 -4.39453 L 51.709 -0.634766 C 50.1953 0.830078 49.0234 2.58789 49.0234 5.12695 C 49.0234 9.375 52.0996 12.6465 56.6895 12.6465 C 58.7891 12.6465 60.791 11.7676 62.4023 10.1562 L 81.8848 -9.27734 C 83.252 -10.6445 84.1309 -12.9883 84.1309 -15.1367 Z"/>
  </g>
  <g id="Heavy-S" transform="matrix(1 0 0 1 2589.94 696)">
   <path d="M 83.7402 -55.0781 C 83.7402 -59.3262 80.7617 -62.1582 76.3184 -62.1582 L 39.6484 -62.1582 L 31.3477 -61.7676 L 36.0352 -65.4785 L 41.4551 -70.752 C 42.7734 -72.0703 43.75 -73.584 43.75 -75.8301 C 43.75 -79.5898 41.0156 -82.4707 36.9629 -82.4707 C 35.1562 -82.4707 33.3496 -81.6895 31.9336 -80.2734 L 11.7676 -60.2539 C 10.5469 -59.0332 9.76562 -56.9824 9.76562 -55.0781 C 9.76562 -53.1738 10.5469 -51.1719 11.7676 -49.9023 L 31.9336 -29.9316 C 33.3496 -28.5156 35.1562 -27.7344 36.9629 -27.7344 C 41.0156 -27.7344 43.75 -30.6152 43.75 -34.4238 C 43.75 -36.6211 42.7734 -38.1836 41.4551 -39.4531 L 36.0352 -44.6777 L 31.3477 -48.4375 L 39.6484 -48.0469 L 76.3184 -48.0469 C 80.7617 -48.0469 83.7402 -50.8789 83.7402 -55.0781 Z M 83.7402 -15.2832 C 83.7402 -17.1875 82.959 -19.2383 81.6895 -20.459 L 61.5723 -40.4785 C 60.1562 -41.8945 58.3496 -42.6758 56.543 -42.6758 C 52.4414 -42.6758 49.7559 -39.7949 49.7559 -36.0352 C 49.7559 -33.8379 50.7324 -32.2754 52.0508 -31.0059 L 57.4707 -25.7324 L 62.1582 -21.9727 L 53.8574 -22.3633 L 17.1875 -22.3633 C 12.7441 -22.3633 9.76562 -19.5312 9.76562 -15.2832 C 9.76562 -11.084 12.7441 -8.25195 17.1875 -8.25195 L 53.8574 -8.25195 L 62.1582 -8.64258 L 57.4707 -4.88281 L 52.0508 0.341797 C 50.7324 1.61133 49.7559 3.17383 49.7559 5.37109 C 49.7559 9.17969 52.4414 12.0117 56.543 12.0117 C 58.3496 12.0117 60.1562 11.2305 61.5723 9.86328 L 81.6895 -10.1562 C 82.959 -11.377 83.7402 -13.4277 83.7402 -15.2832 Z"/>
  </g>
  <g id="Bold-S" transform="matrix(1 0 0 1 2293.44 696)">
   <path d="M 83.3008 -54.9316 C 83.3008 -58.4961 80.7617 -60.9375 77.0508 -60.9375 L 36.5723 -60.9375 L 27.9785 -60.498 L 33.4961 -64.9414 L 40.625 -71.875 C 41.6992 -72.998 42.4805 -74.2676 42.4805 -76.123 C 42.4805 -79.3945 40.1855 -81.8359 36.7188 -81.8359 C 35.2051 -81.8359 33.5938 -81.1523 32.4219 -79.9805 L 11.5234 -59.3262 C 10.4004 -58.252 9.76562 -56.543 9.76562 -54.9316 C 9.76562 -53.3203 10.4004 -51.6602 11.5234 -50.5371 L 32.4219 -29.9316 C 33.5938 -28.7598 35.2051 -28.0762 36.7188 -28.0762 C 40.1855 -28.0762 42.4805 -30.5176 42.4805 -33.7891 C 42.4805 -35.6445 41.6992 -36.9141 40.625 -38.0371 L 33.4961 -44.9219 L 27.9785 -49.3652 L 36.5723 -48.9746 L 77.0508 -48.9746 C 80.7617 -48.9746 83.3008 -51.3672 83.3008 -54.9316 Z M 83.3008 -15.4785 C 83.3008 -17.0898 82.6172 -18.7988 81.4941 -19.9219 L 60.6445 -40.5273 C 59.4238 -41.6992 57.8613 -42.3828 56.3477 -42.3828 C 52.8809 -42.3828 50.5859 -39.9414 50.5859 -36.6699 C 50.5859 -34.8145 51.3184 -33.5449 52.4414 -32.4219 L 59.5703 -25.5371 L 65.0879 -21.0449 L 56.4941 -21.4844 L 15.9668 -21.4844 C 12.2559 -21.4844 9.76562 -19.043 9.76562 -15.4785 C 9.76562 -11.9141 12.2559 -9.52148 15.9668 -9.52148 L 56.4941 -9.52148 L 65.0879 -9.91211 L 59.5703 -5.46875 L 52.4414 1.41602 C 51.3184 2.49023 50.5859 3.80859 50.5859 5.66406 C 50.5859 8.93555 52.8809 11.3281 56.3477 11.3281 C 57.8613 11.3281 59.4238 10.6934 60.6445 9.47266 L 81.4941 -11.084 C 82.6172 -12.207 83.3008 -13.8672 83.3008 -15.4785 Z"/>
  </g>
  <g id="Semibold-S" transform="matrix(1 0 0 1 1996.9 696)">
   <path d="M 82.959 -54.834 C 82.959 -57.959 80.8105 -60.0586 77.5879 -60.0586 L 34.4238 -60.0586 L 25.6836 -59.668 L 31.7383 -64.5996 L 40.0391 -72.6562 C 41.0156 -73.584 41.6016 -74.7559 41.6016 -76.3184 C 41.6016 -79.248 39.5996 -81.3477 36.5234 -81.3477 C 35.2051 -81.3477 33.7891 -80.7617 32.7637 -79.7363 L 11.377 -58.7402 C 10.3516 -57.7148 9.76562 -56.25 9.76562 -54.834 C 9.76562 -53.418 10.3516 -51.9531 11.377 -50.9766 L 32.7637 -29.9805 C 33.7891 -28.9551 35.2051 -28.3203 36.5234 -28.3203 C 39.5996 -28.3203 41.6016 -30.4688 41.6016 -33.3984 C 41.6016 -34.9609 41.0156 -36.084 40.0391 -37.0605 L 31.7383 -45.0684 L 25.6836 -50.0488 L 34.4238 -49.6094 L 77.5879 -49.6094 C 80.8105 -49.6094 82.959 -51.7578 82.959 -54.834 Z M 82.959 -15.625 C 82.959 -17.041 82.4219 -18.5059 81.3965 -19.4824 L 59.9609 -40.5273 C 58.9355 -41.5527 57.5195 -42.1387 56.2012 -42.1387 C 53.1738 -42.1387 51.123 -40.0391 51.123 -37.1094 C 51.123 -35.5469 51.7578 -34.375 52.7344 -33.4473 L 61.0352 -25.3906 L 67.0898 -20.459 L 58.3008 -20.8496 L 15.1367 -20.8496 C 11.9629 -20.8496 9.76562 -18.75 9.76562 -15.625 C 9.76562 -12.5488 11.9629 -10.4004 15.1367 -10.4004 L 58.3008 -10.4004 L 67.0898 -10.791 L 61.0352 -5.85938 L 52.7344 2.19727 C 51.7578 3.125 51.123 4.24805 51.123 5.81055 C 51.123 8.74023 53.1738 10.8887 56.2012 10.8887 C 57.5195 10.8887 58.9355 10.2539 59.9609 9.27734 L 81.3965 -11.7676 C 82.4219 -12.7441 82.959 -14.209 82.959 -15.625 Z"/>
  </g>
  <g id="Medium-S" transform="matrix(1 0 0 1 1700.29 696)">
   <path d="M 82.7637 -54.7852 C 82.7637 -57.5195 80.8105 -59.4238 77.9785 -59.4238 L 32.8613 -59.4238 L 23.9258 -58.9844 L 30.4199 -64.3066 L 39.5996 -73.2422 C 40.4297 -74.0723 40.9668 -75.0977 40.9668 -76.4648 C 40.9668 -79.1016 39.1602 -81.0059 36.377 -81.0059 C 35.2539 -81.0059 33.9355 -80.4688 33.0078 -79.5898 L 11.2305 -58.252 C 10.2539 -57.2754 9.76562 -56.0547 9.76562 -54.7852 C 9.76562 -53.5156 10.2539 -52.2461 11.2305 -51.2695 L 33.0078 -29.9805 C 33.9355 -29.0527 35.2539 -28.5156 36.377 -28.5156 C 39.1602 -28.5156 40.9668 -30.4199 40.9668 -33.0566 C 40.9668 -34.4238 40.4297 -35.4492 39.5996 -36.2793 L 30.4199 -45.2148 L 23.9258 -50.5371 L 32.8613 -50.0977 L 77.9785 -50.0977 C 80.8105 -50.0977 82.7637 -52.002 82.7637 -54.7852 Z M 82.7637 -15.7227 C 82.7637 -16.9922 82.2266 -18.2617 81.25 -19.1895 L 59.4727 -40.5273 C 58.5938 -41.4551 57.2754 -41.9922 56.1035 -41.9922 C 53.3691 -41.9922 51.5625 -40.0879 51.5625 -37.4512 C 51.5625 -36.0352 52.0508 -35.0586 52.9297 -34.2285 L 62.1094 -25.293 L 68.5547 -19.9707 L 59.668 -20.4102 L 14.502 -20.4102 C 11.7188 -20.4102 9.76562 -18.457 9.76562 -15.7227 C 9.76562 -12.9883 11.7188 -11.0352 14.502 -11.0352 L 59.668 -11.0352 L 68.5547 -11.4746 L 62.1094 -6.15234 L 52.9297 2.73438 C 52.0508 3.56445 51.5625 4.58984 51.5625 5.95703 C 51.5625 8.64258 53.3691 10.498 56.1035 10.498 C 57.2754 10.498 58.5938 9.96094 59.4727 9.08203 L 81.25 -12.2559 C 82.2266 -13.1836 82.7637 -14.4531 82.7637 -15.7227 Z"/>
  </g>
  <g id="Regular-S" transform="matrix(1 0 0 1 1403.75 696)">
   <path d="M 82.4219 -54.6387 C 82.4219 -56.9336 80.8105 -58.5938 78.5156 -58.5938 L 30.7617 -58.5938 L 21.6797 -58.1543 L 28.6621 -63.9648 L 39.0137 -74.0234 C 39.7461 -74.707 40.0879 -75.5371 40.0879 -76.6602 C 40.0879 -78.9551 38.5742 -80.5664 36.2305 -80.5664 C 35.2539 -80.5664 34.1309 -80.0781 33.3496 -79.3457 L 11.084 -57.6172 C 10.2051 -56.7871 9.76562 -55.7617 9.76562 -54.6387 C 9.76562 -53.5645 10.2051 -52.5391 11.084 -51.709 L 33.3496 -29.9805 C 34.1309 -29.1992 35.2539 -28.7598 36.2305 -28.7598 C 38.5742 -28.7598 40.0879 -30.3711 40.0879 -32.666 C 40.0879 -33.7891 39.7461 -34.6191 39.0137 -35.3027 L 28.6621 -45.3613 L 21.6797 -51.1719 L 30.7617 -50.7324 L 78.5156 -50.7324 C 80.8105 -50.7324 82.4219 -52.3438 82.4219 -54.6387 Z M 82.4219 -15.8691 C 82.4219 -16.9434 82.0312 -17.9688 81.1523 -18.7988 L 58.8379 -40.5273 C 58.1055 -41.3086 56.9336 -41.748 56.0059 -41.748 C 53.6621 -41.748 52.0996 -40.1855 52.0996 -37.8906 C 52.0996 -36.7676 52.4902 -35.8887 53.1738 -35.2051 L 63.5254 -25.1465 L 70.5078 -19.3359 L 61.4746 -19.7754 L 13.7207 -19.7754 C 11.4258 -19.7754 9.76562 -18.1641 9.76562 -15.8691 C 9.76562 -13.5742 11.4258 -11.9141 13.7207 -11.9141 L 61.4746 -11.9141 L 70.5078 -12.3535 L 63.5254 -6.54297 L 53.1738 3.4668 C 52.4902 4.19922 52.0996 5.0293 52.0996 6.15234 C 52.0996 8.44727 53.6621 10.0586 56.0059 10.0586 C 56.9336 10.0586 58.1055 9.57031 58.8379 8.83789 L 81.1523 -12.8906 C 82.0312 -13.7695 82.4219 -14.7949 82.4219 -15.8691 Z"/>
  </g>
  <g id="Light-S" transform="matrix(1 0 0 1 1107.38 696)">
   <path d="M 81.7383 -53.9551 C 81.7383 -55.7129 80.4688 -56.9336 78.7598 -56.9336 L 27.5879 -56.9336 L 18.75 -56.5918 L 26.1719 -63.1348 L 37.7441 -74.4629 C 38.2812 -75 38.5742 -75.6348 38.5742 -76.5137 C 38.5742 -78.2227 37.3535 -79.4922 35.5957 -79.4922 C 34.8633 -79.4922 33.9844 -79.1016 33.3984 -78.5645 L 10.7422 -56.2012 C 10.1074 -55.5664 9.76562 -54.7852 9.76562 -53.9551 C 9.76562 -53.125 10.1074 -52.3438 10.7422 -51.709 L 33.3984 -29.3945 C 33.9844 -28.8086 34.8633 -28.4668 35.5957 -28.4668 C 37.3535 -28.4668 38.5742 -29.6875 38.5742 -31.3965 C 38.5742 -32.2754 38.2812 -32.9102 37.7441 -33.4473 L 26.1719 -44.8242 L 18.75 -51.3184 L 27.5879 -50.9766 L 78.7598 -50.9766 C 80.4688 -50.9766 81.7383 -52.1973 81.7383 -53.9551 Z M 81.7383 -16.6016 C 81.7383 -17.4316 81.4453 -18.2129 80.7617 -18.8477 L 58.1055 -41.2109 C 57.5195 -41.7969 56.6406 -42.1387 55.9082 -42.1387 C 54.1504 -42.1387 52.9297 -40.918 52.9297 -39.1602 C 52.9297 -38.3301 53.2227 -37.6465 53.7598 -37.1094 L 65.332 -25.7812 L 72.7539 -19.2383 L 63.916 -19.5801 L 12.7441 -19.5801 C 11.0352 -19.5801 9.76562 -18.3594 9.76562 -16.6016 C 9.76562 -14.8926 11.0352 -13.623 12.7441 -13.623 L 63.916 -13.623 L 72.7539 -13.9648 L 65.332 -7.4707 L 53.7598 3.90625 C 53.2227 4.39453 52.9297 5.07812 52.9297 5.95703 C 52.9297 7.66602 54.1504 8.88672 55.9082 8.88672 C 56.6406 8.88672 57.5195 8.54492 58.1055 7.95898 L 80.7617 -14.4043 C 81.4453 -15.0391 81.7383 -15.7715 81.7383 -16.6016 Z"/>
  </g>
  <g id="Thin-S" transform="matrix(1 0 0 1 811.134 696)">
   <path d="M 80.8105 -53.0273 C 80.8105 -54.0527 80.0781 -54.7363 79.1016 -54.7363 L 23.4375 -54.7363 L 14.9902 -54.541 L 22.9004 -62.0117 L 36.0352 -75.0488 C 36.3281 -75.3418 36.5234 -75.7812 36.5234 -76.3184 C 36.5234 -77.2949 35.791 -78.0273 34.7656 -78.0273 C 34.2773 -78.0273 33.8379 -77.832 33.4961 -77.4902 L 10.3516 -54.2969 C 9.96094 -53.9551 9.76562 -53.5156 9.76562 -53.0273 C 9.76562 -52.5391 9.96094 -52.0996 10.3516 -51.7578 L 33.4961 -28.5645 C 33.8379 -28.2227 34.2773 -28.0273 34.7656 -28.0273 C 35.791 -28.0273 36.5234 -28.8086 36.5234 -29.7363 C 36.5234 -30.2734 36.3281 -30.7129 36.0352 -31.0059 L 22.9004 -44.0918 L 14.9902 -51.5137 L 23.4375 -51.3184 L 79.1016 -51.3184 C 80.0781 -51.3184 80.8105 -52.0508 80.8105 -53.0273 Z M 80.8105 -17.627 C 80.8105 -18.1152 80.6152 -18.5547 80.2734 -18.8965 L 57.0801 -42.0898 C 56.7383 -42.4316 56.2988 -42.627 55.8105 -42.627 C 54.7852 -42.627 54.0527 -41.8457 54.0527 -40.918 C 54.0527 -40.3809 54.248 -39.9414 54.541 -39.6484 L 67.6758 -26.5625 L 75.5859 -19.1406 L 67.1387 -19.3359 L 11.4746 -19.3359 C 10.5469 -19.3359 9.76562 -18.6035 9.76562 -17.627 C 9.76562 -16.6016 10.5469 -15.918 11.4746 -15.918 L 67.1387 -15.918 L 75.5859 -16.1133 L 67.6758 -8.64258 L 54.541 4.39453 C 54.248 4.6875 54.0527 5.12695 54.0527 5.66406 C 54.0527 6.64062 54.7852 7.37305 55.8105 7.37305 C 56.2988 7.37305 56.7383 7.17773 57.0801 6.83594 L 80.2734 -16.3574 C 80.6152 -16.6992 80.8105 -17.1387 80.8105 -17.627 Z"/>
  </g>
  <g id="Ultralight-S" transform="matrix(1 0 0 1 514.667 696)">
   <path d="M 80.3223 -52.5391 C 80.3223 -53.1738 79.834 -53.6133 79.248 -53.6133 L 21.2891 -53.6133 L 13.1348 -53.5156 L 21.1914 -61.4258 L 35.1562 -75.3906 C 35.3516 -75.5371 35.4492 -75.8789 35.4492 -76.2207 C 35.4492 -76.7578 35.0098 -77.2949 34.3262 -77.2949 C 33.9844 -77.2949 33.7402 -77.1484 33.5449 -76.9531 L 10.1074 -53.3691 C 9.86328 -53.125 9.76562 -52.8809 9.76562 -52.5391 C 9.76562 -52.1973 9.86328 -52.002 10.1074 -51.7578 L 33.5449 -28.1738 C 33.7402 -27.9297 33.9844 -27.832 34.3262 -27.832 C 35.0098 -27.832 35.4492 -28.3203 35.4492 -28.9062 C 35.4492 -29.248 35.3516 -29.541 35.1562 -29.7363 L 21.1914 -43.7012 L 13.1348 -51.6113 L 21.2891 -51.4648 L 79.248 -51.4648 C 79.834 -51.4648 80.3223 -51.9043 80.3223 -52.5391 Z M 80.3223 -18.1641 C 80.3223 -18.457 80.2246 -18.7012 79.9805 -18.9453 L 56.543 -42.5293 C 56.3477 -42.7246 56.1035 -42.8711 55.7617 -42.8711 C 55.0781 -42.8711 54.6387 -42.3828 54.6387 -41.7969 C 54.6387 -41.4551 54.7852 -41.1133 54.9316 -40.9668 L 68.8965 -27.002 L 76.9531 -19.0918 L 68.7988 -19.2383 L 10.8398 -19.2383 C 10.2539 -19.2383 9.76562 -18.75 9.76562 -18.1641 C 9.76562 -17.5293 10.2539 -17.0898 10.8398 -17.0898 L 68.7988 -17.0898 L 76.9531 -17.1875 L 68.8965 -9.27734 L 54.9316 4.6875 C 54.7852 4.83398 54.6387 5.17578 54.6387 5.51758 C 54.6387 6.10352 55.0781 6.5918 55.7617 6.5918 C 56.1035 6.5918 56.3477 6.44531 56.543 6.25 L 79.9805 -17.334 C 80.2246 -17.5781 80.3223 -17.8223 80.3223 -18.1641 Z"/>
  </g>
 </g>
</svg>
