<?xml version="1.0" encoding="UTF-8"?>
<!--Generator: Apple Native CoreSVG 123-->
<!DOCTYPE svg
PUBLIC "-//W3C//DTD SVG 1.1//EN"
       "http://www.w3.org/Graphics/SVG/1.1/DTD/svg11.dtd">
<svg version="1.1" xmlns="http://www.w3.org/2000/svg" xmlns:xlink="http://www.w3.org/1999/xlink" width="3300" height="2200">
 <!--glyph: "uni100246.medium", point size: 100.000000, font version: "Version 15.0d7e11", template writer version: "5"-->
 <g id="Notes">
  <rect height="2200" id="artboard" style="fill:white;opacity:1" width="3300" x="0" y="0"/>
  <line id="" style="fill:none;stroke:black;opacity:1;stroke-width:0.5;" x1="263" x2="3036" y1="292" y2="292"/>
  <text style="stroke:none;fill:black;font-family:-apple-system,&quot;SF Pro Display&quot;,&quot;SF Pro Text&quot;,Helvetica,sans-serif;font-weight:bold;" transform="matrix(1 0 0 1 263 322)">Weight/Scale Variations</text>
  <text style="stroke:none;fill:black;font-family:-apple-system,&quot;SF Pro Display&quot;,&quot;SF Pro Text&quot;,Helvetica,sans-serif;text-anchor:middle;" transform="matrix(1 0 0 1 559.711 322)">Ultralight</text>
  <text style="stroke:none;fill:black;font-family:-apple-system,&quot;SF Pro Display&quot;,&quot;SF Pro Text&quot;,Helvetica,sans-serif;text-anchor:middle;" transform="matrix(1 0 0 1 856.422 322)">Thin</text>
  <text style="stroke:none;fill:black;font-family:-apple-system,&quot;SF Pro Display&quot;,&quot;SF Pro Text&quot;,Helvetica,sans-serif;text-anchor:middle;" transform="matrix(1 0 0 1 1153.13 322)">Light</text>
  <text style="stroke:none;fill:black;font-family:-apple-system,&quot;SF Pro Display&quot;,&quot;SF Pro Text&quot;,Helvetica,sans-serif;text-anchor:middle;" transform="matrix(1 0 0 1 1449.84 322)">Regular</text>
  <text style="stroke:none;fill:black;font-family:-apple-system,&quot;SF Pro Display&quot;,&quot;SF Pro Text&quot;,Helvetica,sans-serif;text-anchor:middle;" transform="matrix(1 0 0 1 1746.56 322)">Medium</text>
  <text style="stroke:none;fill:black;font-family:-apple-system,&quot;SF Pro Display&quot;,&quot;SF Pro Text&quot;,Helvetica,sans-serif;text-anchor:middle;" transform="matrix(1 0 0 1 2043.27 322)">Semibold</text>
  <text style="stroke:none;fill:black;font-family:-apple-system,&quot;SF Pro Display&quot;,&quot;SF Pro Text&quot;,Helvetica,sans-serif;text-anchor:middle;" transform="matrix(1 0 0 1 2339.98 322)">Bold</text>
  <text style="stroke:none;fill:black;font-family:-apple-system,&quot;SF Pro Display&quot;,&quot;SF Pro Text&quot;,Helvetica,sans-serif;text-anchor:middle;" transform="matrix(1 0 0 1 2636.69 322)">Heavy</text>
  <text style="stroke:none;fill:black;font-family:-apple-system,&quot;SF Pro Display&quot;,&quot;SF Pro Text&quot;,Helvetica,sans-serif;text-anchor:middle;" transform="matrix(1 0 0 1 2933.4 322)">Black</text>
  <line id="" style="fill:none;stroke:black;opacity:1;stroke-width:0.5;" x1="263" x2="3036" y1="1903" y2="1903"/>
  <g id="" transform="matrix(1 0 0 1 263 1933)">
   <path d="M 9.24805 0.830078 C 13.5547 0.830078 17.1387 -2.74414 17.1387 -7.05078 C 17.1387 -11.3574 13.5449 -14.9316 9.23828 -14.9316 C 4.94141 -14.9316 1.36719 -11.3574 1.36719 -7.05078 C 1.36719 -2.74414 4.95117 0.830078 9.24805 0.830078 Z M 9.24805 -0.654297 C 5.70312 -0.654297 2.87109 -3.49609 2.87109 -7.05078 C 2.87109 -10.6055 5.69336 -13.4473 9.23828 -13.4473 C 12.793 -13.4473 15.6348 -10.6055 15.6445 -7.05078 C 15.6543 -3.49609 12.8027 -0.654297 9.24805 -0.654297 Z M 9.22852 -3.42773 C 9.69727 -3.42773 9.9707 -3.74023 9.9707 -4.25781 L 9.9707 -6.31836 L 12.1973 -6.31836 C 12.6953 -6.31836 13.0371 -6.57227 13.0371 -7.04102 C 13.0371 -7.51953 12.7148 -7.7832 12.1973 -7.7832 L 9.9707 -7.7832 L 9.9707 -10.0098 C 9.9707 -10.5273 9.69727 -10.8496 9.22852 -10.8496 C 8.75977 -10.8496 8.50586 -10.5078 8.50586 -10.0098 L 8.50586 -7.7832 L 6.29883 -7.7832 C 5.78125 -7.7832 5.44922 -7.51953 5.44922 -7.04102 C 5.44922 -6.57227 5.80078 -6.31836 6.29883 -6.31836 L 8.50586 -6.31836 L 8.50586 -4.25781 C 8.50586 -3.75977 8.75977 -3.42773 9.22852 -3.42773 Z"/>
  </g>
  <g id="" transform="matrix(1 0 0 1 281.506 1933)">
   <path d="M 11.709 2.91016 C 17.1582 2.91016 21.6699 -1.60156 21.6699 -7.05078 C 21.6699 -12.4902 17.1484 -17.0117 11.6992 -17.0117 C 6.25977 -17.0117 1.74805 -12.4902 1.74805 -7.05078 C 1.74805 -1.60156 6.26953 2.91016 11.709 2.91016 Z M 11.709 1.25 C 7.09961 1.25 3.41797 -2.44141 3.41797 -7.05078 C 3.41797 -11.6504 7.08984 -15.3516 11.6992 -15.3516 C 16.3086 -15.3516 20 -11.6504 20.0098 -7.05078 C 20.0195 -2.44141 16.3184 1.25 11.709 1.25 Z M 11.6895 -2.41211 C 12.207 -2.41211 12.5195 -2.77344 12.5195 -3.33984 L 12.5195 -6.23047 L 15.5762 -6.23047 C 16.123 -6.23047 16.5039 -6.51367 16.5039 -7.03125 C 16.5039 -7.55859 16.1426 -7.86133 15.5762 -7.86133 L 12.5195 -7.86133 L 12.5195 -10.9277 C 12.5195 -11.5039 12.207 -11.8555 11.6895 -11.8555 C 11.1719 -11.8555 10.8789 -11.4844 10.8789 -10.9277 L 10.8789 -7.86133 L 7.83203 -7.86133 C 7.26562 -7.86133 6.89453 -7.55859 6.89453 -7.03125 C 6.89453 -6.51367 7.28516 -6.23047 7.83203 -6.23047 L 10.8789 -6.23047 L 10.8789 -3.33984 C 10.8789 -2.79297 11.1719 -2.41211 11.6895 -2.41211 Z"/>
  </g>
  <g id="" transform="matrix(1 0 0 1 304.924 1933)">
   <path d="M 14.9707 5.67383 C 21.9336 5.67383 27.6953 -0.078125 27.6953 -7.04102 C 27.6953 -14.0039 21.9238 -19.7559 14.9609 -19.7559 C 8.00781 -19.7559 2.25586 -14.0039 2.25586 -7.04102 C 2.25586 -0.078125 8.01758 5.67383 14.9707 5.67383 Z M 14.9707 3.85742 C 8.93555 3.85742 4.08203 -1.00586 4.08203 -7.04102 C 4.08203 -13.0762 8.92578 -17.9395 14.9609 -17.9395 C 21.0059 -17.9395 25.8594 -13.0762 25.8691 -7.04102 C 25.8789 -1.00586 21.0156 3.85742 14.9707 3.85742 Z M 14.9512 -1.06445 C 15.5176 -1.06445 15.8691 -1.45508 15.8691 -2.06055 L 15.8691 -6.13281 L 20.1074 -6.13281 C 20.6934 -6.13281 21.1133 -6.46484 21.1133 -7.02148 C 21.1133 -7.59766 20.7227 -7.93945 20.1074 -7.93945 L 15.8691 -7.93945 L 15.8691 -12.1875 C 15.8691 -12.8027 15.5176 -13.1934 14.9512 -13.1934 C 14.3848 -13.1934 14.0625 -12.7832 14.0625 -12.1875 L 14.0625 -7.93945 L 9.83398 -7.93945 C 9.21875 -7.93945 8.80859 -7.59766 8.80859 -7.02148 C 8.80859 -6.46484 9.23828 -6.13281 9.83398 -6.13281 L 14.0625 -6.13281 L 14.0625 -2.06055 C 14.0625 -1.47461 14.3848 -1.06445 14.9512 -1.06445 Z"/>
  </g>
  <text style="stroke:none;fill:black;font-family:-apple-system,&quot;SF Pro Display&quot;,&quot;SF Pro Text&quot;,Helvetica,sans-serif;font-weight:bold;" transform="matrix(1 0 0 1 263 1953)">Design Variations</text>
  <text style="stroke:none;fill:black;font-family:-apple-system,&quot;SF Pro Display&quot;,&quot;SF Pro Text&quot;,Helvetica,sans-serif;" transform="matrix(1 0 0 1 263 1971)">Symbols are supported in up to nine weights and three scales.</text>
  <text style="stroke:none;fill:black;font-family:-apple-system,&quot;SF Pro Display&quot;,&quot;SF Pro Text&quot;,Helvetica,sans-serif;" transform="matrix(1 0 0 1 263 1989)">For optimal layout with text and other symbols, vertically align</text>
  <text style="stroke:none;fill:black;font-family:-apple-system,&quot;SF Pro Display&quot;,&quot;SF Pro Text&quot;,Helvetica,sans-serif;" transform="matrix(1 0 0 1 263 2007)">symbols with the adjacent text.</text>
  <rect height="14" id="" style="fill:#00AEEF;stroke:none;opacity:0.4;" width="3" x="776" y="1919"/>
  <g id="" transform="matrix(1 0 0 1 779 1933)">
   <path d="M 10.5273 0 L 12.373 0 L 7.17773 -14.0918 L 5.43945 -14.0918 L 0.244141 0 L 2.08984 0 L 3.50586 -4.0332 L 9.11133 -4.0332 Z M 6.2793 -11.9531 L 6.33789 -11.9531 L 8.59375 -5.52734 L 4.02344 -5.52734 Z"/>
  </g>
  <rect height="14" id="" style="fill:#00AEEF;stroke:none;opacity:0.4;" width="3" x="791.617" y="1919"/>
  <text style="stroke:none;fill:black;font-family:-apple-system,&quot;SF Pro Display&quot;,&quot;SF Pro Text&quot;,Helvetica,sans-serif;font-weight:bold;" transform="matrix(1 0 0 1 776 1953)">Margins</text>
  <text style="stroke:none;fill:black;font-family:-apple-system,&quot;SF Pro Display&quot;,&quot;SF Pro Text&quot;,Helvetica,sans-serif;" transform="matrix(1 0 0 1 776 1971)">Leading and trailing margins on the left and right side of each symbol</text>
  <text style="stroke:none;fill:black;font-family:-apple-system,&quot;SF Pro Display&quot;,&quot;SF Pro Text&quot;,Helvetica,sans-serif;" transform="matrix(1 0 0 1 776 1989)">can be adjusted by modifying the width of the blue rectangles.</text>
  <text style="stroke:none;fill:black;font-family:-apple-system,&quot;SF Pro Display&quot;,&quot;SF Pro Text&quot;,Helvetica,sans-serif;" transform="matrix(1 0 0 1 776 2007)">Modifications are automatically applied proportionally to all</text>
  <text style="stroke:none;fill:black;font-family:-apple-system,&quot;SF Pro Display&quot;,&quot;SF Pro Text&quot;,Helvetica,sans-serif;" transform="matrix(1 0 0 1 776 2025)">scales and weights.</text>
  <g id="" transform="matrix(1 0 0 1 1289 1933)">
   <path d="M 2.83203 3.11523 L 4.375 4.6582 C 5.22461 5.48828 6.19141 5.41992 7.06055 4.46289 L 17.2754 -6.66016 C 17.7051 -6.36719 18.0957 -6.37695 18.5645 -6.47461 L 19.6094 -6.68945 L 20.3027 -5.99609 L 20.2539 -5.47852 C 20.1855 -4.95117 20.3516 -4.53125 20.8496 -4.0332 L 21.6602 -3.22266 C 22.168 -2.71484 22.8223 -2.68555 23.3008 -3.16406 L 26.5527 -6.41602 C 27.0312 -6.89453 27.0117 -7.54883 26.5039 -8.05664 L 25.6836 -8.87695 C 25.1855 -9.375 24.7754 -9.55078 24.2383 -9.47266 L 23.7109 -9.41406 L 23.0566 -10.0781 L 23.3398 -11.2207 C 23.4863 -11.7871 23.3398 -12.2559 22.7148 -12.8613 L 20.3027 -15.2539 C 16.7578 -18.7793 12.2266 -18.6719 9.11133 -15.5371 C 8.69141 -15.1074 8.64258 -14.5215 8.91602 -14.0918 C 9.15039 -13.7207 9.62891 -13.4961 10.2734 -13.6621 C 11.7871 -14.043 13.3008 -13.9258 14.7852 -12.9199 L 14.1602 -11.3379 C 13.9258 -10.752 13.9453 -10.2734 14.1797 -9.83398 L 3.01758 0.439453 C 2.08008 1.30859 1.97266 2.25586 2.83203 3.11523 Z M 10.6738 -15.1465 C 13.3398 -17.1387 16.6504 -16.8262 19.0527 -14.4141 L 21.6797 -11.8066 C 21.9141 -11.5723 21.9434 -11.3867 21.8848 -11.0938 L 21.5039 -9.53125 L 23.0762 -7.95898 L 24.043 -8.04688 C 24.3262 -8.07617 24.4141 -8.05664 24.6387 -7.83203 L 25.2637 -7.20703 L 22.5098 -4.46289 L 21.8848 -5.07812 C 21.6602 -5.30273 21.6406 -5.40039 21.6699 -5.68359 L 21.7578 -6.64062 L 20.1953 -8.20312 L 18.5742 -7.89062 C 18.291 -7.83203 18.1445 -7.83203 17.9102 -8.07617 L 15.7324 -10.2539 C 15.5078 -10.4883 15.4785 -10.625 15.6055 -10.9473 L 16.5527 -13.2227 C 14.9512 -14.7559 12.8418 -15.6055 10.8008 -14.9512 C 10.7129 -14.9219 10.6445 -14.9414 10.6152 -14.9805 C 10.5859 -15.0293 10.5859 -15.0781 10.6738 -15.1465 Z M 4.10156 2.41211 C 3.61328 1.91406 3.78906 1.61133 4.12109 1.30859 L 15.0781 -8.80859 L 16.3086 -7.57812 L 6.15234 3.34961 C 5.84961 3.68164 5.46875 3.7793 5.06836 3.37891 Z"/>
  </g>
  <text style="stroke:none;fill:black;font-family:-apple-system,&quot;SF Pro Display&quot;,&quot;SF Pro Text&quot;,Helvetica,sans-serif;font-weight:bold;" transform="matrix(1 0 0 1 1289 1953)">Exporting</text>
  <text style="stroke:none;fill:black;font-family:-apple-system,&quot;SF Pro Display&quot;,&quot;SF Pro Text&quot;,Helvetica,sans-serif;" transform="matrix(1 0 0 1 1289 1971)">Symbols should be outlined when exporting to ensure the</text>
  <text style="stroke:none;fill:black;font-family:-apple-system,&quot;SF Pro Display&quot;,&quot;SF Pro Text&quot;,Helvetica,sans-serif;" transform="matrix(1 0 0 1 1289 1989)">design is preserved when submitting to Xcode.</text>
  <text id="template-version" style="stroke:none;fill:black;font-family:-apple-system,&quot;SF Pro Display&quot;,&quot;SF Pro Text&quot;,Helvetica,sans-serif;text-anchor:end;" transform="matrix(1 0 0 1 3036 1933)">Template v.1.0</text>
  <text style="stroke:none;fill:black;font-family:-apple-system,&quot;SF Pro Display&quot;,&quot;SF Pro Text&quot;,Helvetica,sans-serif;text-anchor:end;" transform="matrix(1 0 0 1 3036 1951)">Generated from doc.plaintext</text>
  <text style="stroke:none;fill:black;font-family:-apple-system,&quot;SF Pro Display&quot;,&quot;SF Pro Text&quot;,Helvetica,sans-serif;text-anchor:end;" transform="matrix(1 0 0 1 3036 1969)">Typeset at 100 points</text>
  <text style="stroke:none;fill:black;font-family:-apple-system,&quot;SF Pro Display&quot;,&quot;SF Pro Text&quot;,Helvetica,sans-serif;" transform="matrix(1 0 0 1 263 726)">Small</text>
  <text style="stroke:none;fill:black;font-family:-apple-system,&quot;SF Pro Display&quot;,&quot;SF Pro Text&quot;,Helvetica,sans-serif;" transform="matrix(1 0 0 1 263 1156)">Medium</text>
  <text style="stroke:none;fill:black;font-family:-apple-system,&quot;SF Pro Display&quot;,&quot;SF Pro Text&quot;,Helvetica,sans-serif;" transform="matrix(1 0 0 1 263 1586)">Large</text>
 </g>
 <g id="Guides">
  <g id="H-reference" style="fill:#27AAE1;stroke:none;" transform="matrix(1 0 0 1 339 696)">
   <path d="M 54.9316 0 L 57.666 0 L 30.5664 -70.459 L 28.0762 -70.459 L 0.976562 0 L 3.66211 0 L 12.9395 -24.4629 L 45.7031 -24.4629 Z M 29.1992 -67.0898 L 29.4434 -67.0898 L 44.8242 -26.709 L 13.8184 -26.709 Z"/>
  </g>
  <line id="Baseline-S" style="fill:none;stroke:#27AAE1;opacity:1;stroke-width:0.577;" x1="263" x2="3036" y1="696" y2="696"/>
  <line id="Capline-S" style="fill:none;stroke:#27AAE1;opacity:1;stroke-width:0.577;" x1="263" x2="3036" y1="625.541" y2="625.541"/>
  <g id="H-reference" style="fill:#27AAE1;stroke:none;" transform="matrix(1 0 0 1 339 1126)">
   <path d="M 54.9316 0 L 57.666 0 L 30.5664 -70.459 L 28.0762 -70.459 L 0.976562 0 L 3.66211 0 L 12.9395 -24.4629 L 45.7031 -24.4629 Z M 29.1992 -67.0898 L 29.4434 -67.0898 L 44.8242 -26.709 L 13.8184 -26.709 Z"/>
  </g>
  <line id="Baseline-M" style="fill:none;stroke:#27AAE1;opacity:1;stroke-width:0.577;" x1="263" x2="3036" y1="1126" y2="1126"/>
  <line id="Capline-M" style="fill:none;stroke:#27AAE1;opacity:1;stroke-width:0.577;" x1="263" x2="3036" y1="1055.54" y2="1055.54"/>
  <g id="H-reference" style="fill:#27AAE1;stroke:none;" transform="matrix(1 0 0 1 339 1556)">
   <path d="M 54.9316 0 L 57.666 0 L 30.5664 -70.459 L 28.0762 -70.459 L 0.976562 0 L 3.66211 0 L 12.9395 -24.4629 L 45.7031 -24.4629 Z M 29.1992 -67.0898 L 29.4434 -67.0898 L 44.8242 -26.709 L 13.8184 -26.709 Z"/>
  </g>
  <line id="Baseline-L" style="fill:none;stroke:#27AAE1;opacity:1;stroke-width:0.577;" x1="263" x2="3036" y1="1556" y2="1556"/>
  <line id="Capline-L" style="fill:none;stroke:#27AAE1;opacity:1;stroke-width:0.577;" x1="263" x2="3036" y1="1485.54" y2="1485.54"/>
  <rect height="119.336" id="left-margin" style="fill:#00AEEF;stroke:none;opacity:0.4;" width="12.4512" x="1396.33" y="1030.79"/>
  <rect height="119.336" id="right-margin" style="fill:#00AEEF;stroke:none;opacity:0.4;" width="12.4512" x="1490.91" y="1030.79"/>
 </g>
 <g id="Symbols">
  <g id="Black-L" transform="matrix(1 0 0 1 2859.65 1556)">
   <path d="M 39.8926 35.2539 L 107.617 35.2539 C 122.803 35.2539 131.445 26.6113 131.445 11.377 L 131.445 -81.7383 C 131.445 -96.9727 122.803 -105.615 107.617 -105.615 L 39.8926 -105.615 C 24.707 -105.615 16.0645 -96.9727 16.0645 -81.7383 L 16.0645 11.377 C 16.0645 26.6113 24.707 35.2539 39.8926 35.2539 Z M 42.7246 15.0391 C 38.1836 15.0391 36.3281 12.8418 36.3281 8.64258 L 36.3281 -79.0039 C 36.3281 -83.252 38.1836 -85.4004 42.7246 -85.4004 L 104.785 -85.4004 C 109.326 -85.4004 111.23 -83.252 111.23 -79.0039 L 111.23 8.64258 C 111.23 12.8418 109.326 15.0391 104.785 15.0391 Z M 53.7109 -60.8398 L 93.8965 -60.8398 C 96.4844 -60.8398 98.3887 -62.8418 98.3887 -65.3809 C 98.3887 -67.9199 96.4844 -69.8242 93.8965 -69.8242 L 53.7109 -69.8242 C 51.0254 -69.8242 49.1211 -67.9199 49.1211 -65.3809 C 49.1211 -62.8418 51.0254 -60.8398 53.7109 -60.8398 Z M 53.7109 -40.8203 L 93.8965 -40.8203 C 96.4844 -40.8203 98.3887 -42.8223 98.3887 -45.4102 C 98.3887 -47.9004 96.4844 -49.8047 93.8965 -49.8047 L 53.7109 -49.8047 C 51.0254 -49.8047 49.1211 -47.9004 49.1211 -45.4102 C 49.1211 -42.8223 51.0254 -40.8203 53.7109 -40.8203 Z M 53.7109 -20.8008 L 74.6582 -20.8008 C 77.2461 -20.8008 79.1992 -22.7539 79.1992 -25.2441 C 79.1992 -27.7832 77.2461 -29.834 74.6582 -29.834 L 53.7109 -29.834 C 51.0254 -29.834 49.1211 -27.7832 49.1211 -25.2441 C 49.1211 -22.7539 51.0254 -20.8008 53.7109 -20.8008 Z"/>
  </g>
  <g id="Heavy-L" transform="matrix(1 0 0 1 2564.18 1556)">
   <path d="M 38.7207 34.5215 L 106.348 34.5215 C 120.898 34.5215 128.955 26.416 128.955 11.7676 L 128.955 -82.1289 C 128.955 -96.7285 120.898 -104.883 106.348 -104.883 L 38.7207 -104.883 C 24.1699 -104.883 16.0645 -96.7285 16.0645 -82.1289 L 16.0645 11.7676 C 16.0645 26.416 24.1211 34.5215 38.7207 34.5215 Z M 40.9668 16.9922 C 35.8887 16.9922 33.5938 14.502 33.5938 9.66797 L 33.5938 -80.0293 C 33.5938 -84.8145 35.8887 -87.3535 41.0156 -87.3535 L 104.053 -87.3535 C 109.18 -87.3535 111.475 -84.8633 111.475 -80.0293 L 111.475 9.66797 C 111.475 14.502 109.18 16.9922 104.053 16.9922 Z M 51.416 -62.4512 L 93.6523 -62.4512 C 96.0938 -62.4512 97.9004 -64.3555 97.9004 -66.748 C 97.9004 -69.0918 96.0938 -70.9473 93.6523 -70.9473 L 51.416 -70.9473 C 48.9258 -70.9473 47.1191 -69.0918 47.1191 -66.748 C 47.1191 -64.3555 48.9258 -62.4512 51.416 -62.4512 Z M 51.416 -41.9434 L 93.6523 -41.9434 C 96.0938 -41.9434 97.9004 -43.8477 97.9004 -46.2891 C 97.9004 -48.6328 96.0938 -50.4395 93.6523 -50.4395 L 51.416 -50.4395 C 48.9258 -50.4395 47.1191 -48.6328 47.1191 -46.2891 C 47.1191 -43.8477 48.9258 -41.9434 51.416 -41.9434 Z M 51.416 -21.4844 L 72.998 -21.4844 C 75.3906 -21.4844 77.2461 -23.291 77.2461 -25.6348 C 77.2461 -28.0762 75.3906 -29.9316 72.998 -29.9316 L 51.416 -29.9316 C 48.9258 -29.9316 47.1191 -28.0762 47.1191 -25.6348 C 47.1191 -23.291 48.9258 -21.4844 51.416 -21.4844 Z"/>
  </g>
  <g id="Bold-L" transform="matrix(1 0 0 1 2268.86 1556)">
   <path d="M 37.4023 33.6914 L 104.883 33.6914 C 118.701 33.6914 126.172 26.1719 126.172 12.2559 L 126.172 -82.5684 C 126.172 -96.4844 118.701 -104.053 104.883 -104.053 L 37.4023 -104.053 C 23.584 -104.053 16.0645 -96.4844 16.0645 -82.5684 L 16.0645 12.2559 C 16.0645 26.1719 23.5352 33.6914 37.4023 33.6914 Z M 39.0137 19.2383 C 33.252 19.2383 30.5176 16.3086 30.5176 10.791 L 30.5176 -81.1523 C 30.5176 -86.5723 33.252 -89.5996 39.0625 -89.5996 L 103.223 -89.5996 C 108.984 -89.5996 111.719 -86.6699 111.719 -81.1523 L 111.719 10.791 C 111.719 16.3086 108.984 19.2383 103.223 19.2383 Z M 48.877 -64.2578 L 93.4082 -64.2578 C 95.7031 -64.2578 97.3633 -66.0156 97.3633 -68.2617 C 97.3633 -70.459 95.7031 -72.168 93.4082 -72.168 L 48.877 -72.168 C 46.582 -72.168 44.873 -70.459 44.873 -68.2617 C 44.873 -66.0156 46.582 -64.2578 48.877 -64.2578 Z M 48.877 -43.2617 L 93.4082 -43.2617 C 95.7031 -43.2617 97.3633 -45.0195 97.3633 -47.2656 C 97.3633 -49.4141 95.7031 -51.123 93.4082 -51.123 L 48.877 -51.123 C 46.582 -51.123 44.873 -49.4141 44.873 -47.2656 C 44.873 -45.0195 46.582 -43.2617 48.877 -43.2617 Z M 48.877 -22.2168 L 71.0938 -22.2168 C 73.3398 -22.2168 75.0488 -23.9258 75.0488 -26.0742 C 75.0488 -28.3203 73.3398 -30.0781 71.0938 -30.0781 L 48.877 -30.0781 C 46.582 -30.0781 44.873 -28.3203 44.873 -26.0742 C 44.873 -23.9258 46.582 -22.2168 48.877 -22.2168 Z"/>
  </g>
  <g id="Semibold-L" transform="matrix(1 0 0 1 1973.1 1556)">
   <path d="M 36.4746 33.1055 L 103.857 33.1055 C 117.188 33.1055 124.268 26.0254 124.268 12.5488 L 124.268 -82.9102 C 124.268 -96.3379 117.188 -103.467 103.857 -103.467 L 36.4746 -103.467 C 23.1445 -103.467 16.0645 -96.3379 16.0645 -82.9102 L 16.0645 12.5488 C 16.0645 26.0254 23.0957 33.1055 36.4746 33.1055 Z M 37.6465 20.8008 C 31.4453 20.8008 28.418 17.5781 28.418 11.5723 L 28.418 -81.9336 C 28.418 -87.793 31.4453 -91.1133 37.6953 -91.1133 L 102.637 -91.1133 C 108.838 -91.1133 111.914 -87.8906 111.914 -81.9336 L 111.914 11.5723 C 111.914 17.5781 108.838 20.8008 102.686 20.8008 Z M 47.1191 -65.5273 L 93.2617 -65.5273 C 95.4102 -65.5273 97.0215 -67.1875 97.0215 -69.3359 C 97.0215 -71.3867 95.4102 -72.998 93.2617 -72.998 L 47.1191 -72.998 C 44.9219 -72.998 43.3105 -71.3867 43.3105 -69.3359 C 43.3105 -67.1875 44.9219 -65.5273 47.1191 -65.5273 Z M 47.1191 -44.1406 L 93.2617 -44.1406 C 95.4102 -44.1406 97.0215 -45.8008 97.0215 -47.9492 C 97.0215 -50 95.4102 -51.6113 93.2617 -51.6113 L 47.1191 -51.6113 C 44.9219 -51.6113 43.3105 -50 43.3105 -47.9492 C 43.3105 -45.8008 44.9219 -44.1406 47.1191 -44.1406 Z M 47.1191 -22.7051 L 69.7754 -22.7051 C 71.9238 -22.7051 73.5352 -24.3164 73.5352 -26.416 C 73.5352 -28.5156 71.9238 -30.2246 69.7754 -30.2246 L 47.1191 -30.2246 C 44.9219 -30.2246 43.3105 -28.5156 43.3105 -26.416 C 43.3105 -24.3164 44.9219 -22.7051 47.1191 -22.7051 Z"/>
  </g>
  <g id="Medium-L" transform="matrix(1 0 0 1 1677.12 1556)">
   <path d="M 35.791 32.666 L 103.076 32.666 C 116.064 32.666 122.803 25.9277 122.803 12.793 L 122.803 -83.1055 C 122.803 -96.1914 116.064 -103.027 103.076 -103.027 L 35.791 -103.027 C 22.8516 -103.027 16.0645 -96.1914 16.0645 -83.1055 L 16.0645 12.793 C 16.0645 25.9277 22.8027 32.666 35.791 32.666 Z M 36.6211 21.9727 C 30.127 21.9727 26.8066 18.5059 26.8066 12.1582 L 26.8066 -82.5195 C 26.8066 -88.7207 30.127 -92.2852 36.6699 -92.2852 L 102.197 -92.2852 C 108.74 -92.2852 112.061 -88.8672 112.061 -82.5195 L 112.061 12.1582 C 112.061 18.5059 108.74 21.9727 102.246 21.9727 Z M 45.8008 -66.5039 L 93.1152 -66.5039 C 95.166 -66.5039 96.7285 -68.0664 96.7285 -70.1172 C 96.7285 -72.1191 95.166 -73.6816 93.1152 -73.6816 L 45.8008 -73.6816 C 43.7012 -73.6816 42.1387 -72.1191 42.1387 -70.1172 C 42.1387 -68.0664 43.7012 -66.5039 45.8008 -66.5039 Z M 45.8008 -44.7754 L 93.1152 -44.7754 C 95.166 -44.7754 96.7285 -46.3867 96.7285 -48.4375 C 96.7285 -50.4395 95.166 -51.9531 93.1152 -51.9531 L 45.8008 -51.9531 C 43.7012 -51.9531 42.1387 -50.4395 42.1387 -48.4375 C 42.1387 -46.3867 43.7012 -44.7754 45.8008 -44.7754 Z M 45.8008 -23.0957 L 68.7988 -23.0957 C 70.8496 -23.0957 72.4121 -24.6582 72.4121 -26.6602 C 72.4121 -28.6621 70.8496 -30.2734 68.7988 -30.2734 L 45.8008 -30.2734 C 43.7012 -30.2734 42.1387 -28.6621 42.1387 -26.6602 C 42.1387 -24.6582 43.7012 -23.0957 45.8008 -23.0957 Z"/>
  </g>
  <g id="Regular-L" transform="matrix(1 0 0 1 1381.36 1556)">
   <path d="M 34.8633 32.1289 L 102.1 32.1289 C 114.6 32.1289 120.898 25.7324 120.898 13.1348 L 120.898 -83.4473 C 120.898 -96.0449 114.6 -102.441 102.1 -102.441 L 34.8633 -102.441 C 22.4609 -102.441 16.0645 -96.0449 16.0645 -83.4473 L 16.0645 13.1348 C 16.0645 25.7324 22.3633 32.1289 34.8633 32.1289 Z M 35.3027 23.4863 C 28.3203 23.4863 24.707 19.7754 24.707 12.9395 L 24.707 -83.252 C 24.707 -89.9414 28.3203 -93.7988 35.3516 -93.7988 L 101.611 -93.7988 C 108.643 -93.7988 112.256 -90.0879 112.256 -83.252 L 112.256 12.9395 C 112.256 19.7754 108.643 23.4863 101.66 23.4863 Z M 44.0918 -67.7246 L 92.9199 -67.7246 C 94.873 -67.7246 96.3379 -69.2383 96.3379 -71.1914 C 96.3379 -73.0469 94.873 -74.5117 92.9199 -74.5117 L 44.0918 -74.5117 C 42.0898 -74.5117 40.625 -73.0469 40.625 -71.1914 C 40.625 -69.2383 42.0898 -67.7246 44.0918 -67.7246 Z M 44.0918 -45.6543 L 92.9199 -45.6543 C 94.873 -45.6543 96.3379 -47.168 96.3379 -49.1211 C 96.3379 -50.9766 94.873 -52.4414 92.9199 -52.4414 L 44.0918 -52.4414 C 42.0898 -52.4414 40.625 -50.9766 40.625 -49.1211 C 40.625 -47.168 42.0898 -45.6543 44.0918 -45.6543 Z M 44.0918 -23.6328 L 67.4805 -23.6328 C 69.4336 -23.6328 70.8984 -25.0977 70.8984 -26.9531 C 70.8984 -28.8574 69.4336 -30.3711 67.4805 -30.3711 L 44.0918 -30.3711 C 42.0898 -30.3711 40.625 -28.8574 40.625 -26.9531 C 40.625 -25.0977 42.0898 -23.6328 44.0918 -23.6328 Z"/>
  </g>
  <g id="Light-L" transform="matrix(1 0 0 1 1085.43 1556)">
   <path d="M 33.9355 31.7871 L 101.514 31.7871 C 113.281 31.7871 119.336 25.6836 119.336 13.8184 L 119.336 -84.082 C 119.336 -95.9473 113.281 -102.051 101.514 -102.051 L 33.9355 -102.051 C 22.2168 -102.051 16.0645 -95.9473 16.0645 -84.082 L 16.0645 13.8184 C 16.0645 25.6836 22.1191 31.7871 33.9355 31.7871 Z M 34.2285 25.1953 C 26.6113 25.1953 22.7051 21.1914 22.7051 13.6719 L 22.7051 -83.9355 C 22.7051 -91.2598 26.6113 -95.459 34.2773 -95.459 L 101.172 -95.459 C 108.789 -95.459 112.744 -91.4551 112.744 -83.9355 L 112.744 13.6719 C 112.744 21.1914 108.789 25.1953 101.172 25.1953 Z M 42.5781 -69.7266 L 92.8711 -69.7266 C 94.4824 -69.7266 95.6543 -70.9473 95.6543 -72.4609 C 95.6543 -73.9746 94.4824 -75.1465 92.8711 -75.1465 L 42.5781 -75.1465 C 40.9668 -75.1465 39.7461 -73.9746 39.7461 -72.4609 C 39.7461 -70.9473 40.9668 -69.7266 42.5781 -69.7266 Z M 42.5781 -47.5586 L 92.8711 -47.5586 C 94.4824 -47.5586 95.6543 -48.7793 95.6543 -50.293 C 95.6543 -51.8066 94.4824 -52.9785 92.8711 -52.9785 L 42.5781 -52.9785 C 40.9668 -52.9785 39.7461 -51.8066 39.7461 -50.293 C 39.7461 -48.7793 40.9668 -47.5586 42.5781 -47.5586 Z M 42.5781 -25.3906 L 67.041 -25.3906 C 68.6035 -25.3906 69.7754 -26.5625 69.7754 -28.0762 C 69.7754 -29.5898 68.6035 -30.8105 67.041 -30.8105 L 42.5781 -30.8105 C 40.9668 -30.8105 39.7461 -29.5898 39.7461 -28.0762 C 39.7461 -26.5625 40.9668 -25.3906 42.5781 -25.3906 Z"/>
  </g>
  <g id="Thin-L" transform="matrix(1 0 0 1 789.747 1556)">
   <path d="M 32.666 31.3477 L 100.732 31.3477 C 111.572 31.3477 117.285 25.6348 117.285 14.7461 L 117.285 -84.9609 C 117.285 -95.8496 111.572 -101.562 100.732 -101.562 L 32.666 -101.562 C 21.9238 -101.562 16.0645 -95.8496 16.0645 -84.9609 L 16.0645 14.7461 C 16.0645 25.6348 21.7773 31.3477 32.666 31.3477 Z M 32.8613 27.4414 C 24.3652 27.4414 19.9707 23.0469 19.9707 14.5996 L 19.9707 -84.8145 C 19.9707 -92.9688 24.3652 -97.6562 32.8613 -97.6562 L 100.537 -97.6562 C 108.984 -97.6562 113.379 -93.2617 113.379 -84.8145 L 113.379 14.5996 C 113.379 23.0469 108.984 27.4414 100.537 27.4414 Z M 40.5762 -72.3633 L 92.8223 -72.3633 C 93.8965 -72.3633 94.7266 -73.1934 94.7266 -74.2188 C 94.7266 -75.2441 93.8965 -76.0742 92.8223 -76.0742 L 40.5762 -76.0742 C 39.4531 -76.0742 38.623 -75.2441 38.623 -74.2188 C 38.623 -73.1934 39.4531 -72.3633 40.5762 -72.3633 Z M 40.5762 -50.0488 L 92.8223 -50.0488 C 93.8965 -50.0488 94.7266 -50.8789 94.7266 -51.9043 C 94.7266 -52.9297 93.8965 -53.7109 92.8223 -53.7109 L 40.5762 -53.7109 C 39.4531 -53.7109 38.623 -52.9297 38.623 -51.9043 C 38.623 -50.8789 39.4531 -50.0488 40.5762 -50.0488 Z M 40.5762 -27.7344 L 66.4062 -27.7344 C 67.4805 -27.7344 68.3105 -28.5645 68.3105 -29.5898 C 68.3105 -30.5664 67.4805 -31.3965 66.4062 -31.3965 L 40.5762 -31.3965 C 39.4531 -31.3965 38.623 -30.5664 38.623 -29.5898 C 38.623 -28.5645 39.4531 -27.7344 40.5762 -27.7344 Z"/>
  </g>
  <g id="Ultralight-L" transform="matrix(1 0 0 1 493.549 1556)">
   <path d="M 31.9824 31.1523 L 100.293 31.1523 C 110.693 31.1523 116.26 25.5859 116.26 15.2344 L 116.26 -85.4492 C 116.26 -95.8008 110.693 -101.318 100.293 -101.318 L 31.9824 -101.318 C 21.7773 -101.318 16.0645 -95.8008 16.0645 -85.4492 L 16.0645 15.2344 C 16.0645 25.5859 21.6309 31.1523 31.9824 31.1523 Z M 32.1289 28.5645 C 23.2422 28.5645 18.6035 23.9746 18.6035 15.0391 L 18.6035 -85.2539 C 18.6035 -93.8477 23.2422 -98.7793 32.1289 -98.7793 L 100.195 -98.7793 C 109.082 -98.7793 113.672 -94.1895 113.672 -85.2539 L 113.672 15.0391 C 113.672 23.9746 109.082 28.5645 100.195 28.5645 Z M 39.5508 -73.7305 L 92.7734 -73.7305 C 93.6035 -73.7305 94.2383 -74.3652 94.2383 -75.0977 C 94.2383 -75.8789 93.6035 -76.5137 92.7734 -76.5137 L 39.5508 -76.5137 C 38.6719 -76.5137 38.0859 -75.8789 38.0859 -75.0977 C 38.0859 -74.3652 38.6719 -73.7305 39.5508 -73.7305 Z M 39.5508 -51.3184 L 92.7734 -51.3184 C 93.6035 -51.3184 94.2383 -51.9531 94.2383 -52.7344 C 94.2383 -53.4668 93.6035 -54.1016 92.7734 -54.1016 L 39.5508 -54.1016 C 38.6719 -54.1016 38.0859 -53.4668 38.0859 -52.7344 C 38.0859 -51.9531 38.6719 -51.3184 39.5508 -51.3184 Z M 39.5508 -28.9551 L 66.1133 -28.9551 C 66.9434 -28.9551 67.5781 -29.5898 67.5781 -30.3223 C 67.5781 -31.1035 66.9434 -31.7383 66.1133 -31.7383 L 39.5508 -31.7383 C 38.6719 -31.7383 38.0859 -31.1035 38.0859 -30.3223 C 38.0859 -29.5898 38.6719 -28.9551 39.5508 -28.9551 Z"/>
  </g>
  <g id="Black-M" transform="matrix(1 0 0 1 2874.98 1126)">
   <path d="M 31.9824 20.2148 L 84.8633 20.2148 C 97.1191 20.2148 104.395 12.9395 104.395 0.683594 L 104.395 -71.0938 C 104.395 -83.3496 97.1191 -90.625 84.8633 -90.625 L 31.9824 -90.625 C 19.7266 -90.625 12.4512 -83.3496 12.4512 -71.0938 L 12.4512 0.683594 C 12.4512 12.9395 19.7266 20.2148 31.9824 20.2148 Z M 34.9121 1.9043 C 31.8359 1.9043 30.7617 0.585938 30.7617 -2.24609 L 30.7617 -68.1641 C 30.7617 -70.9961 31.8359 -72.3145 34.9121 -72.3145 L 81.9336 -72.3145 C 85.0098 -72.3145 86.1328 -70.9961 86.1328 -68.1641 L 86.1328 -2.24609 C 86.1328 0.585938 85.0098 1.9043 81.9336 1.9043 Z M 43.8477 -53.9062 L 73.0469 -53.9062 C 75.0488 -53.9062 76.5625 -55.4688 76.5625 -57.4707 C 76.5625 -59.4238 75.0488 -60.8887 73.0469 -60.8887 L 43.8477 -60.8887 C 41.7969 -60.8887 40.2832 -59.4238 40.2832 -57.4707 C 40.2832 -55.4688 41.7969 -53.9062 43.8477 -53.9062 Z M 43.8477 -39.0137 L 73.0469 -39.0137 C 75.0488 -39.0137 76.5625 -40.5762 76.5625 -42.5781 C 76.5625 -44.4824 75.0488 -45.9961 73.0469 -45.9961 L 43.8477 -45.9961 C 41.7969 -45.9961 40.2832 -44.4824 40.2832 -42.5781 C 40.2832 -40.5762 41.7969 -39.0137 43.8477 -39.0137 Z M 43.8477 -24.1211 L 59.9121 -24.1211 C 61.9141 -24.1211 63.4277 -25.5859 63.4277 -27.5391 C 63.4277 -29.541 61.9141 -31.1035 59.9121 -31.1035 L 43.8477 -31.1035 C 41.7969 -31.1035 40.2832 -29.541 40.2832 -27.5391 C 40.2832 -25.5859 41.7969 -24.1211 43.8477 -24.1211 Z"/>
  </g>
  <g id="Heavy-M" transform="matrix(1 0 0 1 2579.41 1126)">
   <path d="M 30.957 19.4824 L 83.5938 19.4824 C 95.3125 19.4824 102.1 12.7441 102.1 0.976562 L 102.1 -71.3379 C 102.1 -83.1055 95.3125 -89.8926 83.5938 -89.8926 L 30.957 -89.8926 C 19.1895 -89.8926 12.4512 -83.1055 12.4512 -71.3379 L 12.4512 0.976562 C 12.4512 12.7441 19.1895 19.4824 30.957 19.4824 Z M 33.252 3.66211 C 29.7363 3.66211 28.2715 2.00195 28.2715 -1.31836 L 28.2715 -69.0918 C 28.2715 -72.3633 29.7363 -74.0723 33.3008 -74.0723 L 81.25 -74.0723 C 84.8145 -74.0723 86.2793 -72.4121 86.2793 -69.0918 L 86.2793 -1.31836 C 86.2793 2.00195 84.8145 3.66211 81.25 3.66211 Z M 41.7969 -55.1758 L 72.8027 -55.1758 C 74.7559 -55.1758 76.1719 -56.6895 76.1719 -58.6426 C 76.1719 -60.498 74.7559 -61.9629 72.8027 -61.9629 L 41.7969 -61.9629 C 39.7949 -61.9629 38.3301 -60.498 38.3301 -58.6426 C 38.3301 -56.6895 39.7949 -55.1758 41.7969 -55.1758 Z M 41.7969 -39.7949 L 72.8027 -39.7949 C 74.7559 -39.7949 76.1719 -41.3086 76.1719 -43.2129 C 76.1719 -45.0684 74.7559 -46.5332 72.8027 -46.5332 L 41.7969 -46.5332 C 39.7949 -46.5332 38.3301 -45.0684 38.3301 -43.2129 C 38.3301 -41.3086 39.7949 -39.7949 41.7969 -39.7949 Z M 41.7969 -24.3652 L 58.2031 -24.3652 C 60.1074 -24.3652 61.5723 -25.8301 61.5723 -27.6855 C 61.5723 -29.5898 60.1074 -31.1035 58.2031 -31.1035 L 41.7969 -31.1035 C 39.7949 -31.1035 38.3301 -29.5898 38.3301 -27.6855 C 38.3301 -25.8301 39.7949 -24.3652 41.7969 -24.3652 Z"/>
  </g>
  <g id="Bold-M" transform="matrix(1 0 0 1 2284 1126)">
   <path d="M 29.7852 18.7012 L 82.1777 18.7012 C 93.3105 18.7012 99.5117 12.5 99.5117 1.26953 L 99.5117 -71.6309 C 99.5117 -82.8613 93.3105 -89.0625 82.1777 -89.0625 L 29.7852 -89.0625 C 18.6035 -89.0625 12.4512 -82.8613 12.4512 -71.6309 L 12.4512 1.26953 C 12.4512 12.5 18.6035 18.7012 29.7852 18.7012 Z M 31.4453 5.61523 C 27.3926 5.61523 25.5371 3.56445 25.5371 -0.244141 L 25.5371 -70.1172 C 25.5371 -73.9258 27.3926 -75.9766 31.4453 -75.9766 L 80.4688 -75.9766 C 84.5703 -75.9766 86.4258 -73.9746 86.4258 -70.1172 L 86.4258 -0.244141 C 86.4258 3.56445 84.5703 5.61523 80.5176 5.61523 Z M 39.4531 -56.5918 L 72.5586 -56.5918 C 74.4141 -56.5918 75.8301 -58.0566 75.8301 -59.9121 C 75.8301 -61.7188 74.4141 -63.0859 72.5586 -63.0859 L 39.4531 -63.0859 C 37.5488 -63.0859 36.1328 -61.7188 36.1328 -59.9121 C 36.1328 -58.0566 37.5488 -56.5918 39.4531 -56.5918 Z M 39.4531 -40.625 L 72.5586 -40.625 C 74.4141 -40.625 75.8301 -42.0898 75.8301 -43.9453 C 75.8301 -45.752 74.4141 -47.1191 72.5586 -47.1191 L 39.4531 -47.1191 C 37.5488 -47.1191 36.1328 -45.752 36.1328 -43.9453 C 36.1328 -42.0898 37.5488 -40.625 39.4531 -40.625 Z M 39.4531 -24.6582 L 56.25 -24.6582 C 58.1055 -24.6582 59.4727 -26.0742 59.4727 -27.832 C 59.4727 -29.6875 58.1055 -31.1523 56.25 -31.1523 L 39.4531 -31.1523 C 37.5488 -31.1523 36.1328 -29.6875 36.1328 -27.832 C 36.1328 -26.0742 37.5488 -24.6582 39.4531 -24.6582 Z"/>
  </g>
  <g id="Semibold-M" transform="matrix(1 0 0 1 1988.19 1126)">
   <path d="M 29.0039 18.1152 L 81.1523 18.1152 C 91.9434 18.1152 97.7051 12.3535 97.7051 1.46484 L 97.7051 -71.8262 C 97.7051 -82.666 91.9434 -88.5254 81.1523 -88.5254 L 29.0039 -88.5254 C 18.2129 -88.5254 12.4512 -82.666 12.4512 -71.8262 L 12.4512 1.46484 C 12.4512 12.3535 18.2129 18.1152 29.0039 18.1152 Z M 30.1758 6.93359 C 25.7324 6.93359 23.6328 4.6875 23.6328 0.439453 L 23.6328 -70.8496 C 23.6328 -75 25.7324 -77.3438 30.1758 -77.3438 L 79.9805 -77.3438 C 84.375 -77.3438 86.5234 -75.0488 86.5234 -70.8496 L 86.5234 0.439453 C 86.5234 4.6875 84.375 6.93359 79.9805 6.93359 Z M 37.8418 -57.5684 L 72.3633 -57.5684 C 74.1699 -57.5684 75.5371 -58.9844 75.5371 -60.791 C 75.5371 -62.5488 74.1699 -63.916 72.3633 -63.916 L 37.8418 -63.916 C 35.9863 -63.916 34.6191 -62.5488 34.6191 -60.791 C 34.6191 -58.9844 35.9863 -57.5684 37.8418 -57.5684 Z M 37.8418 -41.2109 L 72.3633 -41.2109 C 74.1699 -41.2109 75.5371 -42.627 75.5371 -44.4336 C 75.5371 -46.1914 74.1699 -47.5586 72.3633 -47.5586 L 37.8418 -47.5586 C 35.9863 -47.5586 34.6191 -46.1914 34.6191 -44.4336 C 34.6191 -42.627 35.9863 -41.2109 37.8418 -41.2109 Z M 37.8418 -24.8535 L 54.8828 -24.8535 C 56.6895 -24.8535 58.0566 -26.2207 58.0566 -27.9785 C 58.0566 -29.7852 56.6895 -31.2012 54.8828 -31.2012 L 37.8418 -31.2012 C 35.9863 -31.2012 34.6191 -29.7852 34.6191 -27.9785 C 34.6191 -26.2207 35.9863 -24.8535 37.8418 -24.8535 Z"/>
  </g>
  <g id="Medium-M" transform="matrix(1 0 0 1 1692.16 1126)">
   <path d="M 28.3691 17.7246 L 80.4199 17.7246 C 90.918 17.7246 96.3379 12.207 96.3379 1.61133 L 96.3379 -72.0215 C 96.3379 -82.5684 90.918 -88.0859 80.4199 -88.0859 L 28.3691 -88.0859 C 17.9199 -88.0859 12.4512 -82.5684 12.4512 -72.0215 L 12.4512 1.61133 C 12.4512 12.207 17.9199 17.7246 28.3691 17.7246 Z M 29.1992 7.95898 C 24.5117 7.95898 22.168 5.51758 22.168 0.976562 L 22.168 -71.3867 C 22.168 -75.8301 24.5117 -78.3691 29.248 -78.3691 L 79.541 -78.3691 C 84.2773 -78.3691 86.6211 -75.8789 86.6211 -71.3867 L 86.6211 0.976562 C 86.6211 5.51758 84.2773 7.95898 79.5898 7.95898 Z M 36.6211 -58.3008 L 72.2168 -58.3008 C 74.0234 -58.3008 75.3418 -59.7168 75.3418 -61.4746 C 75.3418 -63.1836 74.0234 -64.502 72.2168 -64.502 L 36.6211 -64.502 C 34.8145 -64.502 33.4473 -63.1836 33.4473 -61.4746 C 33.4473 -59.7168 34.8145 -58.3008 36.6211 -58.3008 Z M 36.6211 -41.6504 L 72.2168 -41.6504 C 74.0234 -41.6504 75.3418 -43.0664 75.3418 -44.8242 C 75.3418 -46.5332 74.0234 -47.8516 72.2168 -47.8516 L 36.6211 -47.8516 C 34.8145 -47.8516 33.4473 -46.5332 33.4473 -44.8242 C 33.4473 -43.0664 34.8145 -41.6504 36.6211 -41.6504 Z M 36.6211 -25 L 53.9062 -25 C 55.6641 -25 56.9824 -26.3672 56.9824 -28.0762 C 56.9824 -29.834 55.6641 -31.2012 53.9062 -31.2012 L 36.6211 -31.2012 C 34.8145 -31.2012 33.4473 -29.834 33.4473 -28.0762 C 33.4473 -26.3672 34.8145 -25 36.6211 -25 Z"/>
  </g>
  <g id="Regular-M" transform="matrix(1 0 0 1 1396.33 1126)">
   <path d="M 27.5879 17.1387 L 79.4434 17.1387 C 89.5508 17.1387 94.5801 12.0605 94.5801 1.85547 L 94.5801 -72.2168 C 94.5801 -82.373 89.5508 -87.5488 79.4434 -87.5488 L 27.5879 -87.5488 C 17.5293 -87.5488 12.4512 -82.373 12.4512 -72.2168 L 12.4512 1.85547 C 12.4512 12.0605 17.4805 17.1387 27.5879 17.1387 Z M 27.9297 9.27734 C 22.9004 9.27734 20.3125 6.5918 20.3125 1.70898 L 20.3125 -72.0703 C 20.3125 -76.9043 22.9004 -79.6875 27.9785 -79.6875 L 79.0527 -79.6875 C 84.1309 -79.6875 86.7188 -76.9531 86.7188 -72.0703 L 86.7188 1.70898 C 86.7188 6.5918 84.1309 9.27734 79.1016 9.27734 Z M 35.0098 -59.2773 L 72.0703 -59.2773 C 73.7793 -59.2773 75.0488 -60.6445 75.0488 -62.3535 C 75.0488 -64.0137 73.7793 -65.2832 72.0703 -65.2832 L 35.0098 -65.2832 C 33.252 -65.2832 31.9824 -64.0137 31.9824 -62.3535 C 31.9824 -60.6445 33.252 -59.2773 35.0098 -59.2773 Z M 35.0098 -42.2363 L 72.0703 -42.2363 C 73.7793 -42.2363 75.0488 -43.6035 75.0488 -45.3125 C 75.0488 -46.9727 73.7793 -48.2422 72.0703 -48.2422 L 35.0098 -48.2422 C 33.252 -48.2422 31.9824 -46.9727 31.9824 -45.3125 C 31.9824 -43.6035 33.252 -42.2363 35.0098 -42.2363 Z M 35.0098 -25.1953 L 52.5391 -25.1953 C 54.2969 -25.1953 55.5664 -26.5137 55.5664 -28.1738 C 55.5664 -29.8828 54.2969 -31.2012 52.5391 -31.2012 L 35.0098 -31.2012 C 33.252 -31.2012 31.9824 -29.8828 31.9824 -28.1738 C 31.9824 -26.5137 33.252 -25.1953 35.0098 -25.1953 Z"/>
  </g>
  <g id="Light-M" transform="matrix(1 0 0 1 1100.33 1126)">
   <path d="M 26.709 16.8457 L 78.9062 16.8457 C 88.3789 16.8457 93.1641 12.0117 93.1641 2.49023 L 93.1641 -72.8027 C 93.1641 -82.3242 88.3789 -87.207 78.9062 -87.207 L 26.709 -87.207 C 17.334 -87.207 12.4512 -82.3242 12.4512 -72.8027 L 12.4512 2.49023 C 12.4512 12.0117 17.2852 16.8457 26.709 16.8457 Z M 27.002 10.8398 C 21.3867 10.8398 18.5059 7.86133 18.5059 2.34375 L 18.5059 -72.6562 C 18.5059 -78.0762 21.3867 -81.1523 27.0508 -81.1523 L 78.6133 -81.1523 C 84.2285 -81.1523 87.1582 -78.1738 87.1582 -72.6562 L 87.1582 2.34375 C 87.1582 7.86133 84.2285 10.8398 78.6133 10.8398 Z M 33.6426 -61.084 L 72.0215 -61.084 C 73.3887 -61.084 74.4629 -62.1582 74.4629 -63.5254 C 74.4629 -64.8438 73.3887 -65.8691 72.0215 -65.8691 L 33.6426 -65.8691 C 32.2266 -65.8691 31.2012 -64.8438 31.2012 -63.5254 C 31.2012 -62.1582 32.2266 -61.084 33.6426 -61.084 Z M 33.6426 -43.9453 L 72.0215 -43.9453 C 73.3887 -43.9453 74.4629 -45.0195 74.4629 -46.3867 C 74.4629 -47.7051 73.3887 -48.7305 72.0215 -48.7305 L 33.6426 -48.7305 C 32.2266 -48.7305 31.2012 -47.7051 31.2012 -46.3867 C 31.2012 -45.0195 32.2266 -43.9453 33.6426 -43.9453 Z M 33.6426 -26.8066 L 52.1484 -26.8066 C 53.5156 -26.8066 54.5898 -27.832 54.5898 -29.1992 C 54.5898 -30.5664 53.5156 -31.6406 52.1484 -31.6406 L 33.6426 -31.6406 C 32.2266 -31.6406 31.2012 -30.5664 31.2012 -29.1992 C 31.2012 -27.832 32.2266 -26.8066 33.6426 -26.8066 Z"/>
  </g>
  <g id="Thin-M" transform="matrix(1 0 0 1 804.518 1126)">
   <path d="M 25.5859 16.4551 L 78.2227 16.4551 C 86.8164 16.4551 91.3574 11.9629 91.3574 3.32031 L 91.3574 -73.584 C 91.3574 -82.2266 86.8164 -86.7676 78.2227 -86.7676 L 25.5859 -86.7676 C 17.041 -86.7676 12.4512 -82.2266 12.4512 -73.584 L 12.4512 3.32031 C 12.4512 11.9629 16.9434 16.4551 25.5859 16.4551 Z M 25.7324 12.8418 C 19.3848 12.8418 16.0645 9.52148 16.0645 3.17383 L 16.0645 -73.4863 C 16.0645 -79.5898 19.3848 -83.1543 25.7812 -83.1543 L 78.0273 -83.1543 C 84.4238 -83.1543 87.7441 -79.7852 87.7441 -73.4863 L 87.7441 3.17383 C 87.7441 9.52148 84.4238 12.8418 78.0273 12.8418 Z M 31.8848 -63.4277 L 71.9238 -63.4277 C 72.9004 -63.4277 73.6328 -64.1602 73.6328 -65.0879 C 73.6328 -65.9668 72.9004 -66.6504 71.9238 -66.6504 L 31.8848 -66.6504 C 30.9082 -66.6504 30.1758 -65.9668 30.1758 -65.0879 C 30.1758 -64.1602 30.9082 -63.4277 31.8848 -63.4277 Z M 31.8848 -46.1914 L 71.9238 -46.1914 C 72.9004 -46.1914 73.6328 -46.9238 73.6328 -47.8027 C 73.6328 -48.6816 72.9004 -49.4141 71.9238 -49.4141 L 31.8848 -49.4141 C 30.9082 -49.4141 30.1758 -48.6816 30.1758 -47.8027 C 30.1758 -46.9238 30.9082 -46.1914 31.8848 -46.1914 Z M 31.8848 -28.9062 L 51.6113 -28.9062 C 52.5391 -28.9062 53.2715 -29.6387 53.2715 -30.5176 C 53.2715 -31.3965 52.5391 -32.1289 51.6113 -32.1289 L 31.8848 -32.1289 C 30.9082 -32.1289 30.1758 -31.3965 30.1758 -30.5176 C 30.1758 -29.6387 30.9082 -28.9062 31.8848 -28.9062 Z"/>
  </g>
  <g id="Ultralight-M" transform="matrix(1 0 0 1 508.295 1126)">
   <path d="M 25 16.2598 L 77.8809 16.2598 C 86.0352 16.2598 90.3809 11.9141 90.3809 3.71094 L 90.3809 -73.9746 C 90.3809 -82.1777 86.0352 -86.5234 77.8809 -86.5234 L 25 -86.5234 C 16.9434 -86.5234 12.4512 -82.1777 12.4512 -73.9746 L 12.4512 3.71094 C 12.4512 11.9141 16.7969 16.2598 25 16.2598 Z M 25.0977 13.8672 C 18.3594 13.8672 14.8438 10.3516 14.8438 3.61328 L 14.8438 -73.877 C 14.8438 -80.3711 18.3594 -84.1309 25.0977 -84.1309 L 77.7344 -84.1309 C 84.5215 -84.1309 87.9883 -80.6152 87.9883 -73.877 L 87.9883 3.61328 C 87.9883 10.3516 84.5215 13.8672 77.7344 13.8672 Z M 30.957 -64.6484 L 71.9238 -64.6484 C 72.6562 -64.6484 73.1934 -65.1855 73.1934 -65.8691 C 73.1934 -66.5527 72.6562 -67.0898 71.9238 -67.0898 L 30.957 -67.0898 C 30.2246 -67.0898 29.6875 -66.5527 29.6875 -65.8691 C 29.6875 -65.1855 30.2246 -64.6484 30.957 -64.6484 Z M 30.957 -47.3145 L 71.9238 -47.3145 C 72.6562 -47.3145 73.1934 -47.8516 73.1934 -48.5352 C 73.1934 -49.2188 72.6562 -49.7559 71.9238 -49.7559 L 30.957 -49.7559 C 30.2246 -49.7559 29.6875 -49.2188 29.6875 -48.5352 C 29.6875 -47.8516 30.2246 -47.3145 30.957 -47.3145 Z M 30.957 -29.9805 L 51.3184 -29.9805 C 52.0508 -29.9805 52.5879 -30.5176 52.5879 -31.2012 C 52.5879 -31.8848 52.0508 -32.4219 51.3184 -32.4219 L 30.957 -32.4219 C 30.2246 -32.4219 29.6875 -31.8848 29.6875 -31.2012 C 29.6875 -30.5176 30.2246 -29.9805 30.957 -29.9805 Z"/>
  </g>
  <g id="Black-S" transform="matrix(1 0 0 1 2887.7 696)">
   <path d="M 25 8.1543 L 66.4062 8.1543 C 75.9766 8.1543 81.6406 2.49023 81.6406 -7.08008 L 81.6406 -63.3301 C 81.6406 -72.9004 75.9766 -78.5645 66.4062 -78.5645 L 25 -78.5645 C 15.4297 -78.5645 9.76562 -72.9004 9.76562 -63.3301 L 9.76562 -7.08008 C 9.76562 2.49023 15.4297 8.1543 25 8.1543 Z M 27.2461 -6.00586 C 24.8047 -6.00586 23.9258 -7.08008 23.9258 -9.32617 L 23.9258 -61.084 C 23.9258 -63.3301 24.8047 -64.4043 27.2461 -64.4043 L 64.1602 -64.4043 C 66.6016 -64.4043 67.4805 -63.3301 67.4805 -61.084 L 67.4805 -9.32617 C 67.4805 -7.08008 66.6016 -6.00586 64.1602 -6.00586 Z M 34.2285 -49.9512 L 57.2266 -49.9512 C 58.7891 -49.9512 59.9609 -51.1719 59.9609 -52.7344 C 59.9609 -54.248 58.7891 -55.4199 57.2266 -55.4199 L 34.2285 -55.4199 C 32.6172 -55.4199 31.4453 -54.248 31.4453 -52.7344 C 31.4453 -51.1719 32.6172 -49.9512 34.2285 -49.9512 Z M 34.2285 -38.2324 L 57.2266 -38.2324 C 58.7891 -38.2324 59.9609 -39.4531 59.9609 -41.0156 C 59.9609 -42.5293 58.7891 -43.7012 57.2266 -43.7012 L 34.2285 -43.7012 C 32.6172 -43.7012 31.4453 -42.5293 31.4453 -41.0156 C 31.4453 -39.4531 32.6172 -38.2324 34.2285 -38.2324 Z M 34.2285 -26.5137 L 46.8262 -26.5137 C 48.3887 -26.5137 49.5605 -27.6855 49.5605 -29.1992 C 49.5605 -30.7617 48.3887 -31.9824 46.8262 -31.9824 L 34.2285 -31.9824 C 32.6172 -31.9824 31.4453 -30.7617 31.4453 -29.1992 C 31.4453 -27.6855 32.6172 -26.5137 34.2285 -26.5137 Z"/>
  </g>
  <g id="Heavy-S" transform="matrix(1 0 0 1 2591.79 696)">
   <path d="M 24.3164 7.61719 L 65.4785 7.61719 C 74.7559 7.61719 80.0293 2.34375 80.0293 -6.93359 L 80.0293 -63.4766 C 80.0293 -72.7539 74.7559 -78.0273 65.4785 -78.0273 L 24.3164 -78.0273 C 15.0391 -78.0273 9.76562 -72.7539 9.76562 -63.4766 L 9.76562 -6.93359 C 9.76562 2.34375 15.0391 7.61719 24.3164 7.61719 Z M 26.0742 -4.83398 C 23.3887 -4.83398 22.2656 -6.15234 22.2656 -8.69141 L 22.2656 -61.7188 C 22.2656 -64.2578 23.3887 -65.5762 26.123 -65.5762 L 63.6719 -65.5762 C 66.4062 -65.5762 67.5293 -64.2578 67.5293 -61.7188 L 67.5293 -8.69141 C 67.5293 -6.15234 66.4062 -4.83398 63.6719 -4.83398 Z M 32.7637 -50.7324 L 57.0312 -50.7324 C 58.5938 -50.7324 59.7656 -51.9531 59.7656 -53.4668 C 59.7656 -54.9805 58.5938 -56.1523 57.0312 -56.1523 L 32.7637 -56.1523 C 31.2012 -56.1523 30.0293 -54.9805 30.0293 -53.4668 C 30.0293 -51.9531 31.2012 -50.7324 32.7637 -50.7324 Z M 32.7637 -38.623 L 57.0312 -38.623 C 58.5938 -38.623 59.7656 -39.8438 59.7656 -41.4062 C 59.7656 -42.8711 58.5938 -44.043 57.0312 -44.043 L 32.7637 -44.043 C 31.2012 -44.043 30.0293 -42.8711 30.0293 -41.4062 C 30.0293 -39.8438 31.2012 -38.623 32.7637 -38.623 Z M 32.7637 -26.5137 L 45.5566 -26.5137 C 47.0703 -26.5137 48.2422 -27.6855 48.2422 -29.1992 C 48.2422 -30.7617 47.0703 -31.9824 45.5566 -31.9824 L 32.7637 -31.9824 C 31.2012 -31.9824 30.0293 -30.7617 30.0293 -29.1992 C 30.0293 -27.6855 31.2012 -26.5137 32.7637 -26.5137 Z"/>
  </g>
  <g id="Bold-S" transform="matrix(1 0 0 1 2295.98 696)">
   <path d="M 23.5352 7.08008 L 64.4531 7.08008 C 73.3398 7.08008 78.2227 2.14844 78.2227 -6.78711 L 78.2227 -63.623 C 78.2227 -72.5586 73.3398 -77.4414 64.4531 -77.4414 L 23.5352 -77.4414 C 14.6484 -77.4414 9.76562 -72.5586 9.76562 -63.623 L 9.76562 -6.78711 C 9.76562 2.14844 14.6484 7.08008 23.5352 7.08008 Z M 24.8047 -3.56445 C 21.7773 -3.56445 20.3613 -5.07812 20.3613 -7.95898 L 20.3613 -62.4512 C 20.3613 -65.332 21.7773 -66.8457 24.8047 -66.8457 L 63.1348 -66.8457 C 66.2109 -66.8457 67.627 -65.332 67.627 -62.4512 L 67.627 -7.95898 C 67.627 -5.07812 66.2109 -3.56445 63.1836 -3.56445 Z M 31.1523 -51.5625 L 56.8359 -51.5625 C 58.3984 -51.5625 59.5703 -52.7832 59.5703 -54.2969 C 59.5703 -55.8105 58.3984 -56.9336 56.8359 -56.9336 L 31.1523 -56.9336 C 29.5898 -56.9336 28.418 -55.8105 28.418 -54.2969 C 28.418 -52.7832 29.5898 -51.5625 31.1523 -51.5625 Z M 31.1523 -39.0625 L 56.8359 -39.0625 C 58.3984 -39.0625 59.5703 -40.2832 59.5703 -41.7969 C 59.5703 -43.3105 58.3984 -44.4336 56.8359 -44.4336 L 31.1523 -44.4336 C 29.5898 -44.4336 28.418 -43.3105 28.418 -41.7969 C 28.418 -40.2832 29.5898 -39.0625 31.1523 -39.0625 Z M 31.1523 -26.5625 L 44.0918 -26.5625 C 45.6543 -26.5625 46.7773 -27.7344 46.7773 -29.1992 C 46.7773 -30.7617 45.6543 -31.9336 44.0918 -31.9336 L 31.1523 -31.9336 C 29.5898 -31.9336 28.418 -30.7617 28.418 -29.1992 C 28.418 -27.7344 29.5898 -26.5625 31.1523 -26.5625 Z"/>
  </g>
  <g id="Semibold-S" transform="matrix(1 0 0 1 1999.91 696)">
   <path d="M 22.998 6.64062 L 63.7695 6.64062 C 72.4121 6.64062 76.9531 2.05078 76.9531 -6.68945 L 76.9531 -63.7207 C 76.9531 -72.4121 72.4121 -77.0508 63.7695 -77.0508 L 22.998 -77.0508 C 14.3555 -77.0508 9.76562 -72.4121 9.76562 -63.7207 L 9.76562 -6.68945 C 9.76562 2.05078 14.3555 6.64062 22.998 6.64062 Z M 23.9258 -2.63672 C 20.6543 -2.63672 19.0918 -4.3457 19.0918 -7.4707 L 19.0918 -62.9395 C 19.0918 -66.0645 20.6543 -67.7734 23.9258 -67.7734 L 62.793 -67.7734 C 66.0645 -67.7734 67.6758 -66.0645 67.6758 -62.9395 L 67.6758 -7.4707 C 67.6758 -4.3457 66.0645 -2.63672 62.793 -2.63672 Z M 30.0781 -52.1484 L 56.7383 -52.1484 C 58.252 -52.1484 59.375 -53.3691 59.375 -54.8828 C 59.375 -56.3477 58.252 -57.5195 56.7383 -57.5195 L 30.0781 -57.5195 C 28.4668 -57.5195 27.3438 -56.3477 27.3438 -54.8828 C 27.3438 -53.3691 28.4668 -52.1484 30.0781 -52.1484 Z M 30.0781 -39.3555 L 56.7383 -39.3555 C 58.252 -39.3555 59.375 -40.5762 59.375 -42.0898 C 59.375 -43.5547 58.252 -44.7266 56.7383 -44.7266 L 30.0781 -44.7266 C 28.4668 -44.7266 27.3438 -43.5547 27.3438 -42.0898 C 27.3438 -40.5762 28.4668 -39.3555 30.0781 -39.3555 Z M 30.0781 -26.5625 L 43.1152 -26.5625 C 44.6289 -26.5625 45.8008 -27.7344 45.8008 -29.1992 C 45.8008 -30.7129 44.6289 -31.9336 43.1152 -31.9336 L 30.0781 -31.9336 C 28.4668 -31.9336 27.3438 -30.7129 27.3438 -29.1992 C 27.3438 -27.7344 28.4668 -26.5625 30.0781 -26.5625 Z"/>
  </g>
  <g id="Medium-S" transform="matrix(1 0 0 1 1703.66 696)">
   <path d="M 22.5586 6.34766 L 63.2324 6.34766 C 71.6797 6.34766 76.0254 1.95312 76.0254 -6.5918 L 76.0254 -63.8184 C 76.0254 -72.3145 71.6797 -76.7578 63.2324 -76.7578 L 22.5586 -76.7578 C 14.1113 -76.7578 9.76562 -72.3145 9.76562 -63.8184 L 9.76562 -6.5918 C 9.76562 1.95312 14.1113 6.34766 22.5586 6.34766 Z M 23.2422 -1.95312 C 19.8242 -1.95312 18.0664 -3.80859 18.0664 -7.08008 L 18.0664 -63.3301 C 18.0664 -66.6016 19.8242 -68.457 23.291 -68.457 L 62.5 -68.457 C 65.9668 -68.457 67.6758 -66.6016 67.6758 -63.3301 L 67.6758 -7.08008 C 67.6758 -3.80859 65.9668 -1.95312 62.5488 -1.95312 Z M 29.1992 -52.6367 L 56.6406 -52.6367 C 58.1543 -52.6367 59.2773 -53.8086 59.2773 -55.3223 C 59.2773 -56.7871 58.1543 -57.959 56.6406 -57.959 L 29.1992 -57.959 C 27.6367 -57.959 26.5137 -56.7871 26.5137 -55.3223 C 26.5137 -53.8086 27.6367 -52.6367 29.1992 -52.6367 Z M 29.1992 -39.5996 L 56.6406 -39.5996 C 58.1543 -39.5996 59.2773 -40.7715 59.2773 -42.334 C 59.2773 -43.7988 58.1543 -44.9219 56.6406 -44.9219 L 29.1992 -44.9219 C 27.6367 -44.9219 26.5137 -43.7988 26.5137 -42.334 C 26.5137 -40.7715 27.6367 -39.5996 29.1992 -39.5996 Z M 29.1992 -26.6113 L 42.3828 -26.6113 C 43.8965 -26.6113 45.0195 -27.7344 45.0195 -29.1992 C 45.0195 -30.7129 43.8965 -31.9336 42.3828 -31.9336 L 29.1992 -31.9336 C 27.6367 -31.9336 26.5137 -30.7129 26.5137 -29.1992 C 26.5137 -27.7344 27.6367 -26.6113 29.1992 -26.6113 Z"/>
  </g>
  <g id="Regular-S" transform="matrix(1 0 0 1 1407.56 696)">
   <path d="M 22.0215 5.95703 L 62.5 5.95703 C 70.7031 5.95703 74.8047 1.85547 74.8047 -6.49414 L 74.8047 -63.916 C 74.8047 -72.2168 70.7031 -76.3672 62.5 -76.3672 L 22.0215 -76.3672 C 13.8184 -76.3672 9.76562 -72.2168 9.76562 -63.916 L 9.76562 -6.49414 C 9.76562 1.85547 13.8184 5.95703 22.0215 5.95703 Z M 22.3633 -1.07422 C 18.7012 -1.07422 16.7969 -3.07617 16.7969 -6.5918 L 16.7969 -63.8184 C 16.7969 -67.334 18.7012 -69.3359 22.4121 -69.3359 L 62.1582 -69.3359 C 65.8203 -69.3359 67.7246 -67.334 67.7246 -63.8184 L 67.7246 -6.5918 C 67.7246 -3.07617 65.8203 -1.07422 62.207 -1.07422 Z M 28.125 -53.2227 L 56.4941 -53.2227 C 58.0078 -53.2227 59.1309 -54.3945 59.1309 -55.9082 C 59.1309 -57.373 58.0078 -58.4961 56.4941 -58.4961 L 28.125 -58.4961 C 26.5625 -58.4961 25.4395 -57.373 25.4395 -55.9082 C 25.4395 -54.3945 26.5625 -53.2227 28.125 -53.2227 Z M 28.125 -39.8926 L 56.4941 -39.8926 C 58.0078 -39.8926 59.1309 -41.1133 59.1309 -42.5781 C 59.1309 -44.043 58.0078 -45.2148 56.4941 -45.2148 L 28.125 -45.2148 C 26.5625 -45.2148 25.4395 -44.043 25.4395 -42.5781 C 25.4395 -41.1133 26.5625 -39.8926 28.125 -39.8926 Z M 28.125 -26.6113 L 41.4062 -26.6113 C 42.9199 -26.6113 44.043 -27.7344 44.043 -29.1992 C 44.043 -30.7129 42.9199 -31.8848 41.4062 -31.8848 L 28.125 -31.8848 C 26.5625 -31.8848 25.4395 -30.7129 25.4395 -29.1992 C 25.4395 -27.7344 26.5625 -26.6113 28.125 -26.6113 Z"/>
  </g>
  <g id="Light-S" transform="matrix(1 0 0 1 1111.48 696)">
   <path d="M 21.2891 5.71289 L 62.0605 5.71289 C 69.6777 5.71289 73.5352 1.80664 73.5352 -5.95703 L 73.5352 -64.4531 C 73.5352 -72.168 69.6777 -76.0742 62.0605 -76.0742 L 21.2891 -76.0742 C 13.6719 -76.0742 9.76562 -72.168 9.76562 -64.4531 L 9.76562 -5.95703 C 9.76562 1.80664 13.623 5.71289 21.2891 5.71289 Z M 21.5332 0.244141 C 17.3828 0.244141 15.1855 -1.95312 15.1855 -6.05469 L 15.1855 -64.3555 C 15.1855 -68.3594 17.3828 -70.6543 21.582 -70.6543 L 61.7676 -70.6543 C 65.9668 -70.6543 68.1152 -68.4082 68.1152 -64.3555 L 68.1152 -6.05469 C 68.1152 -1.95312 65.9668 0.244141 61.7676 0.244141 Z M 26.9043 -54.7852 L 56.4453 -54.7852 C 57.666 -54.7852 58.5938 -55.7129 58.5938 -56.9336 C 58.5938 -58.1055 57.666 -59.0332 56.4453 -59.0332 L 26.9043 -59.0332 C 25.6348 -59.0332 24.7559 -58.1055 24.7559 -56.9336 C 24.7559 -55.7129 25.6348 -54.7852 26.9043 -54.7852 Z M 26.9043 -41.4062 L 56.4453 -41.4062 C 57.666 -41.4062 58.5938 -42.334 58.5938 -43.5547 C 58.5938 -44.7266 57.666 -45.6543 56.4453 -45.6543 L 26.9043 -45.6543 C 25.6348 -45.6543 24.7559 -44.7266 24.7559 -43.5547 C 24.7559 -42.334 25.6348 -41.4062 26.9043 -41.4062 Z M 26.9043 -28.0273 L 41.0156 -28.0273 C 42.2363 -28.0273 43.1641 -28.9551 43.1641 -30.127 C 43.1641 -31.2988 42.2363 -32.2266 41.0156 -32.2266 L 26.9043 -32.2266 C 25.6348 -32.2266 24.7559 -31.2988 24.7559 -30.127 C 24.7559 -28.9551 25.6348 -28.0273 26.9043 -28.0273 Z"/>
  </g>
  <g id="Thin-S" transform="matrix(1 0 0 1 815.578 696)">
   <path d="M 20.2637 5.37109 L 61.4258 5.37109 C 68.3594 5.37109 71.9238 1.75781 71.9238 -5.22461 L 71.9238 -65.1367 C 71.9238 -72.0703 68.3594 -75.6836 61.4258 -75.6836 L 20.2637 -75.6836 C 13.4277 -75.6836 9.76562 -72.0703 9.76562 -65.1367 L 9.76562 -5.22461 C 9.76562 1.75781 13.3789 5.37109 20.2637 5.37109 Z M 20.4102 2.05078 C 15.5762 2.05078 13.0859 -0.488281 13.0859 -5.32227 L 13.0859 -65.0391 C 13.0859 -69.6777 15.5762 -72.3633 20.459 -72.3633 L 61.2793 -72.3633 C 66.1133 -72.3633 68.6035 -69.8242 68.6035 -65.0391 L 68.6035 -5.32227 C 68.6035 -0.488281 66.1133 2.05078 61.2793 2.05078 Z M 25.3418 -56.8848 L 56.3965 -56.8848 C 57.2266 -56.8848 57.8613 -57.5195 57.8613 -58.3008 C 57.8613 -59.082 57.2266 -59.7168 56.3965 -59.7168 L 25.3418 -59.7168 C 24.4629 -59.7168 23.877 -59.082 23.877 -58.3008 C 23.877 -57.5195 24.4629 -56.8848 25.3418 -56.8848 Z M 25.3418 -43.3594 L 56.3965 -43.3594 C 57.2266 -43.3594 57.8613 -43.9941 57.8613 -44.8242 C 57.8613 -45.6055 57.2266 -46.1914 56.3965 -46.1914 L 25.3418 -46.1914 C 24.4629 -46.1914 23.877 -45.6055 23.877 -44.8242 C 23.877 -43.9941 24.4629 -43.3594 25.3418 -43.3594 Z M 25.3418 -29.8828 L 40.5273 -29.8828 C 41.3574 -29.8828 41.9922 -30.5176 41.9922 -31.2988 C 41.9922 -32.0801 41.3574 -32.7148 40.5273 -32.7148 L 25.3418 -32.7148 C 24.4629 -32.7148 23.877 -32.0801 23.877 -31.2988 C 23.877 -30.5176 24.4629 -29.8828 25.3418 -29.8828 Z"/>
  </g>
  <g id="Ultralight-S" transform="matrix(1 0 0 1 519.281 696)">
   <path d="M 19.7266 5.17578 L 61.084 5.17578 C 67.627 5.17578 71.0938 1.70898 71.0938 -4.83398 L 71.0938 -65.4785 C 71.0938 -72.0215 67.627 -75.4883 61.084 -75.4883 L 19.7266 -75.4883 C 13.3301 -75.4883 9.76562 -72.0215 9.76562 -65.4785 L 9.76562 -4.83398 C 9.76562 1.70898 13.2324 5.17578 19.7266 5.17578 Z M 19.873 2.97852 C 14.6484 2.97852 11.9629 0.244141 11.9629 -4.93164 L 11.9629 -65.3809 C 11.9629 -70.4102 14.6484 -73.291 19.873 -73.291 L 60.9863 -73.291 C 66.2109 -73.291 68.8965 -70.6055 68.8965 -65.3809 L 68.8965 -4.93164 C 68.8965 0.244141 66.2109 2.97852 60.9863 2.97852 Z M 24.5117 -57.959 L 56.3477 -57.959 C 56.9824 -57.959 57.4707 -58.4473 57.4707 -59.0332 C 57.4707 -59.6191 56.9824 -60.0586 56.3477 -60.0586 L 24.5117 -60.0586 C 23.877 -60.0586 23.3887 -59.6191 23.3887 -59.0332 C 23.3887 -58.4473 23.877 -57.959 24.5117 -57.959 Z M 24.5117 -44.3848 L 56.3477 -44.3848 C 56.9824 -44.3848 57.4707 -44.873 57.4707 -45.459 C 57.4707 -46.0449 56.9824 -46.5332 56.3477 -46.5332 L 24.5117 -46.5332 C 23.877 -46.5332 23.3887 -46.0449 23.3887 -45.459 C 23.3887 -44.873 23.877 -44.3848 24.5117 -44.3848 Z M 24.5117 -30.8594 L 40.2832 -30.8594 C 40.918 -30.8594 41.4062 -31.2988 41.4062 -31.8848 C 41.4062 -32.4707 40.918 -32.959 40.2832 -32.959 L 24.5117 -32.959 C 23.877 -32.959 23.3887 -32.4707 23.3887 -31.8848 C 23.3887 -31.2988 23.877 -30.8594 24.5117 -30.8594 Z"/>
  </g>
 </g>
</svg>
