<?xml version="1.0" encoding="UTF-8"?>
<!--Generator: Apple Native CoreSVG 123-->
<!DOCTYPE svg
PUBLIC "-//W3C//DTD SVG 1.1//EN"
       "http://www.w3.org/Graphics/SVG/1.1/DTD/svg11.dtd">
<svg version="1.1" xmlns="http://www.w3.org/2000/svg" xmlns:xlink="http://www.w3.org/1999/xlink" width="3300" height="2200">
 <!--glyph: "uni100182.medium", point size: 100.000000, font version: "Version 15.0d7e11", template writer version: "5"-->
 <g id="Notes">
  <rect height="2200" id="artboard" style="fill:white;opacity:1" width="3300" x="0" y="0"/>
  <line id="" style="fill:none;stroke:black;opacity:1;stroke-width:0.5;" x1="263" x2="3036" y1="292" y2="292"/>
  <text style="stroke:none;fill:black;font-family:-apple-system,&quot;SF Pro Display&quot;,&quot;SF Pro Text&quot;,Helvetica,sans-serif;font-weight:bold;" transform="matrix(1 0 0 1 263 322)">Weight/Scale Variations</text>
  <text style="stroke:none;fill:black;font-family:-apple-system,&quot;SF Pro Display&quot;,&quot;SF Pro Text&quot;,Helvetica,sans-serif;text-anchor:middle;" transform="matrix(1 0 0 1 559.711 322)">Ultralight</text>
  <text style="stroke:none;fill:black;font-family:-apple-system,&quot;SF Pro Display&quot;,&quot;SF Pro Text&quot;,Helvetica,sans-serif;text-anchor:middle;" transform="matrix(1 0 0 1 856.422 322)">Thin</text>
  <text style="stroke:none;fill:black;font-family:-apple-system,&quot;SF Pro Display&quot;,&quot;SF Pro Text&quot;,Helvetica,sans-serif;text-anchor:middle;" transform="matrix(1 0 0 1 1153.13 322)">Light</text>
  <text style="stroke:none;fill:black;font-family:-apple-system,&quot;SF Pro Display&quot;,&quot;SF Pro Text&quot;,Helvetica,sans-serif;text-anchor:middle;" transform="matrix(1 0 0 1 1449.84 322)">Regular</text>
  <text style="stroke:none;fill:black;font-family:-apple-system,&quot;SF Pro Display&quot;,&quot;SF Pro Text&quot;,Helvetica,sans-serif;text-anchor:middle;" transform="matrix(1 0 0 1 1746.56 322)">Medium</text>
  <text style="stroke:none;fill:black;font-family:-apple-system,&quot;SF Pro Display&quot;,&quot;SF Pro Text&quot;,Helvetica,sans-serif;text-anchor:middle;" transform="matrix(1 0 0 1 2043.27 322)">Semibold</text>
  <text style="stroke:none;fill:black;font-family:-apple-system,&quot;SF Pro Display&quot;,&quot;SF Pro Text&quot;,Helvetica,sans-serif;text-anchor:middle;" transform="matrix(1 0 0 1 2339.98 322)">Bold</text>
  <text style="stroke:none;fill:black;font-family:-apple-system,&quot;SF Pro Display&quot;,&quot;SF Pro Text&quot;,Helvetica,sans-serif;text-anchor:middle;" transform="matrix(1 0 0 1 2636.69 322)">Heavy</text>
  <text style="stroke:none;fill:black;font-family:-apple-system,&quot;SF Pro Display&quot;,&quot;SF Pro Text&quot;,Helvetica,sans-serif;text-anchor:middle;" transform="matrix(1 0 0 1 2933.4 322)">Black</text>
  <line id="" style="fill:none;stroke:black;opacity:1;stroke-width:0.5;" x1="263" x2="3036" y1="1903" y2="1903"/>
  <g id="" transform="matrix(1 0 0 1 263 1933)">
   <path d="M 9.24805 0.830078 C 13.5547 0.830078 17.1387 -2.74414 17.1387 -7.05078 C 17.1387 -11.3574 13.5449 -14.9316 9.23828 -14.9316 C 4.94141 -14.9316 1.36719 -11.3574 1.36719 -7.05078 C 1.36719 -2.74414 4.95117 0.830078 9.24805 0.830078 Z M 9.24805 -0.654297 C 5.70312 -0.654297 2.87109 -3.49609 2.87109 -7.05078 C 2.87109 -10.6055 5.69336 -13.4473 9.23828 -13.4473 C 12.793 -13.4473 15.6348 -10.6055 15.6445 -7.05078 C 15.6543 -3.49609 12.8027 -0.654297 9.24805 -0.654297 Z M 9.22852 -3.42773 C 9.69727 -3.42773 9.9707 -3.74023 9.9707 -4.25781 L 9.9707 -6.31836 L 12.1973 -6.31836 C 12.6953 -6.31836 13.0371 -6.57227 13.0371 -7.04102 C 13.0371 -7.51953 12.7148 -7.7832 12.1973 -7.7832 L 9.9707 -7.7832 L 9.9707 -10.0098 C 9.9707 -10.5273 9.69727 -10.8496 9.22852 -10.8496 C 8.75977 -10.8496 8.50586 -10.5078 8.50586 -10.0098 L 8.50586 -7.7832 L 6.29883 -7.7832 C 5.78125 -7.7832 5.44922 -7.51953 5.44922 -7.04102 C 5.44922 -6.57227 5.80078 -6.31836 6.29883 -6.31836 L 8.50586 -6.31836 L 8.50586 -4.25781 C 8.50586 -3.75977 8.75977 -3.42773 9.22852 -3.42773 Z"/>
  </g>
  <g id="" transform="matrix(1 0 0 1 281.506 1933)">
   <path d="M 11.709 2.91016 C 17.1582 2.91016 21.6699 -1.60156 21.6699 -7.05078 C 21.6699 -12.4902 17.1484 -17.0117 11.6992 -17.0117 C 6.25977 -17.0117 1.74805 -12.4902 1.74805 -7.05078 C 1.74805 -1.60156 6.26953 2.91016 11.709 2.91016 Z M 11.709 1.25 C 7.09961 1.25 3.41797 -2.44141 3.41797 -7.05078 C 3.41797 -11.6504 7.08984 -15.3516 11.6992 -15.3516 C 16.3086 -15.3516 20 -11.6504 20.0098 -7.05078 C 20.0195 -2.44141 16.3184 1.25 11.709 1.25 Z M 11.6895 -2.41211 C 12.207 -2.41211 12.5195 -2.77344 12.5195 -3.33984 L 12.5195 -6.23047 L 15.5762 -6.23047 C 16.123 -6.23047 16.5039 -6.51367 16.5039 -7.03125 C 16.5039 -7.55859 16.1426 -7.86133 15.5762 -7.86133 L 12.5195 -7.86133 L 12.5195 -10.9277 C 12.5195 -11.5039 12.207 -11.8555 11.6895 -11.8555 C 11.1719 -11.8555 10.8789 -11.4844 10.8789 -10.9277 L 10.8789 -7.86133 L 7.83203 -7.86133 C 7.26562 -7.86133 6.89453 -7.55859 6.89453 -7.03125 C 6.89453 -6.51367 7.28516 -6.23047 7.83203 -6.23047 L 10.8789 -6.23047 L 10.8789 -3.33984 C 10.8789 -2.79297 11.1719 -2.41211 11.6895 -2.41211 Z"/>
  </g>
  <g id="" transform="matrix(1 0 0 1 304.924 1933)">
   <path d="M 14.9707 5.67383 C 21.9336 5.67383 27.6953 -0.078125 27.6953 -7.04102 C 27.6953 -14.0039 21.9238 -19.7559 14.9609 -19.7559 C 8.00781 -19.7559 2.25586 -14.0039 2.25586 -7.04102 C 2.25586 -0.078125 8.01758 5.67383 14.9707 5.67383 Z M 14.9707 3.85742 C 8.93555 3.85742 4.08203 -1.00586 4.08203 -7.04102 C 4.08203 -13.0762 8.92578 -17.9395 14.9609 -17.9395 C 21.0059 -17.9395 25.8594 -13.0762 25.8691 -7.04102 C 25.8789 -1.00586 21.0156 3.85742 14.9707 3.85742 Z M 14.9512 -1.06445 C 15.5176 -1.06445 15.8691 -1.45508 15.8691 -2.06055 L 15.8691 -6.13281 L 20.1074 -6.13281 C 20.6934 -6.13281 21.1133 -6.46484 21.1133 -7.02148 C 21.1133 -7.59766 20.7227 -7.93945 20.1074 -7.93945 L 15.8691 -7.93945 L 15.8691 -12.1875 C 15.8691 -12.8027 15.5176 -13.1934 14.9512 -13.1934 C 14.3848 -13.1934 14.0625 -12.7832 14.0625 -12.1875 L 14.0625 -7.93945 L 9.83398 -7.93945 C 9.21875 -7.93945 8.80859 -7.59766 8.80859 -7.02148 C 8.80859 -6.46484 9.23828 -6.13281 9.83398 -6.13281 L 14.0625 -6.13281 L 14.0625 -2.06055 C 14.0625 -1.47461 14.3848 -1.06445 14.9512 -1.06445 Z"/>
  </g>
  <text style="stroke:none;fill:black;font-family:-apple-system,&quot;SF Pro Display&quot;,&quot;SF Pro Text&quot;,Helvetica,sans-serif;font-weight:bold;" transform="matrix(1 0 0 1 263 1953)">Design Variations</text>
  <text style="stroke:none;fill:black;font-family:-apple-system,&quot;SF Pro Display&quot;,&quot;SF Pro Text&quot;,Helvetica,sans-serif;" transform="matrix(1 0 0 1 263 1971)">Symbols are supported in up to nine weights and three scales.</text>
  <text style="stroke:none;fill:black;font-family:-apple-system,&quot;SF Pro Display&quot;,&quot;SF Pro Text&quot;,Helvetica,sans-serif;" transform="matrix(1 0 0 1 263 1989)">For optimal layout with text and other symbols, vertically align</text>
  <text style="stroke:none;fill:black;font-family:-apple-system,&quot;SF Pro Display&quot;,&quot;SF Pro Text&quot;,Helvetica,sans-serif;" transform="matrix(1 0 0 1 263 2007)">symbols with the adjacent text.</text>
  <rect height="14" id="" style="fill:#00AEEF;stroke:none;opacity:0.4;" width="3" x="776" y="1919"/>
  <g id="" transform="matrix(1 0 0 1 779 1933)">
   <path d="M 10.5273 0 L 12.373 0 L 7.17773 -14.0918 L 5.43945 -14.0918 L 0.244141 0 L 2.08984 0 L 3.50586 -4.0332 L 9.11133 -4.0332 Z M 6.2793 -11.9531 L 6.33789 -11.9531 L 8.59375 -5.52734 L 4.02344 -5.52734 Z"/>
  </g>
  <rect height="14" id="" style="fill:#00AEEF;stroke:none;opacity:0.4;" width="3" x="791.617" y="1919"/>
  <text style="stroke:none;fill:black;font-family:-apple-system,&quot;SF Pro Display&quot;,&quot;SF Pro Text&quot;,Helvetica,sans-serif;font-weight:bold;" transform="matrix(1 0 0 1 776 1953)">Margins</text>
  <text style="stroke:none;fill:black;font-family:-apple-system,&quot;SF Pro Display&quot;,&quot;SF Pro Text&quot;,Helvetica,sans-serif;" transform="matrix(1 0 0 1 776 1971)">Leading and trailing margins on the left and right side of each symbol</text>
  <text style="stroke:none;fill:black;font-family:-apple-system,&quot;SF Pro Display&quot;,&quot;SF Pro Text&quot;,Helvetica,sans-serif;" transform="matrix(1 0 0 1 776 1989)">can be adjusted by modifying the width of the blue rectangles.</text>
  <text style="stroke:none;fill:black;font-family:-apple-system,&quot;SF Pro Display&quot;,&quot;SF Pro Text&quot;,Helvetica,sans-serif;" transform="matrix(1 0 0 1 776 2007)">Modifications are automatically applied proportionally to all</text>
  <text style="stroke:none;fill:black;font-family:-apple-system,&quot;SF Pro Display&quot;,&quot;SF Pro Text&quot;,Helvetica,sans-serif;" transform="matrix(1 0 0 1 776 2025)">scales and weights.</text>
  <g id="" transform="matrix(1 0 0 1 1289 1933)">
   <path d="M 2.83203 3.11523 L 4.375 4.6582 C 5.22461 5.48828 6.19141 5.41992 7.06055 4.46289 L 17.2754 -6.66016 C 17.7051 -6.36719 18.0957 -6.37695 18.5645 -6.47461 L 19.6094 -6.68945 L 20.3027 -5.99609 L 20.2539 -5.47852 C 20.1855 -4.95117 20.3516 -4.53125 20.8496 -4.0332 L 21.6602 -3.22266 C 22.168 -2.71484 22.8223 -2.68555 23.3008 -3.16406 L 26.5527 -6.41602 C 27.0312 -6.89453 27.0117 -7.54883 26.5039 -8.05664 L 25.6836 -8.87695 C 25.1855 -9.375 24.7754 -9.55078 24.2383 -9.47266 L 23.7109 -9.41406 L 23.0566 -10.0781 L 23.3398 -11.2207 C 23.4863 -11.7871 23.3398 -12.2559 22.7148 -12.8613 L 20.3027 -15.2539 C 16.7578 -18.7793 12.2266 -18.6719 9.11133 -15.5371 C 8.69141 -15.1074 8.64258 -14.5215 8.91602 -14.0918 C 9.15039 -13.7207 9.62891 -13.4961 10.2734 -13.6621 C 11.7871 -14.043 13.3008 -13.9258 14.7852 -12.9199 L 14.1602 -11.3379 C 13.9258 -10.752 13.9453 -10.2734 14.1797 -9.83398 L 3.01758 0.439453 C 2.08008 1.30859 1.97266 2.25586 2.83203 3.11523 Z M 10.6738 -15.1465 C 13.3398 -17.1387 16.6504 -16.8262 19.0527 -14.4141 L 21.6797 -11.8066 C 21.9141 -11.5723 21.9434 -11.3867 21.8848 -11.0938 L 21.5039 -9.53125 L 23.0762 -7.95898 L 24.043 -8.04688 C 24.3262 -8.07617 24.4141 -8.05664 24.6387 -7.83203 L 25.2637 -7.20703 L 22.5098 -4.46289 L 21.8848 -5.07812 C 21.6602 -5.30273 21.6406 -5.40039 21.6699 -5.68359 L 21.7578 -6.64062 L 20.1953 -8.20312 L 18.5742 -7.89062 C 18.291 -7.83203 18.1445 -7.83203 17.9102 -8.07617 L 15.7324 -10.2539 C 15.5078 -10.4883 15.4785 -10.625 15.6055 -10.9473 L 16.5527 -13.2227 C 14.9512 -14.7559 12.8418 -15.6055 10.8008 -14.9512 C 10.7129 -14.9219 10.6445 -14.9414 10.6152 -14.9805 C 10.5859 -15.0293 10.5859 -15.0781 10.6738 -15.1465 Z M 4.10156 2.41211 C 3.61328 1.91406 3.78906 1.61133 4.12109 1.30859 L 15.0781 -8.80859 L 16.3086 -7.57812 L 6.15234 3.34961 C 5.84961 3.68164 5.46875 3.7793 5.06836 3.37891 Z"/>
  </g>
  <text style="stroke:none;fill:black;font-family:-apple-system,&quot;SF Pro Display&quot;,&quot;SF Pro Text&quot;,Helvetica,sans-serif;font-weight:bold;" transform="matrix(1 0 0 1 1289 1953)">Exporting</text>
  <text style="stroke:none;fill:black;font-family:-apple-system,&quot;SF Pro Display&quot;,&quot;SF Pro Text&quot;,Helvetica,sans-serif;" transform="matrix(1 0 0 1 1289 1971)">Symbols should be outlined when exporting to ensure the</text>
  <text style="stroke:none;fill:black;font-family:-apple-system,&quot;SF Pro Display&quot;,&quot;SF Pro Text&quot;,Helvetica,sans-serif;" transform="matrix(1 0 0 1 1289 1989)">design is preserved when submitting to Xcode.</text>
  <text id="template-version" style="stroke:none;fill:black;font-family:-apple-system,&quot;SF Pro Display&quot;,&quot;SF Pro Text&quot;,Helvetica,sans-serif;text-anchor:end;" transform="matrix(1 0 0 1 3036 1933)">Template v.1.0</text>
  <text style="stroke:none;fill:black;font-family:-apple-system,&quot;SF Pro Display&quot;,&quot;SF Pro Text&quot;,Helvetica,sans-serif;text-anchor:end;" transform="matrix(1 0 0 1 3036 1951)">Generated from greaterthan</text>
  <text style="stroke:none;fill:black;font-family:-apple-system,&quot;SF Pro Display&quot;,&quot;SF Pro Text&quot;,Helvetica,sans-serif;text-anchor:end;" transform="matrix(1 0 0 1 3036 1969)">Typeset at 100 points</text>
  <text style="stroke:none;fill:black;font-family:-apple-system,&quot;SF Pro Display&quot;,&quot;SF Pro Text&quot;,Helvetica,sans-serif;" transform="matrix(1 0 0 1 263 726)">Small</text>
  <text style="stroke:none;fill:black;font-family:-apple-system,&quot;SF Pro Display&quot;,&quot;SF Pro Text&quot;,Helvetica,sans-serif;" transform="matrix(1 0 0 1 263 1156)">Medium</text>
  <text style="stroke:none;fill:black;font-family:-apple-system,&quot;SF Pro Display&quot;,&quot;SF Pro Text&quot;,Helvetica,sans-serif;" transform="matrix(1 0 0 1 263 1586)">Large</text>
 </g>
 <g id="Guides">
  <g id="H-reference" style="fill:#27AAE1;stroke:none;" transform="matrix(1 0 0 1 339 696)">
   <path d="M 54.9316 0 L 57.666 0 L 30.5664 -70.459 L 28.0762 -70.459 L 0.976562 0 L 3.66211 0 L 12.9395 -24.4629 L 45.7031 -24.4629 Z M 29.1992 -67.0898 L 29.4434 -67.0898 L 44.8242 -26.709 L 13.8184 -26.709 Z"/>
  </g>
  <line id="Baseline-S" style="fill:none;stroke:#27AAE1;opacity:1;stroke-width:0.577;" x1="263" x2="3036" y1="696" y2="696"/>
  <line id="Capline-S" style="fill:none;stroke:#27AAE1;opacity:1;stroke-width:0.577;" x1="263" x2="3036" y1="625.541" y2="625.541"/>
  <g id="H-reference" style="fill:#27AAE1;stroke:none;" transform="matrix(1 0 0 1 339 1126)">
   <path d="M 54.9316 0 L 57.666 0 L 30.5664 -70.459 L 28.0762 -70.459 L 0.976562 0 L 3.66211 0 L 12.9395 -24.4629 L 45.7031 -24.4629 Z M 29.1992 -67.0898 L 29.4434 -67.0898 L 44.8242 -26.709 L 13.8184 -26.709 Z"/>
  </g>
  <line id="Baseline-M" style="fill:none;stroke:#27AAE1;opacity:1;stroke-width:0.577;" x1="263" x2="3036" y1="1126" y2="1126"/>
  <line id="Capline-M" style="fill:none;stroke:#27AAE1;opacity:1;stroke-width:0.577;" x1="263" x2="3036" y1="1055.54" y2="1055.54"/>
  <g id="H-reference" style="fill:#27AAE1;stroke:none;" transform="matrix(1 0 0 1 339 1556)">
   <path d="M 54.9316 0 L 57.666 0 L 30.5664 -70.459 L 28.0762 -70.459 L 0.976562 0 L 3.66211 0 L 12.9395 -24.4629 L 45.7031 -24.4629 Z M 29.1992 -67.0898 L 29.4434 -67.0898 L 44.8242 -26.709 L 13.8184 -26.709 Z"/>
  </g>
  <line id="Baseline-L" style="fill:none;stroke:#27AAE1;opacity:1;stroke-width:0.577;" x1="263" x2="3036" y1="1556" y2="1556"/>
  <line id="Capline-L" style="fill:none;stroke:#27AAE1;opacity:1;stroke-width:0.577;" x1="263" x2="3036" y1="1485.54" y2="1485.54"/>
  <rect height="119.336" id="left-margin" style="fill:#00AEEF;stroke:none;opacity:0.4;" width="12.4512" x="1403.75" y="1030.79"/>
  <rect height="119.336" id="right-margin" style="fill:#00AEEF;stroke:none;opacity:0.4;" width="12.4512" x="1483.49" y="1030.79"/>
 </g>
 <g id="Symbols">
  <g id="Black-L" transform="matrix(1 0 0 1 2867.99 1556)">
   <path d="M 27.6367 12.8418 C 31.1523 12.8418 34.3262 11.8652 37.5 10.4492 L 101.514 -18.2617 C 110.059 -22.0703 114.746 -27.0508 114.746 -35.2539 C 114.746 -43.4082 110.059 -48.291 101.562 -52.0996 L 37.5 -81.1035 C 34.6191 -82.4707 31.6406 -83.3008 28.3691 -83.3008 C 21.1426 -83.3008 16.0645 -77.6855 16.0645 -70.459 C 16.0645 -64.3555 19.1406 -60.5469 25.8301 -57.959 L 80.8594 -36.0352 L 80.8594 -35.2051 L 25.7812 -13.4277 C 18.5547 -10.6934 16.0645 -6.73828 16.0645 -0.292969 C 16.0645 6.93359 20.5078 12.8418 27.6367 12.8418 Z"/>
  </g>
  <g id="Heavy-L" transform="matrix(1 0 0 1 2572.89 1556)">
   <path d="M 25.9766 11.1328 C 29.0527 11.1328 31.6895 10.2539 34.375 9.0332 L 100.195 -20.459 C 107.422 -23.7305 111.523 -28.0762 111.523 -35.1562 C 111.523 -42.1875 107.422 -46.4355 100.195 -49.707 L 34.375 -79.6387 C 31.9336 -80.8105 29.3945 -81.543 26.5625 -81.543 C 20.4102 -81.543 16.0645 -76.8066 16.0645 -70.6543 C 16.0645 -65.4297 18.7012 -62.1582 24.3652 -59.9121 L 82.666 -35.8887 L 82.666 -35.1074 L 24.3164 -11.2305 C 18.2617 -8.93555 16.0645 -5.56641 16.0645 -0.0488281 C 16.0645 6.15234 19.9219 11.1328 25.9766 11.1328 Z"/>
  </g>
  <g id="Bold-L" transform="matrix(1 0 0 1 2277.97 1556)">
   <path d="M 24.1211 9.22852 C 26.6602 9.22852 28.7598 8.44727 30.9082 7.4707 L 98.7305 -22.9492 C 104.492 -25.5859 107.959 -29.1992 107.959 -35.0098 C 107.959 -40.7715 104.492 -44.3848 98.6816 -47.0215 L 30.9082 -78.0762 C 28.9062 -79.0039 26.9531 -79.6387 24.5605 -79.6387 C 19.5801 -79.6387 16.0645 -75.8789 16.0645 -70.8496 C 16.0645 -66.5527 18.2129 -63.9648 22.7051 -62.1582 L 84.668 -35.7422 L 84.668 -35.0098 L 22.6562 -8.78906 C 17.9199 -6.93359 16.0645 -4.19922 16.0645 0.244141 C 16.0645 5.32227 19.2383 9.22852 24.1211 9.22852 Z"/>
  </g>
  <g id="Semibold-L" transform="matrix(1 0 0 1 1982.48 1556)">
   <path d="M 22.8516 7.91016 C 25 7.91016 26.709 7.22656 28.5156 6.39648 L 97.7051 -24.6582 C 102.441 -26.8555 105.518 -30.0293 105.518 -34.9121 C 105.518 -39.7949 102.441 -42.9688 97.6562 -45.166 L 28.5156 -76.9531 C 26.8555 -77.7344 25.2441 -78.3203 23.1934 -78.3203 C 18.9941 -78.3203 16.0645 -75.1953 16.0645 -70.9961 C 16.0645 -67.3828 17.8711 -65.2344 21.5332 -63.6719 L 86.084 -35.6445 L 86.084 -34.9609 L 21.5332 -7.08008 C 17.6758 -5.51758 16.0645 -3.27148 16.0645 0.439453 C 16.0645 4.73633 18.7988 7.91016 22.8516 7.91016 Z"/>
  </g>
  <g id="Medium-L" transform="matrix(1 0 0 1 1686.69 1556)">
   <path d="M 21.875 6.88477 C 23.7793 6.88477 25.1953 6.29883 26.6602 5.56641 L 96.9238 -25.9766 C 100.928 -27.832 103.662 -30.6152 103.662 -34.8633 C 103.662 -39.0625 100.928 -41.8945 96.875 -43.75 L 26.6602 -76.123 C 25.293 -76.8066 23.9258 -77.2949 22.168 -77.2949 C 18.6035 -77.2949 16.0645 -74.707 16.0645 -71.0938 C 16.0645 -67.9688 17.627 -66.1621 20.6543 -64.8438 L 87.1582 -35.5469 L 87.1582 -34.9121 L 20.6543 -5.81055 C 17.5293 -4.49219 16.0645 -2.58789 16.0645 0.585938 C 16.0645 4.29688 18.457 6.88477 21.875 6.88477 Z"/>
  </g>
  <g id="Regular-L" transform="matrix(1 0 0 1 1391.2 1556)">
   <path d="M 20.6055 5.56641 C 22.168 5.56641 23.1934 5.07812 24.3164 4.54102 L 95.8984 -27.6855 C 98.9258 -29.0527 101.221 -31.3965 101.221 -34.7656 C 101.221 -38.1348 98.9258 -40.4785 95.8496 -41.8945 L 24.3164 -75.0488 C 23.2422 -75.5859 22.2656 -75.9766 20.8008 -75.9766 C 18.0176 -75.9766 16.0645 -74.0723 16.0645 -71.2402 C 16.0645 -68.7988 17.2852 -67.3828 19.5312 -66.3574 L 88.5254 -35.4492 L 88.5254 -34.8145 L 19.5312 -4.10156 C 17.2852 -3.125 16.0645 -1.66016 16.0645 0.78125 C 16.0645 3.71094 17.9688 5.56641 20.6055 5.56641 Z"/>
  </g>
  <g id="Light-L" transform="matrix(1 0 0 1 1095.64 1556)">
   <path d="M 19.5312 4.15039 C 20.752 4.15039 21.582 3.71094 22.4609 3.27148 L 95.1172 -29.4434 C 97.3145 -30.4688 98.9258 -32.1289 98.9258 -34.6191 C 98.9258 -37.0605 97.2656 -38.8184 94.9707 -39.8926 L 22.4609 -73.7305 C 21.582 -74.1699 20.8008 -74.5605 19.6777 -74.5605 C 17.5781 -74.5605 16.0645 -73.0957 16.0645 -70.9473 C 16.0645 -69.1406 16.9434 -68.0664 18.6035 -67.2363 L 89.1602 -35.1074 L 89.1602 -34.5703 L 18.6035 -3.22266 C 16.9434 -2.44141 16.0645 -1.31836 16.0645 0.488281 C 16.0645 2.73438 17.5293 4.15039 19.5312 4.15039 Z"/>
  </g>
  <g id="Thin-L" transform="matrix(1 0 0 1 800.465 1556)">
   <path d="M 18.1152 2.24609 C 18.8965 2.24609 19.4336 1.9043 20.0195 1.61133 L 94.0918 -31.7383 C 95.2148 -32.2754 95.8496 -33.1543 95.8496 -34.4238 C 95.8496 -35.6934 95.0684 -36.5723 93.7988 -37.207 L 20.0195 -72.0703 C 19.4336 -72.3633 18.8965 -72.7051 18.1641 -72.7051 C 16.9434 -72.7051 16.0645 -71.875 16.0645 -70.6055 C 16.0645 -69.6289 16.4551 -68.9453 17.4316 -68.457 L 90.0391 -34.668 L 90.0391 -34.2285 L 17.4316 -2.00195 C 16.4551 -1.5625 16.0645 -0.830078 16.0645 0.146484 C 16.0645 1.41602 16.9434 2.24609 18.1152 2.24609 Z"/>
  </g>
  <g id="Ultralight-L" transform="matrix(1 0 0 1 504.535 1556)">
   <path d="M 17.3828 1.26953 C 17.9199 1.26953 18.3594 0.976562 18.75 0.732422 L 93.5547 -32.959 C 94.0918 -33.252 94.2871 -33.6914 94.2871 -34.3262 C 94.2871 -35.0098 93.9453 -35.4492 93.2129 -35.791 L 18.75 -71.1914 C 18.3594 -71.3867 17.9199 -71.7285 17.3828 -71.7285 C 16.6504 -71.7285 16.0645 -71.2402 16.0645 -70.4102 C 16.0645 -69.873 16.1621 -69.4336 16.7969 -69.0918 L 90.5273 -34.4238 L 90.5273 -34.082 L 16.7969 -1.36719 C 16.1621 -1.12305 16.0645 -0.585938 16.0645 -0.0488281 C 16.0645 0.78125 16.6504 1.26953 17.3828 1.26953 Z"/>
  </g>
  <g id="Black-M" transform="matrix(1 0 0 1 2881.18 1126)">
   <path d="M 23.0469 3.56445 C 26.2695 3.56445 29.2969 2.68555 32.2754 1.36719 L 80.0781 -20.0195 C 87.9395 -23.5352 91.9922 -27.8809 91.9922 -35.3516 C 91.9922 -42.7246 87.9395 -46.9238 80.0781 -50.4395 L 32.2754 -72.0215 C 29.5898 -73.291 26.709 -74.0234 23.7305 -74.0234 C 17.1387 -74.0234 12.4512 -68.7988 12.4512 -62.1582 C 12.4512 -56.5918 15.2344 -53.0762 21.5332 -50.6836 L 60.5957 -35.8887 L 60.5957 -35.2051 L 21.4844 -20.8008 C 14.5996 -18.3105 12.4512 -14.5508 12.4512 -8.64258 C 12.4512 -2.05078 16.5039 3.56445 23.0469 3.56445 Z"/>
  </g>
  <g id="Heavy-M" transform="matrix(1 0 0 1 2585.91 1126)">
   <path d="M 21.5332 2.05078 C 24.3164 2.05078 26.8555 1.26953 29.3457 0.146484 L 78.8086 -21.9727 C 85.498 -25 89.1113 -28.8086 89.1113 -35.2539 C 89.1113 -41.6016 85.498 -45.3613 78.8086 -48.3398 L 29.3457 -70.8008 C 27.0508 -71.875 24.6582 -72.5098 22.1191 -72.5098 C 16.4551 -72.5098 12.4512 -68.1152 12.4512 -62.4023 C 12.4512 -57.666 14.8438 -54.6387 20.166 -52.5879 L 62.4023 -35.791 L 62.4023 -35.1562 L 20.1172 -18.6523 C 14.3555 -16.5039 12.4512 -13.3301 12.4512 -8.30078 C 12.4512 -2.63672 15.9668 2.05078 21.5332 2.05078 Z"/>
  </g>
  <g id="Bold-M" transform="matrix(1 0 0 1 2290.81 1126)">
   <path d="M 19.8242 0.390625 C 22.1191 0.390625 24.0723 -0.292969 26.0742 -1.17188 L 77.3926 -24.2188 C 82.7637 -26.6113 85.8887 -29.834 85.8887 -35.1562 C 85.8887 -40.3809 82.7637 -43.6035 77.3926 -45.9961 L 26.0742 -69.3848 C 24.2676 -70.2637 22.4121 -70.8496 20.2637 -70.8496 C 15.6738 -70.8496 12.4512 -67.334 12.4512 -62.7441 C 12.4512 -58.7891 14.4043 -56.3965 18.6035 -54.7363 L 64.4043 -35.7422 L 64.4043 -35.1562 L 18.5547 -16.2109 C 14.1113 -14.502 12.4512 -12.0117 12.4512 -7.91016 C 12.4512 -3.27148 15.332 0.390625 19.8242 0.390625 Z"/>
  </g>
  <g id="Semibold-M" transform="matrix(1 0 0 1 1995.22 1126)">
   <path d="M 18.6523 -0.78125 C 20.6055 -0.78125 22.2168 -1.36719 23.8281 -2.09961 L 76.4648 -25.7324 C 80.9082 -27.7344 83.6426 -30.5664 83.6426 -35.0586 C 83.6426 -39.5508 80.9082 -42.3828 76.4648 -44.3848 L 23.8281 -68.457 C 22.3145 -69.1895 20.8008 -69.6777 18.9941 -69.6777 C 15.1367 -69.6777 12.4512 -66.7969 12.4512 -62.9395 C 12.4512 -59.6191 14.1113 -57.6172 17.5293 -56.2012 L 65.7715 -35.6934 L 65.7715 -35.1074 L 17.5293 -14.5508 C 13.916 -13.1348 12.4512 -11.084 12.4512 -7.61719 C 12.4512 -3.71094 14.8926 -0.78125 18.6523 -0.78125 Z"/>
  </g>
  <g id="Medium-M" transform="matrix(1 0 0 1 1699.36 1126)">
   <path d="M 17.7734 -1.66016 C 19.4824 -1.66016 20.752 -2.14844 22.1191 -2.7832 L 75.7324 -26.8555 C 79.4434 -28.5645 81.9336 -31.1035 81.9336 -35.0098 C 81.9336 -38.916 79.4922 -41.4551 75.7324 -43.1641 L 22.1191 -67.7246 C 20.8496 -68.3594 19.6289 -68.7988 18.0176 -68.7988 C 14.7461 -68.7988 12.4512 -66.4062 12.4512 -63.0859 C 12.4512 -60.2051 13.916 -58.5449 16.6992 -57.3242 L 66.8457 -35.6445 L 66.8457 -35.1074 L 16.6992 -13.2812 C 13.7695 -12.0605 12.4512 -10.3516 12.4512 -7.42188 C 12.4512 -4.05273 14.5996 -1.66016 17.7734 -1.66016 Z"/>
  </g>
  <g id="Regular-M" transform="matrix(1 0 0 1 1403.75 1126)">
   <path d="M 16.6016 -2.7832 C 17.9688 -2.7832 18.8965 -3.22266 19.873 -3.71094 L 74.7559 -28.3691 C 77.5879 -29.6875 79.7363 -31.8359 79.7363 -34.9609 C 79.7363 -38.0371 77.5879 -40.2832 74.7559 -41.5527 L 19.873 -66.7969 C 18.9453 -67.2852 18.0664 -67.627 16.7969 -67.627 C 14.209 -67.627 12.4512 -65.8691 12.4512 -63.2812 C 12.4512 -61.0352 13.623 -59.7656 15.6738 -58.7891 L 68.2129 -35.5957 L 68.2129 -35.0586 L 15.6738 -11.6699 C 13.623 -10.6934 12.4512 -9.42383 12.4512 -7.17773 C 12.4512 -4.49219 14.1602 -2.7832 16.6016 -2.7832 Z"/>
  </g>
  <g id="Light-M" transform="matrix(1 0 0 1 1108.06 1126)">
   <path d="M 15.625 -4.10156 C 16.6992 -4.10156 17.4316 -4.44336 18.2129 -4.83398 L 74.0723 -29.9316 C 76.123 -30.9082 77.6855 -32.5195 77.6855 -34.8145 C 77.6855 -37.1094 76.123 -38.7695 73.9746 -39.7461 L 18.2129 -65.6738 C 17.4805 -66.0156 16.748 -66.3574 15.7715 -66.3574 C 13.8184 -66.3574 12.4512 -64.9902 12.4512 -63.0371 C 12.4512 -61.377 13.2812 -60.3516 14.8438 -59.6191 L 68.7988 -35.3027 L 68.7988 -34.8633 L 14.8438 -10.8398 C 13.2812 -10.1074 12.4512 -9.08203 12.4512 -7.42188 C 12.4512 -5.37109 13.7695 -4.10156 15.625 -4.10156 Z"/>
  </g>
  <g id="Thin-M" transform="matrix(1 0 0 1 812.721 1126)">
   <path d="M 14.3555 -5.81055 C 15.0391 -5.81055 15.5273 -6.05469 16.0156 -6.34766 L 73.1445 -32.0312 C 74.2188 -32.5684 74.9512 -33.3984 74.9512 -34.668 C 74.9512 -35.8887 74.1211 -36.7676 72.9492 -37.3535 L 16.0156 -64.1602 C 15.5273 -64.4043 15.0391 -64.6484 14.4043 -64.6484 C 13.2812 -64.6484 12.4512 -63.916 12.4512 -62.6953 C 12.4512 -61.7676 12.8418 -61.1816 13.7695 -60.7422 L 69.6289 -34.8633 L 69.6289 -34.5215 L 13.7695 -9.7168 C 12.8418 -9.32617 12.4512 -8.69141 12.4512 -7.76367 C 12.4512 -6.54297 13.2812 -5.81055 14.3555 -5.81055 Z"/>
  </g>
  <g id="Ultralight-M" transform="matrix(1 0 0 1 516.718 1126)">
   <path d="M 13.7207 -6.64062 C 14.209 -6.64062 14.5508 -6.88477 14.8926 -7.08008 L 72.6562 -33.1055 C 73.2422 -33.3984 73.5352 -33.8867 73.5352 -34.5703 C 73.5352 -35.2539 73.1445 -35.7422 72.4121 -36.084 L 14.8926 -63.3789 C 14.5508 -63.5254 14.209 -63.8184 13.7207 -63.8184 C 12.9883 -63.8184 12.4512 -63.3301 12.4512 -62.5488 C 12.4512 -62.0117 12.5977 -61.5723 13.2324 -61.2793 L 70.0195 -34.668 L 70.0195 -34.375 L 13.2324 -9.17969 C 12.5977 -8.93555 12.4512 -8.44727 12.4512 -7.91016 C 12.4512 -7.12891 12.9883 -6.64062 13.7207 -6.64062 Z"/>
  </g>
  <g id="Black-S" transform="matrix(1 0 0 1 2892.58 696)">
   <path d="M 17.9688 -4.93164 C 20.459 -4.93164 22.8027 -5.61523 25.0977 -6.64062 L 62.6465 -23.4375 C 68.75 -26.1719 71.875 -29.541 71.875 -35.3027 C 71.875 -41.0156 68.75 -44.2871 62.6465 -47.0215 L 25.0977 -63.9648 C 22.998 -64.9414 20.8008 -65.5273 18.5059 -65.5273 C 13.3789 -65.5273 9.76562 -61.4746 9.76562 -56.3477 C 9.76562 -52.0508 11.9141 -49.3164 16.7969 -47.4609 L 47.6074 -35.7422 L 47.6074 -35.2051 L 16.748 -23.7793 C 11.4258 -21.8262 9.76562 -18.9453 9.76562 -14.3555 C 9.76562 -9.27734 12.8906 -4.93164 17.9688 -4.93164 Z"/>
  </g>
  <g id="Heavy-S" transform="matrix(1 0 0 1 2596.85 696)">
   <path d="M 16.8945 -5.95703 C 19.0918 -5.95703 21.0938 -6.54297 23.0469 -7.42188 L 61.7676 -24.7559 C 67.041 -27.1484 69.9219 -30.1758 69.9219 -35.2539 C 69.9219 -40.2832 67.041 -43.2617 61.7676 -45.6055 L 23.0469 -63.1348 C 21.2402 -64.0137 19.3848 -64.502 17.3828 -64.502 C 12.8906 -64.502 9.76562 -61.0352 9.76562 -56.5918 C 9.76562 -52.832 11.6699 -50.4395 15.8203 -48.8281 L 48.9258 -35.7422 L 48.9258 -35.2051 L 15.7715 -22.2168 C 11.2793 -20.5078 9.76562 -18.0664 9.76562 -14.0625 C 9.76562 -9.61914 12.5 -5.95703 16.8945 -5.95703 Z"/>
  </g>
  <g id="Bold-S" transform="matrix(1 0 0 1 2301.26 696)">
   <path d="M 15.7227 -7.08008 C 17.5781 -7.08008 19.1406 -7.56836 20.752 -8.30078 L 60.791 -26.2695 C 65.1367 -28.2227 67.6758 -30.9082 67.6758 -35.2051 C 67.6758 -39.4531 65.1367 -42.0898 60.791 -44.043 L 20.752 -62.2559 C 19.2871 -62.9395 17.7734 -63.3789 16.0645 -63.3789 C 12.3535 -63.3789 9.76562 -60.5469 9.76562 -56.8359 C 9.76562 -53.6621 11.377 -51.709 14.7461 -50.3906 L 50.3906 -35.6934 L 50.3906 -35.2051 L 14.6973 -20.459 C 11.1328 -19.0918 9.76562 -17.041 9.76562 -13.7207 C 9.76562 -10.0098 12.1094 -7.08008 15.7227 -7.08008 Z"/>
  </g>
  <g id="Semibold-S" transform="matrix(1 0 0 1 2005.3 696)">
   <path d="M 14.8926 -7.8125 C 16.5527 -7.8125 17.8223 -8.30078 19.1406 -8.93555 L 60.1074 -27.2949 C 63.8184 -28.9551 66.1621 -31.3965 66.1621 -35.1562 C 66.1621 -38.8672 63.8184 -41.3086 60.1562 -42.9688 L 19.1406 -61.6211 C 17.9199 -62.207 16.6992 -62.5977 15.1855 -62.5977 C 12.0117 -62.5977 9.76562 -60.2051 9.76562 -57.0312 C 9.76562 -54.248 11.1816 -52.5879 13.9648 -51.4648 L 51.416 -35.6934 L 51.416 -35.2051 L 13.9648 -19.2383 C 11.0352 -18.0664 9.76562 -16.3574 9.76562 -13.5254 C 9.76562 -10.2539 11.8164 -7.8125 14.8926 -7.8125 Z"/>
  </g>
  <g id="Medium-S" transform="matrix(1 0 0 1 1709.18 696)">
   <path d="M 14.3066 -8.39844 C 15.7227 -8.39844 16.7969 -8.83789 17.9688 -9.375 L 59.6191 -28.0762 C 62.793 -29.541 64.9902 -31.7383 64.9902 -35.1074 C 64.9902 -38.4766 62.8418 -40.6738 59.6191 -42.1387 L 17.9688 -61.1328 C 16.8945 -61.6699 15.8691 -62.0117 14.5508 -62.0117 C 11.7188 -62.0117 9.76562 -59.9609 9.76562 -57.1777 C 9.76562 -54.6875 11.0352 -53.2715 13.4277 -52.2461 L 52.1484 -35.6445 L 52.1484 -35.2051 L 13.3789 -18.3594 C 10.9375 -17.2852 9.76562 -15.8691 9.76562 -13.3301 C 9.76562 -10.4492 11.6211 -8.39844 14.3066 -8.39844 Z"/>
  </g>
  <g id="Regular-S" transform="matrix(1 0 0 1 1413.22 696)">
   <path d="M 13.4766 -9.17969 C 14.6973 -9.17969 15.4785 -9.57031 16.4062 -10.0098 L 58.9355 -29.1016 C 61.4746 -30.2734 63.4766 -32.2266 63.4766 -35.1074 C 63.4766 -37.8906 61.5234 -39.8926 58.9844 -41.0645 L 16.4062 -60.498 C 15.5273 -60.9375 14.7949 -61.2305 13.6719 -61.2305 C 11.377 -61.2305 9.76562 -59.6191 9.76562 -57.3242 C 9.76562 -55.2734 10.8398 -54.1504 12.6465 -53.3203 L 53.1738 -35.6445 L 53.1738 -35.2051 L 12.6465 -17.1387 C 10.8398 -16.3086 9.76562 -15.1855 9.76562 -13.1348 C 9.76562 -10.7422 11.3281 -9.17969 13.4766 -9.17969 Z"/>
  </g>
  <g id="Light-S" transform="matrix(1 0 0 1 1117.42 696)">
   <path d="M 12.6465 -10.3516 C 13.5742 -10.3516 14.209 -10.6445 14.9414 -10.9863 L 58.3008 -30.5176 C 60.2051 -31.3477 61.6699 -32.8125 61.6699 -34.9609 C 61.6699 -37.0605 60.2051 -38.5742 58.252 -39.4531 L 14.9414 -59.5215 C 14.2578 -59.8633 13.623 -60.1074 12.7441 -60.1074 C 10.9863 -60.1074 9.76562 -58.8867 9.76562 -57.1289 C 9.76562 -55.5664 10.5469 -54.6875 11.9629 -54.0527 L 53.7109 -35.4004 L 53.7109 -35.0098 L 11.9629 -16.4062 C 10.5469 -15.7715 9.76562 -14.8926 9.76562 -13.3301 C 9.76562 -11.5234 10.9863 -10.3516 12.6465 -10.3516 Z"/>
  </g>
  <g id="Thin-S" transform="matrix(1 0 0 1 821.925 696)">
   <path d="M 11.5234 -11.8164 C 12.1094 -11.8164 12.5488 -12.0605 12.9883 -12.3047 L 57.5195 -32.3242 C 58.5449 -32.8125 59.2285 -33.6426 59.2285 -34.8145 C 59.2285 -35.9863 58.4961 -36.8164 57.373 -37.3535 L 12.9883 -58.1543 C 12.5488 -58.3984 12.1582 -58.5938 11.5723 -58.5938 C 10.498 -58.5938 9.76562 -57.9102 9.76562 -56.8359 C 9.76562 -55.957 10.1562 -55.4199 10.9863 -54.9805 L 54.3945 -35.0586 L 54.3945 -34.7656 L 10.9863 -15.4785 C 10.1562 -15.0879 9.76562 -14.502 9.76562 -13.623 C 9.76562 -12.5488 10.498 -11.8164 11.5234 -11.8164 Z"/>
  </g>
  <g id="Ultralight-S" transform="matrix(1 0 0 1 525.824 696)">
   <path d="M 10.9375 -12.5977 C 11.377 -12.5977 11.6699 -12.8418 12.0117 -12.9883 L 57.0801 -33.3008 C 57.666 -33.5449 58.0078 -34.0332 58.0078 -34.7168 C 58.0078 -35.4492 57.5684 -35.8887 56.8848 -36.2305 L 12.0117 -57.4707 C 11.6699 -57.666 11.377 -57.8613 10.9375 -57.8613 C 10.2539 -57.8613 9.76562 -57.373 9.76562 -56.6895 C 9.76562 -56.1523 9.96094 -55.7617 10.498 -55.5176 L 54.7363 -34.8633 L 54.7363 -34.6191 L 10.498 -14.9414 C 9.96094 -14.7461 9.76562 -14.3066 9.76562 -13.7695 C 9.76562 -13.0859 10.2539 -12.5977 10.9375 -12.5977 Z"/>
  </g>
 </g>
</svg>
