<?xml version="1.0" encoding="UTF-8"?>
<!--Generator: Apple Native CoreSVG 149-->
<!DOCTYPE svg
PUBLIC "-//W3C//DTD SVG 1.1//EN"
       "http://www.w3.org/Graphics/SVG/1.1/DTD/svg11.dtd">
<svg version="1.1" xmlns="http://www.w3.org/2000/svg" xmlns:xlink="http://www.w3.org/1999/xlink" width="3300" height="2200">
 <!--glyph: "uni1007A1.medium", point size: 100.000000, font version: "Version 16.0d18e1", template writer version: "8"-->
 <g id="Notes">
  <rect height="2200" id="artboard" style="fill:white;opacity:1" width="3300" x="0" y="0"/>
  <line id="" style="fill:none;stroke:black;opacity:1;stroke-width:0.5;" x1="263" x2="3036" y1="292" y2="292"/>
  <text style="stroke:none;fill:black;font-family:-apple-system,&quot;SF Pro Display&quot;,&quot;SF Pro Text&quot;,Helvetica,sans-serif;font-weight:bold;" transform="matrix(1 0 0 1 263 322)">Weight/Scale Variations</text>
  <text style="stroke:none;fill:black;font-family:-apple-system,&quot;SF Pro Display&quot;,&quot;SF Pro Text&quot;,Helvetica,sans-serif;text-anchor:middle;" transform="matrix(1 0 0 1 559.711 322)">Ultralight</text>
  <text style="stroke:none;fill:black;font-family:-apple-system,&quot;SF Pro Display&quot;,&quot;SF Pro Text&quot;,Helvetica,sans-serif;text-anchor:middle;" transform="matrix(1 0 0 1 856.422 322)">Thin</text>
  <text style="stroke:none;fill:black;font-family:-apple-system,&quot;SF Pro Display&quot;,&quot;SF Pro Text&quot;,Helvetica,sans-serif;text-anchor:middle;" transform="matrix(1 0 0 1 1153.13 322)">Light</text>
  <text style="stroke:none;fill:black;font-family:-apple-system,&quot;SF Pro Display&quot;,&quot;SF Pro Text&quot;,Helvetica,sans-serif;text-anchor:middle;" transform="matrix(1 0 0 1 1449.84 322)">Regular</text>
  <text style="stroke:none;fill:black;font-family:-apple-system,&quot;SF Pro Display&quot;,&quot;SF Pro Text&quot;,Helvetica,sans-serif;text-anchor:middle;" transform="matrix(1 0 0 1 1746.56 322)">Medium</text>
  <text style="stroke:none;fill:black;font-family:-apple-system,&quot;SF Pro Display&quot;,&quot;SF Pro Text&quot;,Helvetica,sans-serif;text-anchor:middle;" transform="matrix(1 0 0 1 2043.27 322)">Semibold</text>
  <text style="stroke:none;fill:black;font-family:-apple-system,&quot;SF Pro Display&quot;,&quot;SF Pro Text&quot;,Helvetica,sans-serif;text-anchor:middle;" transform="matrix(1 0 0 1 2339.98 322)">Bold</text>
  <text style="stroke:none;fill:black;font-family:-apple-system,&quot;SF Pro Display&quot;,&quot;SF Pro Text&quot;,Helvetica,sans-serif;text-anchor:middle;" transform="matrix(1 0 0 1 2636.69 322)">Heavy</text>
  <text style="stroke:none;fill:black;font-family:-apple-system,&quot;SF Pro Display&quot;,&quot;SF Pro Text&quot;,Helvetica,sans-serif;text-anchor:middle;" transform="matrix(1 0 0 1 2933.4 322)">Black</text>
  <line id="" style="fill:none;stroke:black;opacity:1;stroke-width:0.5;" x1="263" x2="3036" y1="1903" y2="1903"/>
  <g id="" transform="matrix(1 0 0 1 263 1933)">
   <path d="M9.24805 0.830078C13.5547 0.830078 17.1387-2.74414 17.1387-7.05078C17.1387-11.3574 13.5449-14.9316 9.23828-14.9316C4.94141-14.9316 1.36719-11.3574 1.36719-7.05078C1.36719-2.74414 4.95117 0.830078 9.24805 0.830078ZM9.24805-0.654297C5.70312-0.654297 2.87109-3.49609 2.87109-7.05078C2.87109-10.6055 5.69336-13.4473 9.23828-13.4473C12.793-13.4473 15.6348-10.6055 15.6445-7.05078C15.6543-3.49609 12.8027-0.654297 9.24805-0.654297ZM6.39648-6.31836L8.50586-6.31836L8.50586-4.19922C8.50586-3.75977 8.79883-3.45703 9.22852-3.45703C9.67773-3.45703 9.9707-3.75977 9.9707-4.19922L9.9707-6.31836L12.0996-6.31836C12.5391-6.31836 12.8418-6.61133 12.8418-7.04102C12.8418-7.48047 12.5391-7.7832 12.0996-7.7832L9.9707-7.7832L9.9707-9.89258C9.9707-10.3418 9.67773-10.6445 9.22852-10.6445C8.79883-10.6445 8.50586-10.3418 8.50586-9.89258L8.50586-7.7832L6.39648-7.7832C5.94727-7.7832 5.64453-7.48047 5.64453-7.04102C5.64453-6.61133 5.94727-6.31836 6.39648-6.31836Z"/>
  </g>
  <g id="" transform="matrix(1 0 0 1 281.506 1933)">
   <path d="M11.709 2.91016C17.1582 2.91016 21.6699-1.61133 21.6699-7.05078C21.6699-12.5 17.1484-17.0117 11.6992-17.0117C6.25977-17.0117 1.74805-12.5 1.74805-7.05078C1.74805-1.61133 6.26953 2.91016 11.709 2.91016ZM11.709 1.25C7.09961 1.25 3.41797-2.44141 3.41797-7.05078C3.41797-11.6602 7.08984-15.3516 11.6992-15.3516C16.3086-15.3516 20-11.6602 20.0098-7.05078C20.0195-2.44141 16.3184 1.25 11.709 1.25ZM7.98828-6.23047L10.8789-6.23047L10.8789-3.32031C10.8789-2.83203 11.2109-2.5 11.6895-2.5C12.1777-2.5 12.5195-2.83203 12.5195-3.32031L12.5195-6.23047L15.4297-6.23047C15.918-6.23047 16.25-6.5625 16.25-7.04102C16.25-7.5293 15.918-7.87109 15.4297-7.87109L12.5195-7.87109L12.5195-10.7617C12.5195-11.2695 12.1777-11.6016 11.6895-11.6016C11.2109-11.6016 10.8789-11.2598 10.8789-10.7617L10.8789-7.87109L7.98828-7.87109C7.48047-7.87109 7.14844-7.5293 7.14844-7.04102C7.14844-6.5625 7.49023-6.23047 7.98828-6.23047Z"/>
  </g>
  <g id="" transform="matrix(1 0 0 1 304.924 1933)">
   <path d="M14.9707 5.66406C21.9336 5.66406 27.6953-0.0976562 27.6953-7.05078C27.6953-14.0137 21.9238-19.7754 14.9609-19.7754C8.00781-19.7754 2.25586-14.0137 2.25586-7.05078C2.25586-0.0976562 8.01758 5.66406 14.9707 5.66406ZM14.9707 3.84766C8.93555 3.84766 4.08203-1.01562 4.08203-7.05078C4.08203-13.0957 8.92578-17.9492 14.9609-17.9492C21.0059-17.9492 25.8594-13.0957 25.8691-7.05078C25.8789-1.01562 21.0156 3.84766 14.9707 3.84766ZM10.0586-6.14258L14.0625-6.14258L14.0625-2.12891C14.0625-1.5918 14.4336-1.2207 14.9512-1.2207C15.4883-1.2207 15.8594-1.5918 15.8594-2.12891L15.8594-6.14258L19.8828-6.14258C20.4102-6.14258 20.791-6.51367 20.791-7.03125C20.791-7.56836 20.4199-7.94922 19.8828-7.94922L15.8594-7.94922L15.8594-11.9531C15.8594-12.5098 15.4883-12.8809 14.9512-12.8809C14.4336-12.8809 14.0625-12.5 14.0625-11.9531L14.0625-7.94922L10.0586-7.94922C9.50195-7.94922 9.13086-7.56836 9.13086-7.03125C9.13086-6.51367 9.51172-6.14258 10.0586-6.14258Z"/>
  </g>
  <text style="stroke:none;fill:black;font-family:-apple-system,&quot;SF Pro Display&quot;,&quot;SF Pro Text&quot;,Helvetica,sans-serif;font-weight:bold;" transform="matrix(1 0 0 1 263 1953)">Design Variations</text>
  <text style="stroke:none;fill:black;font-family:-apple-system,&quot;SF Pro Display&quot;,&quot;SF Pro Text&quot;,Helvetica,sans-serif;" transform="matrix(1 0 0 1 263 1971)">Symbols are supported in up to nine weights and three scales.</text>
  <text style="stroke:none;fill:black;font-family:-apple-system,&quot;SF Pro Display&quot;,&quot;SF Pro Text&quot;,Helvetica,sans-serif;" transform="matrix(1 0 0 1 263 1989)">For optimal layout with text and other symbols, vertically align</text>
  <text style="stroke:none;fill:black;font-family:-apple-system,&quot;SF Pro Display&quot;,&quot;SF Pro Text&quot;,Helvetica,sans-serif;" transform="matrix(1 0 0 1 263 2007)">symbols with the adjacent text.</text>
  <line id="" style="fill:none;stroke:#00AEEF;stroke-width:0.5;opacity:1.0;" x1="776" x2="776" y1="1919" y2="1933"/>
  <g id="" transform="matrix(1 0 0 1 776 1933)">
   <path d="M3.31055 0.126953C3.82812 0.126953 4.08203-0.0683594 4.26758-0.605469L5.52734-4.0625L11.2891-4.0625L12.5488-0.605469C12.7344-0.0683594 12.9883 0.126953 13.4961 0.126953C14.0137 0.126953 14.3457-0.185547 14.3457-0.673828C14.3457-0.839844 14.3164-0.986328 14.2383-1.20117L9.6582-13.3887C9.43359-13.9941 9.0332-14.2871 8.4082-14.2871C7.80273-14.2871 7.39258-13.9941 7.17773-13.3984L2.59766-1.19141C2.51953-0.976562 2.49023-0.830078 2.49023-0.664062C2.49023-0.175781 2.80273 0.126953 3.31055 0.126953ZM6.00586-5.53711L8.37891-12.1094L8.42773-12.1094L10.8008-5.53711Z"/>
  </g>
  <line id="" style="fill:none;stroke:#00AEEF;stroke-width:0.5;opacity:1.0;" x1="792.836" x2="792.836" y1="1919" y2="1933"/>
  <text style="stroke:none;fill:black;font-family:-apple-system,&quot;SF Pro Display&quot;,&quot;SF Pro Text&quot;,Helvetica,sans-serif;font-weight:bold;" transform="matrix(1 0 0 1 776 1953)">Margins</text>
  <text style="stroke:none;fill:black;font-family:-apple-system,&quot;SF Pro Display&quot;,&quot;SF Pro Text&quot;,Helvetica,sans-serif;" transform="matrix(1 0 0 1 776 1971)">Leading and trailing margins on the left and right side of each symbol</text>
  <text style="stroke:none;fill:black;font-family:-apple-system,&quot;SF Pro Display&quot;,&quot;SF Pro Text&quot;,Helvetica,sans-serif;" transform="matrix(1 0 0 1 776 1989)">can be adjusted by modifying the x-location of the margin guidelines.</text>
  <text style="stroke:none;fill:black;font-family:-apple-system,&quot;SF Pro Display&quot;,&quot;SF Pro Text&quot;,Helvetica,sans-serif;" transform="matrix(1 0 0 1 776 2007)">Modifications are automatically applied proportionally to all</text>
  <text style="stroke:none;fill:black;font-family:-apple-system,&quot;SF Pro Display&quot;,&quot;SF Pro Text&quot;,Helvetica,sans-serif;" transform="matrix(1 0 0 1 776 2025)">scales and weights.</text>
  <g id="" transform="matrix(1 0 0 1 1289 1933)">
   <path d="M2.8418 1.86523L4.54102 3.57422C5.40039 4.44336 6.38672 4.38477 7.31445 3.35938L17.4902-7.85156C17.7539-7.76367 18.0273-7.7832 18.3398-7.8418L19.4043-8.03711L20.0684-7.36328L20.0293-6.80664C19.9902-6.30859 20.1172-5.92773 20.6055-5.44922L21.3672-4.70703C21.8457-4.22852 22.4609-4.19922 22.9297-4.66797L25.8398-7.58789C26.3086-8.05664 26.2891-8.65234 25.8105-9.13086L25.0391-9.89258C24.5605-10.3711 24.1895-10.5273 23.7109-10.4883L23.1348-10.4395L22.4902-11.0742L22.7344-12.1973C22.8613-12.7637 22.7051-13.2031 22.1191-13.7891L19.9219-15.9766C16.582-19.2969 12.1484-19.2188 9.25781-16.3281C8.83789-15.918 8.80859-15.3418 9.04297-14.9512C9.27734-14.5898 9.73633-14.3555 10.3809-14.5215C11.8457-14.8633 13.3691-14.9219 14.7949-13.9844L14.209-12.5293C14.0137-12.0508 13.9844-11.6504 14.1113-11.2891L3.04688-0.898438C2.06055 0.0195312 1.98242 0.996094 2.8418 1.86523ZM10.752-15.957C13.1836-17.7344 16.4746-17.4316 18.7012-15.2051L21.1328-12.793C21.3672-12.5586 21.4062-12.373 21.3379-12.0312L21.0156-10.5469L22.5195-9.0625L23.5059-9.12109C23.7598-9.13086 23.8379-9.11133 24.0332-8.91602L24.6094-8.33984L22.168-5.89844L21.5918-6.47461C21.3965-6.66992 21.3672-6.74805 21.377-7.01172L21.4453-7.98828L19.9512-9.47266L18.4277-9.21875C18.1055-9.15039 17.959-9.17969 17.7148-9.41406L15.7129-11.416C15.459-11.6504 15.4297-11.8164 15.5859-12.1875L16.4648-14.2773C14.9023-15.7324 12.8711-16.3574 10.8398-15.7617C10.6836-15.7227 10.625-15.8496 10.752-15.957ZM5.27344 2.30469L4.10156 1.14258C3.63281 0.683594 3.74023 0.341797 4.14062-0.0195312L14.9512-10.1953L16.416-8.71094L6.42578 2.27539C6.07422 2.67578 5.74219 2.77344 5.27344 2.30469Z"/>
  </g>
  <text style="stroke:none;fill:black;font-family:-apple-system,&quot;SF Pro Display&quot;,&quot;SF Pro Text&quot;,Helvetica,sans-serif;font-weight:bold;" transform="matrix(1 0 0 1 1289 1953)">Exporting</text>
  <text style="stroke:none;fill:black;font-family:-apple-system,&quot;SF Pro Display&quot;,&quot;SF Pro Text&quot;,Helvetica,sans-serif;" transform="matrix(1 0 0 1 1289 1971)">Symbols should be outlined when exporting to ensure the</text>
  <text style="stroke:none;fill:black;font-family:-apple-system,&quot;SF Pro Display&quot;,&quot;SF Pro Text&quot;,Helvetica,sans-serif;" transform="matrix(1 0 0 1 1289 1989)">design is preserved when submitting to Xcode.</text>
  <text id="template-version" style="stroke:none;fill:black;font-family:-apple-system,&quot;SF Pro Display&quot;,&quot;SF Pro Text&quot;,Helvetica,sans-serif;text-anchor:end;" transform="matrix(1 0 0 1 3036 1933)">Template v.2.0</text>
  <text style="stroke:none;fill:black;font-family:-apple-system,&quot;SF Pro Display&quot;,&quot;SF Pro Text&quot;,Helvetica,sans-serif;text-anchor:end;" transform="matrix(1 0 0 1 3036 1951)">Requires Xcode 12 or greater</text>
  <text style="stroke:none;fill:black;font-family:-apple-system,&quot;SF Pro Display&quot;,&quot;SF Pro Text&quot;,Helvetica,sans-serif;text-anchor:end;" transform="matrix(1 0 0 1 3036 1969)">Generated from shield.slash</text>
  <text style="stroke:none;fill:black;font-family:-apple-system,&quot;SF Pro Display&quot;,&quot;SF Pro Text&quot;,Helvetica,sans-serif;text-anchor:end;" transform="matrix(1 0 0 1 3036 1987)">Typeset at 100 points</text>
  <text style="stroke:none;fill:black;font-family:-apple-system,&quot;SF Pro Display&quot;,&quot;SF Pro Text&quot;,Helvetica,sans-serif;" transform="matrix(1 0 0 1 263 726)">Small</text>
  <text style="stroke:none;fill:black;font-family:-apple-system,&quot;SF Pro Display&quot;,&quot;SF Pro Text&quot;,Helvetica,sans-serif;" transform="matrix(1 0 0 1 263 1156)">Medium</text>
  <text style="stroke:none;fill:black;font-family:-apple-system,&quot;SF Pro Display&quot;,&quot;SF Pro Text&quot;,Helvetica,sans-serif;" transform="matrix(1 0 0 1 263 1586)">Large</text>
 </g>
 <g id="Guides">
  <g id="H-reference" style="fill:#27AAE1;stroke:none;" transform="matrix(1 0 0 1 339 696)">
   <path d="M0.976562 0L3.66211 0L12.9883-24.4629L45.752-24.4629L55.127 0L57.7637 0L30.6152-70.459L28.125-70.459ZM29.3457-67.1387L29.4434-67.1387L44.873-26.709L13.8672-26.709Z"/>
  </g>
  <line id="Baseline-S" style="fill:none;stroke:#27AAE1;opacity:1;stroke-width:0.5;" x1="263" x2="3036" y1="696" y2="696"/>
  <line id="Capline-S" style="fill:none;stroke:#27AAE1;opacity:1;stroke-width:0.5;" x1="263" x2="3036" y1="625.541" y2="625.541"/>
  <g id="H-reference" style="fill:#27AAE1;stroke:none;" transform="matrix(1 0 0 1 339 1126)">
   <path d="M0.976562 0L3.66211 0L12.9883-24.4629L45.752-24.4629L55.127 0L57.7637 0L30.6152-70.459L28.125-70.459ZM29.3457-67.1387L29.4434-67.1387L44.873-26.709L13.8672-26.709Z"/>
  </g>
  <line id="Baseline-M" style="fill:none;stroke:#27AAE1;opacity:1;stroke-width:0.5;" x1="263" x2="3036" y1="1126" y2="1126"/>
  <line id="Capline-M" style="fill:none;stroke:#27AAE1;opacity:1;stroke-width:0.5;" x1="263" x2="3036" y1="1055.54" y2="1055.54"/>
  <g id="H-reference" style="fill:#27AAE1;stroke:none;" transform="matrix(1 0 0 1 339 1556)">
   <path d="M0.976562 0L3.66211 0L12.9883-24.4629L45.752-24.4629L55.127 0L57.7637 0L30.6152-70.459L28.125-70.459ZM29.3457-67.1387L29.4434-67.1387L44.873-26.709L13.8672-26.709Z"/>
  </g>
  <line id="Baseline-L" style="fill:none;stroke:#27AAE1;opacity:1;stroke-width:0.5;" x1="263" x2="3036" y1="1556" y2="1556"/>
  <line id="Capline-L" style="fill:none;stroke:#27AAE1;opacity:1;stroke-width:0.5;" x1="263" x2="3036" y1="1485.54" y2="1485.54"/>
  <line id="left-margin" style="fill:none;stroke:#00AEEF;stroke-width:0.5;opacity:1.0;" x1="1391.45" x2="1391.45" y1="1030.79" y2="1150.12"/>
  <line id="right-margin" style="fill:none;stroke:#00AEEF;stroke-width:0.5;opacity:1.0;" x1="1508.24" x2="1508.24" y1="1030.79" y2="1150.12"/>
 </g>
 <g id="Symbols">
  <g id="Black-L" transform="matrix(1 0 0 1 2854.35 1556)">
   <path d="M129.15-2.49023C132.666-8.30078 134.229-14.6973 134.229-22.5586L134.229-68.3105C134.229-78.6621 131.055-83.2031 121.826-87.1582C116.553-89.4531 93.6035-96.8262 88.916-98.2422C85.5469-99.2676 81.2012-99.9023 77.8809-99.9023C74.5605-99.9023 70.2637-99.1699 66.8945-98.2422C63.5254-97.3633 50.5859-93.1641 41.6992-90.0391L56.3965-75.3418C62.8906-77.5879 69.1406-79.6387 72.0703-80.6152C74.8535-81.4941 76.3184-81.8359 77.8809-81.8359C79.4434-81.8359 80.9082-81.4941 83.7402-80.6152C88.7207-78.9551 104.785-73.4863 113.477-70.1172C115.234-69.4336 115.82-68.3594 115.82-66.0156L115.82-25.0977C115.82-21.9727 115.43-19.3359 114.697-16.9922ZM130.029 27.4414C132.275 29.6387 135.986 29.6875 138.184 27.4414C140.332 25.1953 140.43 21.582 138.184 19.3359L20.752-97.998C18.5059-100.244 14.8438-100.244 12.5488-97.998C10.4004-95.8008 10.4004-92.041 12.5488-89.8438ZM21.582-22.5586C21.582 0.634766 35.2051 11.6699 72.8027 30.2734C74.5117 31.1035 76.4648 31.6895 77.8809 31.6895C79.2969 31.6895 81.25 31.1035 82.959 30.2734C92.4316 25.5859 100.391 21.3867 106.934 17.334L92.9688 3.36914C89.3555 5.56641 85.3027 7.86133 80.6641 10.5957C78.9551 11.6211 78.4668 11.7676 77.8809 11.7676C77.3438 11.7676 76.8555 11.6699 75.1465 10.5957C47.3633-6.5918 39.9414-9.81445 39.9414-25.0977L39.9414-49.5605L21.582-67.9199Z"/>
  </g>
  <g id="Heavy-L" transform="matrix(1 0 0 1 2558.76 1556)">
   <path d="M129.15 27.0996C131.25 29.1504 134.717 29.1992 136.768 27.0996C138.818 25 138.867 21.582 136.768 19.4824L19.5801-97.6074C17.4805-99.707 14.0625-99.707 11.9141-97.6074C9.86328-95.5566 9.91211-92.041 11.9141-89.9902ZM127.051-2.39258C130.664-8.20312 132.227-14.5508 132.227-22.5098L132.227-68.75C132.227-78.2715 129.199-82.2266 120.801-85.8398C114.844-88.3789 92.2363-95.8496 86.6699-97.6562C83.6914-98.5352 79.9805-99.1211 77.0508-99.1211C74.1211-99.1211 70.4102-98.4375 67.4316-97.6562C63.2324-96.3867 50.1953-91.9922 40.8691-88.6719L53.6621-75.8301C60.7422-78.3203 68.2617-80.9082 71.9238-82.1777C74.3164-82.959 75.6348-83.3008 77.0508-83.3008C78.418-83.3008 79.7363-82.959 82.1777-82.1777C88.0859-80.127 104.98-74.2188 113.77-70.8496C115.576-70.166 116.162-69.0918 116.162-66.6504L116.162-24.9023C116.162-20.9961 115.625-17.8711 114.404-15.0879ZM21.8262-22.5098C21.8262 0.439453 35.0586 10.6934 72.168 29.7852C73.8281 30.6152 75.6836 31.1523 77.0508 31.1523C78.3691 31.1523 80.2246 30.6152 81.8848 29.7852C91.5527 24.8047 99.5605 20.459 106.104 16.3574L93.8477 4.10156C89.9414 6.5918 85.3516 9.22852 80.0293 12.4512C78.3691 13.4277 77.6855 13.6719 77.0508 13.6719C76.3672 13.6719 75.7324 13.4766 74.0234 12.4512C45.9473-4.98047 37.8906-8.64258 37.8906-24.9023L37.8906-51.8066L21.8262-67.8711Z"/>
  </g>
  <g id="Bold-L" transform="matrix(1 0 0 1 2263.32 1556)">
   <path d="M128.174 26.6602C130.127 28.5645 133.301 28.5645 135.156 26.6602C137.061 24.7559 137.109 21.582 135.156 19.6777L18.2617-97.168C16.3574-99.1211 13.1836-99.1211 11.1816-97.168C9.32617-95.3125 9.32617-92.041 11.1816-90.1855ZM124.658-2.29492C128.418-8.05664 130.029-14.3555 130.029-22.4121L130.029-69.2871C130.029-77.832 127.148-81.1523 119.727-84.3262C112.891-87.1582 90.6738-94.7754 84.1309-96.9238C81.5918-97.7051 78.6133-98.2422 76.0742-98.2422C73.584-98.2422 70.5566-97.6074 68.0176-96.9238C62.8906-95.3125 49.707-90.7227 39.8926-87.1582L50.6348-76.416C58.3008-79.1504 67.334-82.373 71.7285-83.9355C73.6816-84.5703 74.9023-84.8633 76.0742-84.8633C77.2461-84.8633 78.4668-84.5703 80.4199-83.9355C87.3535-81.4941 105.225-75 114.062-71.7285C116.016-70.9961 116.553-69.9219 116.553-67.334L116.553-24.6094C116.553-19.873 115.771-16.1621 114.062-12.8906ZM22.1191-22.4121C22.1191 0.244141 34.9609 9.66797 71.4355 29.1992C73.0469 30.0293 74.8047 30.5664 76.0742 30.5664C77.3438 30.5664 79.1016 30.0293 80.7129 29.1992C90.5273 23.9258 98.6328 19.4336 105.127 15.2344L94.873 4.93164C90.5273 7.71484 85.4004 10.7422 79.3457 14.4531C77.6855 15.4785 76.8555 15.7715 76.0742 15.7715C75.293 15.7715 74.4629 15.5273 72.8027 14.4531C44.3359-3.125 35.5957-7.32422 35.5957-24.6094L35.5957-54.3457L22.1191-67.7734Z"/>
  </g>
  <g id="Semibold-L" transform="matrix(1 0 0 1 1967.49 1556)">
   <path d="M127.49 26.3672C129.297 28.1738 132.275 28.1738 134.082 26.3672C135.889 24.5605 135.938 21.582 134.082 19.7754L17.3828-96.875C15.5762-98.6816 12.5977-98.6816 10.6934-96.875C8.93555-95.166 8.93555-92.041 10.6934-90.2832ZM123.047-2.24609C126.904-7.95898 128.516-14.2578 128.516-22.3633L128.516-69.6777C128.516-77.5391 125.684-80.4199 118.945-83.3008C111.523-86.3281 89.6484-93.9941 82.4219-96.4355C80.1758-97.168 77.6367-97.6562 75.4395-97.6562C73.1934-97.6562 70.6543-97.0703 68.457-96.4355C62.6465-94.5801 49.3652-89.8926 39.209-86.084L48.5352-76.8066C56.6406-79.7363 66.6504-83.3496 71.6309-85.1562C73.291-85.7422 74.4141-85.9863 75.4395-85.9863C76.416-85.9863 77.5391-85.6934 79.1992-85.1562C86.8652-82.4219 105.371-75.5371 114.258-72.3145C116.26-71.5332 116.797-70.459 116.797-67.8223L116.797-24.4141C116.797-19.0918 115.869-15.0391 113.867-11.4258ZM22.3633-22.3633C22.3633 0.0976562 34.8633 8.93555 70.9473 28.8086C72.5098 29.6387 74.2188 30.1758 75.4395 30.1758C76.6113 30.1758 78.3203 29.6387 79.8828 28.8086C89.8438 23.3398 97.9492 18.75 104.492 14.4531L95.5566 5.51758C90.9668 8.49609 85.4004 11.7676 78.8574 15.8691C77.1973 16.8945 76.3184 17.2363 75.4395 17.2363C74.5605 17.2363 73.6328 16.8945 71.9727 15.8691C43.2617-1.85547 34.0332-6.44531 34.0332-24.4141L34.0332-56.0547L22.3633-67.7246Z"/>
  </g>
  <g id="Medium-L" transform="matrix(1 0 0 1 1671.43 1556)">
   <path d="M126.953 26.1719C128.711 27.8809 131.543 27.8809 133.252 26.1719C135.01 24.4141 135.01 21.582 133.252 19.873L16.6992-96.6797C14.9414-98.3887 12.1094-98.3887 10.3516-96.6797C8.59375-95.0195 8.64258-92.0898 10.3516-90.3809ZM121.777-2.14844C125.732-7.86133 127.344-14.1602 127.344-22.3145L127.344-69.9707C127.344-77.2949 124.609-79.8828 118.359-82.5195C110.547-85.6934 88.8184-93.457 81.1035-96.0938C79.1016-96.7285 76.9531-97.168 74.9023-97.168C72.9004-97.168 70.752-96.6309 68.75-96.0938C62.5-94.043 49.1211-89.209 38.7207-85.3027L46.9238-77.0996C55.3711-80.1758 66.1621-84.1309 71.5332-86.0352C72.9492-86.5723 74.0234-86.8164 74.9023-86.8164C75.8301-86.8164 76.8555-86.5723 78.2715-86.0352C86.5234-83.1055 105.469-75.9766 114.404-72.7539C116.504-71.9727 117.041-70.8984 117.041-68.1641L117.041-24.2676C117.041-18.5547 115.967-14.1602 113.721-10.2539ZM22.5098-22.3145C22.5098 0 34.7656 8.39844 70.5566 28.5156C72.0703 29.3457 73.7793 29.834 74.9023 29.834C76.0742 29.834 77.7344 29.3457 79.2969 28.5156C89.3555 22.9004 97.4609 18.2129 104.004 13.8672L96.0449 5.9082C91.2598 9.08203 85.4492 12.5488 78.5156 16.9434C76.8555 17.9688 75.8789 18.3594 74.9023 18.3594C73.9746 18.3594 72.9492 17.9688 71.3379 16.9434C42.4316-0.878906 32.8125-5.76172 32.8125-24.2676L32.8125-57.373L22.5098-67.6758Z"/>
  </g>
  <g id="Regular-L" transform="matrix(1 0 0 1 1375.58 1556)">
   <path d="M126.318 25.8789C127.93 27.4902 130.566 27.4414 132.178 25.8789C133.838 24.2676 133.838 21.582 132.178 19.9707L15.7715-96.3867C14.1602-97.998 11.5234-97.998 9.81445-96.3867C8.20312-94.8242 8.25195-92.0898 9.81445-90.4785ZM120.166-2.09961C124.17-7.76367 125.83-14.0137 125.83-22.2656L125.83-70.3125C125.83-77.002 123.193-79.1504 117.578-81.4941C109.18-84.8633 87.793-92.7246 79.3457-95.6055C77.6855-96.1914 75.9766-96.582 74.2676-96.582C72.5586-96.582 70.8496-96.0938 69.1895-95.6055C62.2559-93.3105 48.7793-88.3301 38.0859-84.2773L44.873-77.4414C53.7109-80.7617 65.4785-85.1074 71.4355-87.2559C72.5586-87.6953 73.5352-87.9395 74.2676-87.9395C75-87.9395 75.9766-87.6953 77.0996-87.2559C86.0352-84.0332 105.664-76.5137 114.648-73.3398C116.748-72.5586 117.285-71.4355 117.285-68.6523L117.285-24.1211C117.285-17.7734 116.113-12.9883 113.477-8.78906ZM22.7051-22.2656C22.7051-0.146484 34.7168 7.66602 70.0684 28.125C71.582 29.0039 73.1445 29.4434 74.2676 29.4434C75.3906 29.4434 77.002 29.0039 78.4668 28.125C88.6719 22.2656 96.8262 17.4805 103.32 13.1348L96.7285 6.49414C91.6992 9.86328 85.498 13.5742 78.0273 18.3105C76.416 19.3359 75.293 19.8242 74.2676 19.8242C73.2422 19.8242 72.1191 19.3359 70.5078 18.3105C41.3086 0.341797 31.25-4.88281 31.25-24.1211L31.25-59.082L22.7051-67.627Z"/>
  </g>
  <g id="Light-L" transform="matrix(1 0 0 1 1080.33 1556)">
   <path d="M124.707 24.1211C125.928 25.3906 127.979 25.3418 129.248 24.1211C130.566 22.9492 130.518 20.8496 129.248 19.5801L14.5508-95.1172C13.3301-96.2891 11.3281-96.2891 9.96094-95.1172C8.69141-93.8965 8.74023-91.748 9.96094-90.5273ZM117.285-1.70898C121.582-7.37305 123.291-13.4277 123.291-21.6309L123.291-69.3848C123.291-76.2207 120.996-78.418 114.99-80.8105C105.273-84.668 87.4512-91.3574 77.6855-94.7754C76.0254-95.3125 74.4629-95.7031 72.8027-95.7031C71.1426-95.7031 69.5801-95.2637 67.9199-94.7754C59.4727-91.748 46.9238-87.0605 36.084-82.9102L41.3574-77.6855C50.4883-81.1523 63.9648-86.2305 69.5312-88.2324C70.8496-88.8184 72.0215-89.1113 72.8027-89.1113C73.584-89.1113 74.7559-88.7695 76.0742-88.2324C83.9844-85.3516 105.469-77.0996 113.33-74.2188C116.064-73.1934 116.748-71.8262 116.748-68.1641L116.748-22.8027C116.748-16.1621 115.283-11.2305 112.158-6.83594ZM22.3145-21.6309C22.3145-0.585938 33.7891 6.39648 68.6523 27.2461C69.9707 28.0273 71.582 28.6133 72.8027 28.6133C74.0234 28.6133 75.6348 28.0273 76.9531 27.2461C87.5977 20.9473 95.9961 15.9668 102.539 11.4746L97.4609 6.34766C91.8945 10.1562 84.9121 14.4043 76.3672 19.9219C75.0977 20.8008 73.877 21.3867 72.8027 21.3867C71.7285 21.3867 70.5566 20.8008 69.2383 19.9219C39.9902 1.51367 28.9062-3.75977 28.9062-22.8027L28.9062-62.3535L22.3145-68.9453Z"/>
  </g>
  <g id="Thin-L" transform="matrix(1 0 0 1 785.548 1556)">
   <path d="M113.428-1.17188C118.115-6.78711 119.922-12.6465 119.922-20.8008L119.922-68.1641C119.922-75.0977 118.115-77.4414 111.475-79.9805C100.049-84.3262 86.9629-89.5996 75.4395-93.6523C73.8281-94.1895 72.4121-94.5801 70.8984-94.5801C69.3359-94.5801 67.9199-94.1895 66.3086-93.6523C55.8105-89.6973 44.3848-85.3516 33.4473-81.1523L36.7188-77.9785C46.2402-81.6406 61.9629-87.6953 66.9922-89.5996C68.5547-90.2832 70.0195-90.6738 70.8984-90.6738C71.7285-90.6738 73.1445-90.2344 74.7559-89.5996C81.2988-87.1582 105.176-77.9297 111.67-75.3906C115.088-74.0234 116.016-72.3145 116.016-67.4805L116.016-20.9961C116.016-13.9648 114.16-8.88672 110.4-4.19922ZM122.559 21.875C123.34 22.6562 124.512 22.5586 125.342 21.875C126.27 21.1914 126.123 19.8242 125.342 19.0918L12.8906-93.4082C12.207-94.0918 11.0352-94.0918 10.1074-93.4082C9.27734-92.6758 9.32617-91.3574 10.1074-90.5762ZM21.8262-20.8008C21.8262-1.2207 32.6172 4.6875 66.748 26.0742C67.8711 26.7578 69.4824 27.4902 70.8984 27.4902C72.2656 27.4902 73.877 26.7578 75 26.0742C86.2305 19.2383 94.873 13.916 101.465 9.27734L98.4375 6.20117C92.1875 10.5469 84.1797 15.4297 74.1699 22.0703C73.3398 22.7051 71.9727 23.4375 70.8984 23.4375C69.7754 23.4375 68.4082 22.7051 67.5781 22.0703C38.1836 3.02734 25.7812-2.29492 25.7812-20.9961L25.7812-66.6992L21.8262-70.6543Z"/>
  </g>
  <g id="Ultralight-L" transform="matrix(1 0 0 1 489.814 1556)">
   <path d="M111.475-0.878906C116.309-6.49414 118.164-12.2559 118.164-20.3613L118.164-67.5293C118.164-74.5605 116.602-76.9043 109.717-79.541C97.4121-84.1797 86.7188-88.7207 74.3164-93.0664C72.7051-93.6035 71.3867-94.043 69.873-94.043C68.4082-94.043 67.041-93.6523 65.4785-93.0664C53.9551-88.623 43.1152-84.4727 32.0801-80.2734L34.3262-78.125C44.043-81.8848 60.9375-88.4766 65.7227-90.2832C67.3828-91.0645 68.9941-91.4551 69.873-91.4551C70.8008-91.4551 72.3145-90.9668 74.0723-90.2832C79.9316-88.0859 105.029-78.3203 110.791-76.0254C114.6-74.4629 115.625-72.5586 115.625-67.0898L115.625-20.1172C115.625-12.8418 113.623-7.66602 109.521-2.88086ZM121.484 20.7031C121.973 21.2402 122.754 21.1426 123.389 20.7031C124.072 20.2637 123.877 19.3359 123.389 18.7988L12.0605-92.5293C11.6211-92.9199 10.8887-92.9199 10.1562-92.5293C9.57031-92.0898 9.61914-91.1621 10.1562-90.625ZM21.582-20.3613C21.582-1.5625 32.0312 3.80859 65.8203 25.4883C66.7969 26.0742 68.4082 26.9531 69.873 26.9531C71.3867 26.9531 72.998 26.0742 73.9746 25.4883C85.5469 18.3594 94.2871 12.8906 100.879 8.20312L98.9258 6.10352C92.2852 10.7422 83.7891 15.9668 73.0469 23.1445C72.4121 23.6816 71.0449 24.5117 69.873 24.5117C68.75 24.5117 67.334 23.6816 66.748 23.1445C37.2559 3.80859 24.1699-1.51367 24.1699-20.1172L24.1699-68.8965L21.582-71.582Z"/>
  </g>
  <g id="Black-M" transform="matrix(1 0 0 1 2871.39 1126)">
   <path d="M101.367-9.76562C104.102-14.3066 105.322-19.2383 105.322-25.1465L105.322-59.7168C105.322-68.9941 102.881-73.291 94.3359-76.9531C90.5762-78.5645 74.1699-83.5449 71.0449-84.4727C67.8711-85.4004 63.7695-85.9863 60.7422-85.9863C57.7148-85.9863 53.6133-85.3516 50.4395-84.4727C48.1445-83.8379 38.7695-80.957 32.4219-78.8574L45.5078-65.7715C49.9512-67.2363 53.9551-68.5059 55.0293-68.8477C57.8125-69.6777 59.2285-70.0684 60.7422-70.0684C62.2559-70.0684 63.623-69.6777 66.4551-68.8477C68.5547-68.2129 80.8105-64.2578 86.9141-61.7188C88.4277-61.084 89.0137-60.1074 89.0137-57.959L89.0137-27.002C89.0137-25.3906 88.8184-24.0234 88.5254-22.6562ZM101.123 12.9395C102.881 14.6484 105.713 14.6973 107.422 12.9395C109.082 11.1816 109.18 8.39844 107.422 6.64062L17.041-83.6914C15.2832-85.4004 12.4023-85.4004 10.6934-83.6914C8.98438-81.9824 8.98438-79.0527 10.6934-77.3926ZM16.1621-25.1465C16.1621-7.4707 26.9531 1.66016 56.543 15.7227C57.8613 16.3574 59.4727 16.9434 60.7422 16.9434C62.0117 16.9434 63.623 16.3574 64.9414 15.7227C72.2656 12.2559 78.4668 9.08203 83.5938 5.95703L71.2402-6.34766C68.6523-4.83398 65.7227-3.22266 62.4512-1.31836C61.2793-0.634766 61.0352-0.488281 60.7422-0.488281C60.4492-0.488281 60.2051-0.537109 59.0332-1.31836C37.9395-14.6484 32.4707-16.5039 32.4707-27.002L32.4707-45.0684L16.1621-61.377Z"/>
  </g>
  <g id="Heavy-M" transform="matrix(1 0 0 1 2575.53 1126)">
   <path d="M99.8047-9.76562C102.637-14.3066 103.809-19.1895 103.809-25.2441L103.809-60.498C103.809-68.75 101.416-72.4609 93.9453-75.6348C89.6973-77.4414 72.7539-82.8125 68.9941-83.9844C66.3086-84.8145 62.8418-85.3516 60.2051-85.3516C57.5195-85.3516 54.0527-84.7656 51.3672-83.9844C48.5352-83.2031 38.8184-80.0293 31.9824-77.6855L43.457-66.2598C48.4375-67.9688 53.3691-69.6289 55.3711-70.3125C57.666-70.9961 58.8867-71.3379 60.2051-71.3379C61.4746-71.3379 62.6953-70.9961 64.9902-70.3125C68.3594-69.1895 81.1035-64.8926 87.5488-62.3047C89.0137-61.7188 89.502-60.8398 89.502-58.7891L89.502-27.0996C89.502-24.7559 89.209-22.8027 88.5742-21.0449ZM100.586 12.9883C102.246 14.5996 105.029 14.6484 106.641 12.9883C108.252 11.2793 108.301 8.59375 106.641 6.93359L16.0645-83.5938C14.4043-85.2539 11.6211-85.2539 9.96094-83.5938C8.30078-81.9824 8.30078-79.1504 9.96094-77.5391ZM16.5527-25.2441C16.5527-7.51953 27.0508 0.976562 56.2012 15.4297C57.4707 16.0645 59.0332 16.5527 60.2051 16.5527C61.3281 16.5527 62.8906 16.0645 64.1602 15.4297C71.582 11.7676 77.7832 8.49609 82.8613 5.32227L72.0215-5.51758C69.1895-3.80859 65.918-1.95312 62.207 0.292969C60.9863 0.976562 60.5957 1.17188 60.2051 1.17188C59.7656 1.17188 59.375 1.02539 58.1543 0.292969C36.7188-13.1348 30.8594-15.5273 30.8594-27.0996L30.8594-46.6797L16.5527-60.9375Z"/>
  </g>
  <g id="Bold-M" transform="matrix(1 0 0 1 2279.77 1126)">
   <path d="M99.9512 13.0371C101.562 14.5996 104.199 14.5996 105.762 13.0371C107.324 11.4258 107.373 8.83789 105.762 7.22656L14.9902-83.4961C13.3789-85.1074 10.7422-85.1074 9.13086-83.4961C7.56836-81.9824 7.56836-79.248 9.13086-77.6855ZM98.0957-9.76562C100.928-14.2578 102.148-19.1895 102.148-25.3418L102.148-61.3281C102.148-68.5059 99.8047-71.4844 93.5059-74.1699C88.7207-76.2207 71.1914-82.0312 66.748-83.4961C64.502-84.1797 61.7676-84.6191 59.5703-84.6191C57.373-84.6191 54.5898-84.082 52.3926-83.4961C48.9746-82.4707 38.8184-79.0527 31.543-76.416L41.1621-66.7969C46.7285-68.75 52.7832-70.8496 55.7129-71.9238C57.5195-72.4609 58.5449-72.7051 59.5703-72.7051C60.5957-72.7051 61.6211-72.4609 63.3789-71.9238C68.1641-70.2637 81.3965-65.5762 88.2324-62.9883C89.6484-62.4023 90.0879-61.6211 90.0879-59.7168L90.0879-27.1973C90.0879-24.0234 89.6484-21.4844 88.623-19.2871ZM16.9922-25.3418C16.9922-7.61719 27.1973 0.195312 55.8105 15.0391C57.0801 15.7227 58.5449 16.1621 59.5703 16.1621C60.5957 16.1621 62.0117 15.7227 63.2812 15.0391C70.8008 11.1816 77.002 7.8125 82.0801 4.58984L72.9004-4.58984C69.7754-2.63672 66.1621-0.537109 61.9141 2.05078C60.6445 2.83203 60.1074 3.02734 59.5703 3.02734C59.0332 3.02734 58.4961 2.83203 57.1777 2.05078C35.3516-11.4746 29.0039-14.4043 29.0039-27.1973L29.0039-48.4863L16.9922-60.498Z"/>
  </g>
  <g id="Semibold-M" transform="matrix(1 0 0 1 1983.72 1126)">
   <path d="M99.5117 13.0371C101.074 14.5996 103.662 14.5996 105.176 13.0371C106.689 11.4746 106.738 8.98438 105.176 7.42188L14.209-83.4473C12.6953-85.0098 10.1074-85.0098 8.54492-83.4473C7.03125-81.9824 7.03125-79.3457 8.54492-77.832ZM96.875-9.76562C99.7559-14.2578 100.977-19.1406 100.977-25.4395L100.977-61.9141C100.977-68.3594 98.6816-70.8496 93.1641-73.1934C88.0371-75.3418 70.1172-81.4941 65.1855-83.1055C63.2812-83.7402 61.0352-84.1309 59.1309-84.1309C57.2266-84.1309 54.9805-83.6426 53.0762-83.1055C49.3164-81.9824 38.8672-78.3691 31.2012-75.5371L39.5508-67.1875C45.5078-69.3359 52.3438-71.7285 56.0059-72.998C57.4219-73.4863 58.3008-73.6816 59.1309-73.6816C60.0098-73.6816 60.8398-73.4863 62.2559-72.998C68.0664-70.9961 81.5918-66.0156 88.7207-63.4277C90.1367-62.9395 90.5273-62.1582 90.5273-60.3516L90.5273-27.2461C90.5273-23.5352 89.9414-20.6055 88.6719-18.0176ZM17.2852-25.4395C17.2852-7.66602 27.2461-0.292969 55.5664 14.7949C56.8359 15.4785 58.2031 15.8691 59.1309 15.8691C60.0586 15.8691 61.4258 15.4785 62.6953 14.7949C70.2637 10.791 76.4648 7.32422 81.4941 4.05273L73.4863-3.95508C70.2148-1.85547 66.3086 0.439453 61.7676 3.22266C60.4004 4.05273 59.7656 4.29688 59.1309 4.29688C58.4961 4.29688 57.8613 4.10156 56.543 3.22266C34.4238-10.3027 27.7832-13.6719 27.7832-27.2461L27.7832-49.707L17.2852-60.1562Z"/>
  </g>
  <g id="Medium-M" transform="matrix(1 0 0 1 1687.52 1126)">
   <path d="M99.2188 13.0859C100.732 14.5996 103.223 14.5996 104.688 13.0859C106.201 11.5723 106.25 9.08203 104.688 7.56836L13.6719-83.3984C12.1582-84.9121 9.66797-84.9121 8.10547-83.3984C6.64062-81.9336 6.64062-79.3945 8.10547-77.9297ZM95.9961-9.76562C98.877-14.209 100.098-19.1406 100.098-25.4883L100.098-62.3535C100.098-68.2129 97.8516-70.3125 92.9199-72.4121C87.5488-74.707 69.2871-81.0547 64.0137-82.8613C62.3535-83.3984 60.498-83.7402 58.7891-83.7402C57.1289-83.7402 55.2246-83.3008 53.6133-82.8613C49.5117-81.5918 38.8672-77.832 30.957-74.8535L38.3301-67.4805C44.6289-69.7754 52.0508-72.3633 56.2012-73.877C57.3242-74.2676 58.1055-74.4141 58.7891-74.4141C59.5215-74.4141 60.3027-74.2676 61.4258-73.877C67.9688-71.5332 81.7871-66.4062 89.0625-63.8184C90.4785-63.2812 90.8203-62.5488 90.8203-60.791L90.8203-27.2949C90.8203-23.1445 90.1367-19.9219 88.6719-17.0898ZM17.5293-25.4883C17.5293-7.71484 27.2949-0.732422 55.3711 14.6484C56.6406 15.332 57.959 15.625 58.7891 15.625C59.668 15.625 60.9863 15.332 62.2559 14.6484C69.8242 10.498 76.0742 6.98242 81.1035 3.66211L73.9746-3.4668C70.5078-1.2207 66.4062 1.17188 61.6211 4.15039C60.2051 5.0293 59.5215 5.27344 58.7891 5.27344C58.1055 5.27344 57.4219 5.0293 56.0059 4.15039C33.7402-9.42383 26.8066-13.0859 26.8066-27.2949L26.8066-50.6348L17.5293-59.9121Z"/>
  </g>
  <g id="Regular-M" transform="matrix(1 0 0 1 1391.45 1126)">
   <path d="M98.7793 13.0859C100.244 14.5508 102.686 14.5508 104.102 13.0859C105.566 11.6211 105.566 9.22852 104.102 7.76367L12.9395-83.3496C11.4746-84.8145 9.08203-84.8145 7.56836-83.3496C6.10352-81.9336 6.15234-79.4922 7.56836-78.0273ZM94.7754-9.76562C97.7539-14.209 98.9746-19.1406 98.9746-25.5859L98.9746-62.9395C98.9746-68.0664 96.7285-69.6777 92.627-71.4355C86.8652-73.8281 68.2617-80.5176 62.4512-82.5195C61.1816-82.959 59.7656-83.252 58.3984-83.252C57.0312-83.252 55.6152-82.8613 54.2969-82.5195C49.8047-81.1035 38.8672-77.1484 30.6152-73.9746L36.7676-67.8223C43.457-70.3125 51.6113-73.2422 56.4453-74.9512C57.2266-75.293 57.8613-75.3906 58.3984-75.3906C58.9355-75.3906 59.5703-75.2441 60.3516-74.9512C67.8223-72.2656 81.9824-66.8457 89.5508-64.2578C90.918-63.7695 91.2109-63.0859 91.2109-61.4258L91.2109-27.3926C91.2109-22.6562 90.4297-18.9941 88.7207-15.8691ZM17.8223-25.5859C17.8223-7.76367 27.3926-1.2207 55.127 14.4043C56.3477 15.0879 57.6172 15.3809 58.3984 15.3809C59.1797 15.3809 60.4004 15.0879 61.6699 14.4043C69.2871 10.1074 75.5371 6.49414 80.5664 3.17383L74.5605-2.83203C70.9473-0.439453 66.6016 2.14844 61.4258 5.37109C59.9609 6.25 59.1797 6.54297 58.3984 6.54297C57.6172 6.54297 56.7871 6.25 55.3711 5.37109C32.8125-8.30078 25.5859-12.3047 25.5859-27.3926L25.5859-51.8555L17.8223-59.5703Z"/>
  </g>
  <g id="Light-M" transform="matrix(1 0 0 1 1096.05 1126)">
   <path d="M97.3633 11.5723C98.4863 12.6953 100.342 12.6465 101.465 11.5723C102.637 10.4492 102.637 8.54492 101.465 7.42188L11.8164-82.2266C10.6934-83.3008 8.88672-83.3008 7.66602-82.2266C6.49414-81.1035 6.54297-79.1992 7.66602-78.0762ZM92.1875-9.42383C95.3613-13.8184 96.6797-18.6035 96.6797-25L96.6797-62.1094C96.6797-67.334 94.7754-69.043 90.2832-70.8496C83.3496-73.6328 67.9199-79.3457 60.9375-81.7383C59.668-82.1777 58.3984-82.4707 57.0801-82.4707C55.7617-82.4707 54.4922-82.1289 53.2227-81.7383C47.3633-79.7363 37.207-75.9766 28.8574-72.8027L33.5938-68.0176C40.5762-70.6543 50.2441-74.2188 54.7363-75.8789C55.6641-76.2695 56.4941-76.4648 57.0801-76.4648C57.666-76.4648 58.4473-76.2207 59.4238-75.8789C66.0156-73.4863 81.8359-67.4316 88.4277-65.0391C90.2344-64.3555 90.7227-63.4277 90.7227-60.9863L90.7227-26.1719C90.7227-21.1914 89.6973-17.4316 87.5-14.1113ZM17.4805-25C17.4805-8.20312 26.6113-2.39258 53.8574 13.5742C54.9316 14.209 56.2012 14.5996 57.0801 14.5996C57.959 14.5996 59.2285 14.209 60.3027 13.5742C68.3594 8.88672 74.7559 5.12695 79.834 1.70898L75.1953-2.92969C71.1426-0.195312 66.0645 2.88086 59.9121 6.78711C58.7891 7.51953 57.9102 7.91016 57.0801 7.91016C56.25 7.91016 55.3711 7.51953 54.248 6.78711C31.5918-7.27539 23.4375-11.3281 23.4375-26.1719L23.4375-54.7852L17.4805-60.791Z"/>
  </g>
  <g id="Thin-M" transform="matrix(1 0 0 1 801.076 1126)">
   <path d="M88.7695-8.93555C92.2852-13.3301 93.6523-17.8711 93.6523-24.2188L93.6523-61.0352C93.6523-66.3574 92.1387-68.1641 87.1582-70.0684C78.6621-73.3398 67.5293-77.7832 58.9844-80.7129C57.7148-81.1523 56.5918-81.4941 55.3711-81.4941C54.1016-81.4941 52.9785-81.1523 51.7578-80.7129C44.043-77.8809 34.9609-74.4141 26.4648-71.2402L29.4434-68.3105C36.7676-71.0938 48.4375-75.5859 52.4902-77.0508C53.6133-77.5879 54.6875-77.832 55.3711-77.832C56.0059-77.832 57.0312-77.5391 58.2031-77.0508C63.5742-75.0977 81.5918-68.1152 86.9141-66.1133C89.4043-65.1367 90.0391-63.8672 90.0391-60.3516L90.0391-24.6094C90.0391-19.2383 88.7207-15.332 85.9375-11.7676ZM95.459 9.52148C96.1426 10.2051 97.2656 10.1562 97.998 9.52148C98.7793 8.83789 98.6816 7.66602 97.998 6.98242L10.3516-80.6641C9.7168-81.2988 8.59375-81.2988 7.8125-80.6641C7.03125-80.0293 7.08008-78.8086 7.8125-78.125ZM17.041-24.2188C17.041-8.74023 25.5371-3.95508 52.1484 12.5488C53.0762 13.0859 54.2969 13.623 55.3711 13.623C56.3965 13.623 57.666 13.0859 58.5449 12.5488C67.1387 7.37305 73.7793 3.32031 78.8574-0.244141L76.0742-3.07617C71.3867 0.146484 65.3809 3.80859 57.959 8.69141C57.2266 9.22852 56.2012 9.81445 55.3711 9.81445C54.4922 9.81445 53.4668 9.22852 52.7344 8.69141C29.9805-5.9082 20.6543-10.0098 20.6543-24.6094L20.6543-58.6914L17.041-62.3047Z"/>
  </g>
  <g id="Ultralight-M" transform="matrix(1 0 0 1 505.243 1126)">
   <path d="M86.9629-8.69141C90.6738-13.0371 92.0898-17.5293 92.0898-23.8281L92.0898-60.4492C92.0898-65.8691 90.8203-67.6758 85.5469-69.6777C76.2695-73.1934 67.2852-76.9531 57.959-80.2246C56.6895-80.6641 55.6641-80.957 54.4434-80.957C53.2715-80.957 52.2461-80.6641 50.9766-80.2246C42.3828-76.9531 33.7891-73.6328 25.2441-70.4102L27.2949-68.4082C34.8145-71.2891 47.5586-76.2695 51.3184-77.6855C52.5879-78.2715 53.7598-78.5645 54.4434-78.5645C55.127-78.5645 56.2988-78.1738 57.6172-77.6855C62.3535-75.8789 81.4453-68.5059 86.1328-66.6504C88.9648-65.5273 89.6973-64.0625 89.6973-60.0586L89.6973-23.7793C89.6973-18.2129 88.2324-14.209 85.1074-10.5469ZM94.4824 8.44727C94.9707 8.93555 95.6543 8.88672 96.1914 8.44727C96.8262 8.05664 96.6797 7.22656 96.1914 6.73828L9.61914-79.8828C9.17969-80.3223 8.44727-80.3223 7.86133-79.8828C7.32422-79.4434 7.37305-78.6133 7.86133-78.125ZM16.7969-23.8281C16.7969-9.0332 25-4.73633 51.2695 12.0117C52.0996 12.5 53.3203 13.1348 54.4434 13.1348C55.5664 13.1348 56.8359 12.5 57.6172 12.0117C66.5039 6.54297 73.2422 2.39258 78.3691-1.26953L76.5137-3.17383C71.4844 0.341797 65.0391 4.29688 56.9336 9.66797C56.3965 10.1074 55.3223 10.7422 54.4434 10.7422C53.5645 10.7422 52.5391 10.1074 52.002 9.66797C29.1504-5.22461 19.1895-9.32617 19.1895-23.7793L19.1895-60.6445L16.7969-63.1348Z"/>
  </g>
  <g id="Black-S" transform="matrix(1 0 0 1 2884.86 696)">
   <path d="M79.3457-15.2832C81.4941-18.8477 82.4219-22.7051 82.4219-27.3438L82.4219-54.4922C82.4219-61.6699 80.5176-64.9902 73.9258-67.8223C70.9473-69.0918 58.0078-73.0469 55.5176-73.7793C53.0762-74.5117 49.9023-74.9512 47.5586-74.9512C45.2148-74.9512 42.041-74.4629 39.5996-73.7793C37.793-73.291 30.4199-70.9961 25.3906-69.3359L35.5469-59.1797C39.0625-60.3516 42.2363-61.377 43.1641-61.6699C45.3125-62.3047 46.3867-62.5977 47.5586-62.5977C48.7305-62.5977 49.8047-62.3047 51.9531-61.6699C53.7109-61.1328 63.3301-58.0078 68.1641-56.0059C69.3359-55.5176 69.7754-54.7852 69.7754-53.125L69.7754-28.8086C69.7754-27.4902 69.6289-26.3672 69.3848-25.293ZM79.1992 2.53906C80.5664 3.85742 82.8125 3.90625 84.1309 2.53906C85.4492 1.17188 85.498-1.02539 84.1309-2.39258L13.2812-73.1934C11.9141-74.5605 9.66797-74.5605 8.30078-73.1934C6.98242-71.875 6.98242-69.5801 8.30078-68.2617ZM12.6953-27.3438C12.6953-13.4766 21.1426-6.34766 44.2871 4.6875C45.3125 5.17578 46.582 5.61523 47.5586 5.61523C48.5352 5.61523 49.8047 5.17578 50.8301 4.6875C56.5918 1.95312 61.4258-0.537109 65.4297-2.97852L55.8594-12.5488C53.8086-11.3281 51.5137-10.0586 48.9258-8.54492C47.998-8.00781 47.8027-7.91016 47.5586-7.91016C47.3145-7.91016 47.1191-7.95898 46.1914-8.54492C29.6387-18.9941 25.3418-20.5078 25.3418-28.8086L25.3418-43.0176L12.6953-55.6641Z"/>
  </g>
  <g id="Heavy-S" transform="matrix(1 0 0 1 2588.67 696)">
   <path d="M78.4668-15.332C80.6152-18.8477 81.543-22.7539 81.543-27.4902L81.543-55.1758C81.543-61.5723 79.6387-64.4043 73.877-66.8945C70.6543-68.2617 56.9824-72.6562 54.1504-73.4863C52.0508-74.1699 49.3164-74.5605 47.2656-74.5605C45.2148-74.5605 42.5293-74.0723 40.4297-73.4863C38.3789-72.9492 30.6152-70.459 25.2441-68.6035L34.3262-59.5215C38.1836-60.8887 41.9434-62.1094 43.6035-62.6953C45.3613-63.1836 46.2891-63.4277 47.2656-63.4277C48.291-63.4277 49.1699-63.1836 50.9277-62.6953C53.7598-61.7188 63.5742-58.3984 68.75-56.3965C69.873-55.957 70.2148-55.2734 70.2148-53.8086L70.2148-29.0039C70.2148-27.1484 70.0195-25.6348 69.5312-24.2676ZM78.9551 2.73438C80.2734 4.05273 82.5195 4.10156 83.8379 2.73438C85.1562 1.36719 85.2051-0.78125 83.8379-2.14844L12.6465-73.2422C11.3281-74.6094 9.08203-74.6094 7.71484-73.2422C6.39648-71.9727 6.44531-69.6777 7.71484-68.3594ZM13.0371-27.4902C13.0371-13.4766 21.2891-6.73828 44.1895 4.54102C45.2148 5.0293 46.3867 5.41992 47.2656 5.41992C48.1445 5.41992 49.3652 5.0293 50.3906 4.54102C56.1523 1.70898 60.9863-0.830078 64.9414-3.32031L56.3965-11.9141C54.1992-10.5469 51.709-9.17969 48.9258-7.51953C47.9004-6.93359 47.6074-6.78711 47.2656-6.78711C46.9727-6.78711 46.6797-6.88477 45.6543-7.51953C28.8574-17.9688 24.3164-19.873 24.3164-29.0039L24.3164-43.8965L13.0371-55.2246Z"/>
  </g>
  <g id="Bold-S" transform="matrix(1 0 0 1 2292.52 696)">
   <path d="M78.6621 2.97852C79.9805 4.29688 82.1777 4.29688 83.4961 2.97852C84.7656 1.61133 84.8145-0.537109 83.4961-1.9043L11.9629-73.3398C10.6445-74.707 8.44727-74.707 7.08008-73.3398C5.81055-72.0703 5.81055-69.8242 7.08008-68.5059ZM77.4414-15.3809C79.5898-18.8965 80.5176-22.8027 80.5176-27.6367L80.5176-55.9082C80.5176-61.4746 78.6133-63.7695 73.8281-65.8691C70.3613-67.334 55.8105-72.168 52.5879-73.1934C50.8789-73.7305 48.6816-74.0723 46.9727-74.0723C45.2637-74.0723 43.0664-73.6816 41.3574-73.1934C39.0137-72.5586 30.8594-69.8242 25.1465-67.7734L32.959-59.9121C37.2559-61.4746 41.6504-62.9395 44.0918-63.7695C45.459-64.209 46.1914-64.4043 46.9727-64.4043C47.7539-64.4043 48.4863-64.209 49.8535-63.7695C53.8574-62.4023 63.8184-58.8867 69.4336-56.7871C70.4102-56.3965 70.752-55.8594 70.752-54.541L70.752-29.248C70.752-26.8066 70.4102-24.8047 69.7266-23.0957ZM13.3789-27.6367C13.3789-13.4766 21.4844-7.17773 44.043 4.3457C45.0684 4.88281 46.1914 5.17578 46.9727 5.17578C47.7539 5.17578 48.877 4.88281 49.9023 4.3457C55.6641 1.41602 60.498-1.2207 64.4531-3.71094L56.9824-11.1816C54.6387-9.7168 51.9531-8.1543 48.877-6.34766C47.8027-5.66406 47.3633-5.56641 46.9727-5.56641C46.5332-5.56641 46.1426-5.66406 45.0684-6.34766C27.9785-16.7969 23.1934-19.1406 23.1934-29.248L23.1934-44.9219L13.3789-54.6875Z"/>
  </g>
  <g id="Semibold-S" transform="matrix(1 0 0 1 1996.2 696)">
   <path d="M78.4668 3.125C79.7852 4.44336 81.9824 4.44336 83.252 3.125C84.5215 1.75781 84.5703-0.341797 83.252-1.70898L11.4746-73.3887C10.1562-74.7559 7.95898-74.7559 6.64062-73.3887C5.37109-72.1191 5.37109-69.873 6.64062-68.6035ZM76.7578-15.4297C78.9062-18.8965 79.834-22.8027 79.834-27.7344L79.834-56.4453C79.834-61.4258 77.9297-63.3301 73.7793-65.1367C70.1172-66.6992 55.0293-71.875 51.5137-72.998C50.0488-73.4863 48.2422-73.7793 46.7773-73.7793C45.2637-73.7793 43.457-73.3887 41.9922-72.998C39.4531-72.3145 31.0059-69.3848 25.0488-67.1875L31.9824-60.2051C36.5723-61.8652 41.4551-63.5254 44.4336-64.5508C45.459-64.8926 46.0938-65.0391 46.7773-65.0391C47.4121-65.0391 48.0469-64.8926 49.0723-64.5508C53.9062-62.8418 64.0137-59.1797 69.9219-57.0801C70.8496-56.7383 71.0938-56.2012 71.0938-55.0781L71.0938-29.3945C71.0938-26.5137 70.7031-24.2676 69.873-22.3145ZM13.6719-27.7344C13.6719-13.4766 21.6309-7.51953 43.9453 4.24805C45.0195 4.78516 46.0449 5.0293 46.7773 5.0293C47.4609 5.0293 48.5352 4.78516 49.5605 4.24805C55.3223 1.17188 60.1562-1.46484 64.1113-3.95508L57.373-10.6445C54.9805-9.13086 52.1484-7.4707 48.877-5.51758C47.7051-4.83398 47.2168-4.6875 46.7773-4.6875C46.2891-4.6875 45.8008-4.83398 44.6289-5.51758C27.3438-16.0156 22.4121-18.6523 22.4121-29.3945L22.4121-45.6055L13.6719-54.3457Z"/>
  </g>
  <g id="Medium-S" transform="matrix(1 0 0 1 1699.78 696)">
   <path d="M78.2715 3.22266C79.6387 4.54102 81.7871 4.54102 83.0566 3.22266C84.375 1.9043 84.4238-0.244141 83.0566-1.5625L11.1328-73.4375C9.81445-74.7559 7.61719-74.7559 6.29883-73.4375C5.0293-72.168 5.0293-69.9219 6.29883-68.6523ZM76.2207-15.4297C78.3691-18.8965 79.3457-22.8516 79.3457-27.832L79.3457-56.8359C79.3457-61.377 77.4414-62.9883 73.7305-64.5996C69.9707-66.2109 54.3945-71.6309 50.7324-72.8516C49.4629-73.2422 47.9492-73.5352 46.582-73.5352C45.2637-73.5352 43.75-73.1934 42.4805-72.8516C39.7949-72.1191 31.1035-69.043 24.9512-66.748L31.25-60.4004C36.084-62.1582 41.3086-63.9648 44.7266-65.1367C45.5078-65.4297 46.0449-65.5273 46.582-65.5273C47.1191-65.5273 47.6562-65.4297 48.4863-65.1367C53.9551-63.2324 64.1602-59.4238 70.2637-57.3242C71.1426-56.9824 71.3379-56.4941 71.3379-55.4688L71.3379-29.4922C71.3379-26.3184 70.9473-23.8281 69.9707-21.7285ZM13.8672-27.832C13.8672-13.4766 21.7285-7.71484 43.8965 4.15039C44.9219 4.6875 45.9473 4.93164 46.582 4.93164C47.2168 4.93164 48.2422 4.6875 49.3164 4.15039C55.0781 1.02539 59.8633-1.61133 63.8184-4.15039L57.7148-10.3027C55.1758-8.69141 52.2461-6.98242 48.877-4.93164C47.6562-4.19922 47.1191-4.05273 46.582-4.05273C46.0449-4.05273 45.5566-4.19922 44.3359-4.93164C26.9043-15.4297 21.8262-18.2617 21.8262-29.4922L21.8262-46.1426L13.8672-54.1016Z"/>
  </g>
  <g id="Regular-S" transform="matrix(1 0 0 1 1403.46 696)">
   <path d="M78.0762 3.36914C79.3945 4.6875 81.5918 4.6875 82.8613 3.36914C84.1309 2.05078 84.1797-0.0488281 82.8613-1.36719L10.6445-73.4863C9.375-74.8047 7.17773-74.8047 5.85938-73.4863C4.58984-72.2168 4.58984-70.0195 5.85938-68.75ZM75.5371-15.4785C77.7344-18.9453 78.6621-22.8516 78.6621-27.9297L78.6621-57.3242C78.6621-61.3281 76.7578-62.5488 73.7305-63.8672C69.7754-65.5762 53.6133-71.2891 49.6582-72.6562C48.6328-72.998 47.5098-73.2422 46.3867-73.2422C45.2637-73.2422 44.0918-72.9004 43.0664-72.6562C40.2344-71.875 31.2988-68.6035 24.8535-66.1621L30.3223-60.6934C35.4492-62.5488 41.1133-64.502 45.0684-65.918C45.5566-66.1133 45.9961-66.1621 46.3867-66.1621C46.7773-66.1621 47.2168-66.1133 47.7051-65.918C54.0039-63.6719 64.3066-59.7656 70.7031-57.6172C71.5332-57.3242 71.6797-56.8848 71.6797-56.0059L71.6797-29.6387C71.6797-26.0742 71.2402-23.291 70.0684-20.8984ZM14.1113-27.9297C14.1113-13.4766 21.8262-8.05664 43.7988 4.00391C44.8242 4.58984 45.8008 4.78516 46.3867 4.78516C46.9238 4.78516 47.9004 4.58984 48.9746 4.00391C54.7363 0.830078 59.5703-1.85547 63.4766-4.44336L58.1055-9.76562C55.5176-8.10547 52.3926-6.29883 48.8281-4.10156C47.5586-3.36914 46.9727-3.22266 46.3867-3.22266C45.8008-3.22266 45.166-3.36914 43.8965-4.10156C26.2695-14.6484 21.0449-17.7734 21.0449-29.6387L21.0449-46.8262L14.1113-53.7598Z"/>
  </g>
  <g id="Light-S" transform="matrix(1 0 0 1 1107.92 696)">
   <path d="M76.8066 2.00195C77.832 3.02734 79.4922 3.02734 80.5176 2.00195C81.543 1.02539 81.543-0.634766 80.5176-1.66016L9.66797-72.4609C8.69141-73.4863 7.03125-73.4863 5.95703-72.4609C4.93164-71.4844 4.98047-69.7754 5.95703-68.7988ZM73.2422-15.1367C75.6348-18.6035 76.6113-22.4121 76.6113-27.4414L76.6113-56.5918C76.6113-60.6445 75-61.9629 71.6309-63.3789C66.6504-65.3809 53.3203-70.2637 48.3398-71.9727C47.3145-72.3145 46.2891-72.5586 45.2148-72.5586C44.1895-72.5586 43.1152-72.2168 42.0898-71.9727C38.0371-70.6055 29.7852-67.5781 23.291-65.1367L27.5391-60.8398C32.9102-62.8418 39.8926-65.4297 43.5547-66.6992C44.1895-66.9922 44.7754-67.1387 45.2148-67.1387C45.6543-67.1387 46.2402-66.9922 46.9238-66.6992C52.3926-64.7461 64.1602-60.2539 69.7266-58.3008C70.9473-57.8125 71.2402-57.1777 71.2402-55.5664L71.2402-28.6133C71.2402-24.8047 70.5566-21.875 69.043-19.3359ZM13.8184-27.4414C13.8184-13.8672 21.1426-9.08203 42.6758 3.32031C43.6035 3.85742 44.5801 4.10156 45.2148 4.10156C45.8984 4.10156 46.875 3.85742 47.7539 3.32031C53.9062-0.195312 58.8867-3.07617 62.793-5.71289L58.6914-9.86328C55.6641-7.86133 51.9531-5.66406 47.5098-2.83203C46.5332-2.19727 45.8496-1.95312 45.2148-1.95312C44.5801-1.95312 43.9453-2.19727 42.9199-2.83203C25.1953-13.7207 19.1895-16.8945 19.1895-28.6133L19.1895-49.4141L13.8184-54.7852Z"/>
  </g>
  <g id="Thin-S" transform="matrix(1 0 0 1 812.721 696)">
   <path d="M70.166-14.7461C72.9004-18.1641 73.9746-21.7773 73.9746-26.7578L73.9746-55.6641C73.9746-59.8145 72.7051-61.1816 68.8965-62.6953C62.5-65.1367 52.9785-68.8477 46.582-71.0938C45.6055-71.4355 44.6777-71.6797 43.7012-71.6797C42.7246-71.6797 41.7969-71.3867 40.8203-71.0938C35.1562-68.9941 27.832-66.2598 21.1914-63.7207L23.877-61.084C29.541-63.2324 38.3301-66.6016 41.5527-67.7734C42.3828-68.1641 43.2129-68.3594 43.7012-68.3594C44.1895-68.3594 44.9707-68.1152 45.8496-67.7734C50.293-66.1621 63.9648-60.8887 68.3594-59.2285C70.2148-58.4961 70.7031-57.5684 70.7031-55.0293L70.7031-27.1973C70.7031-23.0469 69.6777-20.0195 67.627-17.2852ZM75.1465 0.195312C75.7812 0.830078 76.7578 0.830078 77.4414 0.195312C78.125-0.390625 78.0762-1.46484 77.4414-2.09961L8.39844-71.1426C7.8125-71.7285 6.78711-71.7285 6.05469-71.1426C5.41992-70.5566 5.46875-69.4336 6.05469-68.7988ZM13.4277-26.7578C13.4277-14.3555 20.2148-10.4004 41.1621 2.39258C41.9434 2.83203 42.9199 3.22266 43.7012 3.22266C44.4824 3.22266 45.459 2.83203 46.1914 2.39258C52.832-1.5625 58.0078-4.6875 61.9629-7.4707L59.4238-10.0098C55.8594-7.56836 51.3672-4.83398 45.8008-1.17188C45.1172-0.732422 44.3359-0.292969 43.7012-0.292969C43.0176-0.292969 42.2852-0.732422 41.6016-1.17188C23.7793-12.5488 16.6992-15.7227 16.6992-27.1973L16.6992-52.8809L13.4277-56.1523Z"/>
  </g>
  <g id="Ultralight-S" transform="matrix(1 0 0 1 516.816 696)">
   <path d="M68.6035-14.502C71.4844-17.9199 72.5586-21.4355 72.5586-26.416L72.5586-55.127C72.5586-59.375 71.5332-60.791 67.4805-62.3535C60.4004-65.0391 52.7832-68.1152 45.6543-70.6055C44.6777-70.9473 43.8477-71.1914 42.9199-71.1914C41.9922-71.1914 41.1133-70.9473 40.1367-70.6055C33.6426-68.1641 26.8066-65.5273 20.1172-62.9883L21.9727-61.1816C27.7832-63.4277 37.5-67.1875 40.5273-68.3105C41.4551-68.75 42.3828-68.9941 42.9199-68.9941C43.457-68.9941 44.2871-68.7012 45.3125-68.3105C49.1699-66.8945 63.8672-61.1816 67.6758-59.7168C69.8242-58.8379 70.3613-57.7637 70.3613-54.7363L70.3613-26.4648C70.3613-22.168 69.2383-19.043 66.8945-16.2109ZM74.2676-0.732422C74.707-0.292969 75.3906-0.341797 75.8301-0.732422C76.3672-1.12305 76.2695-1.85547 75.8301-2.29492L7.71484-70.4102C7.32422-70.8008 6.68945-70.8008 6.15234-70.4102C5.66406-70.0195 5.71289-69.2871 6.15234-68.8477ZM13.2324-26.416C13.2324-14.6484 19.7266-11.1328 40.4297 1.9043C41.0645 2.29492 42.041 2.7832 42.9199 2.7832C43.75 2.7832 44.7266 2.29492 45.4102 1.9043C52.2949-2.29492 57.5195-5.51758 61.5234-8.34961L59.8145-10.1074C55.957-7.42188 51.0254-4.39453 44.873-0.292969C44.3848 0.0488281 43.6035 0.537109 42.9199 0.537109C42.2363 0.537109 41.4062 0.0488281 40.918-0.292969C23.0469-11.9141 15.4297-15.1367 15.4297-26.4648L15.4297-54.6387L13.2324-56.8848Z"/>
  </g>
 </g>
</svg>
