<?xml version="1.0" encoding="UTF-8"?>
<!--Generator: Apple Native CoreSVG 123-->
<!DOCTYPE svg
PUBLIC "-//W3C//DTD SVG 1.1//EN"
       "http://www.w3.org/Graphics/SVG/1.1/DTD/svg11.dtd">
<svg version="1.1" xmlns="http://www.w3.org/2000/svg" xmlns:xlink="http://www.w3.org/1999/xlink" width="3300" height="2200">
 <!--glyph: "uni1002DE.medium", point size: 100.000000, font version: "Version 15.0d7e11", template writer version: "5"-->
 <g id="Notes">
  <rect height="2200" id="artboard" style="fill:white;opacity:1" width="3300" x="0" y="0"/>
  <line id="" style="fill:none;stroke:black;opacity:1;stroke-width:0.5;" x1="263" x2="3036" y1="292" y2="292"/>
  <text style="stroke:none;fill:black;font-family:-apple-system,&quot;SF Pro Display&quot;,&quot;SF Pro Text&quot;,Helvetica,sans-serif;font-weight:bold;" transform="matrix(1 0 0 1 263 322)">Weight/Scale Variations</text>
  <text style="stroke:none;fill:black;font-family:-apple-system,&quot;SF Pro Display&quot;,&quot;SF Pro Text&quot;,Helvetica,sans-serif;text-anchor:middle;" transform="matrix(1 0 0 1 559.711 322)">Ultralight</text>
  <text style="stroke:none;fill:black;font-family:-apple-system,&quot;SF Pro Display&quot;,&quot;SF Pro Text&quot;,Helvetica,sans-serif;text-anchor:middle;" transform="matrix(1 0 0 1 856.422 322)">Thin</text>
  <text style="stroke:none;fill:black;font-family:-apple-system,&quot;SF Pro Display&quot;,&quot;SF Pro Text&quot;,Helvetica,sans-serif;text-anchor:middle;" transform="matrix(1 0 0 1 1153.13 322)">Light</text>
  <text style="stroke:none;fill:black;font-family:-apple-system,&quot;SF Pro Display&quot;,&quot;SF Pro Text&quot;,Helvetica,sans-serif;text-anchor:middle;" transform="matrix(1 0 0 1 1449.84 322)">Regular</text>
  <text style="stroke:none;fill:black;font-family:-apple-system,&quot;SF Pro Display&quot;,&quot;SF Pro Text&quot;,Helvetica,sans-serif;text-anchor:middle;" transform="matrix(1 0 0 1 1746.56 322)">Medium</text>
  <text style="stroke:none;fill:black;font-family:-apple-system,&quot;SF Pro Display&quot;,&quot;SF Pro Text&quot;,Helvetica,sans-serif;text-anchor:middle;" transform="matrix(1 0 0 1 2043.27 322)">Semibold</text>
  <text style="stroke:none;fill:black;font-family:-apple-system,&quot;SF Pro Display&quot;,&quot;SF Pro Text&quot;,Helvetica,sans-serif;text-anchor:middle;" transform="matrix(1 0 0 1 2339.98 322)">Bold</text>
  <text style="stroke:none;fill:black;font-family:-apple-system,&quot;SF Pro Display&quot;,&quot;SF Pro Text&quot;,Helvetica,sans-serif;text-anchor:middle;" transform="matrix(1 0 0 1 2636.69 322)">Heavy</text>
  <text style="stroke:none;fill:black;font-family:-apple-system,&quot;SF Pro Display&quot;,&quot;SF Pro Text&quot;,Helvetica,sans-serif;text-anchor:middle;" transform="matrix(1 0 0 1 2933.4 322)">Black</text>
  <line id="" style="fill:none;stroke:black;opacity:1;stroke-width:0.5;" x1="263" x2="3036" y1="1903" y2="1903"/>
  <g id="" transform="matrix(1 0 0 1 263 1933)">
   <path d="M 9.24805 0.830078 C 13.5547 0.830078 17.1387 -2.74414 17.1387 -7.05078 C 17.1387 -11.3574 13.5449 -14.9316 9.23828 -14.9316 C 4.94141 -14.9316 1.36719 -11.3574 1.36719 -7.05078 C 1.36719 -2.74414 4.95117 0.830078 9.24805 0.830078 Z M 9.24805 -0.654297 C 5.70312 -0.654297 2.87109 -3.49609 2.87109 -7.05078 C 2.87109 -10.6055 5.69336 -13.4473 9.23828 -13.4473 C 12.793 -13.4473 15.6348 -10.6055 15.6445 -7.05078 C 15.6543 -3.49609 12.8027 -0.654297 9.24805 -0.654297 Z M 9.22852 -3.42773 C 9.69727 -3.42773 9.9707 -3.74023 9.9707 -4.25781 L 9.9707 -6.31836 L 12.1973 -6.31836 C 12.6953 -6.31836 13.0371 -6.57227 13.0371 -7.04102 C 13.0371 -7.51953 12.7148 -7.7832 12.1973 -7.7832 L 9.9707 -7.7832 L 9.9707 -10.0098 C 9.9707 -10.5273 9.69727 -10.8496 9.22852 -10.8496 C 8.75977 -10.8496 8.50586 -10.5078 8.50586 -10.0098 L 8.50586 -7.7832 L 6.29883 -7.7832 C 5.78125 -7.7832 5.44922 -7.51953 5.44922 -7.04102 C 5.44922 -6.57227 5.80078 -6.31836 6.29883 -6.31836 L 8.50586 -6.31836 L 8.50586 -4.25781 C 8.50586 -3.75977 8.75977 -3.42773 9.22852 -3.42773 Z"/>
  </g>
  <g id="" transform="matrix(1 0 0 1 281.506 1933)">
   <path d="M 11.709 2.91016 C 17.1582 2.91016 21.6699 -1.60156 21.6699 -7.05078 C 21.6699 -12.4902 17.1484 -17.0117 11.6992 -17.0117 C 6.25977 -17.0117 1.74805 -12.4902 1.74805 -7.05078 C 1.74805 -1.60156 6.26953 2.91016 11.709 2.91016 Z M 11.709 1.25 C 7.09961 1.25 3.41797 -2.44141 3.41797 -7.05078 C 3.41797 -11.6504 7.08984 -15.3516 11.6992 -15.3516 C 16.3086 -15.3516 20 -11.6504 20.0098 -7.05078 C 20.0195 -2.44141 16.3184 1.25 11.709 1.25 Z M 11.6895 -2.41211 C 12.207 -2.41211 12.5195 -2.77344 12.5195 -3.33984 L 12.5195 -6.23047 L 15.5762 -6.23047 C 16.123 -6.23047 16.5039 -6.51367 16.5039 -7.03125 C 16.5039 -7.55859 16.1426 -7.86133 15.5762 -7.86133 L 12.5195 -7.86133 L 12.5195 -10.9277 C 12.5195 -11.5039 12.207 -11.8555 11.6895 -11.8555 C 11.1719 -11.8555 10.8789 -11.4844 10.8789 -10.9277 L 10.8789 -7.86133 L 7.83203 -7.86133 C 7.26562 -7.86133 6.89453 -7.55859 6.89453 -7.03125 C 6.89453 -6.51367 7.28516 -6.23047 7.83203 -6.23047 L 10.8789 -6.23047 L 10.8789 -3.33984 C 10.8789 -2.79297 11.1719 -2.41211 11.6895 -2.41211 Z"/>
  </g>
  <g id="" transform="matrix(1 0 0 1 304.924 1933)">
   <path d="M 14.9707 5.67383 C 21.9336 5.67383 27.6953 -0.078125 27.6953 -7.04102 C 27.6953 -14.0039 21.9238 -19.7559 14.9609 -19.7559 C 8.00781 -19.7559 2.25586 -14.0039 2.25586 -7.04102 C 2.25586 -0.078125 8.01758 5.67383 14.9707 5.67383 Z M 14.9707 3.85742 C 8.93555 3.85742 4.08203 -1.00586 4.08203 -7.04102 C 4.08203 -13.0762 8.92578 -17.9395 14.9609 -17.9395 C 21.0059 -17.9395 25.8594 -13.0762 25.8691 -7.04102 C 25.8789 -1.00586 21.0156 3.85742 14.9707 3.85742 Z M 14.9512 -1.06445 C 15.5176 -1.06445 15.8691 -1.45508 15.8691 -2.06055 L 15.8691 -6.13281 L 20.1074 -6.13281 C 20.6934 -6.13281 21.1133 -6.46484 21.1133 -7.02148 C 21.1133 -7.59766 20.7227 -7.93945 20.1074 -7.93945 L 15.8691 -7.93945 L 15.8691 -12.1875 C 15.8691 -12.8027 15.5176 -13.1934 14.9512 -13.1934 C 14.3848 -13.1934 14.0625 -12.7832 14.0625 -12.1875 L 14.0625 -7.93945 L 9.83398 -7.93945 C 9.21875 -7.93945 8.80859 -7.59766 8.80859 -7.02148 C 8.80859 -6.46484 9.23828 -6.13281 9.83398 -6.13281 L 14.0625 -6.13281 L 14.0625 -2.06055 C 14.0625 -1.47461 14.3848 -1.06445 14.9512 -1.06445 Z"/>
  </g>
  <text style="stroke:none;fill:black;font-family:-apple-system,&quot;SF Pro Display&quot;,&quot;SF Pro Text&quot;,Helvetica,sans-serif;font-weight:bold;" transform="matrix(1 0 0 1 263 1953)">Design Variations</text>
  <text style="stroke:none;fill:black;font-family:-apple-system,&quot;SF Pro Display&quot;,&quot;SF Pro Text&quot;,Helvetica,sans-serif;" transform="matrix(1 0 0 1 263 1971)">Symbols are supported in up to nine weights and three scales.</text>
  <text style="stroke:none;fill:black;font-family:-apple-system,&quot;SF Pro Display&quot;,&quot;SF Pro Text&quot;,Helvetica,sans-serif;" transform="matrix(1 0 0 1 263 1989)">For optimal layout with text and other symbols, vertically align</text>
  <text style="stroke:none;fill:black;font-family:-apple-system,&quot;SF Pro Display&quot;,&quot;SF Pro Text&quot;,Helvetica,sans-serif;" transform="matrix(1 0 0 1 263 2007)">symbols with the adjacent text.</text>
  <rect height="14" id="" style="fill:#00AEEF;stroke:none;opacity:0.4;" width="3" x="776" y="1919"/>
  <g id="" transform="matrix(1 0 0 1 779 1933)">
   <path d="M 10.5273 0 L 12.373 0 L 7.17773 -14.0918 L 5.43945 -14.0918 L 0.244141 0 L 2.08984 0 L 3.50586 -4.0332 L 9.11133 -4.0332 Z M 6.2793 -11.9531 L 6.33789 -11.9531 L 8.59375 -5.52734 L 4.02344 -5.52734 Z"/>
  </g>
  <rect height="14" id="" style="fill:#00AEEF;stroke:none;opacity:0.4;" width="3" x="791.617" y="1919"/>
  <text style="stroke:none;fill:black;font-family:-apple-system,&quot;SF Pro Display&quot;,&quot;SF Pro Text&quot;,Helvetica,sans-serif;font-weight:bold;" transform="matrix(1 0 0 1 776 1953)">Margins</text>
  <text style="stroke:none;fill:black;font-family:-apple-system,&quot;SF Pro Display&quot;,&quot;SF Pro Text&quot;,Helvetica,sans-serif;" transform="matrix(1 0 0 1 776 1971)">Leading and trailing margins on the left and right side of each symbol</text>
  <text style="stroke:none;fill:black;font-family:-apple-system,&quot;SF Pro Display&quot;,&quot;SF Pro Text&quot;,Helvetica,sans-serif;" transform="matrix(1 0 0 1 776 1989)">can be adjusted by modifying the width of the blue rectangles.</text>
  <text style="stroke:none;fill:black;font-family:-apple-system,&quot;SF Pro Display&quot;,&quot;SF Pro Text&quot;,Helvetica,sans-serif;" transform="matrix(1 0 0 1 776 2007)">Modifications are automatically applied proportionally to all</text>
  <text style="stroke:none;fill:black;font-family:-apple-system,&quot;SF Pro Display&quot;,&quot;SF Pro Text&quot;,Helvetica,sans-serif;" transform="matrix(1 0 0 1 776 2025)">scales and weights.</text>
  <g id="" transform="matrix(1 0 0 1 1289 1933)">
   <path d="M 2.83203 3.11523 L 4.375 4.6582 C 5.22461 5.48828 6.19141 5.41992 7.06055 4.46289 L 17.2754 -6.66016 C 17.7051 -6.36719 18.0957 -6.37695 18.5645 -6.47461 L 19.6094 -6.68945 L 20.3027 -5.99609 L 20.2539 -5.47852 C 20.1855 -4.95117 20.3516 -4.53125 20.8496 -4.0332 L 21.6602 -3.22266 C 22.168 -2.71484 22.8223 -2.68555 23.3008 -3.16406 L 26.5527 -6.41602 C 27.0312 -6.89453 27.0117 -7.54883 26.5039 -8.05664 L 25.6836 -8.87695 C 25.1855 -9.375 24.7754 -9.55078 24.2383 -9.47266 L 23.7109 -9.41406 L 23.0566 -10.0781 L 23.3398 -11.2207 C 23.4863 -11.7871 23.3398 -12.2559 22.7148 -12.8613 L 20.3027 -15.2539 C 16.7578 -18.7793 12.2266 -18.6719 9.11133 -15.5371 C 8.69141 -15.1074 8.64258 -14.5215 8.91602 -14.0918 C 9.15039 -13.7207 9.62891 -13.4961 10.2734 -13.6621 C 11.7871 -14.043 13.3008 -13.9258 14.7852 -12.9199 L 14.1602 -11.3379 C 13.9258 -10.752 13.9453 -10.2734 14.1797 -9.83398 L 3.01758 0.439453 C 2.08008 1.30859 1.97266 2.25586 2.83203 3.11523 Z M 10.6738 -15.1465 C 13.3398 -17.1387 16.6504 -16.8262 19.0527 -14.4141 L 21.6797 -11.8066 C 21.9141 -11.5723 21.9434 -11.3867 21.8848 -11.0938 L 21.5039 -9.53125 L 23.0762 -7.95898 L 24.043 -8.04688 C 24.3262 -8.07617 24.4141 -8.05664 24.6387 -7.83203 L 25.2637 -7.20703 L 22.5098 -4.46289 L 21.8848 -5.07812 C 21.6602 -5.30273 21.6406 -5.40039 21.6699 -5.68359 L 21.7578 -6.64062 L 20.1953 -8.20312 L 18.5742 -7.89062 C 18.291 -7.83203 18.1445 -7.83203 17.9102 -8.07617 L 15.7324 -10.2539 C 15.5078 -10.4883 15.4785 -10.625 15.6055 -10.9473 L 16.5527 -13.2227 C 14.9512 -14.7559 12.8418 -15.6055 10.8008 -14.9512 C 10.7129 -14.9219 10.6445 -14.9414 10.6152 -14.9805 C 10.5859 -15.0293 10.5859 -15.0781 10.6738 -15.1465 Z M 4.10156 2.41211 C 3.61328 1.91406 3.78906 1.61133 4.12109 1.30859 L 15.0781 -8.80859 L 16.3086 -7.57812 L 6.15234 3.34961 C 5.84961 3.68164 5.46875 3.7793 5.06836 3.37891 Z"/>
  </g>
  <text style="stroke:none;fill:black;font-family:-apple-system,&quot;SF Pro Display&quot;,&quot;SF Pro Text&quot;,Helvetica,sans-serif;font-weight:bold;" transform="matrix(1 0 0 1 1289 1953)">Exporting</text>
  <text style="stroke:none;fill:black;font-family:-apple-system,&quot;SF Pro Display&quot;,&quot;SF Pro Text&quot;,Helvetica,sans-serif;" transform="matrix(1 0 0 1 1289 1971)">Symbols should be outlined when exporting to ensure the</text>
  <text style="stroke:none;fill:black;font-family:-apple-system,&quot;SF Pro Display&quot;,&quot;SF Pro Text&quot;,Helvetica,sans-serif;" transform="matrix(1 0 0 1 1289 1989)">design is preserved when submitting to Xcode.</text>
  <text id="template-version" style="stroke:none;fill:black;font-family:-apple-system,&quot;SF Pro Display&quot;,&quot;SF Pro Text&quot;,Helvetica,sans-serif;text-anchor:end;" transform="matrix(1 0 0 1 3036 1933)">Template v.1.0</text>
  <text style="stroke:none;fill:black;font-family:-apple-system,&quot;SF Pro Display&quot;,&quot;SF Pro Text&quot;,Helvetica,sans-serif;text-anchor:end;" transform="matrix(1 0 0 1 3036 1951)">Generated from bell.slash.fill</text>
  <text style="stroke:none;fill:black;font-family:-apple-system,&quot;SF Pro Display&quot;,&quot;SF Pro Text&quot;,Helvetica,sans-serif;text-anchor:end;" transform="matrix(1 0 0 1 3036 1969)">Typeset at 100 points</text>
  <text style="stroke:none;fill:black;font-family:-apple-system,&quot;SF Pro Display&quot;,&quot;SF Pro Text&quot;,Helvetica,sans-serif;" transform="matrix(1 0 0 1 263 726)">Small</text>
  <text style="stroke:none;fill:black;font-family:-apple-system,&quot;SF Pro Display&quot;,&quot;SF Pro Text&quot;,Helvetica,sans-serif;" transform="matrix(1 0 0 1 263 1156)">Medium</text>
  <text style="stroke:none;fill:black;font-family:-apple-system,&quot;SF Pro Display&quot;,&quot;SF Pro Text&quot;,Helvetica,sans-serif;" transform="matrix(1 0 0 1 263 1586)">Large</text>
 </g>
 <g id="Guides">
  <g id="H-reference" style="fill:#27AAE1;stroke:none;" transform="matrix(1 0 0 1 339 696)">
   <path d="M 54.9316 0 L 57.666 0 L 30.5664 -70.459 L 28.0762 -70.459 L 0.976562 0 L 3.66211 0 L 12.9395 -24.4629 L 45.7031 -24.4629 Z M 29.1992 -67.0898 L 29.4434 -67.0898 L 44.8242 -26.709 L 13.8184 -26.709 Z"/>
  </g>
  <line id="Baseline-S" style="fill:none;stroke:#27AAE1;opacity:1;stroke-width:0.577;" x1="263" x2="3036" y1="696" y2="696"/>
  <line id="Capline-S" style="fill:none;stroke:#27AAE1;opacity:1;stroke-width:0.577;" x1="263" x2="3036" y1="625.541" y2="625.541"/>
  <g id="H-reference" style="fill:#27AAE1;stroke:none;" transform="matrix(1 0 0 1 339 1126)">
   <path d="M 54.9316 0 L 57.666 0 L 30.5664 -70.459 L 28.0762 -70.459 L 0.976562 0 L 3.66211 0 L 12.9395 -24.4629 L 45.7031 -24.4629 Z M 29.1992 -67.0898 L 29.4434 -67.0898 L 44.8242 -26.709 L 13.8184 -26.709 Z"/>
  </g>
  <line id="Baseline-M" style="fill:none;stroke:#27AAE1;opacity:1;stroke-width:0.577;" x1="263" x2="3036" y1="1126" y2="1126"/>
  <line id="Capline-M" style="fill:none;stroke:#27AAE1;opacity:1;stroke-width:0.577;" x1="263" x2="3036" y1="1055.54" y2="1055.54"/>
  <g id="H-reference" style="fill:#27AAE1;stroke:none;" transform="matrix(1 0 0 1 339 1556)">
   <path d="M 54.9316 0 L 57.666 0 L 30.5664 -70.459 L 28.0762 -70.459 L 0.976562 0 L 3.66211 0 L 12.9395 -24.4629 L 45.7031 -24.4629 Z M 29.1992 -67.0898 L 29.4434 -67.0898 L 44.8242 -26.709 L 13.8184 -26.709 Z"/>
  </g>
  <line id="Baseline-L" style="fill:none;stroke:#27AAE1;opacity:1;stroke-width:0.577;" x1="263" x2="3036" y1="1556" y2="1556"/>
  <line id="Capline-L" style="fill:none;stroke:#27AAE1;opacity:1;stroke-width:0.577;" x1="263" x2="3036" y1="1485.54" y2="1485.54"/>
  <rect height="119.336" id="left-margin" style="fill:#00AEEF;stroke:none;opacity:0.4;" width="10.2539" x="1393.42" y="1030.79"/>
  <rect height="119.336" id="right-margin" style="fill:#00AEEF;stroke:none;opacity:0.4;" width="7.36687" x="1498.9" y="1030.79"/>
 </g>
 <g id="Symbols">
  <g id="Black-L" transform="matrix(1 0 0 1 2855.96 1556)">
   <path d="M 77.3926 -105.957 C 67.9688 -105.957 60.0098 -99.8535 56.6895 -91.3574 C 53.8086 -90.2832 51.123 -88.8672 48.7793 -87.1094 L 138.135 2.34375 C 140.967 0.146484 142.578 -3.27148 142.578 -7.42188 C 142.578 -15.1367 137.402 -21.0449 131.104 -25.9766 C 126.025 -29.8828 125.146 -38.8184 123.438 -49.9023 C 121.191 -70.2148 113.232 -85.791 98.1445 -91.3574 C 94.8242 -99.8535 86.8652 -105.957 77.3926 -105.957 Z M 134.912 28.3203 C 137.158 30.5664 140.869 30.5664 143.018 28.3203 C 145.215 26.0742 145.312 22.4121 143.018 20.166 L 24.707 -98.0469 C 22.4609 -100.293 18.7988 -100.293 16.5039 -98.0469 C 14.3555 -95.8984 14.3555 -92.0898 16.5039 -89.9414 Z M 26.0742 5.41992 L 99.0234 5.41992 L 32.9102 -60.6934 C 32.1777 -57.373 31.6406 -53.7598 31.3477 -49.9023 C 29.541 -38.8184 28.7598 -29.8828 23.6816 -25.9766 C 17.4316 -21.0449 12.2559 -15.1367 12.2559 -7.42188 C 12.2559 0.244141 17.6758 5.41992 26.0742 5.41992 Z M 77.3926 34.0332 C 90.0879 34.0332 99.3164 25.4395 100.098 15.0391 L 54.7363 15.0391 C 55.4199 25.4395 64.7461 34.0332 77.3926 34.0332 Z"/>
  </g>
  <g id="Heavy-L" transform="matrix(1 0 0 1 2560.32 1556)">
   <path d="M 76.3184 -104.639 C 66.9922 -104.639 59.375 -98.4863 56.3477 -89.9902 C 53.2715 -88.916 50.4883 -87.4023 48.0469 -85.5469 L 136.279 2.73438 C 138.672 0.830078 139.99 -2.09961 139.99 -5.71289 C 139.99 -13.0859 134.57 -18.9453 128.516 -24.0234 C 123.486 -28.2227 122.656 -37.5 121.143 -48.0469 C 119.189 -68.8477 111.621 -84.4727 96.2402 -89.9902 C 93.2129 -98.4863 85.6445 -104.639 76.3184 -104.639 Z M 133.545 27.4414 C 135.645 29.541 139.111 29.541 141.162 27.4414 C 143.213 25.3418 143.262 21.9727 141.162 19.873 L 23.8281 -97.3633 C 21.7285 -99.4629 18.3105 -99.4629 16.1621 -97.3633 C 14.1602 -95.3125 14.1602 -91.7969 16.1621 -89.7949 Z M 25.0977 5.66406 L 99.5117 5.66406 L 33.2031 -60.6445 C 32.3242 -56.7871 31.7383 -52.6367 31.4453 -48.0469 C 29.8828 -37.5 29.1016 -28.2227 24.1211 -24.0234 C 18.0664 -18.9453 12.5977 -13.0859 12.5977 -5.71289 C 12.5977 1.07422 17.5293 5.66406 25.0977 5.66406 Z M 76.3184 33.1543 C 88.4277 33.1543 97.2656 24.8047 98.0957 14.8926 L 54.541 14.8926 C 55.3223 24.8047 64.1602 33.1543 76.3184 33.1543 Z"/>
  </g>
  <g id="Bold-L" transform="matrix(1 0 0 1 2264.83 1556)">
   <path d="M 75.0977 -103.125 C 65.8691 -103.125 58.6914 -96.9238 56.0059 -88.4766 C 52.6855 -87.3535 49.7559 -85.791 47.2656 -83.7891 L 134.131 3.17383 C 136.035 1.5625 137.109 -0.878906 137.109 -3.75977 C 137.109 -10.791 131.396 -16.5527 125.586 -21.8262 C 120.654 -26.3184 119.824 -35.9863 118.555 -46.0449 C 117.041 -67.334 109.863 -82.959 94.1895 -88.4766 C 91.4551 -96.9238 84.2773 -103.125 75.0977 -103.125 Z M 132.031 26.5137 C 133.984 28.4668 137.158 28.4668 139.014 26.5137 C 140.918 24.5605 140.967 21.4355 139.014 19.4824 L 22.8516 -96.582 C 20.9473 -98.5352 17.7734 -98.584 15.8203 -96.582 C 13.916 -94.7266 13.916 -91.4551 15.8203 -89.5996 Z M 24.0234 5.95703 L 100 5.95703 L 33.4961 -60.5469 C 32.4707 -56.1523 31.8359 -51.3184 31.5918 -46.0449 C 30.2734 -35.9863 29.4922 -26.3184 24.5605 -21.8262 C 18.75 -16.5527 13.0371 -10.791 13.0371 -3.75977 C 13.0371 2.05078 17.334 5.95703 24.0234 5.95703 Z M 75.0977 32.2266 C 86.6211 32.2266 94.9707 24.1699 95.8496 14.6973 L 54.2969 14.6973 C 55.1758 24.1699 63.5254 32.2266 75.0977 32.2266 Z"/>
  </g>
  <g id="Semibold-L" transform="matrix(1 0 0 1 1968.95 1556)">
   <path d="M 74.2188 -102.1 C 65.1367 -102.1 58.2031 -95.8496 55.7129 -87.4512 C 52.2949 -86.3281 49.2676 -84.668 46.7285 -82.5684 L 132.715 3.4668 C 134.277 2.05078 135.107 0 135.107 -2.44141 C 135.107 -9.22852 129.199 -14.8926 123.584 -20.3125 C 118.701 -25.0488 117.92 -35.0098 116.797 -44.6289 C 115.527 -66.2598 108.643 -81.9336 92.7246 -87.4512 C 90.2344 -95.8496 83.3496 -102.1 74.2188 -102.1 Z M 130.957 25.8301 C 132.812 27.6855 135.791 27.6855 137.598 25.8301 C 139.355 23.9746 139.404 21.0938 137.598 19.2383 L 22.168 -96.0938 C 20.3613 -97.9004 17.3828 -97.9492 15.5273 -96.0938 C 13.7695 -94.2871 13.7695 -91.2598 15.5273 -89.502 Z M 23.291 6.15234 L 100.342 6.15234 L 33.7402 -60.498 C 32.5684 -55.7129 31.8848 -50.4395 31.6406 -44.6289 C 30.5176 -35.0098 29.7363 -25.0488 24.9023 -20.3125 C 19.2383 -14.8926 13.3301 -9.22852 13.3301 -2.44141 C 13.3301 2.68555 17.1875 6.15234 23.291 6.15234 Z M 74.2188 31.543 C 85.3516 31.543 93.3594 23.7305 94.2871 14.5508 L 54.1504 14.5508 C 55.0781 23.7305 63.1348 31.543 74.2188 31.543 Z"/>
  </g>
  <g id="Medium-L" transform="matrix(1 0 0 1 1672.87 1556)">
   <path d="M 73.584 -101.318 C 64.5508 -101.318 57.8613 -95.0195 55.5176 -86.6699 C 52.002 -85.498 48.9258 -83.8379 46.3379 -81.6895 L 131.592 3.71094 C 132.91 2.44141 133.594 0.683594 133.594 -1.46484 C 133.594 -8.05664 127.539 -13.6719 122.021 -19.1406 C 117.236 -24.0234 116.455 -34.2285 115.479 -43.5547 C 114.355 -65.4785 107.715 -81.1523 91.6504 -86.6699 C 89.3066 -95.0195 82.6172 -101.318 73.584 -101.318 Z M 130.176 25.3418 C 131.934 27.0996 134.766 27.0996 136.475 25.3418 C 138.184 23.584 138.232 20.8008 136.475 19.043 L 21.6797 -95.7031 C 19.9707 -97.4121 17.0898 -97.4609 15.332 -95.7031 C 13.623 -93.9941 13.623 -91.0645 15.332 -89.4043 Z M 22.7051 6.34766 L 100.635 6.34766 L 33.8867 -60.4492 C 32.666 -55.3711 31.9336 -49.7559 31.6895 -43.5547 C 30.7129 -34.2285 29.9316 -24.0234 25.0977 -19.1406 C 19.5801 -13.6719 13.5742 -8.05664 13.5742 -1.46484 C 13.5742 3.22266 17.041 6.34766 22.7051 6.34766 Z M 73.584 31.0547 C 84.375 31.0547 92.1387 23.3887 93.1152 14.4531 L 54.0527 14.4531 C 54.9805 23.3887 62.793 31.0547 73.584 31.0547 Z"/>
  </g>
  <g id="Regular-L" transform="matrix(1 0 0 1 1376.99 1556)">
   <path d="M 72.7539 -100.293 C 63.7695 -100.293 57.373 -93.9941 55.2734 -85.6445 C 51.6113 -84.4727 48.4375 -82.7637 45.8008 -80.4688 L 130.176 4.00391 C 131.104 2.92969 131.641 1.51367 131.641 -0.146484 C 131.641 -6.49414 125.391 -12.0605 120.068 -17.627 C 115.283 -22.7539 114.551 -33.2031 113.721 -42.1387 C 112.842 -64.4043 106.494 -80.127 90.1855 -85.6445 C 88.0859 -93.9941 81.6895 -100.293 72.7539 -100.293 Z M 129.15 24.707 C 130.762 26.3184 133.447 26.3184 135.01 24.707 C 136.621 23.0469 136.67 20.459 135.01 18.7988 L 20.9961 -95.166 C 19.3848 -96.7773 16.748 -96.8262 15.0879 -95.166 C 13.4766 -93.5547 13.4766 -90.8691 15.0879 -89.2578 Z M 21.9727 6.54297 L 100.977 6.54297 L 34.082 -60.4004 C 32.7637 -54.9805 31.9824 -48.877 31.7871 -42.1387 C 30.957 -33.2031 30.2246 -22.7539 25.4395 -17.627 C 20.0684 -12.0605 13.8672 -6.49414 13.8672 -0.146484 C 13.8672 3.85742 16.9434 6.54297 21.9727 6.54297 Z M 72.7539 30.4199 C 83.1055 30.4199 90.5762 22.9004 91.6016 14.3066 L 53.9062 14.3066 C 54.8828 22.9004 62.3535 30.4199 72.7539 30.4199 Z"/>
  </g>
  <g id="Light-L" transform="matrix(1 0 0 1 1080.26 1556)">
   <path d="M 72.8027 -99.8535 C 64.3066 -99.8535 58.1055 -93.7988 56.3477 -85.2539 C 52.1484 -84.082 48.6328 -82.1289 45.8008 -79.541 L 129.59 4.39453 C 130.469 3.51562 130.957 2.34375 130.957 0.878906 C 130.957 -5.51758 124.951 -10.9375 119.775 -16.5527 C 114.16 -22.7051 113.916 -35.1562 112.598 -46.4355 C 111.279 -66.0645 104.932 -80.4688 89.3066 -85.2539 C 87.5488 -93.7988 81.2988 -99.8535 72.8027 -99.8535 Z M 130.957 24.0234 C 132.227 25.293 134.277 25.293 135.498 24.0234 C 136.768 22.7051 136.768 20.7031 135.498 19.4824 L 20.2637 -95.752 C 19.043 -96.9727 16.9922 -97.0703 15.6738 -95.752 C 14.4043 -94.5312 14.4043 -92.4316 15.6738 -91.2109 Z M 20.9473 6.25 L 103.955 6.25 L 35.5469 -62.2559 C 34.2285 -57.4707 33.3984 -52.1973 33.0566 -46.4355 C 31.6895 -35.1562 31.4941 -22.7051 25.8789 -16.5527 C 20.7031 -10.9375 14.6973 -5.51758 14.6973 0.878906 C 14.6973 4.10156 17.0898 6.25 20.9473 6.25 Z M 72.8027 28.2715 C 82.7637 28.2715 89.7949 21.1914 91.0156 12.9395 L 54.5898 12.9395 C 55.8594 21.1914 62.8418 28.2715 72.8027 28.2715 Z"/>
  </g>
  <g id="Thin-L" transform="matrix(1 0 0 1 783.497 1556)">
   <path d="M 72.9004 -99.2676 C 65.0391 -99.2676 59.0332 -93.5547 57.7637 -84.7656 C 52.8809 -83.5938 48.9258 -81.2988 45.752 -78.3203 L 128.857 4.88281 C 129.639 4.24805 130.029 3.36914 130.029 2.19727 C 130.029 -4.24805 124.316 -9.52148 119.385 -15.0879 C 112.646 -22.6074 113.135 -37.793 111.133 -52.0996 C 109.131 -68.2129 102.832 -80.957 88.0859 -84.7656 C 86.8164 -93.5547 80.8105 -99.2676 72.9004 -99.2676 Z M 133.35 23.0957 C 134.131 23.877 135.4 23.877 136.133 23.0957 C 136.963 22.2656 136.914 21.0938 136.133 20.3125 L 19.2383 -96.582 C 18.5547 -97.2656 17.2852 -97.4121 16.4551 -96.582 C 15.6738 -95.8008 15.6738 -94.5312 16.4551 -93.7988 Z M 19.5801 5.85938 L 107.91 5.85938 L 37.4512 -64.6973 C 36.1816 -60.8398 35.2051 -56.6406 34.7168 -52.0996 C 32.7148 -37.793 33.1543 -22.6074 26.4648 -15.0879 C 21.4844 -9.52148 15.7715 -4.24805 15.7715 2.19727 C 15.7715 4.39453 17.334 5.85938 19.5801 5.85938 Z M 72.9004 25.4883 C 82.3242 25.4883 88.7207 18.9453 90.2832 11.084 L 55.5664 11.084 C 57.0801 18.9453 63.5254 25.4883 72.9004 25.4883 Z"/>
  </g>
  <g id="Ultralight-L" transform="matrix(1 0 0 1 486.762 1556)">
   <path d="M 72.9492 -98.9746 C 65.3809 -98.9746 59.5215 -93.457 58.4961 -84.5215 C 53.2715 -83.3008 49.0234 -80.9082 45.752 -77.6855 L 128.467 5.12695 C 129.199 4.63867 129.59 3.90625 129.59 2.83203 C 129.59 -3.61328 124.023 -8.78906 119.189 -14.3066 C 111.914 -22.5586 112.695 -39.1113 110.352 -55.0293 C 108.057 -69.3359 101.758 -81.25 87.4512 -84.5215 C 86.4258 -93.457 80.5176 -98.9746 72.9492 -98.9746 Z M 134.57 22.6562 C 135.107 23.1934 135.938 23.1934 136.475 22.6562 C 137.061 22.0215 137.012 21.2891 136.475 20.752 L 18.75 -96.9727 C 18.3105 -97.4121 17.4316 -97.6074 16.8457 -96.9727 C 16.3086 -96.4844 16.3086 -95.6055 16.8457 -95.1172 Z M 18.8965 5.66406 L 109.961 5.66406 L 38.4277 -65.9668 C 37.1582 -62.5488 36.1816 -58.8867 35.5469 -55.0293 C 33.2031 -39.1113 34.0332 -22.5586 26.7578 -14.3066 C 21.9238 -8.78906 16.3574 -3.61328 16.3574 2.83203 C 16.3574 4.54102 17.4316 5.66406 18.8965 5.66406 Z M 72.9492 24.0234 C 82.0801 24.0234 88.1836 17.8223 89.8926 10.1074 L 56.0547 10.1074 C 57.7148 17.8223 63.8672 24.0234 72.9492 24.0234 Z"/>
  </g>
  <g id="Black-M" transform="matrix(1 0 0 1 2871.88 1126)">
   <path d="M 61.5234 -91.6016 C 54.2969 -91.6016 47.7051 -87.0605 44.9707 -80.3223 C 42.7246 -79.541 40.5762 -78.418 38.7207 -77.002 L 109.326 -6.44531 C 112.061 -8.39844 113.623 -11.5234 113.623 -15.4785 C 113.623 -21.9238 110.059 -26.5137 104.98 -30.127 C 100.488 -33.3008 100.049 -40.8691 98.1934 -51.3672 C 95.7031 -65.0879 89.0625 -76.416 78.0762 -80.3223 C 75.293 -87.0605 68.75 -91.6016 61.5234 -91.6016 Z M 107.373 14.7949 C 109.131 16.5527 111.963 16.5527 113.672 14.7949 C 115.332 13.0371 115.43 10.2539 113.672 8.49609 L 19.9219 -85.1562 C 18.2129 -86.9141 15.332 -86.9141 13.5742 -85.1562 C 11.9141 -83.4961 11.9141 -80.5664 13.5742 -78.8574 Z M 20.9473 -4.24805 L 77.7344 -4.24805 L 25.8789 -56.0547 C 25.5371 -54.4922 25.1465 -52.9297 24.8535 -51.3672 C 22.8516 -40.8691 22.5098 -33.3008 18.0664 -30.127 C 12.9883 -26.5137 9.42383 -21.9238 9.42383 -15.4785 C 9.42383 -8.78906 14.0625 -4.24805 20.9473 -4.24805 Z M 61.5234 18.457 C 71.8262 18.457 79.3457 11.6699 79.9805 3.22266 L 43.0664 3.22266 C 43.6035 11.6699 51.1719 18.457 61.5234 18.457 Z"/>
  </g>
  <g id="Heavy-M" transform="matrix(1 0 0 1 2576.39 1126)">
   <path d="M 60.3027 -90.2832 C 53.0762 -90.2832 46.875 -85.5957 44.3359 -78.9551 C 41.9922 -78.125 39.8438 -77.002 37.9395 -75.5859 L 107.373 -6.10352 C 109.668 -7.8125 110.986 -10.498 110.986 -13.8672 C 110.986 -19.9219 107.08 -24.5117 102.197 -28.2715 C 98.0469 -31.4941 97.4609 -38.8672 95.9473 -48.2422 C 93.9453 -63.1348 87.6953 -74.8535 76.2695 -78.9551 C 73.7305 -85.5957 67.5293 -90.2832 60.3027 -90.2832 Z M 105.42 14.0137 C 107.08 15.7227 109.863 15.7227 111.475 14.0137 C 113.086 12.3535 113.135 9.66797 111.475 7.95898 L 19.1895 -84.2773 C 17.4805 -85.9375 14.7461 -85.9375 13.0371 -84.2773 C 11.4258 -82.6172 11.4258 -79.834 13.0371 -78.1738 Z M 20.166 -3.90625 L 77.4414 -3.90625 L 25.8301 -55.4688 C 25.293 -53.2227 24.9023 -50.7812 24.6094 -48.2422 C 23.0469 -38.8672 22.5586 -31.4941 18.3594 -28.2715 C 13.5254 -24.5117 9.61914 -19.9219 9.61914 -13.8672 C 9.61914 -7.91016 13.8184 -3.90625 20.166 -3.90625 Z M 60.3027 18.0664 C 70.1172 18.0664 77.2949 11.4746 77.9297 3.36914 L 42.6758 3.36914 C 43.2617 11.4746 50.4395 18.0664 60.3027 18.0664 Z"/>
  </g>
  <g id="Bold-M" transform="matrix(1 0 0 1 2281.02 1126)">
   <path d="M 58.9355 -88.7695 C 51.709 -88.7695 45.8984 -83.9844 43.6035 -77.3926 C 41.2109 -76.5625 39.0137 -75.3906 37.1094 -73.9258 L 105.225 -5.76172 C 107.031 -7.17773 108.008 -9.375 108.008 -12.0117 C 108.008 -17.7246 103.76 -22.2168 99.0723 -26.1719 C 95.2637 -29.4434 94.5801 -36.6699 93.457 -44.7754 C 92.041 -60.9863 86.2305 -73.1445 74.2676 -77.3926 C 71.9727 -83.9844 66.1133 -88.7695 58.9355 -88.7695 Z M 103.223 13.1836 C 104.834 14.7949 107.471 14.7949 109.033 13.1836 C 110.596 11.5723 110.645 8.98438 109.033 7.37305 L 18.3105 -83.252 C 16.748 -84.8633 14.0625 -84.8633 12.4512 -83.252 C 10.8887 -81.6895 10.8887 -79.0039 12.4512 -77.4414 Z M 19.2871 -3.4668 L 77.1484 -3.4668 L 25.7324 -54.8828 C 25.0488 -51.8066 24.6094 -48.4375 24.3652 -44.7754 C 23.1934 -36.6699 22.6074 -29.4434 18.75 -26.1719 C 14.1113 -22.2168 9.81445 -17.7246 9.81445 -12.0117 C 9.81445 -6.93359 13.5254 -3.4668 19.2871 -3.4668 Z M 58.9355 17.6758 C 68.2129 17.6758 75 11.2305 75.6348 3.61328 L 42.1875 3.61328 C 42.8223 11.2305 49.6094 17.6758 58.9355 17.6758 Z"/>
  </g>
  <g id="Semibold-M" transform="matrix(1 0 0 1 1985.21 1126)">
   <path d="M 57.959 -87.7441 C 50.7812 -87.7441 45.2148 -82.8613 43.1152 -76.3672 C 40.625 -75.4883 38.4277 -74.3164 36.5234 -72.8027 L 103.76 -5.51758 C 105.176 -6.73828 105.957 -8.59375 105.957 -10.791 C 105.957 -16.1621 101.465 -20.6543 96.9727 -24.7559 C 93.3105 -28.0762 92.5781 -35.1562 91.748 -42.334 C 90.7227 -59.5215 85.2051 -71.9238 72.8516 -76.3672 C 70.7031 -82.8613 65.1855 -87.7441 57.959 -87.7441 Z M 101.709 12.5977 C 103.271 14.1602 105.811 14.1602 107.324 12.5977 C 108.838 11.0352 108.887 8.54492 107.324 6.98242 L 17.7246 -82.5684 C 16.2109 -84.082 13.623 -84.1309 12.0605 -82.5684 C 10.5469 -81.0547 10.5469 -78.418 12.0605 -76.9043 Z M 18.7012 -3.17383 L 76.9043 -3.17383 L 25.6836 -54.4434 C 24.8535 -50.7812 24.3652 -46.7773 24.2188 -42.334 C 23.3398 -35.1562 22.6074 -28.0762 18.9941 -24.7559 C 14.502 -20.6543 10.0098 -16.1621 10.0098 -10.791 C 10.0098 -6.25 13.3301 -3.17383 18.7012 -3.17383 Z M 57.959 17.3828 C 66.8945 17.3828 73.4375 11.084 74.0723 3.71094 L 41.8945 3.71094 C 42.5293 11.084 49.0234 17.3828 57.959 17.3828 Z"/>
  </g>
  <g id="Medium-M" transform="matrix(1 0 0 1 1689.21 1126)">
   <path d="M 57.2754 -86.9629 C 50.0488 -86.9629 44.7266 -81.9824 42.7246 -75.5371 C 40.2344 -74.6582 37.9883 -73.4863 36.084 -71.9727 L 102.637 -5.32227 C 103.809 -6.39648 104.395 -7.95898 104.395 -9.81445 C 104.395 -14.9902 99.707 -19.4336 95.3125 -23.6328 C 91.8945 -27.002 91.0645 -34.0332 90.4297 -40.5273 C 89.6973 -58.3984 84.4238 -70.9961 71.8262 -75.5371 C 69.7754 -81.9824 64.4531 -86.9629 57.2754 -86.9629 Z M 100.537 12.1582 C 102.051 13.7207 104.59 13.7207 106.055 12.1582 C 107.52 10.6445 107.568 8.20312 106.055 6.68945 L 17.2852 -82.0312 C 15.7715 -83.5449 13.2812 -83.5449 11.7676 -82.0312 C 10.2539 -80.5664 10.2539 -77.9785 11.7676 -76.5137 Z M 18.2129 -2.97852 L 76.7578 -2.97852 L 25.6836 -54.1016 C 24.7559 -50.0488 24.2188 -45.5566 24.0723 -40.5273 C 23.4375 -34.0332 22.6562 -27.002 19.1895 -23.6328 C 14.7949 -19.4336 10.1074 -14.9902 10.1074 -9.81445 C 10.1074 -5.71289 13.1836 -2.97852 18.2129 -2.97852 Z M 57.2754 17.1387 C 65.918 17.1387 72.2168 10.9375 72.8516 3.85742 L 41.6504 3.85742 C 42.2852 10.9375 48.6328 17.1387 57.2754 17.1387 Z"/>
  </g>
  <g id="Regular-M" transform="matrix(1 0 0 1 1393.42 1126)">
   <path d="M 56.3477 -85.9375 C 49.1211 -85.9375 44.0918 -80.8594 42.2363 -74.5117 C 39.6484 -73.6328 37.4023 -72.4121 35.498 -70.8496 L 101.172 -5.07812 C 102.002 -6.00586 102.393 -7.17773 102.393 -8.59375 C 102.393 -13.4766 97.4609 -17.8711 93.2129 -22.2168 C 89.9902 -25.5859 89.1113 -32.5195 88.7695 -38.1348 C 88.3789 -56.8848 83.4473 -69.8242 70.459 -74.5117 C 68.6035 -80.8594 63.5254 -85.9375 56.3477 -85.9375 Z M 99.0723 11.6211 C 100.537 13.0859 102.93 13.0859 104.395 11.6211 C 105.811 10.1074 105.859 7.76367 104.395 6.29883 L 16.6992 -81.3477 C 15.2344 -82.8125 12.8418 -82.8125 11.3281 -81.3477 C 9.91211 -79.8828 9.91211 -77.4414 11.3281 -76.0254 Z M 17.627 -2.68555 L 76.5625 -2.68555 L 25.6348 -53.7109 C 24.5605 -49.0723 24.0234 -43.9453 23.9258 -38.1348 C 23.5352 -32.5195 22.7051 -25.5859 19.4824 -22.2168 C 15.2344 -17.8711 10.2539 -13.4766 10.2539 -8.59375 C 10.2539 -5.07812 13.0371 -2.68555 17.627 -2.68555 Z M 56.3477 16.8457 C 64.5996 16.8457 70.6543 10.791 71.3379 3.95508 L 41.3574 3.95508 C 41.9922 10.791 48.0469 16.8457 56.3477 16.8457 Z"/>
  </g>
  <g id="Light-M" transform="matrix(1 0 0 1 1096.66 1126)">
   <path d="M 56.3965 -85.498 C 49.6094 -85.498 44.7266 -80.7129 43.2129 -74.1699 C 40.1855 -73.291 37.5977 -71.8262 35.498 -70.0195 L 100.684 -4.73633 C 101.416 -5.46875 101.807 -6.49414 101.807 -7.71484 C 101.807 -12.6465 97.0215 -16.8945 92.9199 -21.2402 C 88.9648 -25.5371 88.5742 -34.3262 87.7441 -41.9922 C 86.9629 -58.3984 82.0312 -70.1172 69.6289 -74.1699 C 68.0664 -80.7129 63.1836 -85.498 56.3965 -85.498 Z M 100.684 10.9863 C 101.807 12.1582 103.711 12.1582 104.785 10.9863 C 105.957 9.81445 105.957 8.00781 104.785 6.88477 L 16.0156 -81.8848 C 14.8926 -83.0078 13.0371 -83.0566 11.8652 -81.8848 C 10.7422 -80.7617 10.7422 -78.8574 11.8652 -77.7344 Z M 16.6992 -2.97852 L 79.248 -2.97852 L 26.9043 -55.3711 C 25.8789 -51.3672 25.2441 -46.9238 25.0488 -41.9922 C 24.2188 -34.3262 23.8281 -25.5371 19.873 -21.2402 C 15.7715 -16.8945 11.0352 -12.6465 11.0352 -7.71484 C 11.0352 -4.88281 13.1836 -2.97852 16.6992 -2.97852 Z M 56.3965 14.9414 C 64.3066 14.9414 69.9219 9.27734 70.8008 2.73438 L 41.9922 2.73438 C 42.8711 9.27734 48.4863 14.9414 56.3965 14.9414 Z"/>
  </g>
  <g id="Thin-M" transform="matrix(1 0 0 1 799.904 1126)">
   <path d="M 56.4941 -85.0098 C 50.2441 -85.0098 45.5566 -80.4688 44.4824 -73.7305 C 40.8203 -72.8027 37.8418 -71.1426 35.4492 -68.8965 L 100.049 -4.24805 C 100.635 -4.78516 100.977 -5.51758 100.977 -6.54297 C 100.977 -11.4746 96.4844 -15.625 92.5781 -19.9219 C 87.6465 -25.4395 87.8418 -36.6699 86.4258 -47.0703 C 85.0586 -60.3516 80.1758 -70.5566 68.5059 -73.7305 C 67.4316 -80.4688 62.7441 -85.0098 56.4941 -85.0098 Z M 102.832 10.2051 C 103.516 10.8887 104.688 10.8887 105.371 10.2051 C 106.104 9.42383 106.055 8.34961 105.371 7.61719 L 15.1367 -82.6172 C 14.502 -83.252 13.3301 -83.3496 12.5488 -82.6172 C 11.8652 -81.8848 11.8652 -80.7617 12.5488 -80.0293 Z M 15.4785 -3.32031 L 82.7637 -3.32031 L 28.6133 -57.5195 C 27.5879 -54.3457 26.9043 -50.8789 26.5137 -47.0703 C 25.1465 -36.6699 25.3418 -25.4395 20.3613 -19.9219 C 16.5039 -15.625 12.0117 -11.4746 12.0117 -6.54297 C 12.0117 -4.58984 13.3789 -3.32031 15.4785 -3.32031 Z M 56.4941 12.4023 C 63.8672 12.4023 68.9941 7.27539 70.1172 1.02539 L 42.8711 1.02539 C 43.9941 7.27539 49.0723 12.4023 56.4941 12.4023 Z"/>
  </g>
  <g id="Ultralight-M" transform="matrix(1 0 0 1 503.193 1126)">
   <path d="M 56.543 -84.7168 C 50.5859 -84.7168 45.9473 -80.3711 45.1172 -73.4863 C 41.1621 -72.5586 37.9883 -70.752 35.4492 -68.3105 L 99.707 -4.00391 C 100.244 -4.44336 100.537 -5.07812 100.537 -5.9082 C 100.537 -10.8887 96.1914 -14.9414 92.4316 -19.2383 C 86.9629 -25.3906 87.4512 -37.8418 85.7422 -49.6582 C 84.082 -61.3281 79.1992 -70.8008 67.9688 -73.4863 C 67.0898 -80.3711 62.5 -84.7168 56.543 -84.7168 Z M 103.906 9.76562 C 104.395 10.2539 105.176 10.2539 105.664 9.76562 C 106.201 9.22852 106.152 8.49609 105.664 8.00781 L 14.6484 -82.959 C 14.2578 -83.3984 13.4766 -83.4961 12.9395 -82.959 C 12.4512 -82.4707 12.4512 -81.6895 12.9395 -81.25 Z M 14.8438 -3.4668 L 84.6191 -3.4668 L 29.4922 -58.6426 C 28.5156 -55.9082 27.7344 -52.8809 27.2949 -49.6582 C 25.5859 -37.8418 26.123 -25.3906 20.6543 -19.2383 C 16.8457 -14.9414 12.5 -10.8887 12.5 -5.9082 C 12.5 -4.44336 13.4766 -3.4668 14.8438 -3.4668 Z M 56.543 11.1328 C 63.6719 11.1328 68.5059 6.25 69.7754 0.195312 L 43.3105 0.195312 C 44.5312 6.25 49.3652 11.1328 56.543 11.1328 Z"/>
  </g>
  <g id="Black-S" transform="matrix(1 0 0 1 2885.3 696)">
   <path d="M 48.0957 -79.2969 C 42.4316 -79.2969 37.3047 -75.7324 35.1562 -70.459 C 33.3984 -69.8242 31.7383 -68.9453 30.2734 -67.8711 L 85.498 -12.6465 C 87.5977 -14.1602 88.8184 -16.6016 88.8184 -19.6289 C 88.8184 -24.6582 85.9863 -28.2715 82.0312 -31.1035 C 78.5645 -33.5938 78.1738 -39.4531 76.7578 -47.5586 C 74.8535 -58.4473 69.6777 -67.3828 61.0352 -70.459 C 58.8867 -75.7324 53.7598 -79.2969 48.0957 -79.2969 Z M 83.9355 3.90625 C 85.3027 5.27344 87.5488 5.27344 88.8672 3.90625 C 90.1855 2.53906 90.2344 0.341797 88.8672 -1.02539 L 15.5762 -74.2676 C 14.209 -75.6348 11.9629 -75.6348 10.5957 -74.2676 C 9.27734 -72.9492 9.27734 -70.6543 10.5957 -69.3359 Z M 16.3574 -10.9375 L 60.8398 -10.9375 L 20.2637 -51.4648 C 19.9707 -50.1953 19.6777 -48.877 19.4336 -47.5586 C 17.9199 -39.4531 17.627 -33.5938 14.1602 -31.1035 C 10.2051 -28.2715 7.37305 -24.6582 7.37305 -19.6289 C 7.37305 -14.4531 10.9863 -10.9375 16.3574 -10.9375 Z M 48.0957 6.83594 C 56.1523 6.83594 62.0117 1.51367 62.5 -5.07812 L 33.6914 -5.07812 C 34.1309 1.51367 40.0391 6.83594 48.0957 6.83594 Z"/>
  </g>
  <g id="Heavy-S" transform="matrix(1 0 0 1 2589.52 696)">
   <path d="M 47.168 -78.3203 C 41.4551 -78.3203 36.5723 -74.6094 34.5703 -69.4336 C 32.8125 -68.7988 31.1523 -67.9199 29.6875 -66.8457 L 84.082 -12.4512 C 85.8398 -13.7695 86.8652 -15.918 86.8652 -18.5059 C 86.8652 -23.2422 83.7402 -26.8066 79.9316 -29.7852 C 76.7578 -32.2266 76.2695 -37.7441 75.1465 -44.7266 C 73.6816 -56.7871 68.7988 -66.1621 59.7656 -69.4336 C 57.7148 -74.6094 52.8809 -78.3203 47.168 -78.3203 Z M 82.2754 3.41797 C 83.5938 4.73633 85.8398 4.73633 87.1582 3.41797 C 88.4277 2.05078 88.4766 -0.146484 87.1582 -1.46484 L 15.0879 -73.5352 C 13.7207 -74.8535 11.4746 -74.8535 10.1074 -73.5352 C 8.83789 -72.2168 8.83789 -69.9219 10.1074 -68.6035 Z M 15.8691 -10.6445 L 60.3516 -10.6445 L 20.0684 -50.8789 C 19.6289 -48.9746 19.3359 -46.9238 19.1406 -44.7266 C 17.9688 -37.7441 17.5293 -32.2266 14.3555 -29.7852 C 10.5469 -26.8066 7.4707 -23.2422 7.4707 -18.5059 C 7.4707 -13.8184 10.791 -10.6445 15.8691 -10.6445 Z M 47.168 6.73828 C 54.8828 6.73828 60.498 1.51367 60.9863 -4.78516 L 33.3008 -4.78516 C 33.7402 1.51367 39.4043 6.73828 47.168 6.73828 Z"/>
  </g>
  <g id="Bold-S" transform="matrix(1 0 0 1 2293.84 696)">
   <path d="M 46.0938 -77.1973 C 40.332 -77.1973 35.791 -73.3887 33.8867 -68.3105 C 32.1289 -67.627 30.4688 -66.7969 29.0527 -65.7227 L 82.5195 -12.207 C 83.8867 -13.3789 84.668 -15.0879 84.668 -17.2363 C 84.668 -21.6309 81.25 -25.1953 77.5879 -28.3203 C 74.7559 -30.6641 74.1211 -35.8398 73.3887 -41.6016 C 72.4121 -54.9805 67.8711 -64.7949 58.3008 -68.3105 C 56.4453 -73.3887 51.8555 -77.1973 46.0938 -77.1973 Z M 80.3711 2.83203 C 81.7383 4.15039 83.9355 4.15039 85.2051 2.83203 C 86.5234 1.51367 86.5723 -0.683594 85.2051 -2.00195 L 14.502 -72.6562 C 13.1348 -74.0234 10.9375 -74.0234 9.61914 -72.6562 C 8.30078 -71.3867 8.30078 -69.1406 9.61914 -67.8223 Z M 15.332 -10.2539 L 59.7656 -10.2539 L 19.873 -50.1953 C 19.2871 -47.6074 18.9453 -44.7266 18.7988 -41.6016 C 18.0176 -35.8398 17.4316 -30.6641 14.5996 -28.3203 C 10.9375 -25.1953 7.51953 -21.6309 7.51953 -17.2363 C 7.51953 -13.0859 10.5469 -10.2539 15.332 -10.2539 Z M 46.0938 6.64062 C 53.4668 6.64062 58.8379 1.5625 59.3262 -4.49219 L 32.9102 -4.49219 C 33.3008 1.5625 38.7207 6.64062 46.0938 6.64062 Z"/>
  </g>
  <g id="Semibold-S" transform="matrix(1 0 0 1 1997.83 696)">
   <path d="M 45.3613 -76.4648 C 39.5996 -76.4648 35.2051 -72.5586 33.4473 -67.5293 C 31.6406 -66.8457 30.0293 -65.9668 28.6133 -64.9414 L 81.3965 -12.0605 C 82.5195 -13.0859 83.1543 -14.5508 83.1543 -16.3574 C 83.1543 -20.5566 79.541 -24.0723 75.9766 -27.2949 C 73.3887 -29.5898 72.6562 -34.5215 72.168 -39.4531 C 71.4844 -53.7109 67.1875 -63.8184 57.3242 -67.5293 C 55.5176 -72.5586 51.1719 -76.4648 45.3613 -76.4648 Z M 79.1016 2.44141 C 80.4199 3.75977 82.6172 3.75977 83.8867 2.44141 C 85.1562 1.12305 85.2051 -1.02539 83.8867 -2.34375 L 14.1113 -72.0703 C 12.793 -73.4375 10.5957 -73.4375 9.27734 -72.0703 C 7.95898 -70.8008 7.95898 -68.5547 9.27734 -67.2852 Z M 14.9414 -10.0098 L 59.375 -10.0098 L 19.6777 -49.707 C 19.043 -46.6309 18.7012 -43.2129 18.6035 -39.4531 C 18.0664 -34.5215 17.334 -29.5898 14.7461 -27.2949 C 11.1816 -24.0723 7.56836 -20.5566 7.56836 -16.3574 C 7.56836 -12.5488 10.4004 -10.0098 14.9414 -10.0098 Z M 45.3613 6.5918 C 52.4902 6.5918 57.7148 1.5625 58.1543 -4.29688 L 32.6172 -4.29688 C 33.0078 1.5625 38.2324 6.5918 45.3613 6.5918 Z"/>
  </g>
  <g id="Medium-S" transform="matrix(1 0 0 1 1701.66 696)">
   <path d="M 44.8242 -75.8789 C 39.0137 -75.8789 34.7656 -71.9238 33.0566 -66.9434 C 31.2988 -66.2598 29.6875 -65.3809 28.2715 -64.3066 L 80.5664 -11.9141 C 81.4941 -12.8418 82.0312 -14.1602 82.0312 -15.6738 C 82.0312 -19.7266 78.2227 -23.2422 74.7559 -26.5137 C 72.3633 -28.7598 71.5332 -33.5449 71.2402 -37.793 C 70.8496 -52.7344 66.6992 -63.0859 56.543 -66.9434 C 54.8828 -71.9238 50.6348 -75.8789 44.8242 -75.8789 Z M 78.0762 2.14844 C 79.4434 3.4668 81.5918 3.4668 82.8613 2.14844 C 84.1797 0.830078 84.1797 -1.31836 82.8613 -2.63672 L 13.8184 -71.6309 C 12.5 -72.998 10.3027 -72.998 8.98438 -71.6309 C 7.71484 -70.3613 7.71484 -68.1641 8.98438 -66.8945 Z M 14.6484 -9.86328 L 59.082 -9.86328 L 19.5801 -49.3652 C 18.8477 -45.8984 18.457 -42.0898 18.4082 -37.793 C 18.0664 -33.5449 17.2852 -28.7598 14.8926 -26.5137 C 11.377 -23.2422 7.61719 -19.7266 7.61719 -15.6738 C 7.61719 -12.207 10.3027 -9.86328 14.6484 -9.86328 Z M 44.8242 6.54297 C 51.7578 6.54297 56.8359 1.5625 57.2754 -4.10156 L 32.373 -4.10156 C 32.8125 1.5625 37.8906 6.54297 44.8242 6.54297 Z"/>
  </g>
  <g id="Regular-S" transform="matrix(1 0 0 1 1405.66 696)">
   <path d="M 44.0918 -75.1465 C 38.2812 -75.1465 34.2285 -71.0449 32.6172 -66.1621 C 30.8594 -65.4785 29.248 -64.5996 27.832 -63.5254 L 79.4922 -11.7676 C 80.1758 -12.5488 80.5176 -13.623 80.5176 -14.7949 C 80.5176 -18.6035 76.5625 -22.1191 73.1445 -25.5371 C 70.9961 -27.7344 70.0684 -32.2754 70.0195 -35.6445 C 69.9219 -51.5137 66.0645 -62.1582 55.5664 -66.1621 C 53.9551 -71.0449 49.9512 -75.1465 44.0918 -75.1465 Z M 76.8066 1.75781 C 78.125 3.07617 80.2734 3.07617 81.543 1.75781 C 82.8125 0.439453 82.8613 -1.66016 81.543 -2.97852 L 13.4277 -71.0938 C 12.1094 -72.4121 9.96094 -72.4121 8.64258 -71.0938 C 7.37305 -69.8242 7.37305 -67.627 8.64258 -66.3574 Z M 14.2578 -9.61914 L 58.6914 -9.61914 L 19.4336 -48.877 C 18.6035 -44.9707 18.2129 -40.5762 18.2129 -35.6445 C 18.1152 -32.2754 17.2363 -27.7344 15.0391 -25.5371 C 11.6699 -22.1191 7.66602 -18.6035 7.66602 -14.7949 C 7.66602 -11.6699 10.1074 -9.61914 14.2578 -9.61914 Z M 44.0918 6.49414 C 50.7812 6.49414 55.7129 1.5625 56.1035 -3.90625 L 32.0801 -3.90625 C 32.5195 1.5625 37.4023 6.49414 44.0918 6.49414 Z"/>
  </g>
  <g id="Light-S" transform="matrix(1 0 0 1 1108.92 696)">
   <path d="M 44.1406 -74.8047 C 38.6719 -74.8047 34.7656 -70.8984 33.4473 -65.8691 C 31.2988 -65.1855 29.3945 -64.1113 27.832 -62.793 L 79.0527 -11.4746 C 79.6875 -12.1094 79.9805 -12.9883 79.9805 -14.0137 C 79.9805 -17.8711 76.1719 -21.2402 72.9004 -24.6582 C 70.0684 -27.6855 69.5801 -33.8379 69.1406 -39.0625 C 68.6523 -52.7832 64.7949 -62.4512 54.834 -65.8691 C 53.5156 -70.8984 49.6582 -74.8047 44.1406 -74.8047 Z M 78.2715 1.2207 C 79.2969 2.24609 80.957 2.24609 81.9336 1.2207 C 82.959 0.195312 82.959 -1.46484 81.9336 -2.49023 L 12.8418 -71.582 C 11.8164 -72.5586 10.1562 -72.6074 9.08203 -71.582 C 8.10547 -70.5566 8.10547 -68.8477 9.08203 -67.8711 Z M 13.4277 -9.86328 L 61.0352 -9.86328 L 20.6055 -50.3418 C 19.7754 -46.9727 19.2871 -43.2617 19.1895 -39.0625 C 18.7012 -33.8379 18.2129 -27.6855 15.3809 -24.6582 C 12.1582 -21.2402 8.34961 -17.8711 8.34961 -14.0137 C 8.34961 -11.5234 10.2539 -9.86328 13.4277 -9.86328 Z M 44.1406 4.78516 C 50.4883 4.78516 55.0781 0.244141 55.6641 -5.0293 L 32.666 -5.0293 C 33.252 0.244141 37.8418 4.78516 44.1406 4.78516 Z"/>
  </g>
  <g id="Thin-S" transform="matrix(1 0 0 1 812.16 696)">
   <path d="M 44.2383 -74.3164 C 39.2578 -74.3164 35.498 -70.752 34.5703 -65.4785 C 31.8359 -64.7461 29.5898 -63.4766 27.7832 -61.8164 L 78.5156 -11.0352 C 79.0039 -11.5234 79.248 -12.1582 79.248 -12.9883 C 79.248 -16.8457 75.6836 -20.1172 72.6074 -23.4863 C 68.8965 -27.5879 68.9453 -35.8887 67.9688 -43.5547 C 66.9922 -54.541 63.1348 -62.8418 53.9062 -65.4785 C 52.9785 -70.752 49.2188 -74.3164 44.2383 -74.3164 Z M 80.127 0.488281 C 80.7617 1.12305 81.8359 1.12305 82.4219 0.488281 C 83.1055 -0.146484 83.0566 -1.17188 82.4219 -1.80664 L 12.0117 -72.2168 C 11.4258 -72.8027 10.4004 -72.8516 9.7168 -72.2168 C 9.08203 -71.582 9.08203 -70.5078 9.7168 -69.9219 Z M 12.3535 -10.1562 L 64.1602 -10.1562 L 22.0703 -52.2949 C 21.2891 -49.6582 20.752 -46.7285 20.5078 -43.5547 C 19.5312 -35.8887 19.5801 -27.5879 15.8691 -23.4863 C 12.793 -20.1172 9.22852 -16.8457 9.22852 -12.9883 C 9.22852 -11.2793 10.4492 -10.1562 12.3535 -10.1562 Z M 44.2383 2.58789 C 50.1465 2.58789 54.248 -1.5625 55.0781 -6.49414 L 33.3984 -6.49414 C 34.2285 -1.5625 38.3301 2.58789 44.2383 2.58789 Z"/>
  </g>
  <g id="Ultralight-S" transform="matrix(1 0 0 1 515.424 696)">
   <path d="M 44.2871 -74.0723 C 39.5508 -74.0723 35.8887 -70.6055 35.1562 -65.2832 C 32.1777 -64.5508 29.6875 -63.1836 27.7832 -61.2793 L 78.1738 -10.8398 C 78.6621 -11.1816 78.9062 -11.7188 78.9062 -12.4512 C 78.9062 -16.3086 75.4395 -19.5312 72.4609 -22.9004 C 68.3105 -27.5391 68.6523 -36.9629 67.3828 -45.8496 C 66.1133 -55.4199 62.3047 -63.0371 53.3691 -65.2832 C 52.6367 -70.6055 49.0234 -74.0723 44.2871 -74.0723 Z M 81.1035 0.146484 C 81.543 0.585938 82.2754 0.585938 82.7148 0.146484 C 83.2031 -0.341797 83.1543 -1.02539 82.7148 -1.46484 L 11.6211 -72.5098 C 11.2305 -72.9004 10.498 -72.998 10.0586 -72.5098 C 9.61914 -72.1191 9.61914 -71.3867 10.0586 -70.9473 Z M 11.8164 -10.3027 L 65.7715 -10.3027 L 22.8516 -53.2715 C 22.0703 -51.0254 21.4844 -48.5352 21.1914 -45.8496 C 19.9219 -36.9629 20.2637 -27.5391 16.1133 -22.9004 C 13.0859 -19.5312 9.66797 -16.3086 9.66797 -12.4512 C 9.66797 -11.1816 10.5469 -10.3027 11.8164 -10.3027 Z M 44.2871 1.41602 C 49.9512 1.41602 53.8086 -2.49023 54.7363 -7.22656 L 33.7891 -7.22656 C 34.7656 -2.49023 38.623 1.41602 44.2871 1.41602 Z"/>
  </g>
 </g>
</svg>
