<?xml version="1.0" encoding="UTF-8"?>
<!--Generator: Apple Native CoreSVG 149-->
<!DOCTYPE svg
PUBLIC "-//W3C//DTD SVG 1.1//EN"
       "http://www.w3.org/Graphics/SVG/1.1/DTD/svg11.dtd">
<svg version="1.1" xmlns="http://www.w3.org/2000/svg" xmlns:xlink="http://www.w3.org/1999/xlink" width="3300" height="2200">
 <!--glyph: "uni10079B.medium", point size: 100.000000, font version: "Version 16.0d18e1", template writer version: "8"-->
 <g id="Notes">
  <rect height="2200" id="artboard" style="fill:white;opacity:1" width="3300" x="0" y="0"/>
  <line id="" style="fill:none;stroke:black;opacity:1;stroke-width:0.5;" x1="263" x2="3036" y1="292" y2="292"/>
  <text style="stroke:none;fill:black;font-family:-apple-system,&quot;SF Pro Display&quot;,&quot;SF Pro Text&quot;,Helvetica,sans-serif;font-weight:bold;" transform="matrix(1 0 0 1 263 322)">Weight/Scale Variations</text>
  <text style="stroke:none;fill:black;font-family:-apple-system,&quot;SF Pro Display&quot;,&quot;SF Pro Text&quot;,Helvetica,sans-serif;text-anchor:middle;" transform="matrix(1 0 0 1 559.711 322)">Ultralight</text>
  <text style="stroke:none;fill:black;font-family:-apple-system,&quot;SF Pro Display&quot;,&quot;SF Pro Text&quot;,Helvetica,sans-serif;text-anchor:middle;" transform="matrix(1 0 0 1 856.422 322)">Thin</text>
  <text style="stroke:none;fill:black;font-family:-apple-system,&quot;SF Pro Display&quot;,&quot;SF Pro Text&quot;,Helvetica,sans-serif;text-anchor:middle;" transform="matrix(1 0 0 1 1153.13 322)">Light</text>
  <text style="stroke:none;fill:black;font-family:-apple-system,&quot;SF Pro Display&quot;,&quot;SF Pro Text&quot;,Helvetica,sans-serif;text-anchor:middle;" transform="matrix(1 0 0 1 1449.84 322)">Regular</text>
  <text style="stroke:none;fill:black;font-family:-apple-system,&quot;SF Pro Display&quot;,&quot;SF Pro Text&quot;,Helvetica,sans-serif;text-anchor:middle;" transform="matrix(1 0 0 1 1746.56 322)">Medium</text>
  <text style="stroke:none;fill:black;font-family:-apple-system,&quot;SF Pro Display&quot;,&quot;SF Pro Text&quot;,Helvetica,sans-serif;text-anchor:middle;" transform="matrix(1 0 0 1 2043.27 322)">Semibold</text>
  <text style="stroke:none;fill:black;font-family:-apple-system,&quot;SF Pro Display&quot;,&quot;SF Pro Text&quot;,Helvetica,sans-serif;text-anchor:middle;" transform="matrix(1 0 0 1 2339.98 322)">Bold</text>
  <text style="stroke:none;fill:black;font-family:-apple-system,&quot;SF Pro Display&quot;,&quot;SF Pro Text&quot;,Helvetica,sans-serif;text-anchor:middle;" transform="matrix(1 0 0 1 2636.69 322)">Heavy</text>
  <text style="stroke:none;fill:black;font-family:-apple-system,&quot;SF Pro Display&quot;,&quot;SF Pro Text&quot;,Helvetica,sans-serif;text-anchor:middle;" transform="matrix(1 0 0 1 2933.4 322)">Black</text>
  <line id="" style="fill:none;stroke:black;opacity:1;stroke-width:0.5;" x1="263" x2="3036" y1="1903" y2="1903"/>
  <g id="" transform="matrix(1 0 0 1 263 1933)">
   <path d="M9.24805 0.830078C13.5547 0.830078 17.1387-2.74414 17.1387-7.05078C17.1387-11.3574 13.5449-14.9316 9.23828-14.9316C4.94141-14.9316 1.36719-11.3574 1.36719-7.05078C1.36719-2.74414 4.95117 0.830078 9.24805 0.830078ZM9.24805-0.654297C5.70312-0.654297 2.87109-3.49609 2.87109-7.05078C2.87109-10.6055 5.69336-13.4473 9.23828-13.4473C12.793-13.4473 15.6348-10.6055 15.6445-7.05078C15.6543-3.49609 12.8027-0.654297 9.24805-0.654297ZM6.39648-6.31836L8.50586-6.31836L8.50586-4.19922C8.50586-3.75977 8.79883-3.45703 9.22852-3.45703C9.67773-3.45703 9.9707-3.75977 9.9707-4.19922L9.9707-6.31836L12.0996-6.31836C12.5391-6.31836 12.8418-6.61133 12.8418-7.04102C12.8418-7.48047 12.5391-7.7832 12.0996-7.7832L9.9707-7.7832L9.9707-9.89258C9.9707-10.3418 9.67773-10.6445 9.22852-10.6445C8.79883-10.6445 8.50586-10.3418 8.50586-9.89258L8.50586-7.7832L6.39648-7.7832C5.94727-7.7832 5.64453-7.48047 5.64453-7.04102C5.64453-6.61133 5.94727-6.31836 6.39648-6.31836Z"/>
  </g>
  <g id="" transform="matrix(1 0 0 1 281.506 1933)">
   <path d="M11.709 2.91016C17.1582 2.91016 21.6699-1.61133 21.6699-7.05078C21.6699-12.5 17.1484-17.0117 11.6992-17.0117C6.25977-17.0117 1.74805-12.5 1.74805-7.05078C1.74805-1.61133 6.26953 2.91016 11.709 2.91016ZM11.709 1.25C7.09961 1.25 3.41797-2.44141 3.41797-7.05078C3.41797-11.6602 7.08984-15.3516 11.6992-15.3516C16.3086-15.3516 20-11.6602 20.0098-7.05078C20.0195-2.44141 16.3184 1.25 11.709 1.25ZM7.98828-6.23047L10.8789-6.23047L10.8789-3.32031C10.8789-2.83203 11.2109-2.5 11.6895-2.5C12.1777-2.5 12.5195-2.83203 12.5195-3.32031L12.5195-6.23047L15.4297-6.23047C15.918-6.23047 16.25-6.5625 16.25-7.04102C16.25-7.5293 15.918-7.87109 15.4297-7.87109L12.5195-7.87109L12.5195-10.7617C12.5195-11.2695 12.1777-11.6016 11.6895-11.6016C11.2109-11.6016 10.8789-11.2598 10.8789-10.7617L10.8789-7.87109L7.98828-7.87109C7.48047-7.87109 7.14844-7.5293 7.14844-7.04102C7.14844-6.5625 7.49023-6.23047 7.98828-6.23047Z"/>
  </g>
  <g id="" transform="matrix(1 0 0 1 304.924 1933)">
   <path d="M14.9707 5.66406C21.9336 5.66406 27.6953-0.0976562 27.6953-7.05078C27.6953-14.0137 21.9238-19.7754 14.9609-19.7754C8.00781-19.7754 2.25586-14.0137 2.25586-7.05078C2.25586-0.0976562 8.01758 5.66406 14.9707 5.66406ZM14.9707 3.84766C8.93555 3.84766 4.08203-1.01562 4.08203-7.05078C4.08203-13.0957 8.92578-17.9492 14.9609-17.9492C21.0059-17.9492 25.8594-13.0957 25.8691-7.05078C25.8789-1.01562 21.0156 3.84766 14.9707 3.84766ZM10.0586-6.14258L14.0625-6.14258L14.0625-2.12891C14.0625-1.5918 14.4336-1.2207 14.9512-1.2207C15.4883-1.2207 15.8594-1.5918 15.8594-2.12891L15.8594-6.14258L19.8828-6.14258C20.4102-6.14258 20.791-6.51367 20.791-7.03125C20.791-7.56836 20.4199-7.94922 19.8828-7.94922L15.8594-7.94922L15.8594-11.9531C15.8594-12.5098 15.4883-12.8809 14.9512-12.8809C14.4336-12.8809 14.0625-12.5 14.0625-11.9531L14.0625-7.94922L10.0586-7.94922C9.50195-7.94922 9.13086-7.56836 9.13086-7.03125C9.13086-6.51367 9.51172-6.14258 10.0586-6.14258Z"/>
  </g>
  <text style="stroke:none;fill:black;font-family:-apple-system,&quot;SF Pro Display&quot;,&quot;SF Pro Text&quot;,Helvetica,sans-serif;font-weight:bold;" transform="matrix(1 0 0 1 263 1953)">Design Variations</text>
  <text style="stroke:none;fill:black;font-family:-apple-system,&quot;SF Pro Display&quot;,&quot;SF Pro Text&quot;,Helvetica,sans-serif;" transform="matrix(1 0 0 1 263 1971)">Symbols are supported in up to nine weights and three scales.</text>
  <text style="stroke:none;fill:black;font-family:-apple-system,&quot;SF Pro Display&quot;,&quot;SF Pro Text&quot;,Helvetica,sans-serif;" transform="matrix(1 0 0 1 263 1989)">For optimal layout with text and other symbols, vertically align</text>
  <text style="stroke:none;fill:black;font-family:-apple-system,&quot;SF Pro Display&quot;,&quot;SF Pro Text&quot;,Helvetica,sans-serif;" transform="matrix(1 0 0 1 263 2007)">symbols with the adjacent text.</text>
  <line id="" style="fill:none;stroke:#00AEEF;stroke-width:0.5;opacity:1.0;" x1="776" x2="776" y1="1919" y2="1933"/>
  <g id="" transform="matrix(1 0 0 1 776 1933)">
   <path d="M3.31055 0.126953C3.82812 0.126953 4.08203-0.0683594 4.26758-0.605469L5.52734-4.0625L11.2891-4.0625L12.5488-0.605469C12.7344-0.0683594 12.9883 0.126953 13.4961 0.126953C14.0137 0.126953 14.3457-0.185547 14.3457-0.673828C14.3457-0.839844 14.3164-0.986328 14.2383-1.20117L9.6582-13.3887C9.43359-13.9941 9.0332-14.2871 8.4082-14.2871C7.80273-14.2871 7.39258-13.9941 7.17773-13.3984L2.59766-1.19141C2.51953-0.976562 2.49023-0.830078 2.49023-0.664062C2.49023-0.175781 2.80273 0.126953 3.31055 0.126953ZM6.00586-5.53711L8.37891-12.1094L8.42773-12.1094L10.8008-5.53711Z"/>
  </g>
  <line id="" style="fill:none;stroke:#00AEEF;stroke-width:0.5;opacity:1.0;" x1="792.836" x2="792.836" y1="1919" y2="1933"/>
  <text style="stroke:none;fill:black;font-family:-apple-system,&quot;SF Pro Display&quot;,&quot;SF Pro Text&quot;,Helvetica,sans-serif;font-weight:bold;" transform="matrix(1 0 0 1 776 1953)">Margins</text>
  <text style="stroke:none;fill:black;font-family:-apple-system,&quot;SF Pro Display&quot;,&quot;SF Pro Text&quot;,Helvetica,sans-serif;" transform="matrix(1 0 0 1 776 1971)">Leading and trailing margins on the left and right side of each symbol</text>
  <text style="stroke:none;fill:black;font-family:-apple-system,&quot;SF Pro Display&quot;,&quot;SF Pro Text&quot;,Helvetica,sans-serif;" transform="matrix(1 0 0 1 776 1989)">can be adjusted by modifying the x-location of the margin guidelines.</text>
  <text style="stroke:none;fill:black;font-family:-apple-system,&quot;SF Pro Display&quot;,&quot;SF Pro Text&quot;,Helvetica,sans-serif;" transform="matrix(1 0 0 1 776 2007)">Modifications are automatically applied proportionally to all</text>
  <text style="stroke:none;fill:black;font-family:-apple-system,&quot;SF Pro Display&quot;,&quot;SF Pro Text&quot;,Helvetica,sans-serif;" transform="matrix(1 0 0 1 776 2025)">scales and weights.</text>
  <g id="" transform="matrix(1 0 0 1 1289 1933)">
   <path d="M2.8418 1.86523L4.54102 3.57422C5.40039 4.44336 6.38672 4.38477 7.31445 3.35938L17.4902-7.85156C17.7539-7.76367 18.0273-7.7832 18.3398-7.8418L19.4043-8.03711L20.0684-7.36328L20.0293-6.80664C19.9902-6.30859 20.1172-5.92773 20.6055-5.44922L21.3672-4.70703C21.8457-4.22852 22.4609-4.19922 22.9297-4.66797L25.8398-7.58789C26.3086-8.05664 26.2891-8.65234 25.8105-9.13086L25.0391-9.89258C24.5605-10.3711 24.1895-10.5273 23.7109-10.4883L23.1348-10.4395L22.4902-11.0742L22.7344-12.1973C22.8613-12.7637 22.7051-13.2031 22.1191-13.7891L19.9219-15.9766C16.582-19.2969 12.1484-19.2188 9.25781-16.3281C8.83789-15.918 8.80859-15.3418 9.04297-14.9512C9.27734-14.5898 9.73633-14.3555 10.3809-14.5215C11.8457-14.8633 13.3691-14.9219 14.7949-13.9844L14.209-12.5293C14.0137-12.0508 13.9844-11.6504 14.1113-11.2891L3.04688-0.898438C2.06055 0.0195312 1.98242 0.996094 2.8418 1.86523ZM10.752-15.957C13.1836-17.7344 16.4746-17.4316 18.7012-15.2051L21.1328-12.793C21.3672-12.5586 21.4062-12.373 21.3379-12.0312L21.0156-10.5469L22.5195-9.0625L23.5059-9.12109C23.7598-9.13086 23.8379-9.11133 24.0332-8.91602L24.6094-8.33984L22.168-5.89844L21.5918-6.47461C21.3965-6.66992 21.3672-6.74805 21.377-7.01172L21.4453-7.98828L19.9512-9.47266L18.4277-9.21875C18.1055-9.15039 17.959-9.17969 17.7148-9.41406L15.7129-11.416C15.459-11.6504 15.4297-11.8164 15.5859-12.1875L16.4648-14.2773C14.9023-15.7324 12.8711-16.3574 10.8398-15.7617C10.6836-15.7227 10.625-15.8496 10.752-15.957ZM5.27344 2.30469L4.10156 1.14258C3.63281 0.683594 3.74023 0.341797 4.14062-0.0195312L14.9512-10.1953L16.416-8.71094L6.42578 2.27539C6.07422 2.67578 5.74219 2.77344 5.27344 2.30469Z"/>
  </g>
  <text style="stroke:none;fill:black;font-family:-apple-system,&quot;SF Pro Display&quot;,&quot;SF Pro Text&quot;,Helvetica,sans-serif;font-weight:bold;" transform="matrix(1 0 0 1 1289 1953)">Exporting</text>
  <text style="stroke:none;fill:black;font-family:-apple-system,&quot;SF Pro Display&quot;,&quot;SF Pro Text&quot;,Helvetica,sans-serif;" transform="matrix(1 0 0 1 1289 1971)">Symbols should be outlined when exporting to ensure the</text>
  <text style="stroke:none;fill:black;font-family:-apple-system,&quot;SF Pro Display&quot;,&quot;SF Pro Text&quot;,Helvetica,sans-serif;" transform="matrix(1 0 0 1 1289 1989)">design is preserved when submitting to Xcode.</text>
  <text id="template-version" style="stroke:none;fill:black;font-family:-apple-system,&quot;SF Pro Display&quot;,&quot;SF Pro Text&quot;,Helvetica,sans-serif;text-anchor:end;" transform="matrix(1 0 0 1 3036 1933)">Template v.2.0</text>
  <text style="stroke:none;fill:black;font-family:-apple-system,&quot;SF Pro Display&quot;,&quot;SF Pro Text&quot;,Helvetica,sans-serif;text-anchor:end;" transform="matrix(1 0 0 1 3036 1951)">Requires Xcode 12 or greater</text>
  <text style="stroke:none;fill:black;font-family:-apple-system,&quot;SF Pro Display&quot;,&quot;SF Pro Text&quot;,Helvetica,sans-serif;text-anchor:end;" transform="matrix(1 0 0 1 3036 1969)">Generated from checkmark.shield</text>
  <text style="stroke:none;fill:black;font-family:-apple-system,&quot;SF Pro Display&quot;,&quot;SF Pro Text&quot;,Helvetica,sans-serif;text-anchor:end;" transform="matrix(1 0 0 1 3036 1987)">Typeset at 100 points</text>
  <text style="stroke:none;fill:black;font-family:-apple-system,&quot;SF Pro Display&quot;,&quot;SF Pro Text&quot;,Helvetica,sans-serif;" transform="matrix(1 0 0 1 263 726)">Small</text>
  <text style="stroke:none;fill:black;font-family:-apple-system,&quot;SF Pro Display&quot;,&quot;SF Pro Text&quot;,Helvetica,sans-serif;" transform="matrix(1 0 0 1 263 1156)">Medium</text>
  <text style="stroke:none;fill:black;font-family:-apple-system,&quot;SF Pro Display&quot;,&quot;SF Pro Text&quot;,Helvetica,sans-serif;" transform="matrix(1 0 0 1 263 1586)">Large</text>
 </g>
 <g id="Guides">
  <g id="H-reference" style="fill:#27AAE1;stroke:none;" transform="matrix(1 0 0 1 339 696)">
   <path d="M0.976562 0L3.66211 0L12.9883-24.4629L45.752-24.4629L55.127 0L57.7637 0L30.6152-70.459L28.125-70.459ZM29.3457-67.1387L29.4434-67.1387L44.873-26.709L13.8672-26.709Z"/>
  </g>
  <line id="Baseline-S" style="fill:none;stroke:#27AAE1;opacity:1;stroke-width:0.5;" x1="263" x2="3036" y1="696" y2="696"/>
  <line id="Capline-S" style="fill:none;stroke:#27AAE1;opacity:1;stroke-width:0.5;" x1="263" x2="3036" y1="625.541" y2="625.541"/>
  <g id="H-reference" style="fill:#27AAE1;stroke:none;" transform="matrix(1 0 0 1 339 1126)">
   <path d="M0.976562 0L3.66211 0L12.9883-24.4629L45.752-24.4629L55.127 0L57.7637 0L30.6152-70.459L28.125-70.459ZM29.3457-67.1387L29.4434-67.1387L44.873-26.709L13.8672-26.709Z"/>
  </g>
  <line id="Baseline-M" style="fill:none;stroke:#27AAE1;opacity:1;stroke-width:0.5;" x1="263" x2="3036" y1="1126" y2="1126"/>
  <line id="Capline-M" style="fill:none;stroke:#27AAE1;opacity:1;stroke-width:0.5;" x1="263" x2="3036" y1="1055.54" y2="1055.54"/>
  <g id="H-reference" style="fill:#27AAE1;stroke:none;" transform="matrix(1 0 0 1 339 1556)">
   <path d="M0.976562 0L3.66211 0L12.9883-24.4629L45.752-24.4629L55.127 0L57.7637 0L30.6152-70.459L28.125-70.459ZM29.3457-67.1387L29.4434-67.1387L44.873-26.709L13.8672-26.709Z"/>
  </g>
  <line id="Baseline-L" style="fill:none;stroke:#27AAE1;opacity:1;stroke-width:0.5;" x1="263" x2="3036" y1="1556" y2="1556"/>
  <line id="Capline-L" style="fill:none;stroke:#27AAE1;opacity:1;stroke-width:0.5;" x1="263" x2="3036" y1="1485.54" y2="1485.54"/>
  <line id="left-margin" style="fill:none;stroke:#00AEEF;stroke-width:0.5;opacity:1.0;" x1="1390.47" x2="1390.47" y1="1030.79" y2="1150.12"/>
  <line id="right-margin" style="fill:none;stroke:#00AEEF;stroke-width:0.5;opacity:1.0;" x1="1509.22" x2="1509.22" y1="1030.79" y2="1150.12"/>
 </g>
 <g id="Symbols">
  <g id="Black-L" transform="matrix(1 0 0 1 2856.81 1556)">
   <path d="M79.0527 31.6895C80.4688 31.6895 82.4219 31.1035 84.1309 30.2734C121.777 11.6699 135.4 0.634766 135.4-22.5586L135.4-68.3105C135.4-78.6621 132.227-83.2031 122.998-87.1582C117.725-89.4531 94.7754-96.8262 90.0879-98.2422C86.7188-99.2676 82.373-99.9023 79.0527-99.9023C75.7812-99.9023 71.4355-99.1699 68.0664-98.2422C63.3789-97.0215 40.3809-89.4043 35.1562-87.1582C25.9277-83.2031 22.7539-78.6621 22.7539-68.3105L22.7539-22.5586C22.7539 0.634766 36.377 11.6699 73.9746 30.2734C75.6836 31.1035 77.6855 31.6895 79.0527 31.6895ZM79.0527 11.7676C78.5156 11.7676 78.0273 11.6699 76.3184 10.5957C48.584-6.5918 41.1621-9.81445 41.1621-25.0977L41.1621-66.0156C41.1621-68.3594 41.748-69.3848 43.457-70.1172C52.1484-73.6328 68.2617-78.8574 73.2422-80.6152C76.0254-81.4941 77.4902-81.8359 79.0527-81.8359C80.6641-81.8359 82.1289-81.4941 84.9121-80.6152C89.8438-78.8574 105.957-73.4863 114.697-70.1172C116.406-69.4336 116.992-68.3594 116.992-66.0156L116.992-25.0977C116.992-9.32617 108.154-4.73633 81.8359 10.5957C80.127 11.6211 79.6387 11.7676 79.0527 11.7676ZM72.6074-8.34961C75.5859-8.34961 78.2715-9.91211 79.9805-12.4512L106.934-52.8809C108.105-54.5898 108.74-56.3965 108.74-58.0566C108.74-62.3535 104.932-65.4297 100.732-65.4297C97.9492-65.4297 95.752-63.9648 93.8477-60.9863L72.5586-27.1973L63.5254-37.9883C61.8164-39.9902 59.9609-40.9668 57.5195-40.9668C53.2715-40.9668 49.707-37.5488 49.707-33.252C49.707-31.25 50.3418-29.6387 51.9531-27.6855L65.0391-12.3047C67.1387-9.76562 69.5312-8.34961 72.6074-8.34961Z"/>
  </g>
  <g id="Heavy-L" transform="matrix(1 0 0 1 2560.42 1556)">
   <path d="M77.9297 31.1523C79.2969 31.1523 81.1523 30.6152 82.8125 29.7852C119.922 10.7422 133.154 0.439453 133.154-22.5098L133.154-68.75C133.154-78.2715 130.127-82.2266 121.729-85.8398C115.723-88.3789 93.1152-95.8496 87.5488-97.6562C84.5703-98.5352 80.8594-99.1211 77.9297-99.1211C75-99.1211 71.2891-98.4375 68.3105-97.6562C62.793-96.0938 40.1367-88.3301 34.1309-85.8398C25.7812-82.2754 22.7539-78.2715 22.7539-68.75L22.7539-22.5098C22.7539 0.439453 35.9863 10.6934 73.0469 29.7852C74.707 30.6152 76.6113 31.1523 77.9297 31.1523ZM77.9297 13.6719C77.2949 13.6719 76.6113 13.4766 74.9512 12.4512C46.875-4.98047 38.8184-8.64258 38.8184-24.9023L38.8184-66.6504C38.8184-69.0918 39.4043-70.1172 41.2109-70.8496C49.9023-74.4141 66.9434-79.9805 72.8027-82.1777C75.1953-82.959 76.5625-83.3008 77.9297-83.3008C79.2969-83.3008 80.6641-82.959 83.0566-82.1777C88.916-79.9805 105.859-74.2188 114.648-70.8496C116.504-70.166 117.09-69.0918 117.09-66.6504L117.09-24.9023C117.09-8.30078 107.959-3.56445 80.957 12.4512C79.248 13.4277 78.6133 13.6719 77.9297 13.6719ZM71.3867-7.95898C74.0723-7.95898 76.4648-9.32617 78.0762-11.6699L105.713-53.6133C106.738-55.2246 107.373-56.8848 107.373-58.3984C107.373-62.2559 103.955-64.9902 100.244-64.9902C97.7539-64.9902 95.752-63.6719 94.0918-61.0352L71.2891-24.8535L61.1328-37.1094C59.5703-39.0625 57.8613-39.9414 55.6641-39.9414C51.8066-39.9414 48.6816-36.8652 48.6816-33.0566C48.6816-31.2012 49.2676-29.6875 50.6836-27.9785L64.502-11.5723C66.4551-9.22852 68.6035-7.95898 71.3867-7.95898Z"/>
  </g>
  <g id="Bold-L" transform="matrix(1 0 0 1 2264.05 1556)">
   <path d="M76.6602 30.5664C77.9297 30.5664 79.7363 30.0293 81.2988 29.1992C117.871 9.76562 130.615 0.244141 130.615-22.4121L130.615-69.2871C130.615-77.832 127.734-81.1523 120.312-84.3262C113.477-87.1582 91.2598-94.7754 84.7168-96.9238C82.2266-97.7051 79.1992-98.2422 76.6602-98.2422C74.1699-98.2422 71.1426-97.6074 68.6035-96.9238C62.0605-95.0195 39.8926-87.1094 33.0566-84.3262C25.6348-81.2012 22.7051-77.832 22.7051-69.2871L22.7051-22.4121C22.7051 0.244141 35.5469 9.66797 72.0215 29.1992C73.6328 30.0293 75.4395 30.5664 76.6602 30.5664ZM76.6602 15.7715C75.8789 15.7715 75.0488 15.5273 73.4375 14.4531C44.9707-3.125 36.1816-7.32422 36.1816-24.6094L36.1816-67.334C36.1816-69.9219 36.7676-70.9473 38.6719-71.7285C47.4121-75.2441 65.4297-81.2988 72.3633-83.9355C74.3164-84.5703 75.5371-84.8633 76.6602-84.8633C77.832-84.8633 79.0527-84.5703 81.0059-83.9355C87.8906-81.2988 105.811-75 114.648-71.7285C116.602-70.9961 117.139-69.9219 117.139-67.334L117.139-24.6094C117.139-7.08008 107.666-2.24609 79.9316 14.4531C78.2715 15.4785 77.4414 15.7715 76.6602 15.7715ZM70.0195-7.51953C72.4121-7.51953 74.4629-8.74023 75.8789-10.8398L104.346-54.4922C105.225-55.8594 105.859-57.373 105.859-58.7891C105.859-62.1582 102.881-64.4531 99.6582-64.4531C97.5586-64.4531 95.8008-63.3301 94.3359-61.0352L69.873-22.2168L58.4961-36.1816C57.0312-38.0371 55.4688-38.7695 53.5156-38.7695C50.1953-38.7695 47.5098-36.1328 47.5098-32.7637C47.5098-31.2012 48.0957-29.7852 49.2676-28.3203L63.9648-10.7422C65.6738-8.64258 67.5781-7.51953 70.0195-7.51953Z"/>
  </g>
  <g id="Semibold-L" transform="matrix(1 0 0 1 1967.58 1556)">
   <path d="M75.7812 30.1758C77.002 30.1758 78.7109 29.6387 80.2734 28.8086C116.455 9.08203 128.857 0.0976562 128.857-22.3633L128.857-69.6777C128.857-77.5391 126.074-80.4199 119.336-83.3008C111.914-86.3281 89.9902-93.9941 82.7637-96.4355C80.5664-97.168 78.0273-97.6562 75.7812-97.6562C73.584-97.6562 71.0449-97.0703 68.7988-96.4355C61.6211-94.2871 39.6973-86.2793 32.2754-83.3008C25.5371-80.4688 22.7051-77.5391 22.7051-69.6777L22.7051-22.3633C22.7051 0.0976562 35.2539 8.93555 71.3379 28.8086C72.9004 29.6387 74.6094 30.1758 75.7812 30.1758ZM75.7812 17.2363C74.9023 17.2363 74.0234 16.8945 72.3633 15.8691C43.6523-1.85547 34.4238-6.44531 34.4238-24.4141L34.4238-67.8223C34.4238-70.459 34.9609-71.4844 36.9629-72.3145C45.752-75.8301 64.4043-82.1777 72.0215-85.1562C73.6816-85.7422 74.8047-85.9863 75.7812-85.9863C76.8066-85.9863 77.9297-85.6934 79.5898-85.1562C87.1582-82.1777 105.762-75.5371 114.648-72.3145C116.65-71.5332 117.188-70.459 117.188-67.8223L117.188-24.4141C117.188-6.29883 107.471-1.31836 79.248 15.8691C77.5879 16.8945 76.6602 17.2363 75.7812 17.2363ZM69.0918-7.22656C71.2402-7.22656 73.0957-8.34961 74.4141-10.2539L103.369-55.0781C104.199-56.3477 104.834-57.7637 104.834-59.082C104.834-62.0605 102.148-64.1113 99.3164-64.1113C97.4609-64.1113 95.8008-63.0859 94.5312-61.084L68.8965-20.3613L56.6895-35.5469C55.2734-37.3047 53.8574-37.9883 52.0508-37.9883C49.1211-37.9883 46.7285-35.5957 46.7285-32.6172C46.7285-31.1523 47.2656-29.834 48.291-28.5156L63.5742-10.2051C65.1855-8.20312 66.8945-7.22656 69.0918-7.22656Z"/>
  </g>
  <g id="Medium-L" transform="matrix(1 0 0 1 1671.07 1556)">
   <path d="M75.1465 29.834C76.3184 29.834 77.9785 29.3457 79.4922 28.5156C115.381 8.54492 127.539 0 127.539-22.3145L127.539-69.9707C127.539-77.2949 124.854-79.8828 118.555-82.5195C110.742-85.6934 89.0625-93.457 81.2988-96.0938C79.3457-96.7285 77.1484-97.168 75.1465-97.168C73.1445-97.168 70.9473-96.6309 68.9941-96.0938C61.2305-93.7012 39.5508-85.6445 31.6895-82.5195C25.4395-79.9316 22.7051-77.2949 22.7051-69.9707L22.7051-22.3145C22.7051 0 35.0098 8.39844 70.8008 28.5156C72.3145 29.3457 73.9746 29.834 75.1465 29.834ZM75.1465 18.3594C74.2188 18.3594 73.1934 17.9688 71.582 16.9434C42.627-0.878906 33.0566-5.76172 33.0566-24.2676L33.0566-68.1641C33.0566-70.8984 33.5938-71.9238 35.6445-72.7539C44.4336-76.2695 63.623-82.8613 71.7773-86.0352C73.1934-86.5723 74.2676-86.8164 75.1465-86.8164C76.0254-86.8164 77.0508-86.5723 78.5156-86.0352C86.6211-82.8613 105.713-75.9766 114.648-72.7539C116.699-71.9727 117.236-70.8984 117.236-68.1641L117.236-24.2676C117.236-5.66406 107.324-0.634766 78.7109 16.9434C77.0996 17.9688 76.0742 18.3594 75.1465 18.3594ZM68.4082-7.03125C70.3613-7.03125 72.0703-8.00781 73.2422-9.81445L102.686-55.5664C103.369-56.6895 104.004-58.0078 104.004-59.2773C104.004-62.0117 101.611-63.8672 99.0234-63.8672C97.3633-63.8672 95.8496-62.8906 94.6777-61.084L68.1641-18.9941L55.2734-35.0586C53.9551-36.7676 52.6367-37.3535 50.9766-37.3535C48.291-37.3535 46.1426-35.2051 46.1426-32.4707C46.1426-31.1523 46.6309-29.8828 47.5586-28.7109L63.2812-9.76562C64.7949-7.91016 66.3574-7.03125 68.4082-7.03125Z"/>
  </g>
  <g id="Regular-L" transform="matrix(1 0 0 1 1374.58 1556)">
   <path d="M74.2676 29.4434C75.3906 29.4434 77.002 29.0039 78.4668 28.125C113.965 7.86133 125.83-0.146484 125.83-22.2656L125.83-70.3125C125.83-77.002 123.193-79.1504 117.578-81.4941C109.18-84.8633 87.793-92.7246 79.3945-95.6055C77.7344-96.1914 75.9766-96.582 74.2676-96.582C72.5586-96.582 70.8496-96.0938 69.1895-95.6055C60.791-92.9688 39.3555-84.8145 30.957-81.4941C25.3418-79.248 22.7051-77.002 22.7051-70.3125L22.7051-22.2656C22.7051-0.146484 34.7168 7.66602 70.0684 28.125C71.582 29.0039 73.1934 29.4434 74.2676 29.4434ZM74.2676 19.8242C73.2422 19.8242 72.1191 19.3359 70.5078 18.3105C41.3086 0.341797 31.25-4.88281 31.25-24.1211L31.25-68.6523C31.25-71.4355 31.7871-72.5098 33.9355-73.3398C42.7246-76.8555 62.6465-83.7891 71.4355-87.2559C72.5586-87.6953 73.5352-87.9395 74.2676-87.9395C75-87.9395 75.9766-87.6953 77.0996-87.2559C85.9375-83.7891 105.664-76.5137 114.648-73.3398C116.748-72.5586 117.285-71.4355 117.285-68.6523L117.285-24.1211C117.285-4.88281 107.178 0.244141 78.0273 18.3105C76.416 19.3359 75.293 19.8242 74.2676 19.8242ZM67.4805-6.73828C69.2383-6.73828 70.7031-7.61719 71.7773-9.22852L101.758-56.1523C102.344-57.1777 102.979-58.3984 102.979-59.5215C102.979-61.9141 100.879-63.5254 98.6328-63.5254C97.2168-63.5254 95.8496-62.6953 94.873-61.084L67.2363-17.1875L53.4668-34.4238C52.2461-36.084 51.0254-36.5723 49.5117-36.5723C47.168-36.5723 45.3613-34.7168 45.3613-32.3242C45.3613-31.1523 45.8496-29.9805 46.582-28.9551L62.8906-9.22852C64.2578-7.4707 65.6738-6.73828 67.4805-6.73828Z"/>
  </g>
  <g id="Light-L" transform="matrix(1 0 0 1 1079.7 1556)">
   <path d="M72.8027 28.6133C74.0723 28.6133 75.6836 28.0273 77.002 27.2461C112.012 6.68945 123.291-0.585938 123.291-21.6309L123.291-69.3848C123.291-76.2207 121.045-78.418 114.99-80.8105C105.273-84.668 87.4512-91.3574 77.6855-94.7754C76.0742-95.3125 74.4629-95.7031 72.8027-95.7031C71.1914-95.7031 69.5801-95.2637 67.9688-94.7754C58.252-91.4062 40.3809-84.6191 30.6641-80.8105C24.6094-78.4668 22.3633-76.2207 22.3633-69.3848L22.3633-21.6309C22.3633-0.585938 33.8379 6.39648 68.6523 27.2461C69.9707 28.0273 71.582 28.6133 72.8027 28.6133ZM72.8027 21.3867C71.7773 21.3867 70.5566 20.8008 69.2871 19.9219C39.9902 1.51367 28.9062-3.75977 28.9062-22.8027L28.9062-68.1641C28.9062-71.8262 29.5898-73.1445 32.2754-74.2188C40.0879-77.3438 61.7188-85.2051 69.5312-88.2324C70.8496-88.8184 72.0215-89.1113 72.8027-89.1113C73.6328-89.1113 74.7559-88.7695 76.123-88.2324C83.9355-85.2051 105.469-77.0996 113.379-74.2188C116.064-73.1934 116.748-71.8262 116.748-68.1641L116.748-22.8027C116.748-3.75977 105.566 1.36719 76.3672 19.9219C75.0977 20.8008 73.877 21.3867 72.8027 21.3867ZM66.0645-6.78711C67.4316-6.78711 68.5059-7.4707 69.3848-8.64258L100.879-57.7637C101.318-58.4961 101.758-59.4727 101.758-60.3027C101.758-62.1094 100.146-63.3789 98.4375-63.3789C97.3633-63.3789 96.2891-62.6953 95.5078-61.5723L65.8691-14.9414L50.293-33.7891C49.3652-35.0098 48.4375-35.4004 47.2656-35.4004C45.459-35.4004 44.043-33.9844 44.043-32.1289C44.043-31.2012 44.4336-30.2734 45.0195-29.4434L62.5977-8.64258C63.623-7.32422 64.6484-6.78711 66.0645-6.78711Z"/>
  </g>
  <g id="Thin-L" transform="matrix(1 0 0 1 785.402 1556)">
   <path d="M70.8984 27.4902C72.3145 27.4902 73.9258 26.7578 75 26.0742C109.424 5.12695 119.922-1.2207 119.922-20.8008L119.922-68.1641C119.922-75.0977 118.115-77.4414 111.523-79.9805C100.049-84.3262 87.0117-89.5996 75.4883-93.6523C73.877-94.1895 72.4609-94.5801 70.8984-94.5801C69.3359-94.5801 67.9199-94.1895 66.3086-93.6523C54.8828-89.3555 41.6992-84.3262 30.2734-79.9805C23.6816-77.4902 21.875-75.0977 21.875-68.1641L21.875-20.8008C21.875-1.2207 32.666 4.6875 66.7969 26.0742C67.8711 26.7578 69.4824 27.4902 70.8984 27.4902ZM70.8984 23.4375C69.7754 23.4375 68.457 22.7051 67.627 22.0703C38.2324 3.02734 25.7812-2.29492 25.7812-20.9961L25.7812-67.4805C25.7812-72.3145 26.6602-74.0234 30.127-75.3906C36.5723-77.9785 60.498-87.1094 67.041-89.5996C68.5547-90.2832 70.0195-90.6738 70.8984-90.6738C71.7773-90.6738 73.1445-90.2344 74.7559-89.5996C81.2988-87.1094 105.176-77.9297 111.67-75.3906C115.088-74.0234 116.016-72.3145 116.016-67.4805L116.016-20.9961C116.016-2.29492 103.418 2.7832 74.1699 22.0703C73.3398 22.7051 72.0215 23.4375 70.8984 23.4375ZM64.209-6.88477C64.9902-6.88477 65.625-7.27539 66.1621-7.91016L99.707-59.8633C99.9512-60.3027 100.146-60.8887 100.146-61.2793C100.146-62.3047 99.1699-63.2324 98.1934-63.2324C97.5098-63.2324 96.875-62.7441 96.3867-62.1582L64.1113-12.0117L46.0938-32.9102C45.5566-33.5449 44.9707-33.8379 44.2383-33.8379C43.2129-33.8379 42.2852-33.0078 42.2852-31.8848C42.2852-31.2988 42.5781-30.7129 42.9688-30.1758L62.207-7.91016C62.793-7.17773 63.3301-6.88477 64.209-6.88477Z"/>
  </g>
  <g id="Ultralight-L" transform="matrix(1 0 0 1 489.936 1556)">
   <path d="M69.9219 26.9531C71.3867 26.9531 72.998 26.0742 74.0234 25.4883C108.105 4.29688 118.213-1.5625 118.213-20.3613L118.213-67.5293C118.213-74.5605 116.65-76.9043 109.766-79.541C97.4121-84.1797 86.7676-88.7207 74.3652-93.0664C72.7539-93.6035 71.4355-94.043 69.9219-94.043C68.4082-94.043 67.0898-93.6523 65.4785-93.0664C53.1738-88.3301 42.4316-84.1797 30.0781-79.541C23.1934-77.002 21.6309-74.5605 21.6309-67.5293L21.6309-20.3613C21.6309-1.5625 32.0801 3.80859 65.8203 25.4883C66.7969 26.0742 68.4082 26.9531 69.9219 26.9531ZM69.9219 24.5117C68.7988 24.5117 67.3828 23.6816 66.748 23.1445C37.3047 3.80859 24.1699-1.51367 24.1699-20.1172L24.1699-67.0898C24.1699-72.5586 25.1953-74.5117 29.0039-76.0254C34.7656-78.2715 59.8633-88.0859 65.7227-90.2832C67.4316-91.0645 68.9941-91.4551 69.9219-91.4551C70.8008-91.4551 72.3145-90.9668 74.0723-90.2832C79.9316-88.0859 105.078-78.3203 110.84-76.0254C114.648-74.4629 115.625-72.5586 115.625-67.0898L115.625-20.1172C115.625-1.51367 102.344 3.51562 73.0469 23.1445C72.4609 23.6816 71.0449 24.5117 69.9219 24.5117ZM63.2324-6.88477C63.7695-6.88477 64.1113-7.17773 64.502-7.51953L99.1211-60.9863C99.2188-61.1816 99.3164-61.5723 99.3164-61.8164C99.3164-62.4023 98.6816-63.1348 98.0469-63.1348C97.6074-63.1348 97.1191-62.793 96.8262-62.4512L63.1836-10.498L43.9453-32.4707C43.6523-32.8125 43.2617-33.0566 42.6758-33.0566C42.0898-33.0566 41.4062-32.5195 41.4062-31.7383C41.4062-31.3477 41.6016-30.957 41.8945-30.5176L62.0117-7.51953C62.3535-7.08008 62.6465-6.88477 63.2324-6.88477Z"/>
  </g>
  <g id="Black-M" transform="matrix(1 0 0 1 2874.61 1126)">
   <path d="M62.0117 16.9434C63.2812 16.9434 64.8926 16.3574 66.2109 15.7227C95.8008 1.66016 106.592-7.4707 106.592-25.1465L106.592-59.7168C106.592-68.9941 104.15-73.291 95.6055-76.9531C91.8457-78.5645 75.4395-83.5449 72.3145-84.4727C69.1406-85.4004 65.0391-85.9863 62.0117-85.9863C58.9844-85.9863 54.8828-85.3516 51.709-84.4727C48.584-83.5938 32.1777-78.5645 28.3691-76.9531C19.873-73.291 17.4316-68.9941 17.4316-59.7168L17.4316-25.1465C17.4316-7.4707 28.2227 1.66016 57.8125 15.7227C59.1309 16.3574 60.7422 16.9434 62.0117 16.9434ZM62.0117-0.488281C61.7188-0.488281 61.4746-0.537109 60.3027-1.31836C39.209-14.6484 33.7402-16.5039 33.7402-27.002L33.7402-57.959C33.7402-60.1074 34.3262-61.084 35.8398-61.7188C41.9434-64.2578 54.1992-68.2129 56.2988-68.8477C59.082-69.6777 60.498-70.0684 62.0117-70.0684C63.5254-70.0684 64.9414-69.6777 67.7246-68.8477C69.8242-68.2129 82.0801-64.2578 88.1836-61.7188C89.6973-61.084 90.2832-60.1074 90.2832-57.959L90.2832-27.002C90.2832-16.0156 83.3008-12.5977 63.7207-1.31836C62.5488-0.634766 62.3047-0.488281 62.0117-0.488281ZM57.1777-14.9414C59.6191-14.9414 61.8652-16.2598 63.3301-18.3105L84.082-48.7305C85.0586-50.1465 85.4492-51.5625 85.4492-52.832C85.4492-56.4453 82.2266-59.1797 78.6621-59.1797C76.2207-59.1797 74.3652-57.9102 72.7539-55.4199L57.1777-31.0059L50.7324-38.1348C49.4629-39.5508 47.9492-40.4297 45.9473-40.4297C42.2852-40.4297 39.209-37.5488 39.209-33.8867C39.209-32.2266 39.6973-30.957 41.1621-29.248L50.9277-18.1152C52.5879-16.1621 54.5898-14.9414 57.1777-14.9414Z"/>
  </g>
  <g id="Heavy-M" transform="matrix(1 0 0 1 2577.75 1126)">
   <path d="M61.1816 16.5527C62.3047 16.5527 63.8672 16.0645 65.1367 15.4297C94.2871 1.02539 104.785-7.51953 104.785-25.2441L104.785-60.498C104.785-68.75 102.393-72.4609 94.9219-75.6348C90.6738-77.4414 73.7305-82.8125 69.9707-83.9844C67.2852-84.8145 63.8184-85.3516 61.1816-85.3516C58.4961-85.3516 55.0293-84.7656 52.3438-83.9844C48.584-82.959 31.6406-77.4414 27.3926-75.6348C19.9219-72.4609 17.5293-68.75 17.5293-60.498L17.5293-25.2441C17.5293-7.51953 28.0273 0.976562 57.1777 15.4297C58.4961 16.0645 60.0098 16.5527 61.1816 16.5527ZM61.1816 1.17188C60.7422 1.17188 60.3516 1.02539 59.1309 0.292969C37.6953-13.1348 31.8359-15.5273 31.8359-27.0996L31.8359-58.7891C31.8359-60.8398 32.3242-61.7188 33.7891-62.3047C40.2344-64.9414 52.9785-69.1406 56.3477-70.3125C58.6426-70.9961 59.8633-71.3379 61.1816-71.3379C62.4512-71.3379 63.6719-70.9961 65.9668-70.3125C69.3359-69.1406 82.0801-64.8926 88.5254-62.3047C89.9902-61.7188 90.4785-60.8398 90.4785-58.7891L90.4785-27.0996C90.4785-15.1367 83.4473-11.5723 63.1836 0.292969C61.9629 0.976562 61.5723 1.17188 61.1816 1.17188ZM56.2012-14.502C58.4473-14.502 60.498-15.6738 61.8164-17.627L82.959-49.1211C83.8379-50.4395 84.2773-51.8066 84.2773-53.0273C84.2773-56.2988 81.3965-58.6914 78.1738-58.6914C75.9766-58.6914 74.3164-57.5684 72.8516-55.3223L56.1523-29.0039L48.9746-37.4023C47.7051-38.8184 46.2891-39.5996 44.4824-39.5996C41.1621-39.5996 38.4277-37.0117 38.4277-33.6914C38.4277-32.1777 38.916-30.957 40.1855-29.4434L50.4395-17.4805C52.0508-15.625 53.8574-14.502 56.2012-14.502Z"/>
  </g>
  <g id="Bold-M" transform="matrix(1 0 0 1 2280.9 1126)">
   <path d="M60.2051 16.1621C61.2305 16.1621 62.6465 15.7227 63.9648 15.0391C92.627 0.244141 102.783-7.61719 102.783-25.3418L102.783-61.3281C102.783-68.5059 100.439-71.4844 94.1406-74.1699C89.3555-76.2207 71.875-82.0312 67.3828-83.4961C65.1855-84.1797 62.4023-84.6191 60.2051-84.6191C58.0078-84.6191 55.2246-84.082 53.0273-83.4961C48.584-82.2266 31.0547-76.1719 26.2695-74.1699C19.9707-71.5332 17.627-68.5059 17.627-61.3281L17.627-25.3418C17.627-7.61719 27.832 0.195312 56.4941 15.0391C57.7637 15.7227 59.1797 16.1621 60.2051 16.1621ZM60.2051 3.02734C59.668 3.02734 59.1309 2.83203 57.8613 2.05078C35.9863-11.4746 29.6875-14.4043 29.6875-27.1973L29.6875-59.7168C29.6875-61.6211 30.127-62.4023 31.543-62.9883C38.2812-65.7227 51.6602-70.1172 56.3965-71.9238C58.1543-72.4609 59.1797-72.7051 60.2051-72.7051C61.2305-72.7051 62.2559-72.4609 64.0137-71.9238C68.7988-70.1172 82.0312-65.5762 88.8672-62.9883C90.332-62.4023 90.7715-61.6211 90.7715-59.7168L90.7715-27.1973C90.7715-14.1602 83.6426-10.4492 62.5977 2.05078C61.2793 2.83203 60.7422 3.02734 60.2051 3.02734ZM55.127-14.0137C57.1777-14.0137 58.9844-15.0879 60.1562-16.8457L81.6895-49.6094C82.4707-50.7812 82.959-52.0508 82.959-53.2227C82.959-56.1523 80.4199-58.2031 77.5879-58.2031C75.7324-58.2031 74.2188-57.1777 72.9492-55.2246L55.0293-26.7578L47.0215-36.5723C45.752-38.0371 44.4824-38.6719 42.8223-38.6719C39.8926-38.6719 37.5488-36.377 37.5488-33.4961C37.5488-32.1289 38.0371-30.957 39.0625-29.6387L49.9023-16.748C51.3672-14.9902 53.0273-14.0137 55.127-14.0137Z"/>
  </g>
  <g id="Semibold-M" transform="matrix(1 0 0 1 1984.09 1126)">
   <path d="M59.5703 15.8691C60.498 15.8691 61.8652 15.4785 63.1348 14.7949C91.4551-0.244141 101.416-7.66602 101.416-25.4395L101.416-61.9141C101.416-68.3594 99.1211-70.8496 93.6035-73.1934C88.4766-75.3418 70.5566-81.4941 65.625-83.1055C63.7207-83.7402 61.4746-84.1309 59.5703-84.1309C57.666-84.1309 55.3711-83.6426 53.5156-83.1055C48.584-81.7383 30.6641-75.293 25.4883-73.1934C20.0195-70.8496 17.6758-68.3594 17.6758-61.9141L17.6758-25.4395C17.6758-7.66602 27.6855-0.292969 56.0059 14.7949C57.2754 15.4785 58.6426 15.8691 59.5703 15.8691ZM59.5703 4.29688C58.9355 4.29688 58.3008 4.10156 56.9336 3.22266C34.8633-10.3027 28.1738-13.6719 28.1738-27.2461L28.1738-60.3516C28.1738-62.1582 28.5645-62.8906 29.9805-63.4277C36.9629-66.2598 50.6836-70.8008 56.3965-72.998C57.8125-73.4863 58.6914-73.6816 59.5703-73.6816C60.4004-73.6816 61.2793-73.4863 62.6953-72.998C68.4082-70.8008 82.0312-66.0156 89.1602-63.4277C90.5273-62.9395 90.918-62.1582 90.918-60.3516L90.918-27.2461C90.918-13.4766 83.7402-9.7168 62.1582 3.22266C60.791 4.05273 60.1562 4.29688 59.5703 4.29688ZM54.3945-13.6719C56.25-13.6719 57.9102-14.6484 59.0332-16.3086L80.8594-49.9512C81.543-51.0254 82.0801-52.2461 82.0801-53.3691C82.0801-56.0059 79.7363-57.8613 77.1973-57.8613C75.5859-57.8613 74.1699-56.9336 73.0469-55.127L54.248-25.2441L45.6543-35.9863C44.4336-37.5 43.2129-38.0371 41.6504-38.0371C39.0625-38.0371 36.9629-35.9863 36.9629-33.3496C36.9629-32.0801 37.4023-30.957 38.3301-29.7852L49.5605-16.2598C50.9277-14.5508 52.4414-13.6719 54.3945-13.6719Z"/>
  </g>
  <g id="Medium-M" transform="matrix(1 0 0 1 1687.3 1126)">
   <path d="M59.0332 15.625C59.9121 15.625 61.2305 15.332 62.5 14.6484C90.5762-0.634766 100.342-7.71484 100.342-25.4883L100.342-62.3535C100.342-68.2129 98.0957-70.3125 93.1641-72.4121C87.793-74.707 69.5312-81.0547 64.2578-82.8613C62.5977-83.3984 60.7422-83.7402 59.0332-83.7402C57.373-83.7402 55.4688-83.3008 53.8574-82.8613C48.584-81.3477 30.3223-74.6582 24.9512-72.4121C20.0195-70.3613 17.7734-68.2129 17.7734-62.3535L17.7734-25.4883C17.7734-7.71484 27.5391-0.732422 55.6152 14.6484C56.8848 15.332 58.2031 15.625 59.0332 15.625ZM59.0332 5.27344C58.3496 5.27344 57.666 5.0293 56.25 4.15039C33.9844-9.42383 27.0508-13.0859 27.0508-27.2949L27.0508-60.791C27.0508-62.5488 27.3926-63.2324 28.7598-63.8184C35.9863-66.6992 50-71.3379 56.4453-73.877C57.5684-74.2676 58.3496-74.4141 59.0332-74.4141C59.7656-74.4141 60.5469-74.2676 61.6699-73.877C68.1152-71.3379 82.0312-66.4062 89.3066-63.8184C90.7227-63.2812 91.0645-62.5488 91.0645-60.791L91.0645-27.2949C91.0645-12.9883 83.8379-9.13086 61.8652 4.15039C60.4492 5.0293 59.7656 5.27344 59.0332 5.27344ZM53.8086-13.4277C55.6152-13.4277 57.1289-14.3066 58.1543-15.918L80.1758-50.1953C80.8594-51.2207 81.3965-52.3926 81.3965-53.5156C81.3965-55.957 79.248-57.5684 76.9043-57.5684C75.4395-57.5684 74.1211-56.7383 73.0957-55.0781L53.6621-24.0723L44.5801-35.5469C43.4082-37.0605 42.2363-37.5977 40.8203-37.5977C38.3789-37.5977 36.4746-35.6445 36.4746-33.2031C36.4746-32.0312 36.9141-30.957 37.7441-29.8828L49.2676-15.8691C50.5859-14.209 52.002-13.4277 53.8086-13.4277Z"/>
  </g>
  <g id="Regular-M" transform="matrix(1 0 0 1 1390.47 1126)">
   <path d="M58.3984 15.3809C59.1797 15.3809 60.4492 15.0879 61.6699 14.4043C89.4531-1.17188 98.9746-7.76367 98.9746-25.5859L98.9746-62.9395C98.9746-68.0664 96.7773-69.6777 92.627-71.4355C86.8652-73.8281 68.2617-80.5176 62.5-82.5195C61.1816-82.959 59.7656-83.252 58.3984-83.252C57.0312-83.252 55.6152-82.8613 54.3457-82.5195C48.584-80.8594 29.9316-73.7793 24.1699-71.4355C20.0684-69.7266 17.8223-68.0664 17.8223-62.9395L17.8223-25.5859C17.8223-7.76367 27.3926-1.2207 55.127 14.4043C56.3965 15.0879 57.6172 15.3809 58.3984 15.3809ZM58.3984 6.54297C57.6172 6.54297 56.8359 6.25 55.3711 5.37109C32.8125-8.30078 25.5859-12.3047 25.5859-27.3926L25.5859-61.4258C25.5859-63.0859 25.8789-63.7207 27.2461-64.2578C34.668-67.1875 49.0723-72.0215 56.4453-74.9512C57.2266-75.293 57.8613-75.3906 58.3984-75.3906C58.9355-75.3906 59.5703-75.2441 60.3516-74.9512C67.7246-72.0215 82.0312-66.8457 89.5996-64.2578C90.918-63.7695 91.2109-63.0859 91.2109-61.4258L91.2109-27.3926C91.2109-12.3047 83.9844-8.34961 61.4258 5.37109C60.0098 6.25 59.1797 6.54297 58.3984 6.54297ZM53.0762-13.1348C54.6875-13.1348 56.0547-13.916 57.0312-15.3809L79.3457-50.5371C79.9316-51.4648 80.5176-52.5391 80.5176-53.6621C80.5176-55.8105 78.5645-57.2266 76.5625-57.2266C75.293-57.2266 74.0723-56.4941 73.1445-55.0293L52.8809-22.5098L43.2617-34.9609C42.0898-36.5234 41.0156-36.9629 39.6973-36.9629C37.5488-36.9629 35.8887-35.2539 35.8887-33.0566C35.8887-32.0312 36.3281-30.957 37.0117-30.0293L48.9258-15.3809C50.1465-13.7695 51.4648-13.1348 53.0762-13.1348Z"/>
  </g>
  <g id="Light-M" transform="matrix(1 0 0 1 1095.42 1126)">
   <path d="M57.0801 14.5996C58.0078 14.5996 59.2285 14.209 60.3516 13.5742C87.6953-2.24609 96.7285-8.20312 96.7285-25L96.7285-62.1094C96.7285-67.334 94.7754-69.043 90.2832-70.8496C83.3496-73.6328 67.9199-79.3457 60.9863-81.7383C59.7168-82.1777 58.3984-82.4707 57.0801-82.4707C55.7617-82.4707 54.4922-82.1289 53.2227-81.7383C46.2891-79.4922 30.8594-73.584 23.9258-70.8496C19.4336-69.0918 17.4805-67.334 17.4805-62.1094L17.4805-25C17.4805-8.20312 26.6113-2.39258 53.8574 13.5742C54.9316 14.209 56.2012 14.5996 57.0801 14.5996ZM57.0801 7.91016C56.2988 7.91016 55.3711 7.51953 54.248 6.78711C31.5918-7.27539 23.4863-11.3281 23.4863-26.1719L23.4863-60.9863C23.4863-63.4277 23.9258-64.3066 25.7812-65.0391C32.2754-67.627 48.2422-73.3398 54.7363-75.8789C55.6641-76.2695 56.4941-76.4648 57.0801-76.4648C57.666-76.4648 58.4961-76.2207 59.4238-75.8789C65.9668-73.3398 81.8359-67.4316 88.4277-65.0391C90.2832-64.3555 90.7227-63.4277 90.7227-60.9863L90.7227-26.1719C90.7227-11.3281 82.5195-7.37305 59.9609 6.78711C58.7891 7.51953 57.9102 7.91016 57.0801 7.91016ZM51.8066-13.1836C53.0762-13.1836 54.1016-13.7695 54.834-14.8926L78.5645-51.9531C79.0039-52.6855 79.4434-53.5156 79.4434-54.2969C79.4434-55.957 77.9297-57.1289 76.3672-57.1289C75.3906-57.1289 74.4629-56.4941 73.7305-55.4199L51.6602-20.5078L40.3809-34.375C39.5508-35.5469 38.6719-35.8887 37.6465-35.8887C36.0352-35.8887 34.7168-34.5703 34.7168-32.9102C34.7168-32.0801 35.0586-31.25 35.5957-30.5176L48.6328-14.8926C49.6094-13.6719 50.5371-13.1836 51.8066-13.1836Z"/>
  </g>
  <g id="Thin-M" transform="matrix(1 0 0 1 800.856 1126)">
   <path d="M55.3711 13.623C56.3965 13.623 57.666 13.0859 58.5449 12.5488C85.3516-3.61328 93.7012-8.74023 93.7012-24.2188L93.7012-61.0352C93.7012-66.3574 92.1875-68.1641 87.1582-70.0684C78.6621-73.3398 67.5293-77.7832 58.9844-80.7129C57.7148-81.1523 56.5918-81.4941 55.3711-81.4941C54.1504-81.4941 53.0273-81.1523 51.7578-80.7129C43.2617-77.6367 32.0312-73.3398 23.5352-70.0684C18.5547-68.2129 17.041-66.3574 17.041-61.0352L17.041-24.2188C17.041-8.74023 25.5859-3.95508 52.1484 12.5488C53.0762 13.0859 54.2969 13.623 55.3711 13.623ZM55.3711 9.81445C54.4922 9.81445 53.5156 9.22852 52.7344 8.69141C29.9805-5.9082 20.6543-10.0098 20.6543-24.6094L20.6543-60.3516C20.6543-63.8672 21.2891-65.1367 23.8281-66.1133C29.1016-68.2129 47.168-75.0488 52.4902-77.0508C53.6621-77.5879 54.6875-77.832 55.3711-77.832C56.0059-77.832 57.0312-77.5391 58.252-77.0508C63.5742-75.0488 81.5918-68.1152 86.9141-66.1133C89.4043-65.1367 90.0879-63.8672 90.0879-60.3516L90.0879-24.6094C90.0879-10.0098 80.6152-6.05469 57.959 8.69141C57.2266 9.22852 56.2012 9.81445 55.3711 9.81445ZM50.1465-13.2324C50.8789-13.2324 51.4648-13.5742 51.9531-14.209L77.5391-53.8574C77.7344-54.248 77.9785-54.7852 77.9785-55.2246C77.9785-56.1523 77.0996-56.9824 76.1719-56.9824C75.5371-56.9824 74.9512-56.543 74.5117-55.957L50.0488-17.8711L36.6211-33.6426C36.1328-34.2285 35.5957-34.4727 34.9609-34.4727C33.9844-34.4727 33.1543-33.7402 33.1543-32.666C33.1543-32.1777 33.3984-31.6406 33.7402-31.1523L48.291-14.209C48.877-13.5254 49.3652-13.2324 50.1465-13.2324Z"/>
  </g>
  <g id="Ultralight-M" transform="matrix(1 0 0 1 505.268 1126)">
   <path d="M54.4922 13.1348C55.6152 13.1348 56.8359 12.5 57.666 12.0117C84.1797-4.3457 92.1387-9.0332 92.1387-23.8281L92.1387-60.4492C92.1387-65.8691 90.8203-67.6758 85.5957-69.6777C76.2695-73.1934 67.2852-76.9531 57.959-80.2246C56.6895-80.6641 55.6641-80.957 54.4922-80.957C53.2715-80.957 52.2461-80.6641 50.9766-80.2246C41.6992-76.709 32.666-73.1934 23.3887-69.6777C18.1152-67.7734 16.8457-65.8691 16.8457-60.4492L16.8457-23.8281C16.8457-9.0332 25.0488-4.73633 51.3184 12.0117C52.0996 12.5 53.3691 13.1348 54.4922 13.1348ZM54.4922 10.7422C53.6133 10.7422 52.5391 10.1074 52.002 9.66797C29.1992-5.22461 19.2383-9.32617 19.2383-23.7793L19.2383-60.0586C19.2383-64.0625 19.9707-65.5273 22.8027-66.6504C27.4902-68.5059 46.582-75.9277 51.3184-77.6855C52.5879-78.2715 53.8086-78.5645 54.4922-78.5645C55.1758-78.5645 56.2988-78.1738 57.6172-77.6855C62.3535-75.9277 81.4453-68.5059 86.1328-66.6504C88.9648-65.5273 89.7461-64.0625 89.7461-60.0586L89.7461-23.7793C89.7461-9.32617 79.6387-5.41992 56.9824 9.66797C56.3965 10.1074 55.3711 10.7422 54.4922 10.7422ZM49.3164-13.2812C49.8047-13.2812 50.1465-13.5254 50.4883-13.8672L77.002-54.834C77.0996-55.0781 77.2461-55.4199 77.2461-55.6641C77.2461-56.25 76.6602-56.8848 76.0254-56.8848C75.6348-56.8848 75.1953-56.5918 74.9023-56.2012L49.2676-16.5039L34.7168-33.252C34.4238-33.5938 34.0332-33.7891 33.5449-33.7891C32.959-33.7891 32.373-33.3008 32.373-32.5684C32.373-32.2266 32.5195-31.8359 32.7637-31.4941L48.0957-13.8672C48.4863-13.4277 48.7793-13.2812 49.3164-13.2812Z"/>
  </g>
  <g id="Black-S" transform="matrix(1 0 0 1 2887.31 696)">
   <path d="M48.5352 5.61523C49.5117 5.61523 50.7812 5.17578 51.8066 4.6875C74.9512-6.34766 83.3984-13.4766 83.3984-27.3438L83.3984-54.4922C83.3984-61.6699 81.4941-64.9902 74.9023-67.8223C71.9238-69.0918 58.9844-73.0469 56.4941-73.7793C54.0527-74.5117 50.8789-74.9512 48.5352-74.9512C46.1914-74.9512 43.0176-74.4629 40.5762-73.7793C38.0859-73.0957 25.1465-69.0918 22.168-67.8223C15.5762-64.9902 13.6719-61.6699 13.6719-54.4922L13.6719-27.3438C13.6719-13.4766 22.1191-6.34766 45.2637 4.6875C46.2891 5.17578 47.5586 5.61523 48.5352 5.61523ZM48.5352-7.91016C48.291-7.91016 48.0957-7.95898 47.168-8.54492C30.6152-18.9941 26.3184-20.5078 26.3184-28.8086L26.3184-53.125C26.3184-54.7852 26.7578-55.5176 27.9297-56.0059C32.7637-58.0078 42.3828-61.1328 44.1406-61.6699C46.2891-62.3047 47.3633-62.5977 48.5352-62.5977C49.707-62.5977 50.7812-62.3047 52.9297-61.6699C54.6875-61.1328 64.3066-58.0078 69.1406-56.0059C70.3125-55.5176 70.752-54.7852 70.752-53.125L70.752-28.8086C70.752-20.1172 65.2832-17.4316 49.9023-8.54492C48.9746-8.00781 48.7793-7.91016 48.5352-7.91016ZM44.7266-19.2871C46.6309-19.2871 48.3887-20.3125 49.5117-21.9238L65.7715-45.8008C66.5527-46.9238 66.8457-48.0469 66.8457-49.0234C66.8457-51.8555 64.3555-53.9551 61.5723-53.9551C59.668-53.9551 58.252-52.9785 56.9824-51.0254L44.7266-31.7871L39.6484-37.4512C38.623-38.5742 37.4512-39.2578 35.8887-39.2578C33.0566-39.2578 30.6641-37.0117 30.6641-34.1797C30.6641-32.8613 31.0547-31.8848 32.1777-30.5664L39.8438-21.7773C41.1621-20.2637 42.7246-19.2871 44.7266-19.2871Z"/>
  </g>
  <g id="Heavy-S" transform="matrix(1 0 0 1 2590.3 696)">
   <path d="M48.0469 5.41992C48.9258 5.41992 50.0977 5.0293 51.123 4.54102C74.0234-6.73828 82.2754-13.4766 82.2754-27.4902L82.2754-55.1758C82.2754-61.5723 80.3711-64.4043 74.6094-66.8945C71.4355-68.2617 57.7148-72.6562 54.8828-73.4863C52.7832-74.1699 50.0977-74.5605 48.0469-74.5605C45.9961-74.5605 43.2617-74.0723 41.1621-73.4863C38.3301-72.7539 24.6582-68.2617 21.4355-66.8945C15.6738-64.4043 13.7695-61.5723 13.7695-55.1758L13.7695-27.4902C13.7695-13.4766 22.0703-6.73828 44.9219 4.54102C45.9473 5.0293 47.168 5.41992 48.0469 5.41992ZM48.0469-6.78711C47.7051-6.78711 47.4121-6.88477 46.3867-7.51953C29.5898-17.9688 25.0977-19.873 25.0977-29.0039L25.0977-53.8086C25.0977-55.2734 25.4395-55.9082 26.5625-56.3965C31.6895-58.4961 41.5527-61.6699 44.3359-62.6953C46.0938-63.1836 47.0215-63.4277 48.0469-63.4277C49.0234-63.4277 49.9512-63.1836 51.709-62.6953C54.4922-61.6699 64.3066-58.3984 69.5312-56.3965C70.6055-55.957 70.9961-55.2734 70.9961-53.8086L70.9961-29.0039C70.9961-19.5801 65.5762-16.7969 49.6582-7.51953C48.6328-6.93359 48.3398-6.78711 48.0469-6.78711ZM44.1406-18.9453C45.9473-18.9453 47.5586-19.9219 48.6328-21.4355L64.9902-45.9473C65.7227-47.0215 66.0645-48.0957 66.0645-49.0723C66.0645-51.709 63.7695-53.6133 61.2305-53.6133C59.4727-53.6133 58.1543-52.7344 56.9824-50.9277L44.0918-30.4688L38.623-36.9629C37.5977-38.1348 36.4746-38.7695 34.9609-38.7695C32.373-38.7695 30.1758-36.6699 30.1758-34.0332C30.1758-32.8125 30.5664-31.8359 31.5918-30.6641L39.502-21.3379C40.7715-19.8242 42.2363-18.9453 44.1406-18.9453Z"/>
  </g>
  <g id="Bold-S" transform="matrix(1 0 0 1 2293.27 696)">
   <path d="M47.4609 5.17578C48.2422 5.17578 49.3652 4.88281 50.3906 4.3457C72.9492-7.17773 81.0059-13.4766 81.0059-27.6367L81.0059-55.9082C81.0059-61.4746 79.1016-63.7695 74.3164-65.8691C70.8496-67.334 56.2988-72.168 53.0762-73.1934C51.3672-73.7305 49.1699-74.0723 47.4609-74.0723C45.752-74.0723 43.5547-73.6816 41.8457-73.1934C38.623-72.3633 24.0723-67.334 20.6055-65.8691C15.8203-63.7695 13.916-61.4746 13.916-55.9082L13.916-27.6367C13.916-13.4766 21.9727-7.17773 44.5312 4.3457C45.5566 4.88281 46.6797 5.17578 47.4609 5.17578ZM47.4609-5.56641C47.0215-5.56641 46.6309-5.66406 45.5566-6.34766C28.4668-16.7969 23.6816-19.1406 23.6816-29.248L23.6816-54.541C23.6816-55.8594 23.9746-56.3965 25-56.7871C30.5176-59.0332 40.625-62.3047 44.5801-63.7695C45.9473-64.209 46.6797-64.4043 47.4609-64.4043C48.2422-64.4043 48.9746-64.209 50.3418-63.7695C54.2969-62.3047 64.3066-58.8867 69.9219-56.7871C70.9473-56.3965 71.2402-55.8594 71.2402-54.541L71.2402-29.248C71.2402-18.9453 65.8691-16.0156 49.3652-6.34766C48.291-5.66406 47.9004-5.56641 47.4609-5.56641ZM43.457-18.6035C45.1172-18.6035 46.6309-19.4336 47.6074-20.9473L64.1602-46.1426C64.7949-47.1191 65.2344-48.1934 65.2344-49.1699C65.2344-51.5625 63.0859-53.2227 60.791-53.2227C59.2773-53.2227 58.0566-52.4414 56.9824-50.7812L43.3594-29.0039L37.4512-36.377C36.4258-37.6465 35.3516-38.1836 33.9844-38.1836C31.5918-38.1836 29.6875-36.2793 29.6875-33.8867C29.6875-32.7637 30.0781-31.7871 30.9082-30.7617L39.1602-20.8496C40.3809-19.3848 41.748-18.6035 43.457-18.6035Z"/>
  </g>
  <g id="Semibold-S" transform="matrix(1 0 0 1 1996.34 696)">
   <path d="M47.0703 5.0293C47.7539 5.0293 48.8281 4.78516 49.8535 4.24805C72.2168-7.4707 80.1758-13.4766 80.1758-27.7344L80.1758-56.4453C80.1758-61.4258 78.2715-63.3301 74.0723-65.1367C70.459-66.6992 55.3223-71.875 51.8555-72.998C50.3906-73.4863 48.584-73.7793 47.0703-73.7793C45.5566-73.7793 43.75-73.3887 42.2852-72.998C38.8184-72.1191 23.6816-66.6504 20.0195-65.1367C15.8691-63.3789 13.9648-61.4258 13.9648-56.4453L13.9648-27.7344C13.9648-13.4766 21.9238-7.51953 44.2871 4.24805C45.3125 4.78516 46.3867 5.0293 47.0703 5.0293ZM47.0703-4.6875C46.582-4.6875 46.0938-4.83398 44.9707-5.51758C27.6367-16.0156 22.7539-18.6523 22.7539-29.3945L22.7539-55.0781C22.7539-56.2012 22.998-56.6895 23.9258-57.0801C29.7363-59.4238 39.9902-62.6953 44.7754-64.5508C45.8008-64.8926 46.4355-65.0391 47.0703-65.0391C47.7051-65.0391 48.3398-64.8926 49.3652-64.5508C54.1504-62.6953 64.3066-59.1797 70.2148-57.0801C71.1426-56.7383 71.3867-56.2012 71.3867-55.0781L71.3867-29.3945C71.3867-18.5059 66.1133-15.5273 49.1699-5.51758C47.998-4.83398 47.5586-4.6875 47.0703-4.6875ZM43.0176-18.3105C44.5801-18.3105 45.9961-19.1406 46.9238-20.5566L63.5742-46.2891C64.1602-47.2168 64.6484-48.2422 64.6484-49.2188C64.6484-51.4648 62.6465-52.9785 60.498-52.9785C59.1309-52.9785 57.959-52.1973 57.0312-50.6836L42.8711-28.0273L36.6699-35.9863C35.6445-37.3047 34.5703-37.793 33.252-37.793C31.0547-37.793 29.2969-36.0352 29.2969-33.7891C29.2969-32.7148 29.6875-31.7871 30.4688-30.8105L38.8672-20.5078C40.0879-19.043 41.3574-18.3105 43.0176-18.3105Z"/>
  </g>
  <g id="Medium-S" transform="matrix(1 0 0 1 1699.46 696)">
   <path d="M46.7773 4.93164C47.4121 4.93164 48.4375 4.6875 49.4629 4.15039C71.6309-7.71484 79.4922-13.4766 79.4922-27.832L79.4922-56.8359C79.4922-61.377 77.5879-62.9883 73.9258-64.5996C70.166-66.2109 54.5898-71.6309 50.8789-72.8516C49.6094-73.2422 48.0957-73.5352 46.7773-73.5352C45.459-73.5352 43.8965-73.1934 42.627-72.8516C38.9648-71.9238 23.3887-66.1621 19.6289-64.5996C15.918-63.0371 14.0137-61.377 14.0137-56.8359L14.0137-27.832C14.0137-13.4766 21.9238-7.71484 44.043 4.15039C45.1172 4.6875 46.1426 4.93164 46.7773 4.93164ZM46.7773-4.05273C46.2402-4.05273 45.7031-4.19922 44.4824-4.93164C27.0508-15.4297 22.0215-18.2617 22.0215-29.4922L22.0215-55.4688C22.0215-56.4941 22.2168-56.9336 23.0957-57.3242C29.1016-59.7168 39.4531-63.0371 44.873-65.1367C45.7031-65.4297 46.2402-65.5273 46.7773-65.5273C47.3145-65.5273 47.8516-65.4297 48.6328-65.1367C54.0527-63.0371 64.3066-59.4238 70.459-57.3242C71.3379-56.9824 71.5332-56.4941 71.5332-55.4688L71.5332-29.4922C71.5332-18.2129 66.2598-15.1367 49.0234-4.93164C47.8027-4.19922 47.3145-4.05273 46.7773-4.05273ZM42.627-18.1152C44.1895-18.1152 45.5078-18.8965 46.3867-20.3125L63.0859-46.3867C63.6719-47.2656 64.1602-48.291 64.1602-49.2676C64.1602-51.416 62.3047-52.7832 60.3027-52.7832C59.0332-52.7832 57.9102-52.0508 57.0312-50.6348L42.4805-27.2461L36.0352-35.6934C35.0098-37.0605 33.9844-37.5 32.7637-37.5C30.6641-37.5 29.0527-35.791 29.0527-33.7402C29.0527-32.7148 29.3945-31.7383 30.127-30.8594L38.6719-20.2637C39.8438-18.7988 41.1133-18.1152 42.627-18.1152Z"/>
  </g>
  <g id="Regular-S" transform="matrix(1 0 0 1 1402.53 696)">
   <path d="M46.3867 4.78516C46.9238 4.78516 47.9004 4.58984 48.9746 4.00391C70.8984-8.00781 78.6621-13.4766 78.6621-27.9297L78.6621-57.3242C78.6621-61.3281 76.7578-62.5488 73.7305-63.8672C69.7754-65.5762 53.6133-71.2891 49.6582-72.6562C48.6328-72.998 47.5098-73.2422 46.3867-73.2422C45.2637-73.2422 44.0918-72.9004 43.1152-72.6562C39.1602-71.6797 22.998-65.5273 19.043-63.8672C16.0156-62.5977 14.1113-61.3281 14.1113-57.3242L14.1113-27.9297C14.1113-13.4766 21.875-8.05664 43.7988 4.00391C44.873 4.58984 45.8496 4.78516 46.3867 4.78516ZM46.3867-3.22266C45.8008-3.22266 45.2148-3.36914 43.8965-4.10156C26.2695-14.6484 21.0449-17.7734 21.0449-29.6387L21.0449-56.0059C21.0449-56.8848 21.2402-57.2754 22.0215-57.6172C28.2715-60.0586 38.8184-63.4277 45.0684-65.918C45.5566-66.1133 45.9961-66.1621 46.3867-66.1621C46.7773-66.1621 47.2168-66.1133 47.7051-65.918C53.9062-63.4277 64.3066-59.7656 70.7031-57.6172C71.5332-57.3242 71.6797-56.8848 71.6797-56.0059L71.6797-29.6387C71.6797-17.7734 66.4551-14.6484 48.8281-4.10156C47.5586-3.36914 46.9727-3.22266 46.3867-3.22266ZM42.1875-17.8711C43.6523-17.8711 44.873-18.6035 45.7031-19.9219L62.5488-46.5332C63.0371-47.3633 63.623-48.3398 63.623-49.3164C63.623-51.2695 61.8652-52.5391 60.0098-52.5391C58.8867-52.5391 57.8125-51.8555 57.0312-50.5371L41.9922-26.2695L35.2539-35.3027C34.2285-36.7188 33.252-37.1094 32.0801-37.1094C30.127-37.1094 28.6621-35.5469 28.6621-33.5938C28.6621-32.666 29.0527-31.7383 29.6875-30.957L38.4277-19.9219C39.5508-18.5059 40.7227-17.8711 42.1875-17.8711Z"/>
  </g>
  <g id="Light-S" transform="matrix(1 0 0 1 1107.28 696)">
   <path d="M45.2148 4.10156C45.8496 4.10156 46.8262 3.85742 47.7539 3.32031C69.3359-8.98438 76.6113-13.8672 76.6113-27.4414L76.6113-56.5918C76.6113-60.6445 75-61.9629 71.6309-63.3789C66.6504-65.3809 53.3203-70.2637 48.3398-71.9727C47.3145-72.3145 46.2891-72.5586 45.2148-72.5586C44.1406-72.5586 43.1152-72.2168 42.0898-71.9727C37.1094-70.4102 23.7793-65.3809 18.7988-63.3789C15.4297-62.0117 13.8184-60.6445 13.8184-56.5918L13.8184-27.4414C13.8184-13.8672 21.1426-9.08203 42.6758 3.32031C43.6035 3.85742 44.5801 4.10156 45.2148 4.10156ZM45.2148-1.95312C44.5801-1.95312 43.9453-2.19727 42.9199-2.83203C25.1953-13.7207 19.1895-16.8945 19.1895-28.6133L19.1895-55.5664C19.1895-57.1777 19.4824-57.8125 20.7031-58.3008C26.1719-60.4492 38.0859-64.5996 43.5547-66.6992C44.1895-66.9922 44.7754-67.1387 45.2148-67.1387C45.6543-67.1387 46.2402-66.9922 46.875-66.6992C52.3438-64.5996 64.1602-60.2539 69.7266-58.3008C70.9473-57.8125 71.2402-57.1777 71.2402-55.5664L71.2402-28.6133C71.2402-16.8945 65.1855-13.7695 47.5098-2.83203C46.4844-2.19727 45.8496-1.95312 45.2148-1.95312ZM41.0645-17.9199C42.1875-17.9199 43.1152-18.457 43.75-19.4824L61.8164-47.8027C62.207-48.4375 62.5977-49.1699 62.5977-49.9023C62.5977-51.416 61.2793-52.4414 59.8633-52.4414C58.9844-52.4414 58.1543-51.9043 57.5195-50.8789L40.918-24.4629L32.7148-34.8145C31.9336-35.8398 31.1523-36.1328 30.2246-36.1328C28.7598-36.1328 27.6367-34.9609 27.6367-33.4473C27.6367-32.7148 27.9297-31.9824 28.418-31.3477L38.1836-19.4824C39.0625-18.4082 39.9414-17.9199 41.0645-17.9199Z"/>
  </g>
  <g id="Thin-S" transform="matrix(1 0 0 1 812.501 696)">
   <path d="M43.6523 3.22266C44.4824 3.22266 45.459 2.83203 46.1914 2.39258C67.2852-10.2051 73.9258-14.3555 73.9258-26.7578L73.9258-55.6641C73.9258-59.8145 72.6562-61.1816 68.8477-62.6953C62.5-65.1367 52.9297-68.8477 46.5332-71.0938C45.5566-71.4355 44.6289-71.6797 43.6523-71.6797C42.6758-71.6797 41.7969-71.3867 40.7715-71.0938C34.4238-68.7988 24.8535-65.1367 18.5059-62.6953C14.6484-61.2305 13.4277-59.8145 13.4277-55.6641L13.4277-26.7578C13.4277-14.3555 20.2148-10.4004 41.1621 2.39258C41.8945 2.83203 42.8711 3.22266 43.6523 3.22266ZM43.6523-0.292969C43.0176-0.292969 42.2363-0.732422 41.6016-1.17188C23.7793-12.5488 16.6992-15.7227 16.6992-27.1973L16.6992-55.0293C16.6992-57.5684 17.1387-58.4961 18.9941-59.2285C23.3887-60.9375 37.1094-66.0645 41.5039-67.7734C42.3828-68.1641 43.1641-68.3594 43.6523-68.3594C44.1895-68.3594 44.9219-68.1152 45.8008-67.7734C50.2441-66.0645 63.916-60.8887 68.3594-59.2285C70.166-58.4961 70.6543-57.5684 70.6543-55.0293L70.6543-27.1973C70.6543-15.7227 63.4766-12.6465 45.752-1.17188C45.1172-0.732422 44.3359-0.292969 43.6523-0.292969ZM39.5508-17.9688C40.2344-17.9688 40.7715-18.3105 41.2109-18.8965L60.8887-49.4629C61.084-49.8535 61.3281-50.293 61.3281-50.7324C61.3281-51.6113 60.498-52.2949 59.668-52.2949C59.1309-52.2949 58.5938-51.9043 58.2031-51.3672L39.502-22.1191L29.3457-34.1309C28.9062-34.7168 28.418-34.9121 27.832-34.9121C26.9531-34.9121 26.2207-34.2285 26.2207-33.3008C26.2207-32.8125 26.416-32.3242 26.7578-31.9336L37.8418-18.8965C38.3789-18.2617 38.8672-17.9688 39.5508-17.9688Z"/>
  </g>
  <g id="Ultralight-S" transform="matrix(1 0 0 1 516.767 696)">
   <path d="M42.8711 2.7832C43.75 2.7832 44.7266 2.29492 45.3613 1.9043C66.2109-10.8398 72.5586-14.6484 72.5586-26.416L72.5586-55.127C72.5586-59.375 71.4844-60.791 67.4316-62.3535C60.3516-65.0391 52.7344-68.1152 45.6543-70.6055C44.6777-70.9473 43.7988-71.1914 42.8711-71.1914C41.9434-71.1914 41.1133-70.9473 40.1367-70.6055C33.0566-67.9688 25.3906-65.0391 18.3105-62.3535C14.2578-60.8398 13.1836-59.375 13.1836-55.127L13.1836-26.416C13.1836-14.6484 19.7266-11.1328 40.3809 1.9043C41.0156 2.29492 41.9922 2.7832 42.8711 2.7832ZM42.8711 0.537109C42.1875 0.537109 41.3574 0.0488281 40.918-0.292969C23.0469-11.9141 15.3809-15.1367 15.3809-26.4648L15.3809-54.7363C15.3809-57.7637 15.9668-58.8379 18.1152-59.7168C21.9238-61.2305 36.6211-66.8457 40.4785-68.3105C41.4551-68.75 42.334-68.9941 42.8711-68.9941C43.4082-68.9941 44.2871-68.7012 45.2637-68.3105C49.1699-66.8457 63.8184-61.1816 67.6758-59.7168C69.7754-58.8379 70.3613-57.7637 70.3613-54.7363L70.3613-26.4648C70.3613-15.1367 62.6465-12.0605 44.873-0.292969C44.3848 0.0488281 43.5547 0.537109 42.8711 0.537109ZM38.8184-18.0176C39.2578-18.0176 39.5996-18.2129 39.8926-18.5547L60.4004-50.3418C60.5469-50.5859 60.6445-50.8789 60.6445-51.123C60.6445-51.709 60.1074-52.1973 59.5703-52.1973C59.1797-52.1973 58.7891-51.9531 58.4961-51.6113L38.7207-20.9473L27.6367-33.7891C27.3438-34.1309 27.0508-34.2773 26.6113-34.2773C26.0254-34.2773 25.4883-33.8379 25.4883-33.1543C25.4883-32.8613 25.6836-32.5195 25.8789-32.2266L37.6953-18.5547C38.0371-18.1641 38.3301-18.0176 38.8184-18.0176Z"/>
  </g>
 </g>
</svg>
