<?xml version="1.0" encoding="UTF-8"?>
<!--Generator: Apple Native CoreSVG 123-->
<!DOCTYPE svg
PUBLIC "-//W3C//DTD SVG 1.1//EN"
       "http://www.w3.org/Graphics/SVG/1.1/DTD/svg11.dtd">
<svg version="1.1" xmlns="http://www.w3.org/2000/svg" xmlns:xlink="http://www.w3.org/1999/xlink" width="3300" height="2200">
 <!--glyph: "uni10036F.medium", point size: 100.000000, font version: "Version 15.0d7e11", template writer version: "5"-->
 <g id="Notes">
  <rect height="2200" id="artboard" style="fill:white;opacity:1" width="3300" x="0" y="0"/>
  <line id="" style="fill:none;stroke:black;opacity:1;stroke-width:0.5;" x1="263" x2="3036" y1="292" y2="292"/>
  <text style="stroke:none;fill:black;font-family:-apple-system,&quot;SF Pro Display&quot;,&quot;SF Pro Text&quot;,Helvetica,sans-serif;font-weight:bold;" transform="matrix(1 0 0 1 263 322)">Weight/Scale Variations</text>
  <text style="stroke:none;fill:black;font-family:-apple-system,&quot;SF Pro Display&quot;,&quot;SF Pro Text&quot;,Helvetica,sans-serif;text-anchor:middle;" transform="matrix(1 0 0 1 559.711 322)">Ultralight</text>
  <text style="stroke:none;fill:black;font-family:-apple-system,&quot;SF Pro Display&quot;,&quot;SF Pro Text&quot;,Helvetica,sans-serif;text-anchor:middle;" transform="matrix(1 0 0 1 856.422 322)">Thin</text>
  <text style="stroke:none;fill:black;font-family:-apple-system,&quot;SF Pro Display&quot;,&quot;SF Pro Text&quot;,Helvetica,sans-serif;text-anchor:middle;" transform="matrix(1 0 0 1 1153.13 322)">Light</text>
  <text style="stroke:none;fill:black;font-family:-apple-system,&quot;SF Pro Display&quot;,&quot;SF Pro Text&quot;,Helvetica,sans-serif;text-anchor:middle;" transform="matrix(1 0 0 1 1449.84 322)">Regular</text>
  <text style="stroke:none;fill:black;font-family:-apple-system,&quot;SF Pro Display&quot;,&quot;SF Pro Text&quot;,Helvetica,sans-serif;text-anchor:middle;" transform="matrix(1 0 0 1 1746.56 322)">Medium</text>
  <text style="stroke:none;fill:black;font-family:-apple-system,&quot;SF Pro Display&quot;,&quot;SF Pro Text&quot;,Helvetica,sans-serif;text-anchor:middle;" transform="matrix(1 0 0 1 2043.27 322)">Semibold</text>
  <text style="stroke:none;fill:black;font-family:-apple-system,&quot;SF Pro Display&quot;,&quot;SF Pro Text&quot;,Helvetica,sans-serif;text-anchor:middle;" transform="matrix(1 0 0 1 2339.98 322)">Bold</text>
  <text style="stroke:none;fill:black;font-family:-apple-system,&quot;SF Pro Display&quot;,&quot;SF Pro Text&quot;,Helvetica,sans-serif;text-anchor:middle;" transform="matrix(1 0 0 1 2636.69 322)">Heavy</text>
  <text style="stroke:none;fill:black;font-family:-apple-system,&quot;SF Pro Display&quot;,&quot;SF Pro Text&quot;,Helvetica,sans-serif;text-anchor:middle;" transform="matrix(1 0 0 1 2933.4 322)">Black</text>
  <line id="" style="fill:none;stroke:black;opacity:1;stroke-width:0.5;" x1="263" x2="3036" y1="1903" y2="1903"/>
  <g id="" transform="matrix(1 0 0 1 263 1933)">
   <path d="M 9.24805 0.830078 C 13.5547 0.830078 17.1387 -2.74414 17.1387 -7.05078 C 17.1387 -11.3574 13.5449 -14.9316 9.23828 -14.9316 C 4.94141 -14.9316 1.36719 -11.3574 1.36719 -7.05078 C 1.36719 -2.74414 4.95117 0.830078 9.24805 0.830078 Z M 9.24805 -0.654297 C 5.70312 -0.654297 2.87109 -3.49609 2.87109 -7.05078 C 2.87109 -10.6055 5.69336 -13.4473 9.23828 -13.4473 C 12.793 -13.4473 15.6348 -10.6055 15.6445 -7.05078 C 15.6543 -3.49609 12.8027 -0.654297 9.24805 -0.654297 Z M 9.22852 -3.42773 C 9.69727 -3.42773 9.9707 -3.74023 9.9707 -4.25781 L 9.9707 -6.31836 L 12.1973 -6.31836 C 12.6953 -6.31836 13.0371 -6.57227 13.0371 -7.04102 C 13.0371 -7.51953 12.7148 -7.7832 12.1973 -7.7832 L 9.9707 -7.7832 L 9.9707 -10.0098 C 9.9707 -10.5273 9.69727 -10.8496 9.22852 -10.8496 C 8.75977 -10.8496 8.50586 -10.5078 8.50586 -10.0098 L 8.50586 -7.7832 L 6.29883 -7.7832 C 5.78125 -7.7832 5.44922 -7.51953 5.44922 -7.04102 C 5.44922 -6.57227 5.80078 -6.31836 6.29883 -6.31836 L 8.50586 -6.31836 L 8.50586 -4.25781 C 8.50586 -3.75977 8.75977 -3.42773 9.22852 -3.42773 Z"/>
  </g>
  <g id="" transform="matrix(1 0 0 1 281.506 1933)">
   <path d="M 11.709 2.91016 C 17.1582 2.91016 21.6699 -1.60156 21.6699 -7.05078 C 21.6699 -12.4902 17.1484 -17.0117 11.6992 -17.0117 C 6.25977 -17.0117 1.74805 -12.4902 1.74805 -7.05078 C 1.74805 -1.60156 6.26953 2.91016 11.709 2.91016 Z M 11.709 1.25 C 7.09961 1.25 3.41797 -2.44141 3.41797 -7.05078 C 3.41797 -11.6504 7.08984 -15.3516 11.6992 -15.3516 C 16.3086 -15.3516 20 -11.6504 20.0098 -7.05078 C 20.0195 -2.44141 16.3184 1.25 11.709 1.25 Z M 11.6895 -2.41211 C 12.207 -2.41211 12.5195 -2.77344 12.5195 -3.33984 L 12.5195 -6.23047 L 15.5762 -6.23047 C 16.123 -6.23047 16.5039 -6.51367 16.5039 -7.03125 C 16.5039 -7.55859 16.1426 -7.86133 15.5762 -7.86133 L 12.5195 -7.86133 L 12.5195 -10.9277 C 12.5195 -11.5039 12.207 -11.8555 11.6895 -11.8555 C 11.1719 -11.8555 10.8789 -11.4844 10.8789 -10.9277 L 10.8789 -7.86133 L 7.83203 -7.86133 C 7.26562 -7.86133 6.89453 -7.55859 6.89453 -7.03125 C 6.89453 -6.51367 7.28516 -6.23047 7.83203 -6.23047 L 10.8789 -6.23047 L 10.8789 -3.33984 C 10.8789 -2.79297 11.1719 -2.41211 11.6895 -2.41211 Z"/>
  </g>
  <g id="" transform="matrix(1 0 0 1 304.924 1933)">
   <path d="M 14.9707 5.67383 C 21.9336 5.67383 27.6953 -0.078125 27.6953 -7.04102 C 27.6953 -14.0039 21.9238 -19.7559 14.9609 -19.7559 C 8.00781 -19.7559 2.25586 -14.0039 2.25586 -7.04102 C 2.25586 -0.078125 8.01758 5.67383 14.9707 5.67383 Z M 14.9707 3.85742 C 8.93555 3.85742 4.08203 -1.00586 4.08203 -7.04102 C 4.08203 -13.0762 8.92578 -17.9395 14.9609 -17.9395 C 21.0059 -17.9395 25.8594 -13.0762 25.8691 -7.04102 C 25.8789 -1.00586 21.0156 3.85742 14.9707 3.85742 Z M 14.9512 -1.06445 C 15.5176 -1.06445 15.8691 -1.45508 15.8691 -2.06055 L 15.8691 -6.13281 L 20.1074 -6.13281 C 20.6934 -6.13281 21.1133 -6.46484 21.1133 -7.02148 C 21.1133 -7.59766 20.7227 -7.93945 20.1074 -7.93945 L 15.8691 -7.93945 L 15.8691 -12.1875 C 15.8691 -12.8027 15.5176 -13.1934 14.9512 -13.1934 C 14.3848 -13.1934 14.0625 -12.7832 14.0625 -12.1875 L 14.0625 -7.93945 L 9.83398 -7.93945 C 9.21875 -7.93945 8.80859 -7.59766 8.80859 -7.02148 C 8.80859 -6.46484 9.23828 -6.13281 9.83398 -6.13281 L 14.0625 -6.13281 L 14.0625 -2.06055 C 14.0625 -1.47461 14.3848 -1.06445 14.9512 -1.06445 Z"/>
  </g>
  <text style="stroke:none;fill:black;font-family:-apple-system,&quot;SF Pro Display&quot;,&quot;SF Pro Text&quot;,Helvetica,sans-serif;font-weight:bold;" transform="matrix(1 0 0 1 263 1953)">Design Variations</text>
  <text style="stroke:none;fill:black;font-family:-apple-system,&quot;SF Pro Display&quot;,&quot;SF Pro Text&quot;,Helvetica,sans-serif;" transform="matrix(1 0 0 1 263 1971)">Symbols are supported in up to nine weights and three scales.</text>
  <text style="stroke:none;fill:black;font-family:-apple-system,&quot;SF Pro Display&quot;,&quot;SF Pro Text&quot;,Helvetica,sans-serif;" transform="matrix(1 0 0 1 263 1989)">For optimal layout with text and other symbols, vertically align</text>
  <text style="stroke:none;fill:black;font-family:-apple-system,&quot;SF Pro Display&quot;,&quot;SF Pro Text&quot;,Helvetica,sans-serif;" transform="matrix(1 0 0 1 263 2007)">symbols with the adjacent text.</text>
  <rect height="14" id="" style="fill:#00AEEF;stroke:none;opacity:0.4;" width="3" x="776" y="1919"/>
  <g id="" transform="matrix(1 0 0 1 779 1933)">
   <path d="M 10.5273 0 L 12.373 0 L 7.17773 -14.0918 L 5.43945 -14.0918 L 0.244141 0 L 2.08984 0 L 3.50586 -4.0332 L 9.11133 -4.0332 Z M 6.2793 -11.9531 L 6.33789 -11.9531 L 8.59375 -5.52734 L 4.02344 -5.52734 Z"/>
  </g>
  <rect height="14" id="" style="fill:#00AEEF;stroke:none;opacity:0.4;" width="3" x="791.617" y="1919"/>
  <text style="stroke:none;fill:black;font-family:-apple-system,&quot;SF Pro Display&quot;,&quot;SF Pro Text&quot;,Helvetica,sans-serif;font-weight:bold;" transform="matrix(1 0 0 1 776 1953)">Margins</text>
  <text style="stroke:none;fill:black;font-family:-apple-system,&quot;SF Pro Display&quot;,&quot;SF Pro Text&quot;,Helvetica,sans-serif;" transform="matrix(1 0 0 1 776 1971)">Leading and trailing margins on the left and right side of each symbol</text>
  <text style="stroke:none;fill:black;font-family:-apple-system,&quot;SF Pro Display&quot;,&quot;SF Pro Text&quot;,Helvetica,sans-serif;" transform="matrix(1 0 0 1 776 1989)">can be adjusted by modifying the width of the blue rectangles.</text>
  <text style="stroke:none;fill:black;font-family:-apple-system,&quot;SF Pro Display&quot;,&quot;SF Pro Text&quot;,Helvetica,sans-serif;" transform="matrix(1 0 0 1 776 2007)">Modifications are automatically applied proportionally to all</text>
  <text style="stroke:none;fill:black;font-family:-apple-system,&quot;SF Pro Display&quot;,&quot;SF Pro Text&quot;,Helvetica,sans-serif;" transform="matrix(1 0 0 1 776 2025)">scales and weights.</text>
  <g id="" transform="matrix(1 0 0 1 1289 1933)">
   <path d="M 2.83203 3.11523 L 4.375 4.6582 C 5.22461 5.48828 6.19141 5.41992 7.06055 4.46289 L 17.2754 -6.66016 C 17.7051 -6.36719 18.0957 -6.37695 18.5645 -6.47461 L 19.6094 -6.68945 L 20.3027 -5.99609 L 20.2539 -5.47852 C 20.1855 -4.95117 20.3516 -4.53125 20.8496 -4.0332 L 21.6602 -3.22266 C 22.168 -2.71484 22.8223 -2.68555 23.3008 -3.16406 L 26.5527 -6.41602 C 27.0312 -6.89453 27.0117 -7.54883 26.5039 -8.05664 L 25.6836 -8.87695 C 25.1855 -9.375 24.7754 -9.55078 24.2383 -9.47266 L 23.7109 -9.41406 L 23.0566 -10.0781 L 23.3398 -11.2207 C 23.4863 -11.7871 23.3398 -12.2559 22.7148 -12.8613 L 20.3027 -15.2539 C 16.7578 -18.7793 12.2266 -18.6719 9.11133 -15.5371 C 8.69141 -15.1074 8.64258 -14.5215 8.91602 -14.0918 C 9.15039 -13.7207 9.62891 -13.4961 10.2734 -13.6621 C 11.7871 -14.043 13.3008 -13.9258 14.7852 -12.9199 L 14.1602 -11.3379 C 13.9258 -10.752 13.9453 -10.2734 14.1797 -9.83398 L 3.01758 0.439453 C 2.08008 1.30859 1.97266 2.25586 2.83203 3.11523 Z M 10.6738 -15.1465 C 13.3398 -17.1387 16.6504 -16.8262 19.0527 -14.4141 L 21.6797 -11.8066 C 21.9141 -11.5723 21.9434 -11.3867 21.8848 -11.0938 L 21.5039 -9.53125 L 23.0762 -7.95898 L 24.043 -8.04688 C 24.3262 -8.07617 24.4141 -8.05664 24.6387 -7.83203 L 25.2637 -7.20703 L 22.5098 -4.46289 L 21.8848 -5.07812 C 21.6602 -5.30273 21.6406 -5.40039 21.6699 -5.68359 L 21.7578 -6.64062 L 20.1953 -8.20312 L 18.5742 -7.89062 C 18.291 -7.83203 18.1445 -7.83203 17.9102 -8.07617 L 15.7324 -10.2539 C 15.5078 -10.4883 15.4785 -10.625 15.6055 -10.9473 L 16.5527 -13.2227 C 14.9512 -14.7559 12.8418 -15.6055 10.8008 -14.9512 C 10.7129 -14.9219 10.6445 -14.9414 10.6152 -14.9805 C 10.5859 -15.0293 10.5859 -15.0781 10.6738 -15.1465 Z M 4.10156 2.41211 C 3.61328 1.91406 3.78906 1.61133 4.12109 1.30859 L 15.0781 -8.80859 L 16.3086 -7.57812 L 6.15234 3.34961 C 5.84961 3.68164 5.46875 3.7793 5.06836 3.37891 Z"/>
  </g>
  <text style="stroke:none;fill:black;font-family:-apple-system,&quot;SF Pro Display&quot;,&quot;SF Pro Text&quot;,Helvetica,sans-serif;font-weight:bold;" transform="matrix(1 0 0 1 1289 1953)">Exporting</text>
  <text style="stroke:none;fill:black;font-family:-apple-system,&quot;SF Pro Display&quot;,&quot;SF Pro Text&quot;,Helvetica,sans-serif;" transform="matrix(1 0 0 1 1289 1971)">Symbols should be outlined when exporting to ensure the</text>
  <text style="stroke:none;fill:black;font-family:-apple-system,&quot;SF Pro Display&quot;,&quot;SF Pro Text&quot;,Helvetica,sans-serif;" transform="matrix(1 0 0 1 1289 1989)">design is preserved when submitting to Xcode.</text>
  <text id="template-version" style="stroke:none;fill:black;font-family:-apple-system,&quot;SF Pro Display&quot;,&quot;SF Pro Text&quot;,Helvetica,sans-serif;text-anchor:end;" transform="matrix(1 0 0 1 3036 1933)">Template v.1.0</text>
  <text style="stroke:none;fill:black;font-family:-apple-system,&quot;SF Pro Display&quot;,&quot;SF Pro Text&quot;,Helvetica,sans-serif;text-anchor:end;" transform="matrix(1 0 0 1 3036 1951)">Generated from creditcard</text>
  <text style="stroke:none;fill:black;font-family:-apple-system,&quot;SF Pro Display&quot;,&quot;SF Pro Text&quot;,Helvetica,sans-serif;text-anchor:end;" transform="matrix(1 0 0 1 3036 1969)">Typeset at 100 points</text>
  <text style="stroke:none;fill:black;font-family:-apple-system,&quot;SF Pro Display&quot;,&quot;SF Pro Text&quot;,Helvetica,sans-serif;" transform="matrix(1 0 0 1 263 726)">Small</text>
  <text style="stroke:none;fill:black;font-family:-apple-system,&quot;SF Pro Display&quot;,&quot;SF Pro Text&quot;,Helvetica,sans-serif;" transform="matrix(1 0 0 1 263 1156)">Medium</text>
  <text style="stroke:none;fill:black;font-family:-apple-system,&quot;SF Pro Display&quot;,&quot;SF Pro Text&quot;,Helvetica,sans-serif;" transform="matrix(1 0 0 1 263 1586)">Large</text>
 </g>
 <g id="Guides">
  <g id="H-reference" style="fill:#27AAE1;stroke:none;" transform="matrix(1 0 0 1 339 696)">
   <path d="M 54.9316 0 L 57.666 0 L 30.5664 -70.459 L 28.0762 -70.459 L 0.976562 0 L 3.66211 0 L 12.9395 -24.4629 L 45.7031 -24.4629 Z M 29.1992 -67.0898 L 29.4434 -67.0898 L 44.8242 -26.709 L 13.8184 -26.709 Z"/>
  </g>
  <line id="Baseline-S" style="fill:none;stroke:#27AAE1;opacity:1;stroke-width:0.577;" x1="263" x2="3036" y1="696" y2="696"/>
  <line id="Capline-S" style="fill:none;stroke:#27AAE1;opacity:1;stroke-width:0.577;" x1="263" x2="3036" y1="625.541" y2="625.541"/>
  <g id="H-reference" style="fill:#27AAE1;stroke:none;" transform="matrix(1 0 0 1 339 1126)">
   <path d="M 54.9316 0 L 57.666 0 L 30.5664 -70.459 L 28.0762 -70.459 L 0.976562 0 L 3.66211 0 L 12.9395 -24.4629 L 45.7031 -24.4629 Z M 29.1992 -67.0898 L 29.4434 -67.0898 L 44.8242 -26.709 L 13.8184 -26.709 Z"/>
  </g>
  <line id="Baseline-M" style="fill:none;stroke:#27AAE1;opacity:1;stroke-width:0.577;" x1="263" x2="3036" y1="1126" y2="1126"/>
  <line id="Capline-M" style="fill:none;stroke:#27AAE1;opacity:1;stroke-width:0.577;" x1="263" x2="3036" y1="1055.54" y2="1055.54"/>
  <g id="H-reference" style="fill:#27AAE1;stroke:none;" transform="matrix(1 0 0 1 339 1556)">
   <path d="M 54.9316 0 L 57.666 0 L 30.5664 -70.459 L 28.0762 -70.459 L 0.976562 0 L 3.66211 0 L 12.9395 -24.4629 L 45.7031 -24.4629 Z M 29.1992 -67.0898 L 29.4434 -67.0898 L 44.8242 -26.709 L 13.8184 -26.709 Z"/>
  </g>
  <line id="Baseline-L" style="fill:none;stroke:#27AAE1;opacity:1;stroke-width:0.577;" x1="263" x2="3036" y1="1556" y2="1556"/>
  <line id="Capline-L" style="fill:none;stroke:#27AAE1;opacity:1;stroke-width:0.577;" x1="263" x2="3036" y1="1485.54" y2="1485.54"/>
  <rect height="119.336" id="left-margin" style="fill:#00AEEF;stroke:none;opacity:0.4;" width="12.4512" x="1383.78" y="1030.79"/>
  <rect height="119.336" id="right-margin" style="fill:#00AEEF;stroke:none;opacity:0.4;" width="12.4512" x="1503.46" y="1030.79"/>
 </g>
 <g id="Symbols">
  <g id="Black-L" transform="matrix(1 0 0 1 2843.51 1556)">
   <path d="M 39.9902 22.3633 L 139.844 22.3633 C 155.078 22.3633 163.721 13.7207 163.721 -1.46484 L 163.721 -69.2383 C 163.721 -84.4238 155.078 -93.0176 139.844 -93.0176 L 39.9902 -93.0176 C 24.707 -93.0176 16.0645 -84.4238 16.0645 -69.2383 L 16.0645 -1.46484 C 16.0645 13.7207 24.707 22.3633 39.9902 22.3633 Z M 36.3281 -66.3574 C 36.3281 -70.8984 38.4766 -72.8027 42.6758 -72.8027 L 137.109 -72.8027 C 141.309 -72.8027 143.506 -70.8984 143.506 -66.3574 L 143.506 -62.0117 L 36.3281 -62.0117 Z M 42.6758 2.09961 C 38.4766 2.09961 36.3281 0.244141 36.3281 -4.3457 L 36.3281 -45.8008 L 143.506 -45.8008 L 143.506 -4.3457 C 143.506 0.244141 141.309 2.09961 137.109 2.09961 Z M 51.0254 -10.8398 L 66.4551 -10.8398 C 70.166 -10.8398 72.6562 -13.3301 72.6562 -16.8945 L 72.6562 -28.5645 C 72.6562 -32.0801 70.166 -34.5703 66.4551 -34.5703 L 51.0254 -34.5703 C 47.3145 -34.5703 44.8242 -32.0801 44.8242 -28.5645 L 44.8242 -16.8945 C 44.8242 -13.3301 47.3145 -10.8398 51.0254 -10.8398 Z"/>
  </g>
  <g id="Heavy-L" transform="matrix(1 0 0 1 2547.99 1556)">
   <path d="M 38.8184 21.0449 L 138.574 21.0449 C 153.174 21.0449 161.328 12.9883 161.328 -1.5625 L 161.328 -69.1895 C 161.328 -83.7402 153.174 -91.8457 138.574 -91.8457 L 38.8184 -91.8457 C 24.1699 -91.8457 16.0645 -83.7402 16.0645 -69.1895 L 16.0645 -1.5625 C 16.0645 12.9883 24.1699 21.0449 38.8184 21.0449 Z M 33.5938 -66.8945 C 33.5938 -72.0215 36.084 -74.3164 40.918 -74.3164 L 136.426 -74.3164 C 141.26 -74.3164 143.799 -72.0215 143.799 -66.8945 L 143.799 -62.4023 L 33.5938 -62.4023 Z M 40.918 3.56445 C 36.084 3.56445 33.5938 1.26953 33.5938 -3.85742 L 33.5938 -46.6309 L 143.799 -46.6309 L 143.799 -3.85742 C 143.799 1.26953 141.26 3.56445 136.426 3.56445 Z M 49.0723 -10.9375 L 64.502 -10.9375 C 68.2129 -10.9375 70.7031 -13.4277 70.7031 -16.9434 L 70.7031 -28.6133 C 70.7031 -32.1777 68.2129 -34.668 64.502 -34.668 L 49.0723 -34.668 C 45.3613 -34.668 42.8711 -32.1777 42.8711 -28.6133 L 42.8711 -16.9434 C 42.8711 -13.4277 45.3613 -10.9375 49.0723 -10.9375 Z"/>
  </g>
  <g id="Bold-L" transform="matrix(1 0 0 1 2252.65 1556)">
   <path d="M 37.5 19.6289 L 137.109 19.6289 C 151.025 19.6289 158.594 12.1094 158.594 -1.66016 L 158.594 -69.1406 C 158.594 -82.959 151.025 -90.4785 137.109 -90.4785 L 37.5 -90.4785 C 23.584 -90.4785 16.0645 -83.0078 16.0645 -69.1406 L 16.0645 -1.66016 C 16.0645 12.1582 23.584 19.6289 37.5 19.6289 Z M 30.5176 -67.4805 C 30.5176 -73.291 33.4473 -76.0254 38.9648 -76.0254 L 135.693 -76.0254 C 141.162 -76.0254 144.141 -73.291 144.141 -67.4805 L 144.141 -62.793 L 30.5176 -62.793 Z M 38.9648 5.17578 C 33.4473 5.17578 30.5176 2.44141 30.5176 -3.32031 L 30.5176 -47.5586 L 144.141 -47.5586 L 144.141 -3.32031 C 144.141 2.44141 141.162 5.17578 135.693 5.17578 Z M 46.875 -10.9863 L 62.3047 -10.9863 C 66.0156 -10.9863 68.5059 -13.5254 68.5059 -17.041 L 68.5059 -28.7109 C 68.5059 -32.2754 66.0156 -34.7656 62.3047 -34.7656 L 46.875 -34.7656 C 43.1641 -34.7656 40.6738 -32.2754 40.6738 -28.7109 L 40.6738 -17.041 C 40.6738 -13.5254 43.1641 -10.9863 46.875 -10.9863 Z"/>
  </g>
  <g id="Semibold-L" transform="matrix(1 0 0 1 1956.89 1556)">
   <path d="M 36.6211 18.6523 L 136.133 18.6523 C 149.561 18.6523 156.689 11.5234 156.689 -1.75781 L 156.689 -69.1406 C 156.689 -82.4707 149.561 -89.5508 136.133 -89.5508 L 36.6211 -89.5508 C 23.1445 -89.5508 16.0645 -82.4707 16.0645 -69.1406 L 16.0645 -1.75781 C 16.0645 11.5723 23.1445 18.6523 36.6211 18.6523 Z M 28.418 -67.9199 C 28.418 -74.1699 31.6406 -77.1973 37.5977 -77.1973 L 135.156 -77.1973 C 141.064 -77.1973 144.385 -74.1699 144.385 -67.9199 L 144.385 -63.0371 L 28.418 -63.0371 Z M 37.5977 6.29883 C 31.6406 6.29883 28.418 3.22266 28.418 -2.97852 L 28.418 -48.1934 L 144.385 -48.1934 L 144.385 -2.97852 C 144.385 3.22266 141.064 6.29883 135.156 6.29883 Z M 45.3613 -11.084 L 60.791 -11.084 C 64.502 -11.084 66.9922 -13.5742 66.9922 -17.0898 L 66.9922 -28.7598 C 66.9922 -32.3242 64.502 -34.8145 60.791 -34.8145 L 45.3613 -34.8145 C 41.6504 -34.8145 39.1602 -32.3242 39.1602 -28.7598 L 39.1602 -17.0898 C 39.1602 -13.5742 41.6504 -11.084 45.3613 -11.084 Z"/>
  </g>
  <g id="Medium-L" transform="matrix(1 0 0 1 1660.89 1556)">
   <path d="M 35.9375 17.8711 L 135.4 17.8711 C 148.486 17.8711 155.273 11.084 155.273 -1.80664 L 155.273 -69.1406 C 155.273 -82.0801 148.486 -88.8184 135.4 -88.8184 L 35.9375 -88.8184 C 22.8516 -88.8184 16.0645 -82.1289 16.0645 -69.1406 L 16.0645 -1.80664 C 16.0645 11.1328 22.8516 17.8711 35.9375 17.8711 Z M 26.8066 -68.2617 C 26.8066 -74.8047 30.2246 -78.125 36.5723 -78.125 L 134.766 -78.125 C 141.016 -78.125 144.58 -74.8047 144.58 -68.2617 L 144.58 -63.2324 L 26.8066 -63.2324 Z M 36.5723 7.17773 C 30.2246 7.17773 26.8066 3.85742 26.8066 -2.73438 L 26.8066 -48.6816 L 144.58 -48.6816 L 144.58 -2.73438 C 144.58 3.85742 141.016 7.17773 134.766 7.17773 Z M 44.2383 -11.1328 L 59.668 -11.1328 C 63.3789 -11.1328 65.8691 -13.623 65.8691 -17.1387 L 65.8691 -28.8086 C 65.8691 -32.373 63.3789 -34.8633 59.668 -34.8633 L 44.2383 -34.8633 C 40.5273 -34.8633 38.0371 -32.373 38.0371 -28.8086 L 38.0371 -17.1387 C 38.0371 -13.623 40.5273 -11.1328 44.2383 -11.1328 Z"/>
  </g>
  <g id="Regular-L" transform="matrix(1 0 0 1 1365.1 1556)">
   <path d="M 35.0586 16.8945 L 134.424 16.8945 C 147.021 16.8945 153.418 10.5469 153.418 -1.9043 L 153.418 -69.0918 C 153.418 -81.543 147.021 -87.9395 134.424 -87.9395 L 35.0586 -87.9395 C 22.4121 -87.9395 16.0645 -81.5918 16.0645 -69.0918 L 16.0645 -1.9043 C 16.0645 10.5957 22.4121 16.8945 35.0586 16.8945 Z M 24.707 -68.6523 C 24.707 -75.6348 28.418 -79.248 35.2539 -79.248 L 134.277 -79.248 C 140.967 -79.248 144.775 -75.6348 144.775 -68.6523 L 144.775 -63.5254 L 24.707 -63.5254 Z M 35.2539 8.25195 C 28.418 8.25195 24.707 4.63867 24.707 -2.34375 L 24.707 -49.3164 L 144.775 -49.3164 L 144.775 -2.34375 C 144.775 4.63867 140.967 8.25195 134.277 8.25195 Z M 42.7246 -11.1816 L 58.1543 -11.1816 C 61.8652 -11.1816 64.3555 -13.6719 64.3555 -17.1875 L 64.3555 -28.9062 C 64.3555 -32.4219 61.8652 -34.9121 58.1543 -34.9121 L 42.7246 -34.9121 C 39.0137 -34.9121 36.5234 -32.4219 36.5234 -28.9062 L 36.5234 -17.1875 C 36.5234 -13.6719 39.0137 -11.1816 42.7246 -11.1816 Z"/>
  </g>
  <g id="Light-L" transform="matrix(1 0 0 1 1069.05 1556)">
   <path d="M 34.0332 16.3086 L 134.131 16.3086 C 145.996 16.3086 152.1 10.1074 152.1 -1.5625 L 152.1 -69.1406 C 152.1 -80.8594 145.996 -87.0117 134.131 -87.0117 L 34.0332 -87.0117 C 22.168 -87.0117 16.0645 -80.957 16.0645 -69.1406 L 16.0645 -1.5625 C 16.0645 10.2051 22.168 16.3086 34.0332 16.3086 Z M 22.7051 -68.7988 C 22.7051 -76.416 26.709 -80.3711 34.1797 -80.3711 L 133.984 -80.3711 C 141.309 -80.3711 145.508 -76.416 145.508 -68.7988 L 145.508 -63.916 L 22.7051 -63.916 Z M 34.1797 9.66797 C 26.709 9.66797 22.7051 5.71289 22.7051 -1.9043 L 22.7051 -49.9023 L 145.508 -49.9023 L 145.508 -1.9043 C 145.508 5.71289 141.309 9.66797 133.984 9.66797 Z M 41.9922 -10.791 L 57.4219 -10.791 C 61.1328 -10.791 63.623 -13.2812 63.623 -16.8457 L 63.623 -28.5156 C 63.623 -32.0801 61.1328 -34.5703 57.4219 -34.5703 L 41.9922 -34.5703 C 38.2812 -34.5703 35.791 -32.0801 35.791 -28.5156 L 35.791 -16.8457 C 35.791 -13.2812 38.2812 -10.791 41.9922 -10.791 Z"/>
  </g>
  <g id="Thin-L" transform="matrix(1 0 0 1 773.219 1556)">
   <path d="M 32.666 15.4785 L 133.74 15.4785 C 144.629 15.4785 150.342 9.57031 150.342 -1.12305 L 150.342 -69.1895 C 150.342 -79.9316 144.629 -85.791 133.74 -85.791 L 32.666 -85.791 C 21.7773 -85.791 16.0645 -80.0781 16.0645 -69.1895 L 16.0645 -1.12305 C 16.0645 9.7168 21.7773 15.4785 32.666 15.4785 Z M 19.9707 -68.9941 C 19.9707 -77.4414 24.4141 -81.8359 32.8125 -81.8359 L 133.594 -81.8359 C 141.748 -81.8359 146.436 -77.4414 146.436 -68.9941 L 146.436 -64.4043 L 19.9707 -64.4043 Z M 32.8125 11.5234 C 24.4141 11.5234 19.9707 7.12891 19.9707 -1.31836 L 19.9707 -50.6836 L 146.436 -50.6836 L 146.436 -1.31836 C 146.436 7.12891 141.748 11.5234 133.594 11.5234 Z M 41.0156 -10.3027 L 56.4453 -10.3027 C 60.1562 -10.3027 62.6465 -12.793 62.6465 -16.3574 L 62.6465 -28.0762 C 62.6465 -31.5918 60.1562 -34.082 56.4453 -34.082 L 41.0156 -34.082 C 37.3047 -34.082 34.8145 -31.5918 34.8145 -28.0762 L 34.8145 -16.3574 C 34.8145 -12.793 37.3047 -10.3027 41.0156 -10.3027 Z"/>
  </g>
  <g id="Ultralight-L" transform="matrix(1 0 0 1 476.947 1556)">
   <path d="M 31.9824 15.0391 L 133.545 15.0391 C 143.896 15.0391 149.463 9.32617 149.463 -0.878906 L 149.463 -69.2383 C 149.463 -79.4434 143.896 -85.1562 133.545 -85.1562 L 31.9824 -85.1562 C 21.582 -85.1562 16.0645 -79.5898 16.0645 -69.2383 L 16.0645 -0.878906 C 16.0645 9.47266 21.582 15.0391 31.9824 15.0391 Z M 18.6035 -69.0918 C 18.6035 -77.9785 23.1934 -82.6172 32.1289 -82.6172 L 133.398 -82.6172 C 141.943 -82.6172 146.875 -77.9785 146.875 -69.0918 L 146.875 -64.6484 L 18.6035 -64.6484 Z M 32.1289 12.5 C 23.1934 12.5 18.6035 7.86133 18.6035 -1.02539 L 18.6035 -51.0742 L 146.875 -51.0742 L 146.875 -1.02539 C 146.875 7.86133 141.943 12.5 133.398 12.5 Z M 40.5273 -10.0586 L 55.957 -10.0586 C 59.668 -10.0586 62.1582 -12.5488 62.1582 -16.1133 L 62.1582 -27.832 C 62.1582 -31.3965 59.668 -33.8867 55.957 -33.8867 L 40.5273 -33.8867 C 36.8164 -33.8867 34.3262 -31.3965 34.3262 -27.832 L 34.3262 -16.1133 C 34.3262 -12.5488 36.8164 -10.0586 40.5273 -10.0586 Z"/>
  </g>
  <g id="Black-M" transform="matrix(1 0 0 1 2862.45 1126)">
   <path d="M 31.9824 10.791 L 109.912 10.791 C 122.168 10.791 129.443 3.51562 129.443 -8.74023 L 129.443 -61.6211 C 129.443 -73.877 122.168 -81.1523 109.912 -81.1523 L 31.9824 -81.1523 C 19.7266 -81.1523 12.4512 -73.877 12.4512 -61.6211 L 12.4512 -8.74023 C 12.4512 3.51562 19.7266 10.791 31.9824 10.791 Z M 30.7617 -58.6914 C 30.7617 -61.7676 32.0801 -62.8906 34.9121 -62.8906 L 106.982 -62.8906 C 109.814 -62.8906 111.182 -61.7676 111.182 -58.6914 L 111.182 -55.7617 L 30.7617 -55.7617 Z M 34.9121 -7.51953 C 32.0801 -7.51953 30.7617 -8.59375 30.7617 -11.6699 L 30.7617 -42.627 L 111.182 -42.627 L 111.182 -11.6699 C 111.182 -8.59375 109.814 -7.51953 106.982 -7.51953 Z M 41.7969 -16.0645 L 53.7598 -16.0645 C 56.6406 -16.0645 58.5449 -17.9688 58.5449 -20.7031 L 58.5449 -29.7363 C 58.5449 -32.4707 56.6406 -34.4238 53.7598 -34.4238 L 41.7969 -34.4238 C 38.916 -34.4238 37.0117 -32.4707 37.0117 -29.7363 L 37.0117 -20.7031 C 37.0117 -17.9688 38.916 -16.0645 41.7969 -16.0645 Z"/>
  </g>
  <g id="Heavy-M" transform="matrix(1 0 0 1 2566.89 1126)">
   <path d="M 31.0059 9.57031 L 108.594 9.57031 C 120.361 9.57031 127.148 2.7832 127.148 -8.93555 L 127.148 -61.5723 C 127.148 -73.3398 120.361 -80.0781 108.594 -80.0781 L 31.0059 -80.0781 C 19.1895 -80.0781 12.4512 -73.3398 12.4512 -61.5723 L 12.4512 -8.93555 C 12.4512 2.7832 19.1895 9.57031 31.0059 9.57031 Z M 28.2715 -59.2773 C 28.2715 -62.793 29.9316 -64.2578 33.252 -64.2578 L 106.348 -64.2578 C 109.619 -64.2578 111.328 -62.793 111.328 -59.2773 L 111.328 -56.0059 L 28.2715 -56.0059 Z M 33.252 -6.29883 C 29.9316 -6.29883 28.2715 -7.71484 28.2715 -11.2793 L 28.2715 -43.3594 L 111.328 -43.3594 L 111.328 -11.2793 C 111.328 -7.71484 109.619 -6.29883 106.348 -6.29883 Z M 39.8438 -16.2109 L 51.8066 -16.2109 C 54.6875 -16.2109 56.6406 -18.1641 56.6406 -20.8984 L 56.6406 -29.9316 C 56.6406 -32.666 54.6875 -34.6191 51.8066 -34.6191 L 39.8438 -34.6191 C 36.9629 -34.6191 35.0586 -32.666 35.0586 -29.9316 L 35.0586 -20.8984 C 35.0586 -18.1641 36.9629 -16.2109 39.8438 -16.2109 Z"/>
  </g>
  <g id="Bold-M" transform="matrix(1 0 0 1 2271.47 1126)">
   <path d="M 29.8828 8.1543 L 107.129 8.1543 C 118.359 8.1543 124.561 2.00195 124.561 -9.17969 L 124.561 -61.5234 C 124.561 -72.7051 118.359 -78.8574 107.129 -78.8574 L 29.8828 -78.8574 C 18.6523 -78.8574 12.4512 -72.7051 12.4512 -61.5234 L 12.4512 -9.17969 C 12.4512 2.00195 18.6523 8.1543 29.8828 8.1543 Z M 25.5371 -59.8633 C 25.5371 -63.9648 27.5391 -65.8203 31.3965 -65.8203 L 105.615 -65.8203 C 109.424 -65.8203 111.475 -63.9648 111.475 -59.8633 L 111.475 -56.3477 L 25.5371 -56.3477 Z M 31.3965 -4.93164 C 27.5391 -4.93164 25.5371 -6.78711 25.5371 -10.8398 L 25.5371 -44.2383 L 111.475 -44.2383 L 111.475 -10.8398 C 111.475 -6.78711 109.424 -4.93164 105.615 -4.93164 Z M 37.6465 -16.4062 L 49.6582 -16.4062 C 52.4902 -16.4062 54.4434 -18.3594 54.4434 -21.0938 L 54.4434 -30.127 C 54.4434 -32.8613 52.4902 -34.8145 49.6582 -34.8145 L 37.6465 -34.8145 C 34.8145 -34.8145 32.8613 -32.8613 32.8613 -30.127 L 32.8613 -21.0938 C 32.8613 -18.3594 34.8145 -16.4062 37.6465 -16.4062 Z"/>
  </g>
  <g id="Semibold-M" transform="matrix(1 0 0 1 1975.64 1126)">
   <path d="M 29.1016 7.22656 L 106.104 7.22656 C 116.943 7.22656 122.803 1.41602 122.803 -9.32617 L 122.803 -61.5234 C 122.803 -72.2656 116.943 -78.0273 106.104 -78.0273 L 29.1016 -78.0273 C 18.2617 -78.0273 12.4512 -72.2656 12.4512 -61.5234 L 12.4512 -9.32617 C 12.4512 1.46484 18.2617 7.22656 29.1016 7.22656 Z M 23.6328 -60.3027 C 23.6328 -64.7461 25.8789 -66.8457 30.127 -66.8457 L 105.127 -66.8457 C 109.277 -66.8457 111.621 -64.7461 111.621 -60.3027 L 111.621 -56.543 L 23.6328 -56.543 Z M 30.127 -3.95508 C 25.8789 -3.95508 23.6328 -6.10352 23.6328 -10.5469 L 23.6328 -44.8242 L 111.621 -44.8242 L 111.621 -10.5469 C 111.621 -6.10352 109.277 -3.95508 105.127 -3.95508 Z M 36.1816 -16.5527 L 48.1445 -16.5527 C 50.9766 -16.5527 52.9297 -18.5059 52.9297 -21.2402 L 52.9297 -30.2734 C 52.9297 -33.0078 50.9766 -34.9609 48.1445 -34.9609 L 36.1816 -34.9609 C 33.3008 -34.9609 31.3477 -33.0078 31.3477 -30.2734 L 31.3477 -21.2402 C 31.3477 -18.5059 33.3008 -16.5527 36.1816 -16.5527 Z"/>
  </g>
  <g id="Medium-M" transform="matrix(1 0 0 1 1679.61 1126)">
   <path d="M 28.5156 6.49414 L 105.371 6.49414 C 115.918 6.49414 121.436 1.02539 121.436 -9.42383 L 121.436 -61.4746 C 121.436 -71.9238 115.918 -77.3926 105.371 -77.3926 L 28.5156 -77.3926 C 17.9199 -77.3926 12.4512 -71.9727 12.4512 -61.4746 L 12.4512 -9.42383 C 12.4512 1.02539 17.9199 6.49414 28.5156 6.49414 Z M 22.168 -60.6445 C 22.168 -65.332 24.6582 -67.6758 29.1504 -67.6758 L 104.736 -67.6758 C 109.18 -67.6758 111.719 -65.332 111.719 -60.6445 L 111.719 -56.6895 L 22.168 -56.6895 Z M 29.1504 -3.27148 C 24.6582 -3.27148 22.168 -5.61523 22.168 -10.3027 L 22.168 -45.2637 L 111.719 -45.2637 L 111.719 -10.3027 C 111.719 -5.61523 109.18 -3.27148 104.736 -3.27148 Z M 35.0098 -16.6504 L 46.9727 -16.6504 C 49.8535 -16.6504 51.8066 -18.6035 51.8066 -21.3379 L 51.8066 -30.3711 C 51.8066 -33.1055 49.8535 -35.0586 46.9727 -35.0586 L 35.0098 -35.0586 C 32.1777 -35.0586 30.2246 -33.1055 30.2246 -30.3711 L 30.2246 -21.3379 C 30.2246 -18.6035 32.1777 -16.6504 35.0098 -16.6504 Z"/>
  </g>
  <g id="Regular-M" transform="matrix(1 0 0 1 1383.78 1126)">
   <path d="M 27.7832 5.51758 L 104.346 5.51758 C 114.551 5.51758 119.678 0.488281 119.678 -9.57031 L 119.678 -61.4746 C 119.678 -71.5332 114.551 -76.6113 104.346 -76.6113 L 27.7832 -76.6113 C 17.5293 -76.6113 12.4512 -71.5332 12.4512 -61.4746 L 12.4512 -9.57031 C 12.4512 0.488281 17.5293 5.51758 27.7832 5.51758 Z M 20.3125 -61.0352 C 20.3125 -66.1133 22.998 -68.75 27.8809 -68.75 L 104.248 -68.75 C 109.033 -68.75 111.816 -66.1133 111.816 -61.0352 L 111.816 -56.9336 L 20.3125 -56.9336 Z M 27.8809 -2.34375 C 22.998 -2.34375 20.3125 -4.93164 20.3125 -10.0098 L 20.3125 -45.8496 L 111.816 -45.8496 L 111.816 -10.0098 C 111.816 -4.93164 109.033 -2.34375 104.248 -2.34375 Z M 33.5449 -16.7969 L 45.5078 -16.7969 C 48.3887 -16.7969 50.293 -18.7012 50.293 -21.4844 L 50.293 -30.5176 C 50.293 -33.252 48.3887 -35.2051 45.5078 -35.2051 L 33.5449 -35.2051 C 30.6641 -35.2051 28.7598 -33.252 28.7598 -30.5176 L 28.7598 -21.4844 C 28.7598 -18.7012 30.6641 -16.7969 33.5449 -16.7969 Z"/>
  </g>
  <g id="Light-M" transform="matrix(1 0 0 1 1087.68 1126)">
   <path d="M 26.8555 4.98047 L 104.102 4.98047 C 113.623 4.98047 118.457 0.0976562 118.457 -9.27734 L 118.457 -61.4746 C 118.457 -70.8984 113.623 -75.7812 104.102 -75.7812 L 26.8555 -75.7812 C 17.2852 -75.7812 12.4512 -70.9473 12.4512 -61.4746 L 12.4512 -9.27734 C 12.4512 0.146484 17.2852 4.98047 26.8555 4.98047 Z M 18.5059 -61.1816 C 18.5059 -66.7969 21.4844 -69.7266 26.9531 -69.7266 L 103.955 -69.7266 C 109.326 -69.7266 112.451 -66.7969 112.451 -61.1816 L 112.451 -57.2754 L 18.5059 -57.2754 Z M 26.9531 -1.07422 C 21.4844 -1.07422 18.5059 -3.95508 18.5059 -9.61914 L 18.5059 -46.3379 L 112.451 -46.3379 L 112.451 -9.61914 C 112.451 -3.95508 109.326 -1.07422 103.955 -1.07422 Z M 32.8613 -16.4551 L 44.8242 -16.4551 C 47.7051 -16.4551 49.6582 -18.4082 49.6582 -21.1426 L 49.6582 -30.2246 C 49.6582 -32.959 47.7051 -34.8633 44.8242 -34.8633 L 32.8613 -34.8633 C 30.0293 -34.8633 28.0762 -32.959 28.0762 -30.2246 L 28.0762 -21.1426 C 28.0762 -18.4082 30.0293 -16.4551 32.8613 -16.4551 Z"/>
  </g>
  <g id="Thin-M" transform="matrix(1 0 0 1 791.749 1126)">
   <path d="M 25.6348 4.24805 L 103.711 4.24805 C 112.354 4.24805 116.895 -0.390625 116.895 -8.88672 L 116.895 -61.5234 C 116.895 -70.0684 112.354 -74.6582 103.711 -74.6582 L 25.6348 -74.6582 C 16.9922 -74.6582 12.4512 -70.166 12.4512 -61.5234 L 12.4512 -8.88672 C 12.4512 -0.292969 16.9922 4.24805 25.6348 4.24805 Z M 16.0645 -61.377 C 16.0645 -67.7246 19.3848 -71.0449 25.7324 -71.0449 L 103.613 -71.0449 C 109.717 -71.0449 113.281 -67.7246 113.281 -61.377 L 113.281 -57.7148 L 16.0645 -57.7148 Z M 25.7324 0.585938 C 19.3848 0.585938 16.0645 -2.68555 16.0645 -9.08203 L 16.0645 -47.0215 L 113.281 -47.0215 L 113.281 -9.08203 C 113.281 -2.68555 109.717 0.585938 103.613 0.585938 Z M 31.9824 -16.0156 L 43.9453 -16.0156 C 46.8262 -16.0156 48.7793 -17.9688 48.7793 -20.7031 L 48.7793 -29.7852 C 48.7793 -32.5195 46.8262 -34.4727 43.9453 -34.4727 L 31.9824 -34.4727 C 29.1504 -34.4727 27.1973 -32.5195 27.1973 -29.7852 L 27.1973 -20.7031 C 27.1973 -17.9688 29.1504 -16.0156 31.9824 -16.0156 Z"/>
  </g>
  <g id="Ultralight-M" transform="matrix(1 0 0 1 495.429 1126)">
   <path d="M 25 3.85742 L 103.564 3.85742 C 111.768 3.85742 116.113 -0.634766 116.113 -8.69141 L 116.113 -61.5723 C 116.113 -69.6289 111.768 -74.1211 103.564 -74.1211 L 25 -74.1211 C 16.7969 -74.1211 12.4512 -69.7754 12.4512 -61.5723 L 12.4512 -8.69141 C 12.4512 -0.488281 16.7969 3.85742 25 3.85742 Z M 14.8438 -61.4258 C 14.8438 -68.2129 18.3594 -71.7285 25.0977 -71.7285 L 103.418 -71.7285 C 109.961 -71.7285 113.721 -68.2129 113.721 -61.4258 L 113.721 -57.959 L 14.8438 -57.959 Z M 25.0977 1.46484 C 18.3594 1.46484 14.8438 -2.05078 14.8438 -8.78906 L 14.8438 -47.3633 L 113.721 -47.3633 L 113.721 -8.78906 C 113.721 -2.05078 109.961 1.46484 103.418 1.46484 Z M 31.543 -15.8203 L 43.5059 -15.8203 C 46.3867 -15.8203 48.291 -17.7246 48.291 -20.459 L 48.291 -29.5898 C 48.291 -32.3242 46.3867 -34.2285 43.5059 -34.2285 L 31.543 -34.2285 C 28.6621 -34.2285 26.7578 -32.3242 26.7578 -29.5898 L 26.7578 -20.459 C 26.7578 -17.7246 28.6621 -15.8203 31.543 -15.8203 Z"/>
  </g>
  <g id="Black-S" transform="matrix(1 0 0 1 2877.88 696)">
   <path d="M 25 0.732422 L 86.0352 0.732422 C 95.6055 0.732422 101.27 -4.93164 101.27 -14.502 L 101.27 -55.9082 C 101.27 -65.4785 95.6055 -71.1426 86.0352 -71.1426 L 25 -71.1426 C 15.4297 -71.1426 9.76562 -65.4785 9.76562 -55.9082 L 9.76562 -14.502 C 9.76562 -4.93164 15.4297 0.732422 25 0.732422 Z M 23.9258 -53.6621 C 23.9258 -56.1035 25 -56.9824 27.2461 -56.9824 L 83.7891 -56.9824 C 86.0352 -56.9824 87.1094 -56.1035 87.1094 -53.6621 L 87.1094 -51.3184 L 23.9258 -51.3184 Z M 27.2461 -13.4277 C 25 -13.4277 23.9258 -14.3066 23.9258 -16.748 L 23.9258 -41.0645 L 87.1094 -41.0645 L 87.1094 -16.748 C 87.1094 -14.3066 86.0352 -13.4277 83.7891 -13.4277 Z M 32.6172 -20.2148 L 41.9922 -20.2148 C 44.2383 -20.2148 45.752 -21.7285 45.752 -23.877 L 45.752 -30.957 C 45.752 -33.1055 44.2383 -34.6191 41.9922 -34.6191 L 32.6172 -34.6191 C 30.3711 -34.6191 28.8574 -33.1055 28.8574 -30.957 L 28.8574 -23.877 C 28.8574 -21.7285 30.3711 -20.2148 32.6172 -20.2148 Z"/>
  </g>
  <g id="Heavy-S" transform="matrix(1 0 0 1 2581.98 696)">
   <path d="M 24.3652 -0.146484 L 85.0586 -0.146484 C 94.3359 -0.146484 99.6582 -5.41992 99.6582 -14.6973 L 99.6582 -55.8594 C 99.6582 -65.1367 94.3359 -70.4102 85.0586 -70.4102 L 24.3652 -70.4102 C 15.0391 -70.4102 9.76562 -65.1367 9.76562 -55.8594 L 9.76562 -14.6973 C 9.76562 -5.41992 15.0391 -0.146484 24.3652 -0.146484 Z M 22.2656 -54.0527 C 22.2656 -56.7871 23.5352 -57.9102 26.0742 -57.9102 L 83.3008 -57.9102 C 85.8398 -57.9102 87.1582 -56.7871 87.1582 -54.0527 L 87.1582 -51.5137 L 22.2656 -51.5137 Z M 26.0742 -12.6465 C 23.5352 -12.6465 22.2656 -13.7695 22.2656 -16.5039 L 22.2656 -41.6016 L 87.1582 -41.6016 L 87.1582 -16.5039 C 87.1582 -13.7695 85.8398 -12.6465 83.3008 -12.6465 Z M 31.2012 -20.4102 L 40.5762 -20.4102 C 42.8223 -20.4102 44.3359 -21.9238 44.3359 -24.0723 L 44.3359 -31.1523 C 44.3359 -33.3008 42.8223 -34.8145 40.5762 -34.8145 L 31.2012 -34.8145 C 28.9551 -34.8145 27.4414 -33.3008 27.4414 -31.1523 L 27.4414 -24.0723 C 27.4414 -21.9238 28.9551 -20.4102 31.2012 -20.4102 Z"/>
  </g>
  <g id="Bold-S" transform="matrix(1 0 0 1 2286.19 696)">
   <path d="M 23.6328 -1.12305 L 83.9844 -1.12305 C 92.9199 -1.12305 97.8027 -6.00586 97.8027 -14.8926 L 97.8027 -55.8594 C 97.8027 -64.7461 92.9199 -69.5801 83.9844 -69.5801 L 23.6328 -69.5801 C 14.6484 -69.5801 9.76562 -64.7461 9.76562 -55.8594 L 9.76562 -14.8926 C 9.76562 -6.00586 14.6484 -1.12305 23.6328 -1.12305 Z M 20.3613 -54.541 C 20.3613 -57.6172 21.9238 -58.9844 24.8047 -58.9844 L 82.8125 -58.9844 C 85.6445 -58.9844 87.207 -57.6172 87.207 -54.541 L 87.207 -51.709 L 20.3613 -51.709 Z M 24.8047 -11.7676 C 21.9238 -11.7676 20.3613 -13.1348 20.3613 -16.2109 L 20.3613 -42.1875 L 87.207 -42.1875 L 87.207 -16.2109 C 87.207 -13.1348 85.6445 -11.7676 82.8125 -11.7676 Z M 29.5898 -20.5566 L 38.9648 -20.5566 C 41.2109 -20.5566 42.7246 -22.0703 42.7246 -24.2188 L 42.7246 -31.3477 C 42.7246 -33.4961 41.2109 -35.0098 38.9648 -35.0098 L 29.5898 -35.0098 C 27.3438 -35.0098 25.8301 -33.4961 25.8301 -31.3477 L 25.8301 -24.2188 C 25.8301 -22.0703 27.3438 -20.5566 29.5898 -20.5566 Z"/>
  </g>
  <g id="Semibold-S" transform="matrix(1 0 0 1 1990.12 696)">
   <path d="M 23.0957 -1.80664 L 83.2031 -1.80664 C 91.8945 -1.80664 96.5332 -6.39648 96.5332 -15.0391 L 96.5332 -55.8105 C 96.5332 -64.4531 91.8945 -69.043 83.2031 -69.043 L 23.0957 -69.043 C 14.3555 -69.043 9.76562 -64.4531 9.76562 -55.8105 L 9.76562 -15.0391 C 9.76562 -6.39648 14.3555 -1.80664 23.0957 -1.80664 Z M 19.0918 -54.834 C 19.0918 -58.1543 20.752 -59.7168 23.877 -59.7168 L 82.4219 -59.7168 C 85.5469 -59.7168 87.2559 -58.1543 87.2559 -54.834 L 87.2559 -51.8066 L 19.0918 -51.8066 Z M 23.877 -11.1328 C 20.752 -11.1328 19.0918 -12.6953 19.0918 -16.0156 L 19.0918 -42.5781 L 87.2559 -42.5781 L 87.2559 -16.0156 C 87.2559 -12.6953 85.5469 -11.1328 82.4219 -11.1328 Z M 28.5156 -20.7031 L 37.8906 -20.7031 C 40.1367 -20.7031 41.6504 -22.2168 41.6504 -24.3652 L 41.6504 -31.4453 C 41.6504 -33.5938 40.1367 -35.1074 37.8906 -35.1074 L 28.5156 -35.1074 C 26.2695 -35.1074 24.7559 -33.5938 24.7559 -31.4453 L 24.7559 -24.3652 C 24.7559 -22.2168 26.2695 -20.7031 28.5156 -20.7031 Z"/>
  </g>
  <g id="Medium-S" transform="matrix(1 0 0 1 1693.87 696)">
   <path d="M 22.7051 -2.34375 L 82.6172 -2.34375 C 91.1621 -2.34375 95.6055 -6.68945 95.6055 -15.1367 L 95.6055 -55.8105 C 95.6055 -64.2578 91.1621 -68.6035 82.6172 -68.6035 L 22.7051 -68.6035 C 14.1602 -68.6035 9.76562 -64.2578 9.76562 -55.8105 L 9.76562 -15.1367 C 9.76562 -6.68945 14.1602 -2.34375 22.7051 -2.34375 Z M 18.0664 -55.0781 C 18.0664 -58.5449 19.9219 -60.2539 23.1934 -60.2539 L 82.1777 -60.2539 C 85.4492 -60.2539 87.2559 -58.5449 87.2559 -55.0781 L 87.2559 -51.9043 L 18.0664 -51.9043 Z M 23.1934 -10.6445 C 19.9219 -10.6445 18.0664 -12.4023 18.0664 -15.8691 L 18.0664 -42.8711 L 87.2559 -42.8711 L 87.2559 -15.8691 C 87.2559 -12.4023 85.4492 -10.6445 82.1777 -10.6445 Z M 27.6855 -20.8008 L 37.0605 -20.8008 C 39.3066 -20.8008 40.8203 -22.3145 40.8203 -24.4629 L 40.8203 -31.543 C 40.8203 -33.6914 39.3066 -35.2051 37.0605 -35.2051 L 27.6855 -35.2051 C 25.4395 -35.2051 23.9258 -33.6914 23.9258 -31.543 L 23.9258 -24.4629 C 23.9258 -22.3145 25.4395 -20.8008 27.6855 -20.8008 Z"/>
  </g>
  <g id="Regular-S" transform="matrix(1 0 0 1 1397.79 696)">
   <path d="M 22.2168 -3.02734 L 81.8848 -3.02734 C 90.1855 -3.02734 94.3359 -7.08008 94.3359 -15.2832 L 94.3359 -55.7617 C 94.3359 -63.9648 90.1855 -68.0176 81.8848 -68.0176 L 22.2168 -68.0176 C 13.8672 -68.0176 9.76562 -63.9648 9.76562 -55.7617 L 9.76562 -15.2832 C 9.76562 -7.08008 13.8672 -3.02734 22.2168 -3.02734 Z M 16.7969 -55.3711 C 16.7969 -59.082 18.7988 -60.9863 22.3145 -60.9863 L 81.7871 -60.9863 C 85.3027 -60.9863 87.3047 -59.082 87.3047 -55.3711 L 87.3047 -52.0508 L 16.7969 -52.0508 Z M 22.3145 -10.0586 C 18.7988 -10.0586 16.7969 -11.9629 16.7969 -15.6738 L 16.7969 -43.3105 L 87.3047 -43.3105 L 87.3047 -15.6738 C 87.3047 -11.9629 85.3027 -10.0586 81.7871 -10.0586 Z M 26.6113 -20.9473 L 35.9863 -20.9473 C 38.2324 -20.9473 39.7461 -22.4609 39.7461 -24.6094 L 39.7461 -31.6895 C 39.7461 -33.8379 38.2324 -35.3516 35.9863 -35.3516 L 26.6113 -35.3516 C 24.3652 -35.3516 22.8516 -33.8379 22.8516 -31.6895 L 22.8516 -24.6094 C 22.8516 -22.4609 24.3652 -20.9473 26.6113 -20.9473 Z"/>
  </g>
  <g id="Light-S" transform="matrix(1 0 0 1 1101.6 696)">
   <path d="M 21.3867 -3.51562 L 81.6406 -3.51562 C 89.3555 -3.51562 93.3105 -7.42188 93.3105 -15.0391 L 93.3105 -55.8105 C 93.3105 -63.4277 89.3555 -67.2852 81.6406 -67.2852 L 21.3867 -67.2852 C 13.6719 -67.2852 9.76562 -63.4277 9.76562 -55.8105 L 9.76562 -15.0391 C 9.76562 -7.37305 13.6719 -3.51562 21.3867 -3.51562 Z M 15.1855 -55.5176 C 15.1855 -59.7168 17.4316 -61.8652 21.4844 -61.8652 L 81.543 -61.8652 C 85.5469 -61.8652 87.8418 -59.7168 87.8418 -55.5176 L 87.8418 -52.3438 L 15.1855 -52.3438 Z M 21.4844 -8.93555 C 17.4316 -8.93555 15.1855 -11.1328 15.1855 -15.332 L 15.1855 -43.75 L 87.8418 -43.75 L 87.8418 -15.332 C 87.8418 -11.1328 85.5469 -8.93555 81.543 -8.93555 Z M 26.0254 -20.6543 L 35.4004 -20.6543 C 37.6465 -20.6543 39.1602 -22.168 39.1602 -24.3164 L 39.1602 -31.3965 C 39.1602 -33.5449 37.6465 -35.0586 35.4004 -35.0586 L 26.0254 -35.0586 C 23.7793 -35.0586 22.2656 -33.5449 22.2656 -31.3965 L 22.2656 -24.3164 C 22.2656 -22.168 23.7793 -20.6543 26.0254 -20.6543 Z"/>
  </g>
  <g id="Thin-S" transform="matrix(1 0 0 1 805.592 696)">
   <path d="M 20.3125 -4.15039 L 81.3477 -4.15039 C 88.2812 -4.15039 91.8945 -7.8125 91.8945 -14.6973 L 91.8945 -55.8105 C 91.8945 -62.6953 88.2812 -66.3574 81.3477 -66.3574 L 20.3125 -66.3574 C 13.3789 -66.3574 9.76562 -62.7441 9.76562 -55.8105 L 9.76562 -14.6973 C 9.76562 -7.76367 13.3789 -4.15039 20.3125 -4.15039 Z M 13.0859 -55.6641 C 13.0859 -60.498 15.625 -63.0371 20.4102 -63.0371 L 81.25 -63.0371 C 85.8887 -63.0371 88.5742 -60.498 88.5742 -55.6641 L 88.5742 -52.7832 L 13.0859 -52.7832 Z M 20.4102 -7.4707 C 15.625 -7.4707 13.0859 -10.0098 13.0859 -14.8438 L 13.0859 -44.3359 L 88.5742 -44.3359 L 88.5742 -14.8438 C 88.5742 -10.0098 85.8887 -7.4707 81.25 -7.4707 Z M 25.2441 -20.2637 L 34.6191 -20.2637 C 36.8652 -20.2637 38.3789 -21.7773 38.3789 -23.9258 L 38.3789 -31.0547 C 38.3789 -33.2031 36.8652 -34.7168 34.6191 -34.7168 L 25.2441 -34.7168 C 22.998 -34.7168 21.4844 -33.2031 21.4844 -31.0547 L 21.4844 -23.9258 C 21.4844 -21.7773 22.998 -20.2637 25.2441 -20.2637 Z"/>
  </g>
  <g id="Ultralight-S" transform="matrix(1 0 0 1 509.247 696)">
   <path d="M 19.7754 -4.49219 L 81.2012 -4.49219 C 87.7441 -4.49219 91.1621 -8.05664 91.1621 -14.502 L 91.1621 -55.8594 C 91.1621 -62.3047 87.7441 -65.8203 81.2012 -65.8203 L 19.7754 -65.8203 C 13.2324 -65.8203 9.76562 -62.4023 9.76562 -55.8594 L 9.76562 -14.502 C 9.76562 -7.95898 13.2324 -4.49219 19.7754 -4.49219 Z M 11.9629 -55.7617 C 11.9629 -60.9375 14.6484 -63.623 19.873 -63.623 L 81.1035 -63.623 C 86.084 -63.623 88.9648 -60.9375 88.9648 -55.7617 L 88.9648 -52.9785 L 11.9629 -52.9785 Z M 19.873 -6.73828 C 14.6484 -6.73828 11.9629 -9.42383 11.9629 -14.5996 L 11.9629 -44.6777 L 88.9648 -44.6777 L 88.9648 -14.5996 C 88.9648 -9.42383 86.084 -6.73828 81.1035 -6.73828 Z M 24.8535 -20.0684 L 34.2285 -20.0684 C 36.4746 -20.0684 37.9883 -21.582 37.9883 -23.7305 L 37.9883 -30.8594 C 37.9883 -33.0078 36.4746 -34.5215 34.2285 -34.5215 L 24.8535 -34.5215 C 22.6074 -34.5215 21.0938 -33.0078 21.0938 -30.8594 L 21.0938 -23.7305 C 21.0938 -21.582 22.6074 -20.0684 24.8535 -20.0684 Z"/>
  </g>
 </g>
</svg>
