<?xml version="1.0" encoding="UTF-8"?>
<!--Generator: Apple Native CoreSVG 149-->
<!DOCTYPE svg
PUBLIC "-//W3C//DTD SVG 1.1//EN"
       "http://www.w3.org/Graphics/SVG/1.1/DTD/svg11.dtd">
<svg version="1.1" xmlns="http://www.w3.org/2000/svg" xmlns:xlink="http://www.w3.org/1999/xlink" width="3300" height="2200">
 <!--glyph: "uni10042D.medium", point size: 100.000000, font version: "Version 16.0d18e1", template writer version: "8"-->
 <g id="Notes">
  <rect height="2200" id="artboard" style="fill:white;opacity:1" width="3300" x="0" y="0"/>
  <line id="" style="fill:none;stroke:black;opacity:1;stroke-width:0.5;" x1="263" x2="3036" y1="292" y2="292"/>
  <text style="stroke:none;fill:black;font-family:-apple-system,&quot;SF Pro Display&quot;,&quot;SF Pro Text&quot;,Helvetica,sans-serif;font-weight:bold;" transform="matrix(1 0 0 1 263 322)">Weight/Scale Variations</text>
  <text style="stroke:none;fill:black;font-family:-apple-system,&quot;SF Pro Display&quot;,&quot;SF Pro Text&quot;,Helvetica,sans-serif;text-anchor:middle;" transform="matrix(1 0 0 1 559.711 322)">Ultralight</text>
  <text style="stroke:none;fill:black;font-family:-apple-system,&quot;SF Pro Display&quot;,&quot;SF Pro Text&quot;,Helvetica,sans-serif;text-anchor:middle;" transform="matrix(1 0 0 1 856.422 322)">Thin</text>
  <text style="stroke:none;fill:black;font-family:-apple-system,&quot;SF Pro Display&quot;,&quot;SF Pro Text&quot;,Helvetica,sans-serif;text-anchor:middle;" transform="matrix(1 0 0 1 1153.13 322)">Light</text>
  <text style="stroke:none;fill:black;font-family:-apple-system,&quot;SF Pro Display&quot;,&quot;SF Pro Text&quot;,Helvetica,sans-serif;text-anchor:middle;" transform="matrix(1 0 0 1 1449.84 322)">Regular</text>
  <text style="stroke:none;fill:black;font-family:-apple-system,&quot;SF Pro Display&quot;,&quot;SF Pro Text&quot;,Helvetica,sans-serif;text-anchor:middle;" transform="matrix(1 0 0 1 1746.56 322)">Medium</text>
  <text style="stroke:none;fill:black;font-family:-apple-system,&quot;SF Pro Display&quot;,&quot;SF Pro Text&quot;,Helvetica,sans-serif;text-anchor:middle;" transform="matrix(1 0 0 1 2043.27 322)">Semibold</text>
  <text style="stroke:none;fill:black;font-family:-apple-system,&quot;SF Pro Display&quot;,&quot;SF Pro Text&quot;,Helvetica,sans-serif;text-anchor:middle;" transform="matrix(1 0 0 1 2339.98 322)">Bold</text>
  <text style="stroke:none;fill:black;font-family:-apple-system,&quot;SF Pro Display&quot;,&quot;SF Pro Text&quot;,Helvetica,sans-serif;text-anchor:middle;" transform="matrix(1 0 0 1 2636.69 322)">Heavy</text>
  <text style="stroke:none;fill:black;font-family:-apple-system,&quot;SF Pro Display&quot;,&quot;SF Pro Text&quot;,Helvetica,sans-serif;text-anchor:middle;" transform="matrix(1 0 0 1 2933.4 322)">Black</text>
  <line id="" style="fill:none;stroke:black;opacity:1;stroke-width:0.5;" x1="263" x2="3036" y1="1903" y2="1903"/>
  <g id="" transform="matrix(1 0 0 1 263 1933)">
   <path d="M9.24805 0.830078C13.5547 0.830078 17.1387-2.74414 17.1387-7.05078C17.1387-11.3574 13.5449-14.9316 9.23828-14.9316C4.94141-14.9316 1.36719-11.3574 1.36719-7.05078C1.36719-2.74414 4.95117 0.830078 9.24805 0.830078ZM9.24805-0.654297C5.70312-0.654297 2.87109-3.49609 2.87109-7.05078C2.87109-10.6055 5.69336-13.4473 9.23828-13.4473C12.793-13.4473 15.6348-10.6055 15.6445-7.05078C15.6543-3.49609 12.8027-0.654297 9.24805-0.654297ZM6.39648-6.31836L8.50586-6.31836L8.50586-4.19922C8.50586-3.75977 8.79883-3.45703 9.22852-3.45703C9.67773-3.45703 9.9707-3.75977 9.9707-4.19922L9.9707-6.31836L12.0996-6.31836C12.5391-6.31836 12.8418-6.61133 12.8418-7.04102C12.8418-7.48047 12.5391-7.7832 12.0996-7.7832L9.9707-7.7832L9.9707-9.89258C9.9707-10.3418 9.67773-10.6445 9.22852-10.6445C8.79883-10.6445 8.50586-10.3418 8.50586-9.89258L8.50586-7.7832L6.39648-7.7832C5.94727-7.7832 5.64453-7.48047 5.64453-7.04102C5.64453-6.61133 5.94727-6.31836 6.39648-6.31836Z"/>
  </g>
  <g id="" transform="matrix(1 0 0 1 281.506 1933)">
   <path d="M11.709 2.91016C17.1582 2.91016 21.6699-1.61133 21.6699-7.05078C21.6699-12.5 17.1484-17.0117 11.6992-17.0117C6.25977-17.0117 1.74805-12.5 1.74805-7.05078C1.74805-1.61133 6.26953 2.91016 11.709 2.91016ZM11.709 1.25C7.09961 1.25 3.41797-2.44141 3.41797-7.05078C3.41797-11.6602 7.08984-15.3516 11.6992-15.3516C16.3086-15.3516 20-11.6602 20.0098-7.05078C20.0195-2.44141 16.3184 1.25 11.709 1.25ZM7.98828-6.23047L10.8789-6.23047L10.8789-3.32031C10.8789-2.83203 11.2109-2.5 11.6895-2.5C12.1777-2.5 12.5195-2.83203 12.5195-3.32031L12.5195-6.23047L15.4297-6.23047C15.918-6.23047 16.25-6.5625 16.25-7.04102C16.25-7.5293 15.918-7.87109 15.4297-7.87109L12.5195-7.87109L12.5195-10.7617C12.5195-11.2695 12.1777-11.6016 11.6895-11.6016C11.2109-11.6016 10.8789-11.2598 10.8789-10.7617L10.8789-7.87109L7.98828-7.87109C7.48047-7.87109 7.14844-7.5293 7.14844-7.04102C7.14844-6.5625 7.49023-6.23047 7.98828-6.23047Z"/>
  </g>
  <g id="" transform="matrix(1 0 0 1 304.924 1933)">
   <path d="M14.9707 5.66406C21.9336 5.66406 27.6953-0.0976562 27.6953-7.05078C27.6953-14.0137 21.9238-19.7754 14.9609-19.7754C8.00781-19.7754 2.25586-14.0137 2.25586-7.05078C2.25586-0.0976562 8.01758 5.66406 14.9707 5.66406ZM14.9707 3.84766C8.93555 3.84766 4.08203-1.01562 4.08203-7.05078C4.08203-13.0957 8.92578-17.9492 14.9609-17.9492C21.0059-17.9492 25.8594-13.0957 25.8691-7.05078C25.8789-1.01562 21.0156 3.84766 14.9707 3.84766ZM10.0586-6.14258L14.0625-6.14258L14.0625-2.12891C14.0625-1.5918 14.4336-1.2207 14.9512-1.2207C15.4883-1.2207 15.8594-1.5918 15.8594-2.12891L15.8594-6.14258L19.8828-6.14258C20.4102-6.14258 20.791-6.51367 20.791-7.03125C20.791-7.56836 20.4199-7.94922 19.8828-7.94922L15.8594-7.94922L15.8594-11.9531C15.8594-12.5098 15.4883-12.8809 14.9512-12.8809C14.4336-12.8809 14.0625-12.5 14.0625-11.9531L14.0625-7.94922L10.0586-7.94922C9.50195-7.94922 9.13086-7.56836 9.13086-7.03125C9.13086-6.51367 9.51172-6.14258 10.0586-6.14258Z"/>
  </g>
  <text style="stroke:none;fill:black;font-family:-apple-system,&quot;SF Pro Display&quot;,&quot;SF Pro Text&quot;,Helvetica,sans-serif;font-weight:bold;" transform="matrix(1 0 0 1 263 1953)">Design Variations</text>
  <text style="stroke:none;fill:black;font-family:-apple-system,&quot;SF Pro Display&quot;,&quot;SF Pro Text&quot;,Helvetica,sans-serif;" transform="matrix(1 0 0 1 263 1971)">Symbols are supported in up to nine weights and three scales.</text>
  <text style="stroke:none;fill:black;font-family:-apple-system,&quot;SF Pro Display&quot;,&quot;SF Pro Text&quot;,Helvetica,sans-serif;" transform="matrix(1 0 0 1 263 1989)">For optimal layout with text and other symbols, vertically align</text>
  <text style="stroke:none;fill:black;font-family:-apple-system,&quot;SF Pro Display&quot;,&quot;SF Pro Text&quot;,Helvetica,sans-serif;" transform="matrix(1 0 0 1 263 2007)">symbols with the adjacent text.</text>
  <line id="" style="fill:none;stroke:#00AEEF;stroke-width:0.5;opacity:1.0;" x1="776" x2="776" y1="1919" y2="1933"/>
  <g id="" transform="matrix(1 0 0 1 776 1933)">
   <path d="M3.31055 0.126953C3.82812 0.126953 4.08203-0.0683594 4.26758-0.605469L5.52734-4.0625L11.2891-4.0625L12.5488-0.605469C12.7344-0.0683594 12.9883 0.126953 13.4961 0.126953C14.0137 0.126953 14.3457-0.185547 14.3457-0.673828C14.3457-0.839844 14.3164-0.986328 14.2383-1.20117L9.6582-13.3887C9.43359-13.9941 9.0332-14.2871 8.4082-14.2871C7.80273-14.2871 7.39258-13.9941 7.17773-13.3984L2.59766-1.19141C2.51953-0.976562 2.49023-0.830078 2.49023-0.664062C2.49023-0.175781 2.80273 0.126953 3.31055 0.126953ZM6.00586-5.53711L8.37891-12.1094L8.42773-12.1094L10.8008-5.53711Z"/>
  </g>
  <line id="" style="fill:none;stroke:#00AEEF;stroke-width:0.5;opacity:1.0;" x1="792.836" x2="792.836" y1="1919" y2="1933"/>
  <text style="stroke:none;fill:black;font-family:-apple-system,&quot;SF Pro Display&quot;,&quot;SF Pro Text&quot;,Helvetica,sans-serif;font-weight:bold;" transform="matrix(1 0 0 1 776 1953)">Margins</text>
  <text style="stroke:none;fill:black;font-family:-apple-system,&quot;SF Pro Display&quot;,&quot;SF Pro Text&quot;,Helvetica,sans-serif;" transform="matrix(1 0 0 1 776 1971)">Leading and trailing margins on the left and right side of each symbol</text>
  <text style="stroke:none;fill:black;font-family:-apple-system,&quot;SF Pro Display&quot;,&quot;SF Pro Text&quot;,Helvetica,sans-serif;" transform="matrix(1 0 0 1 776 1989)">can be adjusted by modifying the x-location of the margin guidelines.</text>
  <text style="stroke:none;fill:black;font-family:-apple-system,&quot;SF Pro Display&quot;,&quot;SF Pro Text&quot;,Helvetica,sans-serif;" transform="matrix(1 0 0 1 776 2007)">Modifications are automatically applied proportionally to all</text>
  <text style="stroke:none;fill:black;font-family:-apple-system,&quot;SF Pro Display&quot;,&quot;SF Pro Text&quot;,Helvetica,sans-serif;" transform="matrix(1 0 0 1 776 2025)">scales and weights.</text>
  <g id="" transform="matrix(1 0 0 1 1289 1933)">
   <path d="M2.8418 1.86523L4.54102 3.57422C5.40039 4.44336 6.38672 4.38477 7.31445 3.35938L17.4902-7.85156C17.7539-7.76367 18.0273-7.7832 18.3398-7.8418L19.4043-8.03711L20.0684-7.36328L20.0293-6.80664C19.9902-6.30859 20.1172-5.92773 20.6055-5.44922L21.3672-4.70703C21.8457-4.22852 22.4609-4.19922 22.9297-4.66797L25.8398-7.58789C26.3086-8.05664 26.2891-8.65234 25.8105-9.13086L25.0391-9.89258C24.5605-10.3711 24.1895-10.5273 23.7109-10.4883L23.1348-10.4395L22.4902-11.0742L22.7344-12.1973C22.8613-12.7637 22.7051-13.2031 22.1191-13.7891L19.9219-15.9766C16.582-19.2969 12.1484-19.2188 9.25781-16.3281C8.83789-15.918 8.80859-15.3418 9.04297-14.9512C9.27734-14.5898 9.73633-14.3555 10.3809-14.5215C11.8457-14.8633 13.3691-14.9219 14.7949-13.9844L14.209-12.5293C14.0137-12.0508 13.9844-11.6504 14.1113-11.2891L3.04688-0.898438C2.06055 0.0195312 1.98242 0.996094 2.8418 1.86523ZM10.752-15.957C13.1836-17.7344 16.4746-17.4316 18.7012-15.2051L21.1328-12.793C21.3672-12.5586 21.4062-12.373 21.3379-12.0312L21.0156-10.5469L22.5195-9.0625L23.5059-9.12109C23.7598-9.13086 23.8379-9.11133 24.0332-8.91602L24.6094-8.33984L22.168-5.89844L21.5918-6.47461C21.3965-6.66992 21.3672-6.74805 21.377-7.01172L21.4453-7.98828L19.9512-9.47266L18.4277-9.21875C18.1055-9.15039 17.959-9.17969 17.7148-9.41406L15.7129-11.416C15.459-11.6504 15.4297-11.8164 15.5859-12.1875L16.4648-14.2773C14.9023-15.7324 12.8711-16.3574 10.8398-15.7617C10.6836-15.7227 10.625-15.8496 10.752-15.957ZM5.27344 2.30469L4.10156 1.14258C3.63281 0.683594 3.74023 0.341797 4.14062-0.0195312L14.9512-10.1953L16.416-8.71094L6.42578 2.27539C6.07422 2.67578 5.74219 2.77344 5.27344 2.30469Z"/>
  </g>
  <text style="stroke:none;fill:black;font-family:-apple-system,&quot;SF Pro Display&quot;,&quot;SF Pro Text&quot;,Helvetica,sans-serif;font-weight:bold;" transform="matrix(1 0 0 1 1289 1953)">Exporting</text>
  <text style="stroke:none;fill:black;font-family:-apple-system,&quot;SF Pro Display&quot;,&quot;SF Pro Text&quot;,Helvetica,sans-serif;" transform="matrix(1 0 0 1 1289 1971)">Symbols should be outlined when exporting to ensure the</text>
  <text style="stroke:none;fill:black;font-family:-apple-system,&quot;SF Pro Display&quot;,&quot;SF Pro Text&quot;,Helvetica,sans-serif;" transform="matrix(1 0 0 1 1289 1989)">design is preserved when submitting to Xcode.</text>
  <text id="template-version" style="stroke:none;fill:black;font-family:-apple-system,&quot;SF Pro Display&quot;,&quot;SF Pro Text&quot;,Helvetica,sans-serif;text-anchor:end;" transform="matrix(1 0 0 1 3036 1933)">Template v.2.0</text>
  <text style="stroke:none;fill:black;font-family:-apple-system,&quot;SF Pro Display&quot;,&quot;SF Pro Text&quot;,Helvetica,sans-serif;text-anchor:end;" transform="matrix(1 0 0 1 3036 1951)">Requires Xcode 12 or greater</text>
  <text style="stroke:none;fill:black;font-family:-apple-system,&quot;SF Pro Display&quot;,&quot;SF Pro Text&quot;,Helvetica,sans-serif;text-anchor:end;" transform="matrix(1 0 0 1 3036 1969)">Generated from alarm</text>
  <text style="stroke:none;fill:black;font-family:-apple-system,&quot;SF Pro Display&quot;,&quot;SF Pro Text&quot;,Helvetica,sans-serif;text-anchor:end;" transform="matrix(1 0 0 1 3036 1987)">Typeset at 100 points</text>
  <text style="stroke:none;fill:black;font-family:-apple-system,&quot;SF Pro Display&quot;,&quot;SF Pro Text&quot;,Helvetica,sans-serif;" transform="matrix(1 0 0 1 263 726)">Small</text>
  <text style="stroke:none;fill:black;font-family:-apple-system,&quot;SF Pro Display&quot;,&quot;SF Pro Text&quot;,Helvetica,sans-serif;" transform="matrix(1 0 0 1 263 1156)">Medium</text>
  <text style="stroke:none;fill:black;font-family:-apple-system,&quot;SF Pro Display&quot;,&quot;SF Pro Text&quot;,Helvetica,sans-serif;" transform="matrix(1 0 0 1 263 1586)">Large</text>
 </g>
 <g id="Guides">
  <g id="H-reference" style="fill:#27AAE1;stroke:none;" transform="matrix(1 0 0 1 339 696)">
   <path d="M0.976562 0L3.66211 0L12.9883-24.4629L45.752-24.4629L55.127 0L57.7637 0L30.6152-70.459L28.125-70.459ZM29.3457-67.1387L29.4434-67.1387L44.873-26.709L13.8672-26.709Z"/>
  </g>
  <line id="Baseline-S" style="fill:none;stroke:#27AAE1;opacity:1;stroke-width:0.5;" x1="263" x2="3036" y1="696" y2="696"/>
  <line id="Capline-S" style="fill:none;stroke:#27AAE1;opacity:1;stroke-width:0.5;" x1="263" x2="3036" y1="625.541" y2="625.541"/>
  <g id="H-reference" style="fill:#27AAE1;stroke:none;" transform="matrix(1 0 0 1 339 1126)">
   <path d="M0.976562 0L3.66211 0L12.9883-24.4629L45.752-24.4629L55.127 0L57.7637 0L30.6152-70.459L28.125-70.459ZM29.3457-67.1387L29.4434-67.1387L44.873-26.709L13.8672-26.709Z"/>
  </g>
  <line id="Baseline-M" style="fill:none;stroke:#27AAE1;opacity:1;stroke-width:0.5;" x1="263" x2="3036" y1="1126" y2="1126"/>
  <line id="Capline-M" style="fill:none;stroke:#27AAE1;opacity:1;stroke-width:0.5;" x1="263" x2="3036" y1="1055.54" y2="1055.54"/>
  <g id="H-reference" style="fill:#27AAE1;stroke:none;" transform="matrix(1 0 0 1 339 1556)">
   <path d="M0.976562 0L3.66211 0L12.9883-24.4629L45.752-24.4629L55.127 0L57.7637 0L30.6152-70.459L28.125-70.459ZM29.3457-67.1387L29.4434-67.1387L44.873-26.709L13.8672-26.709Z"/>
  </g>
  <line id="Baseline-L" style="fill:none;stroke:#27AAE1;opacity:1;stroke-width:0.5;" x1="263" x2="3036" y1="1556" y2="1556"/>
  <line id="Capline-L" style="fill:none;stroke:#27AAE1;opacity:1;stroke-width:0.5;" x1="263" x2="3036" y1="1485.54" y2="1485.54"/>
  <line id="left-margin" style="fill:none;stroke:#00AEEF;stroke-width:0.5;opacity:1.0;" x1="1394.42" x2="1394.42" y1="1030.79" y2="1150.12"/>
  <line id="right-margin" style="fill:none;stroke:#00AEEF;stroke-width:0.5;opacity:1.0;" x1="1505.26" x2="1505.26" y1="1030.79" y2="1150.12"/>
 </g>
 <g id="Symbols">
  <g id="Black-L" transform="matrix(1 0 0 1 2859.91 1556)">
   <path d="M17.7246-81.2012C18.75-81.2012 19.4336-81.6406 20.459-82.3242L46.4844-100.049C47.5586-100.83 48.2422-101.953 48.2422-103.174C48.2422-104.736 47.4609-106.201 46.0938-107.227C42.4805-109.814 37.9883-111.328 33.0078-111.328C21.7285-111.328 12.3535-102.734 12.3535-91.8457C12.3535-88.623 12.8906-86.084 13.7207-84.082C14.4531-82.4219 15.9668-81.2012 17.7246-81.2012ZM129.297-81.2012C131.055-81.2012 132.52-82.4219 133.301-84.082C134.131-86.0352 134.57-88.623 134.57-91.8457C134.57-102.734 125.293-111.328 113.965-111.328C108.984-111.328 104.443-109.814 100.879-107.227C99.4629-106.201 98.7305-104.736 98.7305-103.174C98.7305-101.953 99.4141-100.83 100.488-100.049L126.562-82.3242C127.539-81.6406 128.223-81.2012 129.297-81.2012ZM18.2129 27.9297C21.3379 31.0059 26.0742 30.8105 29.1504 27.6367L40.1367 16.7969C49.7559 22.9492 61.1816 26.5137 73.4863 26.5137C85.7422 26.5137 97.2168 22.9492 106.836 16.7969L117.773 27.6367C120.947 30.7617 125.635 31.0059 128.76 27.9297C131.689 25.0488 131.738 20.459 128.76 17.5293L118.506 7.22656C129.15-3.95508 135.693-19.043 135.693-35.6934C135.693-70.0684 107.861-97.9004 73.4863-97.9004C39.1113-97.9004 11.2793-70.0684 11.2793-35.6934C11.2793-19.043 17.8223-3.95508 28.4668 7.22656L18.2129 17.5293C15.2344 20.459 15.2832 25.0488 18.2129 27.9297ZM73.4863 7.61719C49.5117 7.61719 30.127-11.7188 30.127-35.6934C30.127-59.668 49.5117-79.0039 73.4863-79.0039C97.4121-79.0039 116.797-59.668 116.797-35.6934C116.797-11.7188 97.4121 7.61719 73.4863 7.61719ZM50.4395-25.1465L73.4375-25.1465C77.2461-25.1465 80.1758-28.125 80.1758-31.8848L80.1758-63.3301C80.1758-67.041 77.2461-70.0195 73.4375-70.0195C69.6777-70.0195 66.748-67.041 66.748-63.3301L66.748-38.5254L50.4395-38.5254C46.6797-38.5254 43.75-35.5957 43.75-31.8848C43.75-28.125 46.6797-25.1465 50.4395-25.1465Z"/>
  </g>
  <g id="Heavy-L" transform="matrix(1 0 0 1 2563.76 1556)">
   <path d="M18.4082-80.9082C19.4336-80.9082 20.0684-81.25 21.0938-81.9824L45.8496-99.1211C46.9238-99.8535 47.5586-100.977 47.5586-102.148C47.5586-103.613 46.8262-105.029 45.5078-106.055C42.1875-108.545 37.793-109.912 33.1055-109.912C22.2168-109.912 13.2812-101.562 13.2812-90.9668C13.2812-88.0371 13.7695-85.5469 14.5508-83.6914C15.2344-82.0801 16.6992-80.9082 18.4082-80.9082ZM127.441-80.9082C129.15-80.9082 130.615-82.0801 131.348-83.6914C132.129-85.498 132.568-88.0371 132.568-90.9668C132.568-101.562 123.682-109.912 112.744-109.912C108.057-109.912 103.613-108.545 100.342-106.055C98.9746-105.029 98.291-103.613 98.291-102.148C98.291-100.977 98.9258-99.8535 100-99.1211L124.756-81.9824C125.732-81.25 126.416-80.9082 127.441-80.9082ZM18.457 26.6602C21.2402 29.3945 25.4883 29.248 28.2227 26.4648L38.9648 15.8203C48.6816 22.2168 60.3516 25.9766 72.9004 25.9766C85.4492 25.9766 97.1191 22.2168 106.885 15.8203L117.578 26.4648C120.41 29.1992 124.609 29.3945 127.344 26.6602C129.98 24.0723 129.98 19.9707 127.344 17.334L117.236 7.17773C127.93-3.90625 134.57-18.9941 134.57-35.6445C134.57-69.7266 106.982-97.3145 72.9004-97.3145C38.8672-97.3145 11.2793-69.7266 11.2793-35.6445C11.2793-18.9941 17.8711-3.90625 28.6133 7.17773L18.5059 17.334C15.8203 19.9707 15.8691 24.0723 18.457 26.6602ZM72.9004 9.42383C47.998 9.42383 27.832-10.7422 27.832-35.6445C27.832-60.5469 47.998-80.7129 72.9004-80.7129C97.8027-80.7129 117.969-60.5469 117.969-35.6445C117.969-10.7422 97.8027 9.42383 72.9004 9.42383ZM48.291-26.0742L72.9004-26.0742C76.2695-26.0742 78.9062-28.7109 78.9062-32.0801L78.9062-65.5273C78.9062-68.8477 76.2695-71.4844 72.9004-71.4844C69.4824-71.4844 66.8457-68.8477 66.8457-65.5273L66.8457-38.0859L48.291-38.0859C44.873-38.0859 42.2363-35.4492 42.2363-32.0801C42.2363-28.7109 44.873-26.0742 48.291-26.0742Z"/>
  </g>
  <g id="Bold-L" transform="matrix(1 0 0 1 2267.69 1556)">
   <path d="M19.1895-80.5664C20.166-80.5664 20.8496-80.8594 21.8262-81.543L45.166-98.0469C46.1914-98.7793 46.7773-99.8535 46.7773-100.977C46.7773-102.393 46.0938-103.662 44.873-104.688C41.8945-107.08 37.5977-108.35 33.2031-108.35C22.7539-108.35 14.2578-100.244 14.2578-90.0391C14.2578-87.3535 14.6973-84.9609 15.4297-83.252C16.1621-81.6895 17.5293-80.5664 19.1895-80.5664ZM125.391-80.5664C127.051-80.5664 128.418-81.6895 129.15-83.252C129.883-84.9121 130.273-87.3535 130.273-90.0391C130.273-100.244 121.826-108.35 111.328-108.35C106.982-108.35 102.686-107.08 99.707-104.688C98.4375-103.662 97.7539-102.393 97.7539-100.977C97.7539-99.8535 98.3887-98.7793 99.4629-98.0469L122.803-81.543C123.73-80.8594 124.365-80.5664 125.391-80.5664ZM18.75 25.2441C21.1426 27.5879 24.8047 27.4902 27.1973 25.0977L37.6953 14.6484C47.5098 21.4355 59.4238 25.3906 72.2656 25.3906C85.1074 25.3906 97.0215 21.4355 106.885 14.6484L117.383 25.0977C119.775 27.4902 123.438 27.5879 125.83 25.2441C128.076 22.998 128.076 19.4336 125.781 17.1387L115.771 7.17773C126.611-3.85742 133.301-18.9453 133.301-35.5957C133.301-69.2871 106.006-96.582 72.2656-96.582C38.5742-96.582 11.2793-69.2871 11.2793-35.5957C11.2793-18.9453 17.9688-3.85742 28.7598 7.17773L18.7988 17.1387C16.4551 19.4336 16.5039 22.998 18.75 25.2441ZM72.2656 11.377C46.3379 11.377 25.293-9.61914 25.293-35.5957C25.293-61.5234 46.3379-82.5684 72.2656-82.5684C98.1934-82.5684 119.238-61.5234 119.238-35.5957C119.238-9.61914 98.1934 11.377 72.2656 11.377ZM45.8008-27.0996L72.2168-27.0996C75.1953-27.0996 77.4902-29.3945 77.4902-32.373L77.4902-67.9199C77.4902-70.8496 75.1953-73.1445 72.2168-73.1445C69.2871-73.1445 66.9922-70.8496 66.9922-67.9199L66.9922-37.5488L45.8008-37.5488C42.8711-37.5488 40.5762-35.2539 40.5762-32.373C40.5762-29.3945 42.8711-27.0996 45.8008-27.0996Z"/>
  </g>
  <g id="Semibold-L" transform="matrix(1 0 0 1 1971.42 1556)">
   <path d="M19.7266-80.3223C20.7031-80.3223 21.3379-80.5664 22.3145-81.2988L44.6289-97.3145C45.7031-98.0469 46.2891-99.0723 46.2891-100.195C46.2891-101.562 45.6055-102.783 44.4336-103.76C41.6504-106.055 37.4023-107.275 33.3008-107.275C23.0957-107.275 14.9414-99.3652 14.9414-89.4043C14.9414-86.9141 15.3809-84.5703 16.0645-82.959C16.748-81.3965 18.1152-80.3223 19.7266-80.3223ZM123.975-80.3223C125.635-80.3223 126.904-81.4453 127.637-82.959C128.369-84.5215 128.76-86.9141 128.76-89.4043C128.76-99.3652 120.605-107.275 110.4-107.275C106.25-107.275 102.051-106.055 99.2676-103.76C98.0957-102.783 97.4121-101.562 97.4121-100.195C97.4121-99.0723 97.998-98.0469 99.0723-97.3145L121.387-81.2988C122.314-80.5664 122.998-80.3223 123.975-80.3223ZM18.9453 24.2676C21.0449 26.3672 24.3652 26.3184 26.4648 24.1699L36.8164 13.8672C46.7285 20.8496 58.7891 25 71.8262 25C84.9121 25 96.9727 20.8496 106.885 13.8672L117.188 24.1699C119.336 26.2695 122.607 26.3672 124.756 24.2676C126.758 22.2656 126.758 19.043 124.707 16.9922L114.795 7.12891C125.684-3.80859 132.422-18.8965 132.422-35.5469C132.422-68.9941 105.322-96.1426 71.8262-96.1426C38.4277-96.1426 11.2793-68.9941 11.2793-35.5469C11.2793-18.8965 18.0176-3.80859 28.9062 7.12891L18.9941 16.9922C16.9434 19.043 16.9434 22.2656 18.9453 24.2676ZM71.8262 12.7441C45.166 12.7441 23.5352-8.83789 23.5352-35.5469C23.5352-62.207 45.166-83.8379 71.8262-83.8379C98.4863-83.8379 120.117-62.207 120.117-35.5469C120.117-8.83789 98.4863 12.7441 71.8262 12.7441ZM44.1406-27.7832L71.7773-27.7832C74.4629-27.7832 76.5137-29.8828 76.5137-32.5195L76.5137-69.5801C76.5137-72.2168 74.4629-74.2676 71.7773-74.2676C69.1895-74.2676 67.0898-72.2168 67.0898-69.5801L67.0898-37.207L44.1406-37.207C41.4551-37.207 39.4043-35.1562 39.4043-32.5195C39.4043-29.8828 41.4551-27.7832 44.1406-27.7832Z"/>
  </g>
  <g id="Medium-L" transform="matrix(1 0 0 1 1675.05 1556)">
   <path d="M20.166-80.1758C21.0938-80.1758 21.7773-80.3711 22.6562-81.0547L44.2871-96.7285C45.3125-97.5098 45.8984-98.4863 45.8984-99.5605C45.8984-100.928 45.2148-102.051 44.0918-103.076C41.5039-105.322 37.3047-106.445 33.3496-106.445C23.3887-106.445 15.4785-98.6816 15.4785-88.916C15.4785-86.5723 15.8691-84.2285 16.5527-82.7148C17.2363-81.2012 18.5059-80.1758 20.166-80.1758ZM122.9-80.1758C124.512-80.1758 125.781-81.25 126.514-82.7148C127.197-84.2285 127.539-86.5723 127.539-88.916C127.539-98.6816 119.678-106.445 109.668-106.445C105.713-106.445 101.562-105.322 98.9746-103.076C97.8027-102.051 97.168-100.928 97.168-99.5605C97.168-98.4863 97.7051-97.5098 98.7793-96.7285L120.361-81.0547C121.289-80.3711 121.924-80.1758 122.9-80.1758ZM19.0918 23.5352C20.9961 25.4395 24.0234 25.3906 25.9277 23.4375L36.1816 13.2324C46.0938 20.459 58.3008 24.707 71.5332 24.707C84.7168 24.707 96.9238 20.459 106.836 13.2324L117.09 23.4375C119.043 25.3906 122.021 25.4395 123.926 23.5352C125.732 21.7285 125.781 18.75 123.877 16.8945L114.062 7.12891C125-3.80859 131.738-18.8965 131.738-35.5469C131.738-68.7988 104.785-95.752 71.5332-95.752C38.2812-95.752 11.2793-68.7988 11.2793-35.5469C11.2793-18.8965 18.0664-3.80859 29.0039 7.12891L19.1406 16.8945C17.2852 18.75 17.2852 21.7285 19.0918 23.5352ZM71.5332 13.8184C44.2871 13.8184 22.168-8.25195 22.168-35.5469C22.168-62.7441 44.2871-84.8145 71.5332-84.8145C98.7305-84.8145 120.801-62.7441 120.801-35.5469C120.801-8.25195 98.7305 13.8184 71.5332 13.8184ZM42.8711-28.3203L71.4844-28.3203C73.9258-28.3203 75.7812-30.2246 75.7812-32.666L75.7812-70.8496C75.7812-73.2422 73.9258-75.1465 71.4844-75.1465C69.0918-75.1465 67.1875-73.2422 67.1875-70.8496L67.1875-36.9629L42.8711-36.9629C40.4297-36.9629 38.5254-35.0586 38.5254-32.666C38.5254-30.2246 40.4297-28.3203 42.8711-28.3203Z"/>
  </g>
  <g id="Regular-L" transform="matrix(1 0 0 1 1378.75 1556)">
   <path d="M20.6543-79.9316C21.6309-79.9316 22.2656-80.0781 23.1445-80.7617L43.7988-95.9961C44.8242-96.7773 45.3613-97.7539 45.3613-98.7793C45.3613-100.098 44.7266-101.172 43.6523-102.148C41.2598-104.297 37.1582-105.371 33.4473-105.371C23.7305-105.371 16.1621-97.8027 16.1621-88.2812C16.1621-86.084 16.5039-83.8379 17.1387-82.4219C17.8223-80.9082 19.0918-79.9316 20.6543-79.9316ZM121.484-79.9316C123.096-79.9316 124.316-80.957 125-82.4219C125.684-83.7891 126.025-86.084 126.025-88.2812C126.025-97.8027 118.408-105.371 108.74-105.371C105.029-105.371 100.928-104.297 98.5352-102.148C97.4121-101.172 96.8262-100.098 96.8262-98.7793C96.8262-97.7539 97.3633-96.7773 98.3887-95.9961L118.994-80.7617C119.873-80.0781 120.557-79.9316 121.484-79.9316ZM19.3359 22.5586C20.9473 24.2188 23.5352 24.2188 25.2441 22.5098L35.3516 12.4023C45.3125 19.873 57.666 24.3164 71.0938 24.3164C84.4727 24.3164 96.875 19.873 106.836 12.4512L116.943 22.5098C118.604 24.2188 121.24 24.2188 122.852 22.5586C124.463 20.9961 124.463 18.4082 122.803 16.7969L113.037 7.08008C124.072-3.75977 130.908-18.8477 130.908-35.498C130.908-68.5059 104.102-95.3125 71.0938-95.3125C38.0859-95.3125 11.2793-68.5059 11.2793-35.498C11.2793-18.8477 18.1152-3.75977 29.1016 7.08008L19.3848 16.7969C17.7246 18.4082 17.7246 20.9961 19.3359 22.5586ZM71.0938 15.1367C43.1152 15.1367 20.459-7.51953 20.459-35.498C20.459-63.4277 43.1152-86.084 71.0938-86.084C99.0234-86.084 121.68-63.4277 121.68-35.498C121.68-7.51953 99.0234 15.1367 71.0938 15.1367ZM41.1621-29.0527L71.0449-29.0527C73.1934-29.0527 74.8535-30.7129 74.8535-32.8613L74.8535-72.5098C74.8535-74.6094 73.1934-76.2695 71.0449-76.2695C68.9453-76.2695 67.2852-74.6094 67.2852-72.5098L67.2852-36.6211L41.1621-36.6211C39.0137-36.6211 37.4023-34.9609 37.4023-32.8613C37.4023-30.7129 39.0137-29.0527 41.1621-29.0527Z"/>
  </g>
  <g id="Light-L" transform="matrix(1 0 0 1 1082.65 1556)">
   <path d="M21.9238-80.3711C22.8516-80.3711 23.4375-80.5176 24.3164-81.2012L44.3359-95.5566C45.3613-96.2891 45.8984-97.2168 45.8984-98.2422C45.8984-99.5117 45.2637-100.537 44.1406-101.562C41.7969-103.662 37.9395-104.688 34.2285-104.688C24.8047-104.688 17.5781-97.4121 17.5781-88.2812C17.5781-86.3281 17.8711-84.2285 18.5059-82.8613C19.1406-81.3965 20.2637-80.3711 21.9238-80.3711ZM119.092-80.3711C120.703-80.3711 121.826-81.3965 122.461-82.8613C123.096-84.2285 123.389-86.3281 123.389-88.2812C123.389-97.4121 116.211-104.688 106.738-104.688C103.076-104.688 99.2188-103.662 96.8262-101.562C95.7031-100.537 95.1172-99.5117 95.1172-98.2422C95.1172-97.2168 95.6055-96.2891 96.6797-95.5566L116.65-81.2012C117.529-80.5176 118.164-80.3711 119.092-80.3711ZM19.9707 22.1191C21.2402 23.3887 23.1934 23.3887 24.5117 22.0703L34.7656 11.7676C44.7266 19.2871 57.0801 23.7793 70.5078 23.7793C83.8867 23.7793 96.2891 19.2871 106.201 11.7676L116.504 22.0703C117.773 23.3887 119.727 23.3887 120.996 22.1191C122.217 20.8984 122.217 18.9453 120.996 17.7246L110.938 7.76367C122.51-3.07617 129.688-18.4082 129.688-35.4492C129.688-68.0664 103.174-94.6777 70.5078-94.6777C37.8906-94.6777 11.2793-68.0664 11.2793-35.4492C11.2793-18.457 18.5059-3.07617 30.0293 7.76367L20.0195 17.7246C18.75 18.9453 18.75 20.8984 19.9707 22.1191ZM70.5078 16.7969C41.6992 16.7969 18.2617-6.5918 18.2617-35.4492C18.2617-64.209 41.6992-87.6465 70.5078-87.6465C99.2676-87.6465 122.656-64.209 122.656-35.4492C122.656-6.5918 99.2676 16.7969 70.5078 16.7969ZM38.916-29.6875L70.459-29.6875C72.168-29.6875 73.4863-31.0059 73.4863-32.7148L73.4863-74.3652C73.4863-76.0254 72.168-77.2949 70.459-77.2949C68.8477-77.2949 67.5293-76.0254 67.5293-74.3652L67.5293-35.6445L38.916-35.6445C37.207-35.6445 35.9375-34.3262 35.9375-32.7148C35.9375-31.0059 37.207-29.6875 38.916-29.6875Z"/>
  </g>
  <g id="Thin-L" transform="matrix(1 0 0 1 786.72 1556)">
   <path d="M23.5352-80.957C24.4629-80.957 25-81.1035 25.9277-81.7871L45.0195-94.9219C46.0938-95.6543 46.582-96.4844 46.582-97.5586C46.582-98.7793 45.9961-99.7559 44.8242-100.781C42.4805-102.832 38.916-103.711 35.3027-103.711C26.1719-103.711 19.4824-96.9238 19.4824-88.2812C19.4824-86.6699 19.6289-84.7656 20.3125-83.3984C20.8496-81.9824 21.875-80.957 23.5352-80.957ZM115.869-80.957C117.529-80.957 118.555-81.9824 119.141-83.3984C119.678-84.7656 119.971-86.6699 119.971-88.2812C119.971-96.9238 113.232-103.711 104.15-103.711C100.488-103.711 96.9727-102.832 94.6289-100.781C93.4082-99.7559 92.8711-98.7793 92.8711-97.5586C92.8711-96.4844 93.3594-95.6543 94.3848-94.9219L113.525-81.7871C114.404-81.1035 114.99-80.957 115.869-80.957ZM20.8496 21.4844C21.6309 22.2656 22.7539 22.2656 23.5352 21.4844L34.0332 10.8398C43.9453 18.5059 56.2988 23.0469 69.7266 23.0469C83.1055 23.0469 95.5078 18.5059 105.371 10.8398L115.918 21.4844C116.699 22.2656 117.773 22.2656 118.555 21.4844C119.336 20.752 119.238 19.6289 118.555 18.9453L108.154 8.59375C120.41-2.14844 128.125-17.8711 128.125-35.3516C128.125-67.5293 101.904-93.7988 69.7266-93.7988C37.5977-93.7988 11.2793-67.5293 11.2793-35.3516C11.2793-17.9199 19.043-2.14844 31.2988 8.59375L20.8496 18.9453C20.166 19.6289 20.0684 20.752 20.8496 21.4844ZM69.7266 18.9453C39.7949 18.9453 15.4297-5.37109 15.4297-35.3516C15.4297-65.2832 39.7949-89.6484 69.7266-89.6484C99.6582-89.6484 124.023-65.2832 124.023-35.3516C124.023-5.37109 99.6582 18.9453 69.7266 18.9453ZM35.9375-30.5176L69.6777-30.5176C70.8008-30.5176 71.6797-31.3965 71.6797-32.5195L71.6797-76.8555C71.6797-77.8809 70.8008-78.6621 69.6777-78.6621C68.75-78.6621 67.8711-77.8809 67.8711-76.8555L67.8711-34.3262L35.9375-34.3262C34.8145-34.3262 34.0332-33.4961 34.0332-32.5195C34.0332-31.3965 34.8145-30.5176 35.9375-30.5176Z"/>
  </g>
  <g id="Ultralight-L" transform="matrix(1 0 0 1 490.4 1556)">
   <path d="M24.4141-81.25C25.293-81.25 25.8301-81.3965 26.709-82.0312L45.4102-94.6289C46.4355-95.3613 46.9238-96.1426 46.9238-97.168C46.9238-98.3887 46.3379-99.3164 45.1172-100.391C42.8223-102.393 39.4531-103.223 35.8398-103.223C26.9043-103.223 20.4102-96.6797 20.4102-88.2812C20.4102-86.8164 20.5566-85.0098 21.1914-83.6426C21.7773-82.3242 22.7051-81.25 24.4141-81.25ZM114.209-81.25C115.918-81.25 116.846-82.2754 117.432-83.6426C117.969-85.0098 118.213-86.8164 118.213-88.2812C118.213-96.6797 111.719-103.223 102.783-103.223C99.1699-103.223 95.8008-102.393 93.457-100.391C92.2852-99.3164 91.6992-98.3887 91.6992-97.168C91.6992-96.1426 92.1875-95.3613 93.2129-94.6289L111.914-82.0312C112.793-81.3965 113.33-81.25 114.209-81.25ZM21.2891 21.1914C21.8262 21.7285 22.5098 21.7285 22.998 21.1914L33.6914 10.3516C43.5547 18.0664 55.9082 22.7051 69.2871 22.7051C82.7148 22.7051 95.1172 18.1152 104.98 10.4004L115.576 21.1914C116.113 21.7285 116.797 21.7285 117.334 21.1914C117.822 20.6543 117.725 19.9707 117.334 19.5801L106.689 8.98438C119.287-1.66016 127.344-17.627 127.344-35.3516C127.344-67.2363 101.27-93.3594 69.2871-93.3594C37.4023-93.3594 11.2793-67.2363 11.2793-35.3516C11.2793-17.627 19.3359-1.70898 31.9824 8.98438L21.2891 19.5801C20.8496 19.9707 20.8008 20.6543 21.2891 21.1914ZM69.2871 20.0195C38.8184 20.0195 13.9648-4.73633 13.9648-35.3516C13.9648-65.8691 38.8184-90.6738 69.2871-90.6738C99.8535-90.6738 124.658-65.8691 124.658-35.3516C124.658-4.73633 99.8535 20.0195 69.2871 20.0195ZM34.4238-30.957L69.2871-30.957C70.1172-30.957 70.752-31.5918 70.752-32.4219L70.752-78.125C70.752-78.8574 70.1172-79.3457 69.2871-79.3457C68.6523-79.3457 68.0664-78.8574 68.0664-78.125L68.0664-33.6426L34.4238-33.6426C33.5938-33.6426 33.0566-33.0566 33.0566-32.4219C33.0566-31.5918 33.5938-30.957 34.4238-30.957Z"/>
  </g>
  <g id="Black-M" transform="matrix(1 0 0 1 2876 1126)">
   <path d="M13.4766-71.5332C14.2578-71.5332 14.7461-71.9238 15.625-72.4609L37.207-86.5234C37.9883-87.0605 38.5742-87.9883 38.5742-89.0137C38.5742-90.2832 37.9395-91.5039 36.7676-92.334C33.5938-94.4824 30.127-95.7031 25.8301-95.7031C16.7969-95.7031 9.13086-88.916 9.13086-80.2246C9.13086-77.5391 9.57031-75.5371 10.2539-73.8281C10.8398-72.5098 12.0117-71.5332 13.4766-71.5332ZM101.367-71.5332C102.832-71.5332 104.004-72.5098 104.59-73.8281C105.273-75.5371 105.615-77.5391 105.615-80.2246C105.615-88.916 98.0469-95.7031 88.916-95.7031C84.668-95.7031 81.2012-94.4824 78.0273-92.334C76.8555-91.5039 76.2207-90.2832 76.2207-89.0137C76.2207-87.9883 76.7578-87.0605 77.6367-86.5234L99.2188-72.4609C100-71.9238 100.537-71.5332 101.367-71.5332ZM14.1113 15.1367C16.7969 17.7734 20.8008 17.5781 23.4375 14.8926L32.373 6.10352C39.6484 10.498 48.2422 12.9883 57.373 12.9883C66.5527 12.9883 75.0977 10.498 82.4219 6.10352L91.3086 14.8926C94.043 17.5293 97.998 17.7734 100.684 15.1367C103.174 12.6953 103.174 8.88672 100.684 6.34766L92.4805-1.9043C100.879-10.6445 106.055-22.5586 106.055-35.6445C106.055-62.5 84.2773-84.2773 57.373-84.2773C30.5176-84.2773 8.74023-62.5 8.74023-35.6445C8.74023-22.5586 13.916-10.6445 22.3145-1.9043L14.1113 6.34766C11.5723 8.88672 11.5723 12.6953 14.1113 15.1367ZM57.373-3.51562C39.6484-3.51562 25.293-17.8711 25.293-35.6445C25.293-53.418 39.6484-67.7246 57.373-67.7246C75.1465-67.7246 89.502-53.418 89.502-35.6445C89.502-17.8711 75.1465-3.51562 57.373-3.51562ZM40.8691-26.5137L57.373-26.5137C60.5957-26.5137 63.0859-29.0527 63.0859-32.2266L63.0859-55.127C63.0859-58.252 60.5957-60.7422 57.373-60.7422C54.1992-60.7422 51.6602-58.252 51.6602-55.127L51.6602-37.8906L40.8691-37.8906C37.6465-37.8906 35.1562-35.3516 35.1562-32.2266C35.1562-29.0527 37.6465-26.5137 40.8691-26.5137Z"/>
  </g>
  <g id="Heavy-M" transform="matrix(1 0 0 1 2579.76 1126)">
   <path d="M13.916-71.0938C14.6973-71.0938 15.1855-71.3867 16.0156-71.9727L36.3281-85.5957C37.1582-86.1816 37.6953-87.0605 37.6953-88.0371C37.6953-89.209 37.1094-90.3809 35.9863-91.1621C33.1543-93.2129 29.6875-94.3848 25.7324-94.3848C16.9922-94.3848 9.76562-87.7441 9.76562-79.2969C9.76562-76.8066 10.1562-74.8535 10.791-73.291C11.377-72.0215 12.5-71.0938 13.916-71.0938ZM100-71.0938C101.416-71.0938 102.539-72.0215 103.076-73.291C103.76-74.8535 104.102-76.8066 104.102-79.2969C104.102-87.7441 96.875-94.3848 88.0859-94.3848C84.1309-94.3848 80.7129-93.2129 77.8809-91.1621C76.7578-90.3809 76.1719-89.209 76.1719-88.0371C76.1719-87.0605 76.709-86.1816 77.5391-85.5957L97.8516-71.9727C98.6816-71.3867 99.1699-71.0938 100-71.0938ZM14.209 13.916C16.6504 16.2598 20.2637 16.1133 22.6562 13.6719L31.25 5.17578C38.6719 9.86328 47.4609 12.5977 56.9336 12.5977C66.3574 12.5977 75.1953 9.86328 82.6172 5.17578L91.2109 13.6719C93.6523 16.0645 97.2168 16.2598 99.6582 13.916C101.904 11.6699 101.904 8.20312 99.6094 5.95703L91.6016-2.14844C99.9512-10.791 105.127-22.6074 105.127-35.5957C105.127-62.207 83.5449-83.7891 56.9336-83.7891C30.3223-83.7891 8.74023-62.207 8.74023-35.5957C8.74023-22.6074 13.8672-10.791 22.2656-2.14844L14.209 5.95703C11.9629 8.20312 11.9629 11.6699 14.209 13.916ZM56.9336-2.00195C38.3789-2.00195 23.3398-17.041 23.3398-35.5957C23.3398-54.1504 38.3789-69.1406 56.9336-69.1406C75.4883-69.1406 90.4785-54.1504 90.4785-35.5957C90.4785-17.041 75.4883-2.00195 56.9336-2.00195ZM39.0625-27.3438L56.9336-27.3438C59.8145-27.3438 62.1094-29.6387 62.1094-32.5195L62.1094-56.9824C62.1094-59.8145 59.8145-62.1094 56.9336-62.1094C54.0039-62.1094 51.7578-59.8145 51.7578-56.9824L51.7578-37.6465L39.0625-37.6465C36.1328-37.6465 33.8867-35.3516 33.8867-32.5195C33.8867-29.6387 36.1328-27.3438 39.0625-27.3438Z"/>
  </g>
  <g id="Bold-M" transform="matrix(1 0 0 1 2283.58 1126)">
   <path d="M14.4043-70.5566C15.1367-70.5566 15.6738-70.8008 16.4551-71.3867L35.4004-84.5703C36.2305-85.1562 36.7188-85.9863 36.7188-86.9141C36.7188-88.0371 36.1328-89.1113 35.1562-89.8926C32.6172-91.7969 29.248-92.8711 25.6348-92.8711C17.2852-92.8711 10.4492-86.4258 10.4492-78.2715C10.4492-76.0254 10.791-74.1211 11.377-72.7051C11.9629-71.4355 13.0371-70.5566 14.4043-70.5566ZM98.4375-70.5566C99.8047-70.5566 100.879-71.4844 101.465-72.7051C102.051-74.0723 102.393-76.0254 102.393-78.2715C102.393-86.4258 95.5566-92.8711 87.1582-92.8711C83.5938-92.8711 80.1758-91.7969 77.6855-89.8926C76.6602-89.1113 76.123-88.0371 76.123-86.9141C76.123-85.9863 76.6113-85.1562 77.4414-84.5703L96.3867-71.3867C97.1191-70.8008 97.6562-70.5566 98.4375-70.5566ZM14.3555 12.5C16.4551 14.5508 19.6289 14.4531 21.7285 12.3535L29.9805 4.15039C37.5488 9.17969 46.6309 12.1094 56.3965 12.1094C66.1621 12.1094 75.2441 9.17969 82.8125 4.15039L91.1133 12.3535C93.2129 14.4043 96.3867 14.5508 98.4863 12.5C100.439 10.5469 100.439 7.4707 98.4375 5.46875L90.625-2.39258C98.9746-10.9375 104.053-22.6562 104.053-35.5469C104.053-61.8652 82.7637-83.2031 56.3965-83.2031C30.0781-83.2031 8.74023-61.8652 8.74023-35.5469C8.74023-22.6562 13.8672-10.9375 22.168-2.39258L14.3555 5.46875C12.3535 7.4707 12.3535 10.5469 14.3555 12.5ZM56.3965-0.341797C36.9141-0.341797 21.1914-16.0645 21.1914-35.5469C21.1914-54.9805 36.9141-70.752 56.3965-70.752C75.8789-70.752 91.6016-54.9805 91.6016-35.5469C91.6016-16.0645 75.8789-0.341797 56.3965-0.341797ZM37.0117-28.2715L56.3965-28.2715C58.9355-28.2715 60.9375-30.2734 60.9375-32.8613L60.9375-59.082C60.9375-61.6211 58.9355-63.5742 56.3965-63.5742C53.8574-63.5742 51.8555-61.6211 51.8555-59.082L51.8555-37.3535L37.0117-37.3535C34.4727-37.3535 32.4707-35.3516 32.4707-32.8613C32.4707-30.2734 34.4727-28.2715 37.0117-28.2715Z"/>
  </g>
  <g id="Semibold-M" transform="matrix(1 0 0 1 1987.21 1126)">
   <path d="M14.7461-70.2148C15.4785-70.2148 16.0156-70.4102 16.748-70.9961L34.7656-83.8379C35.5469-84.4238 36.0352-85.2539 36.0352-86.1328C36.0352-87.2559 35.498-88.2324 34.5703-88.9648C32.2754-90.8203 28.9062-91.8457 25.5859-91.8457C17.4805-91.8457 10.8887-85.498 10.8887-77.5879C10.8887-75.4883 11.2305-73.584 11.8164-72.3145C12.3535-71.0449 13.4277-70.2148 14.7461-70.2148ZM97.4121-70.2148C98.6816-70.2148 99.7559-71.0938 100.293-72.3145C100.879-73.584 101.221-75.4883 101.221-77.5879C101.221-85.498 94.6289-91.8457 86.5234-91.8457C83.1543-91.8457 79.7852-90.8203 77.5391-88.9648C76.6113-88.2324 76.0742-87.2559 76.0742-86.1328C76.0742-85.2539 76.5137-84.4238 77.3438-83.8379L95.3613-70.9961C96.0938-70.4102 96.6309-70.2148 97.4121-70.2148ZM14.4531 11.5234C16.3086 13.3789 19.1895 13.3301 21.0938 11.4258L29.1504 3.41797C36.7676 8.69141 46.0449 11.7676 56.0547 11.7676C66.0645 11.7676 75.3418 8.69141 82.959 3.41797L91.0156 11.4258C92.9199 13.2812 95.8008 13.3789 97.6562 11.5234C99.4141 9.76562 99.4629 6.93359 97.6562 5.12695L89.9902-2.53906C98.2422-11.0352 103.369-22.7051 103.369-35.5469C103.369-61.6699 82.1777-82.8125 56.0547-82.8125C29.9316-82.8125 8.74023-61.6699 8.74023-35.5469C8.74023-22.7051 13.8672-11.0352 22.1191-2.53906L14.4531 5.12695C12.6465 6.93359 12.6465 9.76562 14.4531 11.5234ZM56.0547 0.830078C35.9375 0.830078 19.6777-15.4297 19.6777-35.5469C19.6777-55.5664 35.9375-71.875 56.0547-71.875C76.123-71.875 92.3828-55.5664 92.3828-35.5469C92.3828-15.4297 76.123 0.830078 56.0547 0.830078ZM35.6445-28.9551L56.0059-28.9551C58.3496-28.9551 60.1562-30.7617 60.1562-33.0566L60.1562-60.5469C60.1562-62.8418 58.3496-64.6484 56.0059-64.6484C53.7109-64.6484 51.9043-62.8418 51.9043-60.5469L51.9043-37.1582L35.6445-37.1582C33.3008-37.1582 31.4941-35.3516 31.4941-33.0566C31.4941-30.7617 33.3008-28.9551 35.6445-28.9551Z"/>
  </g>
  <g id="Medium-M" transform="matrix(1 0 0 1 1690.77 1126)">
   <path d="M14.9902-69.9707C15.7227-69.9707 16.2598-70.1172 16.9922-70.6543L34.2773-83.3008C35.0586-83.8867 35.5469-84.7168 35.5469-85.5469C35.5469-86.6211 35.0098-87.5488 34.1309-88.3301C32.0312-90.0879 28.6621-91.0645 25.5371-91.0645C17.627-91.0645 11.2305-84.8145 11.2305-77.0508C11.2305-75.0488 11.5723-73.1934 12.1094-71.9727C12.6465-70.752 13.7207-69.9707 14.9902-69.9707ZM96.582-69.9707C97.8516-69.9707 98.877-70.8008 99.4629-71.9727C100-73.1445 100.293-75.0488 100.293-77.0508C100.293-84.8145 93.9453-91.0645 86.0352-91.0645C82.8613-91.0645 79.541-90.0879 77.4414-88.3301C76.5625-87.5488 76.0254-86.6211 76.0254-85.5469C76.0254-84.7168 76.4648-83.8867 77.2949-83.3008L94.5801-70.6543C95.3125-70.1172 95.8496-69.9707 96.582-69.9707ZM14.502 10.791C16.2109 12.5 18.8965 12.4512 20.6055 10.6934L28.5156 2.83203C36.1816 8.30078 45.6055 11.5234 55.7617 11.5234C65.9668 11.5234 75.3418 8.30078 83.0566 2.83203L90.9668 10.6934C92.6758 12.4512 95.3613 12.5 97.0703 10.791C98.6816 9.17969 98.7305 6.54297 97.0215 4.88281L89.4531-2.63672C97.7051-11.1328 102.832-22.7051 102.832-35.498C102.832-61.4746 81.7871-82.5195 55.7617-82.5195C29.7852-82.5195 8.74023-61.4746 8.74023-35.498C8.74023-22.7051 13.8184-11.1328 22.1191-2.63672L14.5508 4.88281C12.8418 6.54297 12.8906 9.17969 14.502 10.791ZM55.7617 1.70898C35.2051 1.70898 18.5547-14.9414 18.5547-35.498C18.5547-56.0547 35.2051-72.7051 55.7617-72.7051C76.3184-72.7051 92.9688-56.0547 92.9688-35.498C92.9688-14.9414 76.3184 1.70898 55.7617 1.70898ZM34.5703-29.4434L55.7617-29.4434C57.9102-29.4434 59.5703-31.1035 59.5703-33.252L59.5703-61.6211C59.5703-63.7695 57.9102-65.4297 55.7617-65.4297C53.6133-65.4297 51.9531-63.7695 51.9531-61.6211L51.9531-37.0605L34.5703-37.0605C32.4219-37.0605 30.7617-35.3516 30.7617-33.252C30.7617-31.1035 32.4219-29.4434 34.5703-29.4434Z"/>
  </g>
  <g id="Regular-M" transform="matrix(1 0 0 1 1394.42 1126)">
   <path d="M15.332-69.6289C16.0645-69.6289 16.6016-69.7266 17.2852-70.2637L33.6426-82.6172C34.4238-83.2031 34.8633-83.9844 34.8633-84.8145C34.8633-85.8398 34.375-86.6699 33.5449-87.4512C31.6895-89.1113 28.3691-90.0391 25.4395-90.0391C17.8223-90.0391 11.7188-83.9355 11.7188-76.3184C11.7188-74.5117 12.0117-72.7051 12.5488-71.582C13.0859-70.3613 14.1113-69.6289 15.332-69.6289ZM95.5078-69.6289C96.7285-69.6289 97.7539-70.4102 98.3398-71.582C98.8281-72.6562 99.1211-74.5117 99.1211-76.3184C99.1211-83.9355 93.0664-90.0391 85.4004-90.0391C82.4707-90.0391 79.1504-89.1113 77.2949-87.4512C76.4648-86.6699 75.9766-85.8398 75.9766-84.8145C75.9766-83.9844 76.416-83.2031 77.2461-82.6172L93.5547-70.2637C94.2871-69.7266 94.7754-69.6289 95.5078-69.6289ZM14.5996 9.81445C16.0645 11.3281 18.457 11.3281 19.9707 9.76562L27.6855 2.09961C35.4492 7.8125 45.0195 11.2305 55.4199 11.2305C65.8203 11.2305 75.3906 7.8125 83.1543 2.09961L90.8691 9.76562C92.3828 11.3281 94.7754 11.3281 96.2402 9.81445C97.7051 8.39844 97.7051 6.00586 96.1914 4.54102L88.7695-2.83203C97.0215-11.2305 102.1-22.7539 102.1-35.4492C102.1-61.2305 81.2012-82.1777 55.4199-82.1777C29.6387-82.1777 8.74023-61.2305 8.74023-35.4492C8.74023-22.7539 13.8184-11.2305 22.0703-2.83203L14.6484 4.54102C13.1348 6.00586 13.1836 8.39844 14.5996 9.81445ZM55.4199 2.88086C34.2285 2.88086 17.0898-14.2578 17.0898-35.4492C17.0898-56.5918 34.2285-73.7793 55.4199-73.7793C76.5625-73.7793 93.75-56.5918 93.75-35.4492C93.75-14.2578 76.5625 2.88086 55.4199 2.88086ZM33.2031-30.0781L55.3711-30.0781C57.2754-30.0781 58.7891-31.543 58.7891-33.4473L58.7891-63.0371C58.7891-64.9414 57.2754-66.4551 55.3711-66.4551C53.4668-66.4551 52.002-64.9414 52.002-63.0371L52.002-36.8652L33.2031-36.8652C31.2988-36.8652 29.834-35.3516 29.834-33.4473C29.834-31.543 31.2988-30.0781 33.2031-30.0781Z"/>
  </g>
  <g id="Light-M" transform="matrix(1 0 0 1 1098.25 1126)">
   <path d="M16.4062-70.0195C17.1387-70.0195 17.627-70.1172 18.3105-70.6543L34.082-82.1777C34.9121-82.7637 35.3027-83.4961 35.3027-84.3262C35.3027-85.3027 34.8633-86.1328 33.9844-86.9141C32.1289-88.5742 29.0527-89.3555 26.1719-89.3555C18.75-89.3555 12.9883-83.5938 12.9883-76.3184C12.9883-74.707 13.2324-73.0469 13.7207-71.9238C14.2578-70.8008 15.1855-70.0195 16.4062-70.0195ZM93.3594-70.0195C94.6289-70.0195 95.5078-70.8008 96.0449-71.9238C96.5332-72.998 96.7773-74.707 96.7773-76.3184C96.7773-83.5938 91.0645-89.3555 83.5938-89.3555C80.7617-89.3555 77.6367-88.5742 75.7812-86.9141C74.9512-86.1328 74.4629-85.3027 74.4629-84.3262C74.4629-83.4961 74.8535-82.7637 75.6836-82.1777L91.4551-70.6543C92.1387-70.1172 92.627-70.0195 93.3594-70.0195ZM15.1855 9.42383C16.3086 10.5469 18.1641 10.5469 19.3359 9.375L27.1973 1.46484C34.9121 7.27539 44.5312 10.7422 54.8828 10.7422C65.2832 10.7422 74.8535 7.27539 82.6172 1.46484L90.4785 9.375C91.6504 10.5469 93.457 10.5469 94.6289 9.42383C95.7031 8.30078 95.7031 6.49414 94.5801 5.37109L86.9141-2.19727C95.6543-10.5957 101.025-22.4121 101.025-35.4004C101.025-60.8887 80.3711-81.5918 54.8828-81.5918C29.4434-81.5918 8.74023-60.8887 8.74023-35.4004C8.74023-22.4121 14.1602-10.5957 22.8516-2.19727L15.2344 5.37109C14.0625 6.49414 14.0625 8.30078 15.1855 9.42383ZM54.8828 4.3457C32.959 4.3457 15.1367-13.4277 15.1367-35.4004C15.1367-57.3242 32.959-75.1465 54.8828-75.1465C76.8066-75.1465 94.6289-57.3242 94.6289-35.4004C94.6289-13.4277 76.8066 4.3457 54.8828 4.3457ZM31.2012-30.6641L54.8828-30.6641C56.3965-30.6641 57.5684-31.8359 57.5684-33.3496L57.5684-64.7461C57.5684-66.2109 56.3965-67.3828 54.8828-67.3828C53.418-67.3828 52.2461-66.2109 52.2461-64.7461L52.2461-35.9863L31.2012-35.9863C29.6875-35.9863 28.5156-34.8145 28.5156-33.3496C28.5156-31.8359 29.6875-30.6641 31.2012-30.6641Z"/>
  </g>
  <g id="Thin-M" transform="matrix(1 0 0 1 802.223 1126)">
   <path d="M17.9199-70.5566C18.6035-70.5566 19.043-70.6543 19.7266-71.1914L34.7656-81.6406C35.5469-82.2266 35.9375-82.8613 35.9375-83.6914C35.9375-84.6191 35.498-85.4004 34.5703-86.1816C32.7637-87.793 29.9316-88.5254 27.0996-88.5254C19.9707-88.5254 14.6973-83.1543 14.6973-76.3184C14.6973-75 14.8438-73.4863 15.332-72.4121C15.8203-71.3379 16.6016-70.5566 17.9199-70.5566ZM90.4785-70.5566C91.7969-70.5566 92.5781-71.3379 93.0664-72.4121C93.5059-73.4863 93.7012-75 93.7012-76.3184C93.7012-83.1543 88.3789-88.5254 81.25-88.5254C78.418-88.5254 75.6348-87.793 73.8281-86.1816C72.9004-85.4004 72.4609-84.6191 72.4609-83.6914C72.4609-82.8613 72.8516-82.2266 73.6328-81.6406L88.6719-71.1914C89.3555-70.6543 89.7949-70.5566 90.4785-70.5566ZM15.9668 8.88672C16.6992 9.57031 17.7246 9.57031 18.457 8.88672L26.5625 0.683594C34.2285 6.5918 43.7988 10.1074 54.1992 10.1074C64.5996 10.1074 74.1699 6.5918 81.8359 0.683594L89.9414 8.88672C90.6738 9.57031 91.6992 9.57031 92.4316 8.88672C93.1152 8.20312 93.0664 7.12891 92.3828 6.49414L84.4238-1.46484C93.75-9.76562 99.6582-21.9238 99.6582-35.3516C99.6582-60.3516 79.248-80.8105 54.1992-80.8105C29.1992-80.8105 8.74023-60.3516 8.74023-35.3516C8.74023-21.9238 14.6484-9.81445 23.9746-1.46484L15.9668 6.49414C15.332 7.12891 15.2832 8.20312 15.9668 8.88672ZM54.1992 6.29883C31.25 6.29883 12.5488-12.3535 12.5488-35.3516C12.5488-58.3008 31.25-76.9531 54.1992-76.9531C77.1484-76.9531 95.8008-58.3008 95.8008-35.3516C95.8008-12.3535 77.1484 6.29883 54.1992 6.29883ZM28.5156-31.3965L54.1992-31.3965C55.1758-31.3965 55.957-32.1777 55.957-33.1543L55.957-66.9434C55.957-67.8711 55.1758-68.6035 54.1992-68.6035C53.2715-68.6035 52.5391-67.8711 52.5391-66.9434L52.5391-34.8145L28.5156-34.8145C27.5391-34.8145 26.8066-34.0332 26.8066-33.1543C26.8066-32.1777 27.5391-31.3965 28.5156-31.3965Z"/>
  </g>
  <g id="Ultralight-M" transform="matrix(1 0 0 1 505.878 1126)">
   <path d="M18.6523-70.8008C19.3359-70.8008 19.7754-70.9473 20.459-71.4355L35.0586-81.3477C35.8887-81.9336 36.2305-82.5195 36.2305-83.3496C36.2305-84.2773 35.791-85.0098 34.8633-85.8398C33.0566-87.4023 30.4199-88.0859 27.5879-88.0859C20.6543-88.0859 15.5273-82.9102 15.5273-76.3184C15.5273-75.1465 15.6738-73.7305 16.1621-72.6562C16.6016-71.6309 17.334-70.8008 18.6523-70.8008ZM89.0137-70.8008C90.332-70.8008 91.0645-71.6309 91.5039-72.6562C91.9434-73.7305 92.1387-75.1465 92.1387-76.3184C92.1387-82.9102 87.0117-88.0859 80.0781-88.0859C77.2461-88.0859 74.6094-87.4023 72.8027-85.8398C71.875-85.0098 71.4355-84.2773 71.4355-83.3496C71.4355-82.5195 71.7773-81.9336 72.6074-81.3477L87.207-71.4355C87.8906-70.9473 88.3301-70.8008 89.0137-70.8008ZM16.3574 8.59375C16.8457 9.08203 17.5293 9.08203 17.9688 8.59375L26.2207 0.244141C33.8379 6.20117 43.457 9.76562 53.8574 9.76562C64.2578 9.76562 73.8281 6.20117 81.4453 0.244141L89.6973 8.59375C90.1367 9.08203 90.8203 9.08203 91.3086 8.59375C91.748 8.10547 91.6992 7.4707 91.3086 7.03125L83.1055-1.07422C92.7734-9.375 98.9258-21.6797 98.9258-35.3027C98.9258-60.1074 78.6621-80.4199 53.8574-80.4199C29.0527-80.4199 8.74023-60.1074 8.74023-35.3027C8.74023-21.6797 14.8926-9.375 24.5605-1.07422L16.3574 7.03125C15.9668 7.4707 15.918 8.10547 16.3574 8.59375ZM53.8574 7.27539C30.3711 7.27539 11.2305-11.7676 11.2305-35.3027C11.2305-58.7891 30.3711-77.8809 53.8574-77.8809C77.2949-77.8809 96.4355-58.7891 96.4355-35.3027C96.4355-11.7676 77.2949 7.27539 53.8574 7.27539ZM27.1484-31.7871L53.8574-31.7871C54.541-31.7871 55.127-32.3242 55.127-33.0566L55.127-68.0664C55.127-68.75 54.541-69.2383 53.8574-69.2383C53.2227-69.2383 52.6855-68.75 52.6855-68.0664L52.6855-34.2285L27.1484-34.2285C26.416-34.2285 25.9277-33.6914 25.9277-33.0566C25.9277-32.3242 26.416-31.7871 27.1484-31.7871Z"/>
  </g>
  <g id="Black-S" transform="matrix(1 0 0 1 2888.48 696)">
   <path d="M10.5469-63.623C11.1816-63.623 11.5723-63.916 12.2559-64.3555L29.0527-75.3418C29.6875-75.7812 30.127-76.5137 30.127-77.2949C30.127-78.2715 29.6387-79.248 28.7109-79.8828C26.2695-81.543 23.5352-82.5195 20.2148-82.5195C13.1348-82.5195 7.17773-77.1973 7.17773-70.4102C7.17773-68.3105 7.51953-66.748 8.05664-65.4297C8.49609-64.4043 9.42383-63.623 10.5469-63.623ZM79.3457-63.623C80.4688-63.623 81.3965-64.4043 81.8359-65.4297C82.373-66.748 82.666-68.3105 82.666-70.4102C82.666-77.1973 76.7578-82.5195 69.6289-82.5195C66.3086-82.5195 63.5742-81.543 61.1328-79.8828C60.2051-79.248 59.7168-78.2715 59.7168-77.2949C59.7168-76.5137 60.1562-75.7812 60.8398-75.3418L77.6367-64.3555C78.2715-63.916 78.6621-63.623 79.3457-63.623ZM11.0352 4.15039C13.1348 6.20117 16.2598 6.05469 18.3105 3.95508L25.2441-2.92969C31.0059 0.537109 37.7441 2.53906 44.9219 2.53906C52.0996 2.53906 58.8379 0.537109 64.5996-2.92969L71.5332 3.95508C73.6328 6.00586 76.709 6.20117 78.8086 4.15039C80.7617 2.24609 80.7617-0.732422 78.8086-2.68555L72.4121-9.17969C78.9551-16.0156 83.0078-25.293 83.0078-35.5469C83.0078-56.5918 65.9668-73.6328 44.9219-73.6328C23.877-73.6328 6.83594-56.5918 6.83594-35.5469C6.83594-25.293 10.8887-16.0156 17.4316-9.17969L11.0352-2.68555C9.08203-0.732422 9.08203 2.24609 11.0352 4.15039ZM44.9219-10.3027C30.957-10.3027 19.6777-21.582 19.6777-35.5469C19.6777-49.5117 30.957-60.791 44.9219-60.791C58.8867-60.791 70.166-49.5117 70.166-35.5469C70.166-21.582 58.8867-10.3027 44.9219-10.3027ZM31.8848-28.4668L44.9219-28.4668C47.4121-28.4668 49.3652-30.4199 49.3652-32.9102L49.3652-50.9277C49.3652-53.3691 47.4121-55.3223 44.9219-55.3223C42.4316-55.3223 40.4785-53.3691 40.4785-50.9277L40.4785-37.3047L31.8848-37.3047C29.3945-37.3047 27.4414-35.3516 27.4414-32.9102C27.4414-30.4199 29.3945-28.4668 31.8848-28.4668Z"/>
  </g>
  <g id="Heavy-S" transform="matrix(1 0 0 1 2592.06 696)">
   <path d="M10.7422-63.2324C11.377-63.2324 11.7676-63.4766 12.4512-63.916L28.3691-74.6582C29.0039-75.1465 29.3945-75.8301 29.3945-76.5625C29.3945-77.5391 28.9551-78.418 28.0762-79.0527C25.8789-80.6641 23.1445-81.543 20.0684-81.543C13.2324-81.543 7.51953-76.3184 7.51953-69.7266C7.51953-67.7246 7.8125-66.2109 8.34961-64.9902C8.78906-63.9648 9.66797-63.2324 10.7422-63.2324ZM78.5156-63.2324C79.5898-63.2324 80.5176-63.9648 80.957-64.9902C81.4941-66.1621 81.7383-67.7246 81.7383-69.7266C81.7383-76.3184 76.0742-81.543 69.1895-81.543C66.1133-81.543 63.3789-80.6641 61.1816-79.0527C60.3027-78.418 59.8633-77.5391 59.8633-76.5625C59.8633-75.8301 60.2539-75.1465 60.9375-74.6582L76.8555-63.916C77.4902-63.4766 77.8809-63.2324 78.5156-63.2324ZM11.0352 3.22266C12.9883 5.12695 15.8691 4.98047 17.7734 3.07617L24.4629-3.56445C30.2734 0.146484 37.207 2.24609 44.6289 2.24609C52.0508 2.24609 58.9844 0.146484 64.7949-3.56445L71.4844 3.07617C73.4375 4.98047 76.2695 5.12695 78.1738 3.22266C79.9805 1.46484 79.9805-1.31836 78.1738-3.125L71.9238-9.375C78.418-16.1621 82.4219-25.3906 82.4219-35.498C82.4219-56.3965 65.5273-73.291 44.6289-73.291C23.7305-73.291 6.83594-56.3965 6.83594-35.498C6.83594-25.3906 10.8398-16.1621 17.334-9.375L11.084-3.125C9.27734-1.31836 9.27734 1.46484 11.0352 3.22266ZM44.6289-9.32617C30.127-9.32617 18.4082-21.0449 18.4082-35.498C18.4082-50 30.127-61.7188 44.6289-61.7188C59.1309-61.7188 70.8496-50 70.8496-35.498C70.8496-21.0449 59.1309-9.32617 44.6289-9.32617ZM30.7129-29.0527L44.6289-29.0527C46.9238-29.0527 48.7305-30.8594 48.7305-33.1543L48.7305-52.1973C48.7305-54.4434 46.9238-56.25 44.6289-56.25C42.334-56.25 40.5273-54.4434 40.5273-52.1973L40.5273-37.207L30.7129-37.207C28.418-37.207 26.6113-35.4004 26.6113-33.1543C26.6113-30.8594 28.418-29.0527 30.7129-29.0527Z"/>
  </g>
  <g id="Bold-S" transform="matrix(1 0 0 1 2295.69 696)">
   <path d="M10.9863-62.793C11.6211-62.793 12.0117-62.9883 12.6465-63.4277L27.5879-73.9258C28.2227-74.4141 28.6133-75.0977 28.6133-75.7812C28.6133-76.709 28.1738-77.5391 27.3926-78.125C25.4395-79.6387 22.7051-80.4688 19.9219-80.4688C13.3301-80.4688 7.86133-75.3418 7.86133-68.9453C7.86133-67.0898 8.1543-65.5762 8.64258-64.502C9.08203-63.4766 9.96094-62.793 10.9863-62.793ZM77.6367-62.793C78.6621-62.793 79.4922-63.5254 79.9805-64.502C80.4688-65.5762 80.7129-67.0898 80.7129-68.9453C80.7129-75.3418 75.293-80.4688 68.7012-80.4688C65.8691-80.4688 63.1836-79.6387 61.2305-78.125C60.4492-77.5391 60.0098-76.709 60.0098-75.7812C60.0098-75.0977 60.4004-74.4141 61.0352-73.9258L75.9766-63.4277C76.5625-62.9883 77.002-62.793 77.6367-62.793ZM11.084 2.19727C12.793 3.90625 15.4297 3.80859 17.1387 2.09961L23.584-4.29688C29.4922-0.341797 36.6211 1.95312 44.2871 1.95312C51.9531 1.95312 59.082-0.341797 65.0391-4.29688L71.4355 2.09961C73.1934 3.80859 75.7812 3.90625 77.4902 2.19727C79.1016 0.634766 79.1504-1.95312 77.4902-3.56445L71.4355-9.66797C77.832-16.3574 81.7383-25.4883 81.7383-35.498C81.7383-56.2012 64.9902-72.9492 44.2871-72.9492C23.584-72.9492 6.83594-56.2012 6.83594-35.498C6.83594-25.4883 10.7422-16.3574 17.1875-9.66797L11.084-3.56445C9.47266-1.95312 9.47266 0.634766 11.084 2.19727ZM44.2871-8.20312C29.1992-8.20312 16.9922-20.4102 16.9922-35.498C16.9922-50.5859 29.1992-62.793 44.2871-62.793C59.375-62.793 71.582-50.5859 71.582-35.498C71.582-20.4102 59.375-8.20312 44.2871-8.20312ZM29.4434-29.6875L44.2871-29.6875C46.3867-29.6875 47.998-31.2988 47.998-33.3984L47.998-53.5645C47.998-55.6641 46.3867-57.2754 44.2871-57.2754C42.1875-57.2754 40.5273-55.6641 40.5273-53.5645L40.5273-37.1094L29.4434-37.1094C27.3438-37.1094 25.6836-35.498 25.6836-33.3984C25.6836-31.2988 27.3438-29.6875 29.4434-29.6875Z"/>
  </g>
  <g id="Semibold-S" transform="matrix(1 0 0 1 1999.2 696)">
   <path d="M11.1816-62.5C11.7676-62.5 12.207-62.6465 12.7441-63.0859L27.0508-73.4375C27.6855-73.9258 28.0273-74.5605 28.0273-75.2441C28.0273-76.123 27.6367-76.9043 26.9043-77.4902C25.0977-78.9551 22.4121-79.7363 19.7754-79.7363C13.3789-79.7363 8.10547-74.707 8.10547-68.3594C8.10547-66.6504 8.39844-65.1367 8.83789-64.1602C9.27734-63.1348 10.1562-62.5 11.1816-62.5ZM77.002-62.5C77.9785-62.5 78.8086-63.1836 79.2969-64.1602C79.7852-65.1367 80.0293-66.6504 80.0293-68.3594C80.0293-74.707 74.8047-79.7363 68.3594-79.7363C65.7227-79.7363 63.0371-78.9551 61.2305-77.4902C60.498-76.9043 60.1074-76.123 60.1074-75.2441C60.1074-74.5605 60.4492-73.9258 61.1328-73.4375L75.3906-63.0859C75.9277-62.6465 76.3672-62.5 77.002-62.5ZM11.084 1.51367C12.6465 3.07617 15.1367 3.02734 16.6992 1.41602L22.9492-4.78516C28.9551-0.683594 36.2305 1.75781 44.043 1.75781C51.9043 1.75781 59.1797-0.683594 65.1855-4.78516L71.4355 1.41602C72.998 2.97852 75.4883 3.07617 77.0508 1.51367C78.5156 0.0488281 78.5645-2.39258 77.002-3.90625L71.0449-9.81445C77.3926-16.5039 81.2988-25.5371 81.2988-35.498C81.2988-56.0547 64.6484-72.7051 44.043-72.7051C23.4863-72.7051 6.83594-56.0547 6.83594-35.498C6.83594-25.5371 10.7422-16.5039 17.041-9.81445L11.1328-3.90625C9.57031-2.39258 9.61914 0.0488281 11.084 1.51367ZM44.043-7.42188C28.5645-7.42188 16.0156-19.9707 16.0156-35.498C16.0156-50.9766 28.5645-63.4766 44.043-63.4766C59.5215-63.4766 72.0703-50.9766 72.0703-35.498C72.0703-19.9707 59.5215-7.42188 44.043-7.42188ZM28.5645-30.127L44.043-30.127C45.9961-30.127 47.5098-31.6406 47.5098-33.5938L47.5098-54.541C47.5098-56.4453 45.9961-58.0078 44.043-58.0078C42.0898-58.0078 40.5762-56.4453 40.5762-54.541L40.5762-37.0605L28.5645-37.0605C26.6113-37.0605 25.0977-35.5469 25.0977-33.5938C25.0977-31.6406 26.6113-30.127 28.5645-30.127Z"/>
  </g>
  <g id="Medium-S" transform="matrix(1 0 0 1 1702.66 696)">
   <path d="M11.2793-62.2559C11.8652-62.2559 12.3047-62.4023 12.8906-62.8418L26.6113-73.0469C27.2461-73.5352 27.6367-74.1699 27.6367-74.8535C27.6367-75.6836 27.1973-76.416 26.5137-77.002C24.9023-78.418 22.168-79.1992 19.7266-79.1992C13.4277-79.1992 8.30078-74.1699 8.30078-67.9688C8.30078-66.3574 8.59375-64.8438 9.0332-63.8672C9.42383-62.8906 10.3027-62.2559 11.2793-62.2559ZM76.5137-62.2559C77.4902-62.2559 78.3203-62.9395 78.8086-63.8672C79.248-64.7949 79.4922-66.3574 79.4922-67.9688C79.4922-74.1699 74.3652-79.1992 68.0664-79.1992C65.625-79.1992 62.8906-78.418 61.2793-77.002C60.5469-76.416 60.1562-75.6836 60.1562-74.8535C60.1562-74.1699 60.498-73.5352 61.1816-73.0469L74.9023-62.8418C75.4883-62.4023 75.9277-62.2559 76.5137-62.2559ZM11.1328 0.976562C12.5488 2.44141 14.8926 2.39258 16.4062 0.878906L22.5098-5.17578C28.5645-0.927734 35.9375 1.61133 43.8965 1.61133C51.8555 1.61133 59.2285-0.927734 65.2832-5.17578L71.3867 0.878906C72.9004 2.39258 75.1953 2.44141 76.6602 0.976562C78.0762-0.390625 78.125-2.73438 76.6602-4.15039L70.8008-9.96094C77.0996-16.6016 80.957-25.5859 80.957-35.4492C80.957-55.957 64.3555-72.5098 43.8965-72.5098C23.3887-72.5098 6.83594-55.957 6.83594-35.4492C6.83594-25.5859 10.6934-16.6016 16.9922-9.96094L11.1328-4.15039C9.66797-2.73438 9.7168-0.390625 11.1328 0.976562ZM43.8965-6.83594C28.0762-6.83594 15.2832-19.6289 15.2832-35.4492C15.2832-51.2695 28.0762-64.0625 43.8965-64.0625C59.668-64.0625 72.4609-51.2695 72.4609-35.4492C72.4609-19.6289 59.668-6.83594 43.8965-6.83594ZM27.8809-30.4688L43.8477-30.4688C45.7031-30.4688 47.1191-31.8848 47.1191-33.7402L47.1191-55.2734C47.1191-57.0801 45.7031-58.5449 43.8477-58.5449C42.041-58.5449 40.5762-57.0801 40.5762-55.2734L40.5762-37.0117L27.8809-37.0117C26.0254-37.0117 24.6094-35.5469 24.6094-33.7402C24.6094-31.8848 26.0254-30.4688 27.8809-30.4688Z"/>
  </g>
  <g id="Regular-S" transform="matrix(1 0 0 1 1406.17 696)">
   <path d="M11.4746-61.9629C12.0117-61.9629 12.4512-62.0605 12.9883-62.5L26.123-72.5586C26.7578-73.0469 27.0508-73.6328 27.0508-74.2676C27.0508-75.0977 26.709-75.7812 26.0254-76.3672C24.5605-77.7344 21.875-78.4668 19.5801-78.4668C13.4766-78.4668 8.54492-73.5352 8.54492-67.4316C8.54492-65.918 8.83789-64.4043 9.22852-63.5254C9.66797-62.5488 10.498-61.9629 11.4746-61.9629ZM75.8789-61.9629C76.8066-61.9629 77.6367-62.5977 78.125-63.5254C78.5645-64.3555 78.8086-65.918 78.8086-67.4316C78.8086-73.5352 73.877-78.4668 67.7246-78.4668C65.4297-78.4668 62.7441-77.7344 61.2793-76.3672C60.6445-75.7812 60.2539-75.0977 60.2539-74.2676C60.2539-73.6328 60.5957-73.0469 61.2305-72.5586L74.3164-62.5C74.8535-62.0605 75.293-61.9629 75.8789-61.9629ZM11.1328 0.292969C12.4512 1.61133 14.5996 1.61133 15.9668 0.244141L21.9238-5.71289C28.0273-1.2207 35.5469 1.36719 43.6523 1.36719C51.8066 1.36719 59.3262-1.2207 65.4297-5.71289L71.3867 0.244141C72.7539 1.61133 74.9023 1.61133 76.2207 0.292969C77.4902-0.976562 77.5391-3.125 76.1719-4.44336L70.459-10.1562C76.6602-16.748 80.5176-25.6348 80.5176-35.4492C80.5176-55.8105 64.0137-72.2656 43.6523-72.2656C23.291-72.2656 6.83594-55.8105 6.83594-35.4492C6.83594-25.6348 10.6445-16.748 16.8945-10.1562L11.1816-4.44336C9.81445-3.125 9.86328-0.976562 11.1328 0.292969ZM43.6523-6.05469C27.4414-6.05469 14.3066-19.1895 14.3066-35.4492C14.3066-51.6113 27.4414-64.7461 43.6523-64.7461C59.8633-64.7461 72.998-51.6113 72.998-35.4492C72.998-19.1895 59.8633-6.05469 43.6523-6.05469ZM27.002-30.9082L43.6035-30.9082C45.3125-30.9082 46.6309-32.2266 46.6309-33.9355L46.6309-56.2012C46.6309-57.9102 45.3125-59.2285 43.6035-59.2285C41.9434-59.2285 40.625-57.9102 40.625-56.2012L40.625-36.9141L27.002-36.9141C25.293-36.9141 23.9746-35.5957 23.9746-33.9355C23.9746-32.2266 25.293-30.9082 27.002-30.9082Z"/>
  </g>
  <g id="Light-S" transform="matrix(1 0 0 1 1109.94 696)">
   <path d="M12.4512-62.3047C12.9883-62.3047 13.4277-62.4023 13.9648-62.8418L26.5137-72.168C27.1484-72.6562 27.4902-73.2422 27.4902-73.877C27.4902-74.6582 27.0996-75.293 26.4648-75.9277C25-77.2461 22.4609-77.8809 20.2148-77.8809C14.3066-77.8809 9.66797-73.2422 9.66797-67.4316C9.66797-66.1133 9.91211-64.6973 10.3027-63.8672C10.6934-62.9395 11.4746-62.3047 12.4512-62.3047ZM73.9746-62.3047C74.9023-62.3047 75.6836-62.9395 76.123-63.8672C76.5137-64.6973 76.709-66.1133 76.709-67.4316C76.709-73.2422 72.0703-77.8809 66.1621-77.8809C63.916-77.8809 61.4258-77.2461 59.9609-75.9277C59.2773-75.293 58.9355-74.6582 58.9355-73.877C58.9355-73.2422 59.2285-72.6562 59.8633-72.168L72.4609-62.8418C72.998-62.4023 73.3887-62.3047 73.9746-62.3047ZM11.6699-0.0976562C12.6953 0.927734 14.3066 0.927734 15.3809-0.0976562L21.4844-6.25C27.5391-1.70898 35.0586 0.976562 43.2129 0.976562C51.3184 0.976562 58.8379-1.70898 64.8926-6.25L71.0449-0.0976562C72.0703 0.927734 73.7305 0.927734 74.7559-0.0976562C75.7324-1.07422 75.7324-2.73438 74.707-3.71094L68.7988-9.57031C75.4395-16.1621 79.541-25.293 79.541-35.4004C79.541-55.4688 63.2812-71.7773 43.2129-71.7773C23.1445-71.7773 6.83594-55.4688 6.83594-35.4004C6.83594-25.293 10.9375-16.1621 17.5781-9.57031L11.6699-3.71094C10.6445-2.73438 10.6445-1.07422 11.6699-0.0976562ZM43.2129-4.78516C26.2695-4.78516 12.5977-18.457 12.5977-35.4004C12.5977-52.2949 26.2695-65.9668 43.2129-65.9668C60.0586-65.9668 73.7793-52.2949 73.7793-35.4004C73.7793-18.457 60.0586-4.78516 43.2129-4.78516ZM25.1953-31.3965L43.1641-31.3965C44.5312-31.3965 45.5566-32.4707 45.5566-33.7891L45.5566-57.7148C45.5566-59.0332 44.5312-60.0586 43.1641-60.0586C41.8457-60.0586 40.8203-59.0332 40.8203-57.7148L40.8203-36.1328L25.1953-36.1328C23.8281-36.1328 22.8027-35.1074 22.8027-33.7891C22.8027-32.4707 23.8281-31.3965 25.1953-31.3965Z"/>
  </g>
  <g id="Thin-S" transform="matrix(1 0 0 1 813.844 696)">
   <path d="M13.7207-62.793C14.2578-62.793 14.6484-62.8906 15.1855-63.2812L27.0996-71.6797C27.7344-72.168 28.0273-72.6562 28.0273-73.291C28.0273-74.0723 27.6855-74.6582 26.9531-75.293C25.5371-76.5625 23.291-77.1484 21.0449-77.1484C15.4297-77.1484 11.1816-72.8516 11.1816-67.4316C11.1816-66.3574 11.3281-65.1367 11.7188-64.2578C12.0605-63.4277 12.7441-62.793 13.7207-62.793ZM71.4355-62.793C72.4121-62.793 73.0957-63.4277 73.4375-64.2578C73.8281-65.0879 73.9746-66.3574 73.9746-67.4316C73.9746-72.8516 69.7266-77.1484 64.1113-77.1484C61.8652-77.1484 59.6191-76.5625 58.2031-75.293C57.4707-74.6582 57.1289-74.0723 57.1289-73.291C57.1289-72.6562 57.4219-72.168 58.0566-71.6797L69.9707-63.2812C70.5078-62.8906 70.8984-62.793 71.4355-62.793ZM12.3535-0.585938C12.9883 0.0488281 13.9648 0.0488281 14.5996-0.585938L20.8984-6.93359C26.9531-2.34375 34.4238 0.390625 42.5781 0.390625C50.7324 0.390625 58.252-2.34375 64.2578-6.93359L70.5566-0.585938C71.1914 0.0488281 72.168 0.0488281 72.8027-0.585938C73.4375-1.17188 73.3887-2.14844 72.8027-2.7832L66.6016-8.88672C73.7793-15.4297 78.3203-24.9023 78.3203-35.3516C78.3203-55.0293 62.3047-71.0938 42.5781-71.0938C22.9004-71.0938 6.83594-55.0293 6.83594-35.3516C6.83594-24.9023 11.377-15.4785 18.5547-8.93555L12.3535-2.7832C11.7676-2.14844 11.7188-1.17188 12.3535-0.585938ZM42.5781-3.07617C24.8047-3.07617 10.3027-17.5293 10.3027-35.3516C10.3027-53.125 24.8047-67.5781 42.5781-67.5781C60.3516-67.5781 74.8047-53.125 74.8047-35.3516C74.8047-17.5293 60.3516-3.07617 42.5781-3.07617ZM22.8516-32.0801L42.5781-32.0801C43.457-32.0801 44.1406-32.7637 44.1406-33.6426L44.1406-59.668C44.1406-60.498 43.457-61.1328 42.5781-61.1328C41.748-61.1328 41.0645-60.498 41.0645-59.668L41.0645-35.1074L22.8516-35.1074C21.9727-35.1074 21.3379-34.4727 21.3379-33.6426C21.3379-32.7637 21.9727-32.0801 22.8516-32.0801Z"/>
  </g>
  <g id="Ultralight-S" transform="matrix(1 0 0 1 517.45 696)">
   <path d="M14.4043-63.0371C14.9414-63.0371 15.2832-63.1348 15.8203-63.5254L27.3926-71.4355C28.0273-71.875 28.3203-72.3633 28.3203-72.998C28.3203-73.7305 27.9785-74.3652 27.2461-74.9512C25.8301-76.2207 23.6816-76.7578 21.4844-76.7578C15.9668-76.7578 11.9141-72.6562 11.9141-67.4316C11.9141-66.4551 12.0605-65.332 12.4512-64.502C12.793-63.6719 13.3789-63.0371 14.4043-63.0371ZM70.1172-63.0371C71.1426-63.0371 71.7285-63.6719 72.0703-64.502C72.4121-65.332 72.6074-66.4551 72.6074-67.4316C72.6074-72.6562 68.5547-76.7578 63.0371-76.7578C60.8398-76.7578 58.6914-76.2207 57.2754-74.9512C56.543-74.3652 56.2012-73.7305 56.2012-72.998C56.2012-72.3633 56.4941-71.875 57.1289-71.4355L68.7012-63.5254C69.2383-63.1348 69.5801-63.0371 70.1172-63.0371ZM12.6953-0.830078C13.1348-0.390625 13.7695-0.390625 14.209-0.830078L20.6055-7.32422C26.6113-2.68555 34.1309 0.0976562 42.2363 0.0976562C50.3906 0.0976562 57.9102-2.63672 63.916-7.32422L70.3125-0.830078C70.752-0.390625 71.3867-0.390625 71.8262-0.830078C72.2656-1.26953 72.2168-1.85547 71.8262-2.24609L65.4297-8.59375C72.9492-15.0879 77.6855-24.6582 77.6855-35.3027C77.6855-54.7852 61.7676-70.752 42.2363-70.752C22.8027-70.752 6.83594-54.7852 6.83594-35.3027C6.83594-24.6582 11.5723-15.0879 19.0918-8.59375L12.6953-2.24609C12.3047-1.85547 12.2559-1.26953 12.6953-0.830078ZM42.2363-2.19727C24.0234-2.19727 9.13086-16.9922 9.13086-35.3027C9.13086-53.5645 24.0234-68.4082 42.2363-68.4082C60.498-68.4082 75.3418-53.5645 75.3418-35.3027C75.3418-16.9922 60.498-2.19727 42.2363-2.19727ZM21.6309-32.4219L42.2363-32.4219C42.9199-32.4219 43.3594-32.9102 43.3594-33.5449L43.3594-60.6445C43.3594-61.2305 42.9199-61.6699 42.2363-61.6699C41.6992-61.6699 41.2109-61.2305 41.2109-60.6445L41.2109-34.5703L21.6309-34.5703C20.9961-34.5703 20.5566-34.1309 20.5566-33.5449C20.5566-32.9102 20.9961-32.4219 21.6309-32.4219Z"/>
  </g>
 </g>
</svg>
